<svg xmlns="http://www.w3.org/2000/svg" xmlns:xlink="http://www.w3.org/1999/xlink" width="505" height="468" viewBox="0 0 505 468">
  <defs>
    <linearGradient id="linear-gradient" x1="0.5" x2="0.5" y2="1" gradientUnits="objectBoundingBox">
      <stop offset="0" stop-color="#fce7e1"/>
      <stop offset="1" stop-color="#fef8f6"/>
    </linearGradient>
  </defs>
  <g id="Grupo_1085259" data-name="Grupo 1085259" transform="translate(-915 -22740)">
    <rect id="Rectángulo_378324" data-name="Rectángulo 378324" width="505" height="468" transform="translate(915 22740)" fill="url(#linear-gradient)"/>
    <g id="svg17" transform="translate(928 22696.527)">
      <g id="Grupo_1081295" data-name="Grupo 1081295" transform="translate(43 254.437)">
        <path id="Trazado_722666" data-name="Trazado 722666" d="M43.428,281.9,43,307.681,275.565,441.507V415.833Z" transform="translate(-43 -236.649)" fill="#4f2115"/>
        <path id="Trazado_722667" data-name="Trazado 722667" d="M421.5,320.1v25.781L260.4,438.843V413.169Z" transform="translate(-27.835 -233.985)" fill="#5e2e1f"/>
        <path id="Trazado_722668" data-name="Trazado 722668" d="M43,239.6v57.339L275.565,430.765V373.426Z" transform="translate(-43 -239.6)" fill="#19a8f7"/>
        <path id="Trazado_722669" data-name="Trazado 722669" d="M421.5,277.8v57.339L260.4,428.1V370.762Z" transform="translate(-27.835 -236.935)" fill="#31c0ff"/>
        <path id="Trazado_722670" data-name="Trazado 722670" d="M43,278.3v15.939L275.565,428.066V412.233Z" transform="translate(-43 -236.901)" fill="#1c92f4"/>
        <path id="Trazado_722671" data-name="Trazado 722671" d="M421.5,316.4v16.046L260.4,425.408V409.362Z" transform="translate(-27.835 -234.243)" fill="#19a8f7" opacity="0.5"/>
      </g>
      <g id="Grupo_1081296" data-name="Grupo 1081296" transform="translate(43 161.368)">
        <path id="Trazado_722672" data-name="Trazado 722672" d="M204.1,152.6s83.869,48.032,104.943,60.227c25.781,14.87,92.641,53.488,107.617,62.046,10.7,6.1,19.042,11.018,19.9,11.446h0L275.458,379.281,43,245.669Z" transform="translate(-43 -152.6)" fill="#5ad4ff"/>
      </g>
      <g id="Grupo_1081297" data-name="Grupo 1081297" transform="translate(80.869 186.294)">
        <path id="Trazado_722673" data-name="Trazado 722673" d="M200.459,175.9s103.98,60.227,104.622,60.548h0l-121.952,70.39L78.4,246.29Z" transform="translate(-78.4 -175.9)" fill="#31c0ff"/>
      </g>
      <g id="Grupo_1081298" data-name="Grupo 1081298" transform="translate(90.069 168.429)">
        <path id="Trazado_722674" data-name="Trazado 722674" d="M93.7,230.611,136.49,219.7l44.823,60.869.321,14.335L94.021,244.946Z" transform="translate(-86.533 -154.98)" fill="#d4eaf4"/>
        <path id="Trazado_722675" data-name="Trazado 722675" d="M279.9,219.6l.321,14.335-104.3,60.976-.321-14.335Z" transform="translate(-80.82 -154.987)" fill="#fff"/>
        <path id="Trazado_722676" data-name="Trazado 722676" d="M198,174.088,238.973,162l46.641,61.618-104.3,60.976L136.49,223.725,93.7,234.636Z" transform="translate(-86.533 -159.005)" fill="#5e2e1f"/>
        <path id="Trazado_722677" data-name="Trazado 722677" d="M181.313,284.032l.107-2.567L93.7,231.4v2.567Z" transform="translate(-86.533 -154.164)" fill="#4f2115"/>
        <path id="Trazado_722678" data-name="Trazado 722678" d="M239.854,159.2l48.353,63.864-113.18,66.218L128.6,226.274Z" transform="translate(-84.098 -159.2)" fill="#ff5252"/>
        <path id="Trazado_722679" data-name="Trazado 722679" d="M87,237.506l44.5-11.232L242.756,159.2,200.18,171.716Z" transform="translate(-87 -159.2)" fill="#f23b3b"/>
        <path id="Trazado_722680" data-name="Trazado 722680" d="M131.5,221.9l46.427,63.009-.428,4.065L130.86,225,87,236.128v-3Z" transform="translate(-87 -154.826)" fill="#e22d2d"/>
        <path id="Trazado_722681" data-name="Trazado 722681" d="M239.854,159.2l1.5,1.926L130.1,228.413l-1.5-2.14Z" transform="translate(-84.098 -159.2)" fill="#ff7676"/>
        <path id="Trazado_722682" data-name="Trazado 722682" d="M130.714,256.755h2.139l-.107-25.353-2.247-3.1Z" transform="translate(-83.966 -154.38)" fill="#4f2115"/>
        <path id="Trazado_722683" data-name="Trazado 722683" d="M118.407,249.058h2.246l-.107-22.358-2.246.535Z" transform="translate(-84.817 -154.492)" fill="#4f2115"/>
        <path id="Trazado_722684" data-name="Trazado 722684" d="M143.507,262.588h2.247L145.646,249l-2.246-3.1Z" transform="translate(-83.066 -153.152)" fill="#4f2115"/>
        <path id="Trazado_722685" data-name="Trazado 722685" d="M285.208,218.9v3.637L171.6,289.183l.428-4.065Z" transform="translate(-81.099 -155.036)" fill="#f23b3b"/>
      </g>
      <g id="Grupo_1081302" data-name="Grupo 1081302" transform="translate(224.377 280.495)">
        <path id="Trazado_722686" data-name="Trazado 722686" d="M302.784,317.553c-.428-4.172-3.423-7.7-6.419-10.27-8.558-7.381-21.4-10.591-30.809-16.367-12.623-7.7-16.474-15.939-38.083-7.274-3.851,1.5-11.767,5.563-13.586,10.056-.642,1.6-3.53,4.707,1.926,9.307a7.5,7.5,0,0,1,2.246,2.247c.749,1.926-.321,3.744-.321,5.563-.107,3.744,3.744,6.2,6.632,7.916,3.958,2.353,8.344,3.744,12.3,5.777a25.261,25.261,0,0,1,5.67,3.851c1.819,1.819,4.493,8.665,16.153,14.549,4.6,2.246,14.014,4.065,20.539,0,2.781-1.712,14.014-1.5,16.581-3.53,3.1-2.46,5.884-4.6,4.6-8.879-.321-1.07-1.07-2.033-1.284-3.1-.535-3.637,1.177-3.316,2.567-5.135A5.728,5.728,0,0,0,302.784,317.553Z" transform="translate(-212.55 -262.845)" fill="#2ebfff"/>
        <path id="Trazado_722687" data-name="Trazado 722687" d="M286.241,319.117c-1.177-3.1,1.5-3.53,2.139-6.526,1.177-5.777-10.27-10.163-14.549-12.088-8.13-3.744-14.87-7.916-23.428-10.7-3.851-1.284-8.023-2.139-12.088-1.284-3.1.642-14.228,3-15.4,8.023-1.391,6.2,5.67,8.665,7.274,12.73,1.07,2.888.428,5.028,3,7.167,2.781,2.46,6.2,4.386,9.2,6.419,6.739,4.707,8.879,8.237,15.832,12.623,4.065,2.674,11.232,6.2,15.511,2.46,1.07-.963,1.07-3.316,3.209-5.242,1.391-1.177,4.279-.856,8.451-1.926,6.312-1.712,6.953-4.279,4.065-7.809C288.595,322.113,286.669,320.294,286.241,319.117Z" transform="translate(-211.84 -262.27)" fill="#19a8f7"/>
        <g id="Grupo_1081301" data-name="Grupo 1081301" transform="translate(16.895)">
          <g id="Grupo_1081299" data-name="Grupo 1081299">
            <path id="Trazado_722688" data-name="Trazado 722688" d="M262.021,293.8s5.349,2.888,7.7,6.526,4.921,8.023,5.884,9.628c.856,1.6,0,5.991,0,5.991l-4.493-2.46s1.177-2.139-.107-3.423a20.751,20.751,0,0,0-4.493-3.1c-4.065-2.353-9.414-8.344-9.414-8.344Z" transform="translate(-226.337 -261.878)" fill="#c1592b"/>
            <path id="Trazado_722689" data-name="Trazado 722689" d="M257.588,301.018a22.345,22.345,0,0,0,4.921-5.991c-2.247-2.246-2.46-5.884-2.46-7.6-.107-2.781,0-4.707-1.819-7.7a7.871,7.871,0,0,0-5.777-3.53l-2.353,9.2s2.781,8.344,4.493,11.981A14.026,14.026,0,0,0,257.588,301.018Z" transform="translate(-226.826 -263.105)" fill="#c1592b"/>
            <path id="Trazado_722690" data-name="Trazado 722690" d="M255.7,274.9a11.052,11.052,0,0,1,3.958,5.456c1.284,3.637,1.712,10.056,1.712,10.056s-4.707,2.14-7.274,2.46a5.832,5.832,0,0,1-4.493-1.712l.535-12.944Z" transform="translate(-226.861 -263.196)" fill="#7b528e"/>
            <path id="Trazado_722691" data-name="Trazado 722691" d="M254.613,281.232l-8.344-6.632s-11.66,2.567-15.19,11.018c-2.033,4.6-3,11.125-2.674,11.874a12.547,12.547,0,0,0,14.121,5.456c2.353-1.284,4.386-3.423,9.093-8.237C256.859,289.256,254.613,281.232,254.613,281.232Z" transform="translate(-228.343 -263.217)" fill="#8e63a5"/>
            <path id="Trazado_722692" data-name="Trazado 722692" d="M251.332,286.042a6.737,6.737,0,0,1-1.07,2.888c-1.6,2.246-4.279,1.391-5.777-.642-1.6-2.246-2.353-5.028-3.851-7.381-.214-.321-.428-.535-.535-.749l5.884-3.958,5.242,5.242s.321,1.177.642,2.674C251.653,284.758,251.546,285.4,251.332,286.042Z" transform="translate(-227.523 -263.105)" fill="#c1592b"/>
            <path id="Trazado_722693" data-name="Trazado 722693" d="M246.9,267.1a7.442,7.442,0,0,1,11.66,3.958c2.46,7.06-3.851,15.939-7.274,14.442-1.926-.856-5.884-3.851-7.06-7.488C242.944,273.729,244.763,268.7,246.9,267.1Z" transform="translate(-227.265 -263.843)" fill="#d87745"/>
            <path id="Trazado_722694" data-name="Trazado 722694" d="M247.616,277.268s-1.284-2.674-2.46-1.819c-.856.535-.963,2.567-.963,2.567a9.971,9.971,0,0,1-1.177-7.381c.535-2.674,3.851-7.167,8.451-6.632a8.468,8.468,0,0,1,7.7,9.414c-.749-2.354-3-3-5.884-2.246A7.879,7.879,0,0,0,247.616,277.268Z" transform="translate(-227.337 -263.959)" fill="#2e1117"/>
            <path id="Trazado_722695" data-name="Trazado 722695" d="M239.025,305.736c.963-1.6.642-6.312.749-7.7.214-2.46-.428-3.316,1.5-6.953,2.353-4.493-1.284-9.307-5.349-8.879-3.958.428-3.53,7.274-4.279,11.232-1.07,5.456-.535,13.265-.535,13.372C233.676,307.555,236.244,305.95,239.025,305.736Z" transform="translate(-228.16 -262.688)" fill="#d87745"/>
            <path id="Trazado_722696" data-name="Trazado 722696" d="M237.927,282.225c2.674,1.07,4.065,2.46,4.814,5.991.749,3.637-1.926,5.67-2.033,9.414a29.059,29.059,0,0,1-.321,4.6s-3.637,2.246-6.739.642c-3.209-1.6-3.744-3.744-3.744-3.744s-.428-6.739,1.177-11.874C232.578,282.225,235.573,281.155,237.927,282.225Z" transform="translate(-228.238 -262.711)" fill="#7b528e"/>
          </g>
          <g id="Grupo_1081300" data-name="Grupo 1081300" transform="translate(20.598 31.495)">
            <path id="Trazado_722697" data-name="Trazado 722697" d="M277.969,314.823c-.963-1.712-2.674-2.888-3.744-4.814-.749-1.284-.856-2.781-3.209-3.209a3.9,3.9,0,0,0-2.567.749,8.058,8.058,0,0,1-2.888.963l-2.674,1.177a15.727,15.727,0,0,0-4.065,3.744c-1.07,1.391-2.033,2.781-1.819,3.637.428,1.926,3.744,5.349,7.06,7.488,2.033,1.284,2.46,2.353,4.921,2.246,2.674,0,4.707-.428,6.739-2.246,1.5-1.391,3.958-3.744,3.958-6.419C279.146,317.284,279.574,317.712,277.969,314.823Z" transform="translate(-246.945 -292.465)" fill="#f23b3b"/>
            <path id="Trazado_722698" data-name="Trazado 722698" d="M266.423,312.009a4.552,4.552,0,0,0,.214-1.177,3.73,3.73,0,0,0-1.6-2.46h0c-2.353-1.819-5.349-4.172-5.349-4.172l-5.884,2.674s1.712,3,3,3.53a5.444,5.444,0,0,1,2.781,2.46s3.958.963,5.67.107A3.345,3.345,0,0,0,266.423,312.009Z" transform="translate(-247.166 -292.647)" fill="#ffad97"/>
            <path id="Trazado_722699" data-name="Trazado 722699" d="M250.513,306.674a5.684,5.684,0,0,1,5.777-7.274c3.423,0,4.386.107,6.1,2.14,1.07,1.177,2.567,4.279,1.712,5.991-.642,1.391-3.744,3.958-6.739,3.744C254.15,311.167,251.155,308.6,250.513,306.674Z" transform="translate(-247.409 -292.982)" fill="#ffc5b3"/>
            <path id="Trazado_722700" data-name="Trazado 722700" d="M253.056,301.958a17.246,17.246,0,0,1,1.712,3.316c.321,1.177.535,2.46.535,2.46l-1.5-.749a11.391,11.391,0,0,0,1.819,3.316c.428.535,1.926.963,3.209,1.284a8.2,8.2,0,0,1,.535,1.819,3.806,3.806,0,0,0-2.033-.749,11.446,11.446,0,0,1-5.349-1.391,9.268,9.268,0,0,1-4.172-5.67c-.749-3.53.642-5.563,1.284-6.2,3.209-3.53,4.386-3.316,5.67-4.172a2.985,2.985,0,0,0,1.6-1.819,4.186,4.186,0,0,1,.107,2.353,4.936,4.936,0,0,1,2.567-.214c1.284.107,1.6.749,1.6.749l-1.177.321a10.008,10.008,0,0,1,2.567,1.926c.963,1.177.428,3.209.428,3.209s-2.888-1.712-4.065-1.6A5.717,5.717,0,0,1,253.056,301.958Z" transform="translate(-247.598 -293.4)" fill="#2e1117"/>
            <path id="Trazado_722701" data-name="Trazado 722701" d="M270.749,333.911c1.926-1.284.856-4.065-.428-5.349v-.107l-1.177-1.177c-5.563-4.493-3-11.874-10.8-13.479-1.6.963-3.1,3.53-1.391,6.739,2.14,3.851,3,8.558,10.591,13.051A3.427,3.427,0,0,0,270.749,333.911Z" transform="translate(-246.999 -291.977)" fill="#ffc5b3"/>
            <path id="Trazado_722702" data-name="Trazado 722702" d="M266.409,308.3s2.033,1.5.856,3.316c-.642,1.07-1.07,1.391-4.172,2.033a15.888,15.888,0,0,1-4.493-.214l.749-.856s4.172.214,5.777-1.177c1.712-1.284.107-2.888.107-2.888Z" transform="translate(-246.831 -292.361)" fill="#e22d2d"/>
            <path id="Trazado_722703" data-name="Trazado 722703" d="M258.505,313.6a14.957,14.957,0,0,1,4.065,1.391c.963.642,2.567,3.637,2.888,5.028a38.48,38.48,0,0,0,2.354,5.242,5.82,5.82,0,0,0-3.637,1.07,9.7,9.7,0,0,0-3.423,3.637s-4.279-5.456-5.135-8.023a9.409,9.409,0,0,1,.963-6.632C257.221,314.67,258.505,313.6,258.505,313.6Z" transform="translate(-247.057 -291.992)" fill="#e22d2d"/>
          </g>
          <path id="Trazado_722704" data-name="Trazado 722704" d="M261.167,315.188c-2.888-1.177-5.991.107-9.093-1.6-.642-.321-5.563-5.991-7.488-7.381-2.674-2.033-5.242-2.247-6.312-3.1a16.7,16.7,0,0,1-7.274.535c.107,1.6,0,3,1.391,3.958,1.819,1.391,3.53,3.1,5.242,3.744,4.921,1.926,10.911,5.991,14.763,7.381,2.888,1.07,5.884,3.1,9.521,3.1C268.227,321.928,266.3,317.221,261.167,315.188Z" transform="translate(-228.158 -261.229)" fill="#d87745"/>
          <path id="Trazado_722705" data-name="Trazado 722705" d="M271.616,306.7l-.214,4.065c-.214,1.926.856,2.674,1.712-.214C274.29,306.166,271.616,306.7,271.616,306.7Z" transform="translate(-225.342 -260.979)" fill="#c1592b"/>
        </g>
      </g>
      <g id="Grupo_1081307" data-name="Grupo 1081307" transform="translate(303.834 237.263)">
        <path id="Trazado_722706" data-name="Trazado 722706" d="M320.646,255.817c-4.921-.428-13.265-.749-17.33,2.781-1.819,1.6-2.354,4.279-1.07,5.991.856,1.712,1.07,2.246.428,4.279a12.886,12.886,0,0,0-.856,2.888,6.553,6.553,0,0,0,1.6,4.6c3.209,3.851,10.27,5.456,14.87,6.526,5.349,1.177,10.8.963,15.725-1.6a7.523,7.523,0,0,0,3.744-3.53c.535-1.177.428-2.567.856-3.851a42.47,42.47,0,0,1,1.819-3.851C344.394,259.882,327.171,256.352,320.646,255.817Z" transform="translate(-285.8 -221.313)" fill="#2ebfff"/>
        <path id="Trazado_722707" data-name="Trazado 722707" d="M321.3,258.312c-3.53-.321-9.628-.535-12.516,2.033-1.284,1.07-1.712,3.1-.749,4.279a3.45,3.45,0,0,1,.321,3.1,12.5,12.5,0,0,0-.642,2.139,4.4,4.4,0,0,0,1.177,3.316c2.353,2.781,7.381,3.958,10.7,4.707a16,16,0,0,0,11.339-1.177,5.218,5.218,0,0,0,2.674-2.567,12.766,12.766,0,0,0,.535-2.781c.321-.963.963-1.819,1.284-2.781C338.522,261.308,326.006,258.74,321.3,258.312Z" transform="translate(-285.384 -221.134)" fill="#19a8f7"/>
        <g id="Grupo_1081305" data-name="Grupo 1081305" transform="translate(19.884)">
          <path id="Trazado_722708" data-name="Trazado 722708" d="M326.084,273.144c3.637-.749,5.67-1.391,3.53-6.526-.963-2.46-6.312-4.707-7.488-5.563-1.177-.749-9.521-5.456-9.521-5.456a9.164,9.164,0,0,1,.535,7.381c-.321.963-2.033,1.07-2.139,2.888C311.642,271.646,321.377,274.214,326.084,273.144Z" transform="translate(-305.025 -221.31)" fill="#d87745"/>
          <path id="Trazado_722709" data-name="Trazado 722709" d="M313.85,263.506a45.14,45.14,0,0,1-2.674-14.977c0-5.67-1.6-15.3-2.674-16.8s-4.6-6.846-2.354-7.916,3.958,1.284,4.707,2.46,1.391,1.5,1.712.428c.428-1.712,1.391-1.177,1.391-1.177s-.107,1.819-.107,2.888a14.3,14.3,0,0,1,0,3.744c-.321,1.391-1.391,2.033-.749,4.172s4.707,17.223,4.493,20.753C317.38,260.724,313.85,263.506,313.85,263.506Z" transform="translate(-305.414 -223.546)" fill="#d87745"/>
          <path id="Trazado_722710" data-name="Trazado 722710" d="M315.659,250c-.642,1.391-1.5,6.2-.321,8.772,1.5,3.316,3.637,2.781,3.637,2.781l-1.819-10.591Z" transform="translate(-304.763 -221.701)" fill="#c1592b"/>
          <path id="Trazado_722711" data-name="Trazado 722711" d="M327.588,264.184a12.032,12.032,0,0,0-4.279,3.637c-1.177,2.033-1.07,5.456-1.07,5.456a21.328,21.328,0,0,1-6.953-1.391c-2.781-1.284-4.386-5.242-4.386-6.1.107-3.637,6.739-7.7,7.809-7.488C319.886,258.3,327.588,264.184,327.588,264.184Z" transform="translate(-305.031 -221.122)" fill="#76bf00"/>
          <g id="Grupo_1081304" data-name="Grupo 1081304" transform="translate(11.197 24.701)">
            <g id="Grupo_1081303" data-name="Grupo 1081303">
              <path id="Trazado_722712" data-name="Trazado 722712" d="M319.162,259.267l-2.353,3.744s-1.284,5.349,4.065,3.316c3.209-1.177,4.065-3.1,4.065-3.1l.535-6.526Z" transform="translate(-315.826 -245.934)" fill="#c1592b"/>
              <path id="Trazado_722713" data-name="Trazado 722713" d="M327.99,249.486a6.051,6.051,0,0,0-9.949-.428c-3.958,4.6-1.819,13.051,1.177,12.944,1.712-.107,5.563-1.07,7.488-3.53C329.059,255.69,329.166,251.411,327.99,249.486Z" transform="translate(-315.881 -246.636)" fill="#d87745"/>
            </g>
          </g>
          <path id="Trazado_722714" data-name="Trazado 722714" d="M328.793,258.154c1.712-.214,1.926-1.819.642-3.209,2.033-.535,2.247-2.781.321-3.53,1.819-1.5.428-3.637-1.819-3.209a1.468,1.468,0,0,0-.428-1.391,1.779,1.779,0,0,0-2.246.107c-.214-1.07-.642-1.712-1.284-1.819-1.177-.321-1.819.963-2.353,1.284-.535-.642-2.033-1.5-3-.321a1.832,1.832,0,0,0-.428,1.712c-1.391-.535-3.1-.428-3.1,1.5-.107,1.926,2.033,2.888,3.851,2.888-.428,1.819,1.07,3.209,3,3.316-.535,1.5-.428,3.209,1.07,4.065a1.809,1.809,0,0,0,1.926.107c.642,1.5,2.033,2.781,3.53,1.6A2.129,2.129,0,0,0,328.793,258.154Z" transform="translate(-304.739 -222.046)" fill="#2e1117"/>
          <path id="Trazado_722715" data-name="Trazado 722715" d="M325.007,262.256l.428.428a10.461,10.461,0,0,1-5.028,4.065c-3.1.963-4.707-.107-4.707-2.246,0-1.819,1.926-3.1,1.926-3.1s-1.926,3.423.642,4.065C320.942,266,325.007,262.256,325.007,262.256Z" transform="translate(-304.697 -220.905)" fill="#fff"/>
        </g>
        <g id="Grupo_1081306" data-name="Grupo 1081306" transform="translate(0 7.333)">
          <path id="Trazado_722716" data-name="Trazado 722716" d="M305.733,254.773s-4.707-15.3-10.163-16.367,3.316,8.451,3.316,8.451-10.377-7.809-11.981-4.814C285.408,245.038,305.733,254.773,305.733,254.773Z" transform="translate(-286.826 -229.848)" fill="#2ebfff"/>
          <path id="Trazado_722717" data-name="Trazado 722717" d="M338.6,270.864s9.842-12.623,15.3-11.66-6.1,6.739-6.1,6.739,12.409-3.637,12.837-.321S338.6,270.864,338.6,270.864Z" transform="translate(-283.215 -228.395)" fill="#2ebfff"/>
          <path id="Trazado_722718" data-name="Trazado 722718" d="M303.8,234.679s-7.488-5.884-10.163-3.851C290.855,232.967,299.2,234.358,303.8,234.679Z" transform="translate(-286.39 -230.401)" fill="#2ebfff"/>
          <path id="Trazado_722719" data-name="Trazado 722719" d="M348.9,253.095c2.46.428,9.307.107,10.8-3.1C361.951,245.5,350.719,253.095,348.9,253.095Z" transform="translate(-282.496 -229.133)" fill="#2ebfff"/>
          <path id="Trazado_722720" data-name="Trazado 722720" d="M341.8,242.332s6.1-6.2,4.921-9.949-3.209,1.712-3.851,4.065A56.049,56.049,0,0,0,341.8,242.332Z" transform="translate(-282.992 -230.352)" fill="#2ebfff"/>
        </g>
      </g>
      <g id="Grupo_1081311" data-name="Grupo 1081311" transform="translate(224.731 173.026)">
        <g id="Grupo_1081310" data-name="Grupo 1081310">
          <path id="Trazado_722721" data-name="Trazado 722721" d="M246.452,213.182l-3,8.665a24.3,24.3,0,0,0-5.67-7.916c-3.958-3.637-3.1-7.809-6.2-8.13-3.209-.214-3.53,2.888-3.851,4.707s-3.851,4.386-3.53,7.488c.321,3,2.353,3.958,4.172,4.386s2.14-1.391,1.926-2.781,1.391-4.6,1.391-4.6a104.025,104.025,0,0,0,5.67,10.056c3.423,5.349,5.67,9.2,11.018,8.023,3.744-.856,4.386-2.46,6.632-7.916,2.139-5.456-2.033-13.907-2.033-13.907Z" transform="translate(-212.093 -160.548)" fill="#ffad97"/>
          <path id="Trazado_722722" data-name="Trazado 722722" d="M235.152,221.082l-3,8.665a24.3,24.3,0,0,0-5.67-7.916c-3.958-3.637-3.1-7.809-6.2-8.13-3.209-.214-3.53,2.888-3.851,4.707s-3.851,4.386-3.53,7.488c.321,3,2.353,3.958,4.172,4.386s2.139-1.391,1.926-2.781,1.391-4.6,1.391-4.6a104.024,104.024,0,0,0,5.67,10.056c3.423,5.349,5.67,9.2,11.018,8.023,3.744-.856,4.386-2.46,6.632-7.916a37,37,0,0,0,2.46-9.628Z" transform="translate(-212.881 -159.997)" fill="#ffc5b3"/>
          <path id="Trazado_722723" data-name="Trazado 722723" d="M257.6,178.9s2.888-.642,5.563,3,2.46,6.632,5.349,10.484h0c2.567,3.1,9.307,8.772,11.874,11.874,1.712,2.139,4.493,7.167,7.06,10.484,1.6,2.033,3.1,2.567,4.386,3.958,3.209,3.53,4.921,5.67,3,7.274s-5.349-1.926-6.2-3.209-2.246-1.819-2.246-1.177a8.911,8.911,0,0,1-.321,2.353c-.321.428-.535.214-.963-.749a19.888,19.888,0,0,1-.535-4.493c.107-.642-4.921-5.563-7.809-8.344-2.781-2.674-4.814-4.921-7.381-6.953-.535-.428-2.033-1.926-3.744-3.637h0a18.011,18.011,0,0,1-3.316-3.53,38.813,38.813,0,0,1-3.1-3.53C258.774,192.489,253.639,179.331,257.6,178.9Z" transform="translate(-209.866 -162.426)" fill="#ffc5b3"/>
          <path id="Trazado_722724" data-name="Trazado 722724" d="M259.635,180.84c-.856.214-9.628-2.139-9.628-2.139a64.128,64.128,0,0,0-9.842,5.991c-.749.642-2.567,3.423-3.958,7.488-1.284,3.851-2.033,10.484-3.209,14.228a10.768,10.768,0,0,1-1.5,3.316c4.921,8.237,13.693,7.7,21.181,3.851a15.224,15.224,0,0,1,.963-6.1,17.122,17.122,0,0,1,4.279-6.846,14.46,14.46,0,0,0,3.53-6.526C262.523,190.574,262.416,184.156,259.635,180.84Z" transform="translate(-211.582 -162.437)" fill="#ffc5b3"/>
          <path id="Trazado_722725" data-name="Trazado 722725" d="M238.791,192.1s-2.567,2.888-2.888,5.777c-.214,2.247.642,6.953.749,10.377.107,3.316.749,11.125.749,11.125l1.712-.107s-1.284-8.344-1.391-10.7a72.307,72.307,0,0,1,.214-10.8C238.149,195.523,238.791,192.1,238.791,192.1Z" transform="translate(-211.277 -161.503)" fill="#ffad97"/>
          <path id="Trazado_722726" data-name="Trazado 722726" d="M246.84,214.053c.107-1.284-.107-7.167.107-9.093.321-2.674,1.177-5.349,1.5-7.488a11.3,11.3,0,0,0-.428-4.172s-.428,3.1-.963,5.777-1.712,8.13-1.712,10.27c0,1.177-.749,4.6-.642,5.349C245.129,214.053,246.519,214.481,246.84,214.053Z" transform="translate(-210.662 -161.419)" fill="#ffad97"/>
          <g id="Grupo_1081308" data-name="Grupo 1081308" transform="translate(14.997 46.537)">
            <path id="Trazado_722727" data-name="Trazado 722727" d="M252.651,212s-8.13,1.6-9.949,1.6h-3.1l4.6,16.26s4.065,1.177,6.1.749c2.567-.535,5.028-1.6,5.563-3.209C257.037,223.339,254.791,217.242,252.651,212Z" transform="translate(-226.014 -206.651)" fill="#e22929"/>
            <path id="Trazado_722728" data-name="Trazado 722728" d="M231.5,208s-4.6,5.135-4.6,10.377c0,4.172,2.46,13.907,2.46,13.907s.321,4.707,3.958,5.028,3.53,1.6,7.06.856c2.567-.535,4.814-3.958,4.814-3.958s-.749-9.2-.963-11.446c3.423-2.781,3.1-8.451,3.1-8.451S236.1,215.06,231.5,208Z" transform="translate(-226.9 -206.93)" fill="#f43838"/>
            <path id="Trazado_722729" data-name="Trazado 722729" d="M237.463,212.7a17.225,17.225,0,0,1-3.637,5.777c-2.246,2.033-6.526,2.781-6.526,2.781l.107.963a10.01,10.01,0,0,0,6.953-2.353,14.491,14.491,0,0,0,4.493-6.632Z" transform="translate(-226.872 -206.602)" fill="#2e1117"/>
            <path id="Trazado_722730" data-name="Trazado 722730" d="M228,225.691s5.028-.214,8.558-2.888,4.065-7.7,4.065-7.7h1.5s0,7.916-5.456,10.8c-5.349,2.888-8.023,2.674-8.023,2.674Z" transform="translate(-226.823 -206.435)" fill="#2e1117"/>
            <path id="Trazado_722731" data-name="Trazado 722731" d="M232.026,207l-1.926,2.781s4.921,6.525,12.3,6.525a15.64,15.64,0,0,0,11.232-4.279l-.856-2.353a19.958,19.958,0,0,1-8.986,3.423C239.086,213.312,232.026,207,232.026,207Z" transform="translate(-226.677 -207)" fill="#2e1117"/>
          </g>
          <g id="Grupo_1081309" data-name="Grupo 1081309" transform="translate(35.256)">
            <path id="Trazado_722732" data-name="Trazado 722732" d="M256.221,181.649l-6.632-5.349a24.86,24.86,0,0,1-2.888,5.991c.107,1.712,2.888,4.279,5.349,6.2,3.1,2.46,4.707-.321,4.707-2.033C256.756,185.072,256.221,181.649,256.221,181.649Z" transform="translate(-245.778 -162.605)" fill="#ffad97"/>
            <path id="Trazado_722733" data-name="Trazado 722733" d="M250.338,167.233c-1.819,1.819-3,6.953-1.284,10.8,1.6,3.423,5.884,5.884,7.809,6.419,3.53,1.07,8.558-8.344,5.242-14.87A7.292,7.292,0,0,0,250.338,167.233Z" transform="translate(-245.672 -163.38)" fill="#ffc5b3"/>
            <path id="Trazado_722734" data-name="Trazado 722734" d="M254.462,163.5a7.216,7.216,0,0,0-5.028,2.567c-3.744.321-3.958,5.563-3.316,7.7,1.284,4.065,3.209,4.493,3.209,4.493a6.605,6.605,0,0,1,.321-3c.535-.749,1.712-.749,2.033.749a2.474,2.474,0,0,0,.963.214l-.107-2.781a4.982,4.982,0,0,0,4.493.214,4.65,4.65,0,0,1,5.135.856,5.729,5.729,0,0,0,.749-2.781c1.5-.856,3-1.5,2.888-2.246a3.808,3.808,0,0,1-3.316-.749,9.425,9.425,0,0,0,2.139-1.926C261.951,166.816,256.923,163.393,254.462,163.5Z" transform="translate(-245.838 -163.498)" fill="#2e1117"/>
          </g>
          <path id="Trazado_722735" data-name="Trazado 722735" d="M256.786,198.8a23.681,23.681,0,0,1-2.674,1.6,5.8,5.8,0,0,1-1.712.428s.214.428,1.07.428C254.967,201.367,256.251,199.763,256.786,198.8Z" transform="translate(-210.124 -161.035)" fill="#ffad97"/>
          <path id="Trazado_722736" data-name="Trazado 722736" d="M253.8,191.2s-.107,2.781-.321,4.279A47.968,47.968,0,0,1,252.2,200.4a20.575,20.575,0,0,0,1.819-4.707A9.441,9.441,0,0,0,253.8,191.2Z" transform="translate(-210.138 -161.565)" fill="#ffad97"/>
        </g>
        <path id="Trazado_722737" data-name="Trazado 722737" d="M247.339,246.009c.535-1.6.321-3.316-.214-6.525-.107-.642,1.6.107,3-.749.749-.428-.963-.642-2.353-1.391s-1.6-2.888-1.712-4.172c-.214-4.065.535-16.688-.107-21.181-.428-3.316,2.674-16.153,2.674-18.186-.107-5.135-1.712-8.13-4.386-7.7-3.851.642-5.563,4.707-6.312,10.377h0v.107a49.5,49.5,0,0,0-.321,5.777h0a94.852,94.852,0,0,0,.107,9.628c.428,4.814,4.065,19.47,4.493,21.93.321,1.819-.856,3.423-1.177,5.135-.535,3.423.107,5.242,1.391,6.739C244.879,248.362,246.911,247.079,247.339,246.009Z" transform="translate(-211.161 -161.924)" fill="#ffc5b3"/>
      </g>
      <g id="Grupo_1081313" data-name="Grupo 1081313" transform="translate(304.998 108.603)">
        <path id="Trazado_722741" data-name="Trazado 722741" d="M368.031,160.106c-1.07,3.1-4.921,4.6-8.451,3.637a7.824,7.824,0,0,1-4.065-2.567,3.458,3.458,0,0,1-3.1.428c-.107,0-.214-.107-.321-.214a4.557,4.557,0,0,1-6.526.963,9.586,9.586,0,0,1-2.781-3.316,8.106,8.106,0,0,1-11.125,1.926,8.517,8.517,0,0,1-2.674-3.423,4.182,4.182,0,0,1-2.567-1.07,8.628,8.628,0,0,1-1.284-1.5c-2.247,1.177-6.1-.214-7.7-1.819a8.787,8.787,0,0,1-1.712-2.674c-3.316.749-6.739-.963-8.772-3.958a10.693,10.693,0,0,1-.856-1.5,3.617,3.617,0,0,1-3-1.391,7.642,7.642,0,0,1-.856-1.6c-2.674.107-5.242-2.46-5.884-5.135a8.465,8.465,0,0,1,.214-4.279,7.134,7.134,0,0,1-4.6-3.316l.321-.321c-1.391-1.712-2.033-3.744-.642-5.884a8.355,8.355,0,0,1,4.386-3.316c-2.567-3.851-3.209-8.344,1.07-11.767a11.123,11.123,0,0,1,9.842-2.353c1.5-3.53,7.916-2.888,11.874.321a6.06,6.06,0,0,1,3.958-2.567c2.781-.535,5.242.856,7.167,2.781,4.814-2.781,13.693,2.353,14.977,7.488,3.1-.963,7.274.749,8.023,3.53a16.628,16.628,0,0,1,13.372,5.67,7.139,7.139,0,0,1,1.177,5.884,8.588,8.588,0,0,1,6.1,2.781,6.186,6.186,0,0,1,1.07,6.525c4.707,1.712,8.558,5.456,7.7,11.125a9.407,9.407,0,0,1-5.028,6.419,7.25,7.25,0,0,1,1.391,2.888,10.285,10.285,0,0,1-5.456,2.781A11.735,11.735,0,0,1,368.031,160.106Z" transform="translate(-287.707 -103.276)" fill="#b3efff"/>
        <path id="Trazado_722742" data-name="Trazado 722742" d="M378.935,161.4c-1.819,3.958-5.67,4.707-8.879,3.423-1.6,7.916-14.549,9.949-19.79,3.209a4.625,4.625,0,0,1-2.888,1.391c-3.423.428-5.349-1.819-6.419-4.6-4.6,3.423-12.409,2.14-17.009-1.07a12.111,12.111,0,0,1-3.423-3.851c-4.172.963-9.735.428-11.981-.535-4.065-1.819-8.451-6.953-8.879-11.874a15.953,15.953,0,0,1-9.2-4.172,10.134,10.134,0,0,1-.749-12.516,13.9,13.9,0,0,1,3-3.209,7.521,7.521,0,0,0,4.6,3.316,8.423,8.423,0,0,0-.214,4.279c.642,2.674,3.1,5.242,5.884,5.135a5.67,5.67,0,0,0,.856,1.6,3.034,3.034,0,0,0,3,1.391,6.822,6.822,0,0,0,.856,1.5c2.033,3,5.456,4.814,8.772,3.958a6.4,6.4,0,0,0,1.712,2.674c1.712,1.712,5.456,3,7.7,1.819a5.629,5.629,0,0,0,1.284,1.5,4.917,4.917,0,0,0,2.567,1.07,8.517,8.517,0,0,0,2.674,3.423,8.088,8.088,0,0,0,11.125-1.926,7.744,7.744,0,0,0,2.781,3.316,4.557,4.557,0,0,0,6.525-.963c.107,0,.214.107.321.214a3.759,3.759,0,0,0,3.1-.428,9.1,9.1,0,0,0,4.065,2.567c3.53.963,7.381-.535,8.451-3.637a9.909,9.909,0,0,0,5.563,1.177,10.285,10.285,0,0,0,5.456-2.781A14.49,14.49,0,0,1,378.935,161.4Z" transform="translate(-287.914 -101.579)" fill="#b3efff"/>
        <path id="Trazado_722743" data-name="Trazado 722743" d="M378.935,161.4c-1.819,3.958-5.67,4.707-8.879,3.423-1.6,7.916-14.549,9.949-19.79,3.209a4.625,4.625,0,0,1-2.888,1.391c-3.423.428-5.349-1.819-6.419-4.6-4.6,3.423-12.409,2.14-17.009-1.07a12.111,12.111,0,0,1-3.423-3.851c-4.172.963-9.735.428-11.981-.535-4.065-1.819-8.451-6.953-8.879-11.874a15.953,15.953,0,0,1-9.2-4.172,10.134,10.134,0,0,1-.749-12.516,13.9,13.9,0,0,1,3-3.209,7.521,7.521,0,0,0,4.6,3.316,8.423,8.423,0,0,0-.214,4.279c.642,2.674,3.1,5.242,5.884,5.135a5.67,5.67,0,0,0,.856,1.6,3.034,3.034,0,0,0,3,1.391,6.822,6.822,0,0,0,.856,1.5c2.033,3,5.456,4.814,8.772,3.958a6.4,6.4,0,0,0,1.712,2.674c1.712,1.712,5.456,3,7.7,1.819a5.629,5.629,0,0,0,1.284,1.5,4.917,4.917,0,0,0,2.567,1.07,8.517,8.517,0,0,0,2.674,3.423,8.088,8.088,0,0,0,11.125-1.926,7.744,7.744,0,0,0,2.781,3.316,4.557,4.557,0,0,0,6.525-.963c.107,0,.214.107.321.214a3.759,3.759,0,0,0,3.1-.428,9.1,9.1,0,0,0,4.065,2.567c3.53.963,7.381-.535,8.451-3.637a9.909,9.909,0,0,0,5.563,1.177,10.285,10.285,0,0,0,5.456-2.781A14.49,14.49,0,0,1,378.935,161.4Z" transform="translate(-287.914 -101.579)" fill="#5fd6ff" opacity="0.5"/>
      </g>
      <g id="Grupo_1081315" data-name="Grupo 1081315" transform="translate(67.913 121.975)">
        <path id="Trazado_722747" data-name="Trazado 722747" d="M80.743,172.606c1.07,3.1,4.921,4.6,8.451,3.637a7.824,7.824,0,0,0,4.065-2.567,3.458,3.458,0,0,0,3.1.428c.107,0,.214-.107.321-.214a4.557,4.557,0,0,0,6.525.963,9.586,9.586,0,0,0,2.781-3.316,8.106,8.106,0,0,0,11.125,1.926,8.517,8.517,0,0,0,2.674-3.423,4.182,4.182,0,0,0,2.567-1.07,8.626,8.626,0,0,0,1.284-1.5c2.246,1.177,6.1-.214,7.7-1.819a8.787,8.787,0,0,0,1.712-2.674c3.316.749,6.739-.963,8.772-3.958a10.69,10.69,0,0,0,.856-1.5,3.617,3.617,0,0,0,3-1.391,7.641,7.641,0,0,0,.856-1.6c2.674.107,5.242-2.46,5.884-5.135a8.466,8.466,0,0,0-.214-4.279,7.134,7.134,0,0,0,4.6-3.316l-.321-.321c1.391-1.712,2.033-3.744.642-5.884a8.941,8.941,0,0,0-4.386-3.316c2.567-3.851,3.209-8.344-1.07-11.767a11.122,11.122,0,0,0-9.842-2.353c-1.5-3.53-7.916-2.888-11.874.321a6.06,6.06,0,0,0-3.958-2.567c-2.781-.535-5.242.856-7.167,2.781-4.814-2.781-13.693,2.353-14.977,7.488-3.1-.963-7.274.749-8.023,3.53a16.628,16.628,0,0,0-13.372,5.67,7.139,7.139,0,0,0-1.177,5.884,8.588,8.588,0,0,0-6.1,2.781,6.186,6.186,0,0,0-1.07,6.525c-4.707,1.712-8.558,5.456-7.7,11.125a9.408,9.408,0,0,0,5.028,6.419A7.251,7.251,0,0,0,70.045,171a10.285,10.285,0,0,0,5.456,2.781A9.418,9.418,0,0,0,80.743,172.606Z" transform="translate(-66.288 -115.776)" fill="#ccf5ff"/>
        <path id="Trazado_722748" data-name="Trazado 722748" d="M69.856,174c1.819,3.958,5.67,4.707,8.879,3.423,1.6,7.916,14.549,9.949,19.79,3.209a4.625,4.625,0,0,0,2.888,1.391c3.423.428,5.349-1.819,6.419-4.6,4.6,3.423,12.409,2.14,17.009-1.07a12.11,12.11,0,0,0,3.423-3.851c4.172.963,9.735.428,11.981-.535,4.065-1.819,8.451-6.953,8.879-11.874a15.953,15.953,0,0,0,9.2-4.172,10.134,10.134,0,0,0,.749-12.516,13.9,13.9,0,0,0-3-3.209,7.521,7.521,0,0,1-4.6,3.316,8.423,8.423,0,0,1,.214,4.279c-.642,2.674-3.1,5.242-5.884,5.135a5.67,5.67,0,0,1-.856,1.6,3.034,3.034,0,0,1-3,1.391,6.82,6.82,0,0,1-.856,1.5c-2.033,3-5.456,4.814-8.772,3.958a6.4,6.4,0,0,1-1.712,2.674c-1.712,1.712-5.456,3-7.7,1.819a5.629,5.629,0,0,1-1.284,1.5,4.918,4.918,0,0,1-2.567,1.07,8.517,8.517,0,0,1-2.674,3.423,8.088,8.088,0,0,1-11.125-1.926,7.743,7.743,0,0,1-2.781,3.316,4.557,4.557,0,0,1-6.525-.963c-.107,0-.214.107-.321.214a3.759,3.759,0,0,1-3.1-.428,9.1,9.1,0,0,1-4.065,2.567c-3.53.963-7.381-.535-8.451-3.637a9.909,9.909,0,0,1-5.563,1.177A10.284,10.284,0,0,1,69,169.4,14.493,14.493,0,0,0,69.856,174Z" transform="translate(-66.099 -114.072)" fill="#b3efff"/>
      </g>
      <g id="Grupo_1081316" data-name="Grupo 1081316" transform="translate(202.994 285.387)">
        <path id="Trazado_722749" data-name="Trazado 722749" d="M264.126,278.019c2.674-2.246,6.1-3.851,8.986-6.1,2.781-2.246,6.633-4.707,10.27-2.567,2.781,1.712,2.46,4.172,1.926,6.632a9.658,9.658,0,0,0,2.354,6.312c1.5,1.712,4.065,3.209,5.135,5.242,1.284,2.567,0,5.135-2.888,5.456-2.246.214-4.065-1.284-5.884-2.354a45.961,45.961,0,0,0-11.66-4.707c-2.46-.642-10.484-.963-10.163-5.135C262.2,279.516,263.27,278.767,264.126,278.019Z" transform="translate(-187.705 -268.532)" fill="#b3efff" opacity="0.5"/>
        <path id="Trazado_722750" data-name="Trazado 722750" d="M318.588,295.458c1.6,0,3.637-.214,5.028.642,7.809,4.707-10.7,8.558-12.409,8.772-3.958.428-7.809-1.819-11.232-3.53-2.46-1.284-7.381-2.888-7.274-6.312.107-5.028,4.493-3.637,8.986-2.14A46.531,46.531,0,0,0,318.588,295.458Z" transform="translate(-185.577 -266.929)" fill="#b3efff" opacity="0.5"/>
        <path id="Trazado_722751" data-name="Trazado 722751" d="M349.617,281.25c3.423-3.209,8.13-1.819,12.409-2.781,4.065-1.6-.428-6.526,3.851-7.916,4.814-1.6,6.953-.749,10.27,2.033,2.781,2.247-.535,4.707-2.139,7.274-2.246,3.744-2.781,7.488-6.632,10.056a13.494,13.494,0,0,1-9.949,2.033c-2.888-.535-7.916-2.033-9.2-5.028A4.985,4.985,0,0,1,349.617,281.25Z" transform="translate(-181.732 -268.447)" fill="#b3efff" opacity="0.5"/>
        <path id="Trazado_722752" data-name="Trazado 722752" d="M196.133,295.577c2.353-1.6,5.67-1.712,7.6.535,2.567,2.781,1.07,6.739,1.6,10.163,1.391,2.674,3.53,4.493,5.777,6.632,1.07.963,2.246,1.926,2.46,3.423.321,2.888-2.353,4.386-4.707,4.707-4.172.535-6.953-1.5-9.628-4.493C194.742,311.623,188.538,300.6,196.133,295.577Z" transform="translate(-192.562 -266.728)" fill="#b3efff" opacity="0.5"/>
        <path id="Trazado_722753" data-name="Trazado 722753" d="M224.377,322.08c3.209,1.177,7.6,1.819,9.842,4.6,3.1,3.851,1.177,8.237-3.637,5.135-2.033-1.391-3.851-2.781-6.419-3.423-2.353-.535-4.6.214-6.846-.214-1.712-.321-4.386-2.033-4.814-3.744C211.968,321.973,216.354,319.192,224.377,322.08Z" transform="translate(-191.174 -264.882)" fill="#b3efff" opacity="0.5"/>
      </g>
      <g id="Grupo_1081317" data-name="Grupo 1081317" transform="translate(78.648 95.472)">
        <path id="Trazado_722754" data-name="Trazado 722754" d="M263.668,91s3.637,6.2,3.637,10.7c0,3.316-3.744,5.028-4.6-1.6C262.277,97.2,263.668,91,263.668,91Z" transform="translate(-63.328 -91)" fill="#5fd6ff"/>
        <path id="Trazado_722755" data-name="Trazado 722755" d="M362.468,172.4s3.637,6.2,3.637,10.7c0,3.316-3.744,5.028-4.6-1.6C361.077,178.6,362.468,172.4,362.468,172.4Z" transform="translate(-56.437 -85.322)" fill="#5fd6ff"/>
        <path id="Trazado_722756" data-name="Trazado 722756" d="M380.968,205.6s3.637,6.2,3.637,10.7c0,3.316-3.744,5.028-4.6-1.6C379.577,211.8,380.968,205.6,380.968,205.6Z" transform="translate(-55.146 -83.006)" fill="#5fd6ff"/>
        <path id="Trazado_722757" data-name="Trazado 722757" d="M239.668,106.5s3.637,6.2,3.637,10.7c0,3.316-3.744,5.028-4.6-1.6C238.277,112.6,239.668,106.5,239.668,106.5Z" transform="translate(-65.002 -89.919)" fill="#5fd6ff"/>
        <path id="Trazado_722758" data-name="Trazado 722758" d="M168.668,116.1s3.637,6.2,3.637,10.7c0,3.316-3.744,5.028-4.6-1.6C167.277,122.3,168.668,116.1,168.668,116.1Z" transform="translate(-69.955 -89.249)" fill="#5fd6ff"/>
        <path id="Trazado_722759" data-name="Trazado 722759" d="M81.768,184.9s3.637,6.2,3.637,10.7c0,3.316-3.744,5.028-4.6-1.6C80.377,191.1,81.768,184.9,81.768,184.9Z" transform="translate(-76.017 -84.45)" fill="#5fd6ff"/>
        <path id="Trazado_722760" data-name="Trazado 722760" d="M273.168,110.7s3.637,6.2,3.637,10.7c0,3.316-3.744,5.028-4.6-1.6C271.777,116.9,273.168,110.7,273.168,110.7Z" transform="translate(-62.666 -89.626)" fill="#5fd6ff"/>
        <path id="Trazado_722761" data-name="Trazado 722761" d="M299.768,162.8s3.637,6.2,3.637,10.7c0,3.316-3.744,5.028-4.6-1.6C298.377,169,299.768,162.8,299.768,162.8Z" transform="translate(-60.81 -85.992)" fill="#5fd6ff"/>
        <path id="Trazado_722762" data-name="Trazado 722762" d="M265.166,122.5s3.637,6.2,3.637,10.7c0,3.316-3.744,5.028-4.6-1.6C263.882,128.7,265.166,122.5,265.166,122.5Z" transform="translate(-63.222 -88.803)" fill="#5fd6ff"/>
        <path id="Trazado_722763" data-name="Trazado 722763" d="M362.468,221.9s3.637,6.2,3.637,10.7c0,3.316-3.744,5.028-4.6-1.6C361.077,228.1,362.468,221.9,362.468,221.9Z" transform="translate(-56.437 -81.869)" fill="#5fd6ff"/>
        <path id="Trazado_722764" data-name="Trazado 722764" d="M322.268,172.2s3.637,6.2,3.637,10.7c0,3.316-3.744,5.028-4.6-1.6C320.877,178.4,322.268,172.2,322.268,172.2Z" transform="translate(-59.241 -85.336)" fill="#5fd6ff"/>
        <path id="Trazado_722765" data-name="Trazado 722765" d="M217.268,128.9s3.637,6.2,3.637,10.7c0,3.316-3.744,5.028-4.6-1.6C215.877,135.1,217.268,128.9,217.268,128.9Z" transform="translate(-66.565 -88.356)" fill="#5fd6ff"/>
        <path id="Trazado_722766" data-name="Trazado 722766" d="M105.468,182.2s3.637,6.2,3.637,10.7c0,3.316-3.744,5.028-4.6-1.6C104.077,188.3,105.468,182.2,105.468,182.2Z" transform="translate(-74.363 -84.638)" fill="#5fd6ff"/>
        <path id="Trazado_722767" data-name="Trazado 722767" d="M77.368,199.5s3.637,6.2,3.637,10.7c0,3.316-3.744,5.028-4.6-1.6C75.977,205.7,77.368,199.5,77.368,199.5Z" transform="translate(-76.324 -83.432)" fill="#5fd6ff"/>
        <path id="Trazado_722768" data-name="Trazado 722768" d="M225.868,137.9s3.637,6.2,3.637,10.7c0,3.316-3.744,5.028-4.6-1.6C224.477,144,225.868,137.9,225.868,137.9Z" transform="translate(-65.965 -87.729)" fill="#5fd6ff"/>
        <path id="Trazado_722769" data-name="Trazado 722769" d="M219.468,91s3.637,6.2,3.637,10.7c0,3.316-3.744,5.028-4.6-1.6C218.077,97.2,219.468,91,219.468,91Z" transform="translate(-66.412 -91)" fill="#5fd6ff"/>
        <path id="Trazado_722770" data-name="Trazado 722770" d="M166.468,137.9s3.637,6.2,3.637,10.7c0,3.316-3.744,5.028-4.6-1.6C165.077,144,166.468,137.9,166.468,137.9Z" transform="translate(-70.108 -87.729)" fill="#5fd6ff"/>
        <path id="Trazado_722771" data-name="Trazado 722771" d="M313.668,189.4s3.637,6.2,3.637,10.7c0,3.316-3.744,5.028-4.6-1.6C312.277,195.6,313.668,189.4,313.668,189.4Z" transform="translate(-59.841 -84.136)" fill="#5fd6ff"/>
      </g>
    </g>
  </g>
</svg>
