<svg id="Grupo_1071217" data-name="Grupo 1071217" xmlns="http://www.w3.org/2000/svg" xmlns:xlink="http://www.w3.org/1999/xlink" width="29.232" height="29.222" viewBox="0 0 29.232 29.222">
  <defs>
    <clipPath id="clip-path">
      <rect id="Rectángulo_377312" data-name="Rectángulo 377312" width="29.232" height="29.222" fill="#455b2d"/>
    </clipPath>
  </defs>
  <g id="Grupo_1071196" data-name="Grupo 1071196" clip-path="url(#clip-path)">
    <path id="Trazado_608375" data-name="Trazado 608375" d="M95.992,25.582h.295a9.954,9.954,0,0,0,2.442-.327,11.228,11.228,0,0,0,2.811-1.131,11.868,11.868,0,0,0,1.7-1.231A11.142,11.142,0,0,0,104.9,21.1a9.662,9.662,0,0,0,1.33-2.422c.2-.5.273-1.041.455-1.545a13.8,13.8,0,0,0,.307-1.929,4.264,4.264,0,0,0-.074-1.664c-.023-.124-.033-.252-.044-.378a11.156,11.156,0,0,0-.5-2.177,7.878,7.878,0,0,0-.763-1.756,13.662,13.662,0,0,0-.927-1.362,10.726,10.726,0,0,0-1.043-1.2,8.543,8.543,0,0,0-1.977-1.5,14.174,14.174,0,0,0-1.436-.737c-.625-.238-1.284-.386-1.929-.573A14.108,14.108,0,0,0,96.189,3.6C96.02,3.575,96,3.5,96,3.36q0-1.114,0-2.229c0-.3,0-.61-.006-.914,0-.139.04-.225.191-.217.373.019.75.012,1.118.066A24.048,24.048,0,0,1,99.68.478a12.447,12.447,0,0,1,2.722,1,14.8,14.8,0,0,1,2.187,1.341,20.581,20.581,0,0,1,1.776,1.522A12.609,12.609,0,0,1,108.057,6.4a13.054,13.054,0,0,1,1.465,2.788,16.033,16.033,0,0,1,.527,1.52c.159.618.256,1.253.363,1.883a11.105,11.105,0,0,1,.177,2.025,17.782,17.782,0,0,1-.306,2.89,11.833,11.833,0,0,1-1.031,3.131,18.893,18.893,0,0,1-1.15,2.074,22.175,22.175,0,0,1-1.389,1.779,11.814,11.814,0,0,1-2.439,2.14,13.636,13.636,0,0,1-2.6,1.422,12.179,12.179,0,0,1-2.066.7c-.463.1-.93.192-1.4.253-.683.088-1.371.141-2.056.216-.112.012-.155-.027-.156-.129,0-.152,0-.3,0-.457q0-1.419-.009-2.839c0-.062,0-.125,0-.212" transform="translate(-81.359 0)" fill="#455b2d"/>
    <path id="Trazado_608376" data-name="Trazado 608376" d="M9.339,52.893,13.8,48.457a1.086,1.086,0,0,0-.241-.055c-.933-.013-1.866-.027-2.8-.027q-5.249,0-10.5,0C.065,48.376,0,48.3,0,48.122c0-1.1,0-2.2,0-3.3,0-.03.006-.061.013-.13H13.838a1.631,1.631,0,0,0-.15-.229q-1.035-1.035-2.074-2.065t-2.1-2.089a1.816,1.816,0,0,1-.133-.166c.2-.209.386-.412.58-.608.583-.589,1.173-1.171,1.749-1.765.144-.148.255-.106.369,0,.16.153.305.323.464.477.564.547,1.138,1.083,1.695,1.637,1.146,1.141,2.283,2.29,3.424,3.436.636.638,1.275,1.272,1.907,1.913.347.352.682.715,1.022,1.074.218.231.22.265-.007.495q-1.765,1.789-3.534,3.574-1.88,1.89-3.771,3.769c-.373.371-.759.73-1.14,1.094-.217.207-.289.2-.5-.009l-1.062-1.063q-.551-.552-1.1-1.1c-.043-.044-.077-.1-.14-.177" transform="translate(0 -31.935)" fill="#455b2d"/>
  </g>
</svg>
