<svg xmlns="http://www.w3.org/2000/svg" xmlns:xlink="http://www.w3.org/1999/xlink" width="505" height="750" viewBox="0 0 505 750">
  <defs>
    <linearGradient id="linear-gradient" x1="0.5" x2="0.5" y2="1" gradientUnits="objectBoundingBox">
      <stop offset="0" stop-color="#eaf2e1"/>
      <stop offset="0.562" stop-color="#f8f8f8"/>
      <stop offset="1" stop-color="#e6ebfb"/>
    </linearGradient>
    <clipPath id="clip-path">
      <rect id="Rectángulo_379337" data-name="Rectángulo 379337" width="196" height="208.149"/>
    </clipPath>
    <clipPath id="clip-path-4">
      <rect id="Rectángulo_379341" data-name="Rectángulo 379341" width="196" height="184.777"/>
    </clipPath>
  </defs>
  <g id="Grupo_1085278" data-name="Grupo 1085278" transform="translate(5061 -10146.965)">
    <rect id="Rectángulo_379518" data-name="Rectángulo 379518" width="505" height="750" rx="34" transform="translate(-5061 10146.965)" fill="url(#linear-gradient)"/>
    <g id="Kontent" transform="translate(-5006 10211.664)">
      <g id="Grupo_1084500" data-name="Grupo 1084500" transform="translate(6 5.3)">
        <rect id="Rectángulo_379332" data-name="Rectángulo 379332" width="391.884" height="138.612" fill="#00306c"/>
        <g id="Grupo_1084303" data-name="Grupo 1084303" transform="translate(0 135.719)">
          <rect id="Rectángulo_379333" data-name="Rectángulo 379333" width="391.884" height="229.785" fill="#00b0dd"/>
          <rect id="Rectángulo_379334" data-name="Rectángulo 379334" width="391.884" height="229.785" opacity="0.1"/>
        </g>
        <rect id="Rectángulo_379335" data-name="Rectángulo 379335" width="196" height="208.149" transform="translate(0 361.107)" fill="#a8d3f7"/>
        <rect id="Rectángulo_379336" data-name="Rectángulo 379336" width="196" height="208.149" transform="translate(196 361.107)" fill="#fff7e5"/>
        <g id="Grupo_1084389" data-name="Grupo 1084389" transform="translate(196 361.107)">
          <g id="Grupo_1084386" data-name="Grupo 1084386" clip-path="url(#clip-path)">
            <g id="Grupo_1084304" data-name="Grupo 1084304" transform="translate(28.231 63.984)" opacity="0.2">
              <path id="Trazado_832360" data-name="Trazado 832360" d="M286.031,412.849l17.124-.926,6.364,6.826,5.9,10.76,9.256,6.826,5.438,11.223.926,11.223-8.331,7.289s-3.934-4.86-5.438,4.4l-1.5,9.256,2.893,8.331-3.934,5.9-34.826,16.2-4.4,10.3-.463,16.661,3.471,15.157L295.172,572.4l15.157,21.984,5.438,17.587,7.868,12.727h8.793l10.76-4.4,9.835-8.793.926-15.62-1.5-12.264,9.835-14.231,8.793-14.231s4.859-.926,5.9-11.223c.926-10.3,5.9.926.926-10.3s-4.859-11.223-4.859-11.223l-8.562-14-9.835-7.868s-2.43.926-11.8-.926l-9.256-1.967-2.893-10.76,1.5-8.793,1.967-6.826,8.331-5.9,4.86-3.934,1.5-10.3,18.628-21.521,13.19-3.471,5.9-7.868-6.364-17.124,5.9-5.9,6.942-4.975a135.743,135.743,0,0,0-135.256.926l7.868,17.818Z" transform="translate(-190.693 -372.7)" fill="#52adff"/>
              <path id="Trazado_832361" data-name="Trazado 832361" d="M228.61,546.318l12.727-16.2s20.6-6.826,22.562-7.289,2.893-6.364,3.471-7.868c.463-1.5-2.43-13.769-2.43-13.769l4.4-12.727,20.132-9.835L303.7,455.607l-3.934-20.6-18.744-12.149L258.461,412.1l-13.653-9.6a135.615,135.615,0,0,0-32.86,157.008l8.678.578Z" transform="translate(-199.8 -368.021)" fill="#52adff"/>
              <path id="Trazado_832362" data-name="Trazado 832362" d="M425.291,587.287l8.793-17.587-9.835-8.793-7.289-20.6.926-22.562,14.231-6.826,4.86-6.826-18.628-16.661-13.19,4.4-19.554-4.4-5.9-18.165,3.934-9.835L390,446.708l18.628-11.8,2.893-16.2c2.893-16.2,0,0,1.967-20.132.116-.81.116-1.5.231-2.2A147.642,147.642,0,0,0,400.3,387.7l-6.942,4.975-5.9,5.9L393.82,415.7l-5.9,7.868-13.19,3.471L356.1,448.56l-1.5,10.3-4.86,3.934-8.331,5.9-1.967,6.826-1.5,8.793,2.893,10.76,9.256,1.967c9.256,1.967,11.8.926,11.8.926l9.835,7.868,8.793,14.231,4.859,11.223c4.86,11.223,0,0-.926,10.3s-5.9,11.223-5.9,11.223l-8.793,14.231-9.835,14.231,1.5,12.264-.926,15.62-9.835,8.793-10.76,4.4h-8.793l-7.868-12.727L317.8,592.031l-15.157-21.983-16.661-20.132-3.471-15.157.463-16.661,4.4-10.3L322.2,491.6l3.934-5.9-2.893-8.331,1.5-9.256c1.5-9.256,5.438-4.4,5.438-4.4l8.331-7.289-.926-11.223-5.438-11.223-9.256-6.826-5.9-10.76-6.364-6.826-17.124.926-20.6-3.934-7.868-17.818a130.716,130.716,0,0,0-21.983,16.083l13.653,9.6,22.562,10.76L297.9,437.452l3.934,20.6-14.231,23.025-20.132,9.835-4.4,12.727s2.893,12.264,2.43,13.769-1.5,7.289-3.471,7.868c-1.967.463-22.562,7.289-22.562,7.289l-12.727,16.2-7.868,13.769-8.678-.578a124.233,124.233,0,0,0,7.4,14c9.6-3.7,25.686-10.529,25.686-10.529l21.983-1.5,17.124,9.256,7.289,15.62,6.826,14.231,10.76,5.438,3.471,11.8-11.339,13.074-.694,3.008a133.314,133.314,0,0,0,34.942,4.512,134.846,134.846,0,0,0,92.331-36.446l-3.587-4.86Z" transform="translate(-198.167 -370.345)" fill="#52adff"/>
              <path id="Trazado_832363" data-name="Trazado 832363" d="M310.141,596.247l-3.471-11.8-10.76-5.438-6.826-14.231-7.289-15.62L264.669,539.9l-21.983,1.5s-16.2,6.826-25.686,10.529a135.725,135.725,0,0,0,80.76,60.512l.694-3.008Z" transform="translate(-197.099 -346.445)" fill="#52adff"/>
              <path id="Trazado_832364" data-name="Trazado 832364" d="M445.891,504.392A135.132,135.132,0,0,0,390.817,395.4a12.813,12.813,0,0,0-.231,2.2c-1.967,20.132.926,3.934-1.967,20.132l-2.893,16.2-18.628,11.8-6.364,12.727-3.934,9.835,5.9,18.165,19.554,4.4,13.19-4.4,18.628,16.661-4.86,6.826-14.231,6.826-.926,22.562,7.289,20.6,9.835,8.793-8.793,17.587-2.893,12.264,3.587,4.859A136.153,136.153,0,0,0,445.891,504.392Z" transform="translate(-175.147 -369.136)" fill="#52adff"/>
            </g>
            <path id="Trazado_832365" data-name="Trazado 832365" d="M406.059,407.635a109.212,109.212,0,0,0-12.149-7.868,122.447,122.447,0,0,0-171.818,157.24,119.123,119.123,0,0,0,6.711,12.612A122.407,122.407,0,1,0,406.059,407.635Z" transform="translate(-169.794 -306.974)" fill="#00306c"/>
            <g id="Grupo_1084305" data-name="Grupo 1084305" transform="translate(45.471 81.107)">
              <path id="Trazado_832366" data-name="Trazado 832366" d="M290.092,422.674l14.926-.81,5.554,6.017,5.091,9.372,8.1,6.017L328.5,453.1l.81,9.835-7.289,6.364s-3.471-4.281-4.744,3.818l-1.273,8.1,2.545,7.289-3.471,5.091-30.314,14.116-3.818,9.025-.463,14.578,3.008,13.19,14.579,17.471,13.19,19.207,4.744,15.388,6.826,11.107h7.636l9.372-3.818,8.562-7.636,1.041-13.769-1.273-10.645,8.562-12.38,7.636-12.38s4.281-.81,5.091-9.835,5.091.81.81-9.025l-4.281-9.835-7.636-12.38-8.562-6.826s-2.083.81-10.3-.81l-8.1-1.736-2.545-9.372,1.273-7.636,1.736-6.017,7.289-5.091,4.281-3.471L344.7,456l16.2-18.859,11.57-3.008,5.091-6.826-5.554-14.926,5.091-5.091,6.017-4.4a118.153,118.153,0,0,0-118.017.81l6.826,15.5Z" transform="translate(-206.786 -387.5)" fill="#a8d3f7"/>
              <path id="Trazado_832367" data-name="Trazado 832367" d="M239.807,539.006l11.107-14.116s17.934-6.017,19.669-6.364c1.736-.463,2.545-5.554,3.008-6.826s-2.083-11.917-2.083-11.917l3.818-11.107,17.471-8.562,12.38-20.132-3.471-17.934L285.51,431.4l-19.669-9.372L253.923,413.7a118.242,118.242,0,0,0-28.579,136.992l7.521.463Z" transform="translate(-214.7 -383.386)" fill="#a8d3f7"/>
              <path id="Trazado_832368" data-name="Trazado 832368" d="M411.438,574.832l7.636-15.388-8.562-7.636-6.364-17.934.81-19.669,12.38-6.017,4.281-6.017-16.2-14.578-11.57,3.818-17.124-3.818-5.091-15.851,3.471-8.562,5.554-11.107,16.2-10.3,2.545-14.116c2.545-14.116,0,0,1.736-17.471.116-.694.116-1.273.231-1.851a112.63,112.63,0,0,0-11.686-7.636l-6.017,4.4-5.091,5.091,5.554,14.926-5.091,6.826-11.57,3.008-16.2,18.859L350,462.832l-4.281,3.471-7.289,5.091-1.736,6.017-1.273,7.636,2.545,9.372,8.1,1.736c8.1,1.736,10.3.81,10.3.81l8.562,6.826,7.636,12.38,4.281,9.835c4.281,9.835,0,0-.81,9.025s-5.091,9.835-5.091,9.835l-7.636,12.38-8.562,12.38,1.273,10.645-.81,13.653-8.562,7.636-9.372,3.818h-7.636L322.81,594.27l-4.744-15.388-13.19-19.207L290.3,542.2l-3.008-13.19.463-14.579,3.818-9.025L321.884,491.3l3.471-5.091-2.545-7.289,1.273-8.1c1.273-8.1,4.744-3.818,4.744-3.818l7.289-6.364-.81-9.835-4.744-9.835-8.1-6.017-5.091-9.372-5.554-6.017-14.926.81L278.959,416.9l-6.826-15.5a119.948,119.948,0,0,0-19.207,14l11.917,8.331,19.669,9.372,16.2,10.645,3.471,17.934L291.8,481.808l-17.471,8.562-3.818,11.107s2.545,10.645,2.083,11.917-1.273,6.364-3.008,6.826-19.669,6.364-19.669,6.364L238.81,540.7l-6.826,11.917H224a124.055,124.055,0,0,0,6.479,12.264c8.331-3.24,22.446-9.141,22.446-9.141l19.207-1.273,14.926,8.1,6.364,13.653,6.017,12.38,9.372,4.744,3.008,10.3-10.3,11.57-.694,2.661a119.875,119.875,0,0,0,30.43,3.934A117.691,117.691,0,0,0,411.9,589.989l-3.124-4.281Z" transform="translate(-213.24 -385.427)" fill="#a8d3f7"/>
              <path id="Trazado_832369" data-name="Trazado 832369" d="M311.039,582.674l-3.008-10.3-9.372-4.744-6.017-12.38L286.279,541.6l-14.926-8.1-19.207,1.273s-14.116,6.017-22.446,9.141a118.548,118.548,0,0,0,70.463,52.876l.694-2.661Z" transform="translate(-212.345 -364.574)" fill="#a8d3f7"/>
              <path id="Trazado_832370" data-name="Trazado 832370" d="M429.468,502.507A118.036,118.036,0,0,0,381.336,407.4c-.116.579-.116,1.273-.231,1.851-1.736,17.471.81,3.471-1.736,17.471l-2.545,14.116-16.2,10.3-5.554,11.107L351.6,470.8l5.091,15.851,17.124,3.818,11.57-3.818,16.2,14.579-4.281,6.017-12.38,6.017-.81,19.669,6.364,17.934,8.562,7.636L391.4,573.9l-2.545,10.645,3.124,4.281A118.163,118.163,0,0,0,429.468,502.507Z" transform="translate(-193.203 -384.375)" fill="#a8d3f7"/>
            </g>
            <g id="Grupo_1084306" data-name="Grupo 1084306" transform="translate(45.471 81.107)">
              <path id="Trazado_832371" data-name="Trazado 832371" d="M290.092,422.674l14.926-.81,5.554,6.017,5.091,9.372,8.1,6.017L328.5,453.1l.81,9.835-7.289,6.364s-3.471-4.281-4.744,3.818l-1.273,8.1,2.545,7.289-3.471,5.091-30.314,14.116-3.818,9.025-.463,14.578,3.008,13.19,14.579,17.471,13.19,19.207,4.744,15.388,6.826,11.107h7.636l9.372-3.818,8.562-7.636,1.041-13.769-1.273-10.645,8.562-12.38,7.636-12.38s4.281-.81,5.091-9.835,5.091.81.81-9.025l-4.281-9.835-7.636-12.38-8.562-6.826s-2.083.81-10.3-.81l-8.1-1.736-2.545-9.372,1.273-7.636,1.736-6.017,7.289-5.091,4.281-3.471L344.7,456l16.2-18.859,11.57-3.008,5.091-6.826-5.554-14.926,5.091-5.091,6.017-4.4a118.153,118.153,0,0,0-118.017.81l6.826,15.5Z" transform="translate(-206.786 -387.5)" fill="#00b0dd"/>
              <path id="Trazado_832372" data-name="Trazado 832372" d="M239.807,539.006l11.107-14.116s17.934-6.017,19.669-6.364c1.736-.463,2.545-5.554,3.008-6.826s-2.083-11.917-2.083-11.917l3.818-11.107,17.471-8.562,12.38-20.132-3.471-17.934L285.51,431.4l-19.669-9.372L253.923,413.7a118.242,118.242,0,0,0-28.579,136.992l7.521.463Z" transform="translate(-214.7 -383.386)" fill="#00b0dd"/>
              <path id="Trazado_832373" data-name="Trazado 832373" d="M311.039,582.674l-3.008-10.3-9.372-4.744-6.017-12.38L286.279,541.6l-14.926-8.1-19.207,1.273s-14.116,6.017-22.446,9.141a118.548,118.548,0,0,0,70.463,52.876l.694-2.661Z" transform="translate(-212.345 -364.574)" fill="#00b0dd"/>
              <path id="Trazado_832374" data-name="Trazado 832374" d="M429.468,502.507A118.036,118.036,0,0,0,381.336,407.4c-.116.579-.116,1.273-.231,1.851-1.736,17.471.81,3.471-1.736,17.471l-2.545,14.116-16.2,10.3-5.554,11.107L351.6,470.8l5.091,15.851,17.124,3.818,11.57-3.818,16.2,14.579-4.281,6.017-12.38,6.017-.81,19.669,6.364,17.934,8.562,7.636L391.4,573.9l-2.545,10.645,3.124,4.281A118.163,118.163,0,0,0,429.468,502.507Z" transform="translate(-193.203 -384.375)" fill="#00b0dd"/>
            </g>
            <g id="Grupo_1084373" data-name="Grupo 1084373" transform="translate(56.116 90.595)" opacity="0.5">
              <g id="Grupo_1084309" data-name="Grupo 1084309" transform="translate(99.736 13.19)">
                <g id="Grupo_1084307" data-name="Grupo 1084307" transform="translate(0 3.24)">
                  <path id="Trazado_832375" data-name="Trazado 832375" d="M310.1,419.735a74.928,74.928,0,0,1,4.4-9.835c1.041,1.851,1.967,3.7,2.893,5.554.694,1.5,1.388,3.124,1.967,4.744a23.467,23.467,0,0,1-1.5-2.083c-1.388-2.083-2.661-4.281-3.934-6.6h1.041a58.925,58.925,0,0,1-4.859,8.215Z" transform="translate(-310.1 -409.9)" fill="#00306c"/>
                </g>
                <g id="Grupo_1084308" data-name="Grupo 1084308" transform="translate(7.521)">
                  <path id="Trazado_832376" data-name="Trazado 832376" d="M316.6,416.935A74.924,74.924,0,0,1,321,407.1c1.041,1.851,1.967,3.7,2.893,5.554.694,1.5,1.388,3.124,1.967,4.744a23.462,23.462,0,0,1-1.5-2.083c-1.388-2.083-2.661-4.281-3.934-6.6h1.041a66.5,66.5,0,0,1-4.859,8.215Z" transform="translate(-316.6 -407.1)" fill="#00306c"/>
                </g>
              </g>
              <g id="Grupo_1084312" data-name="Grupo 1084312" transform="translate(115.818 32.397)">
                <g id="Grupo_1084310" data-name="Grupo 1084310" transform="translate(0 3.355)">
                  <path id="Trazado_832377" data-name="Trazado 832377" d="M324,436.435a74.924,74.924,0,0,1,4.4-9.835c1.041,1.851,1.967,3.7,2.893,5.554.694,1.5,1.388,3.124,1.967,4.744a23.467,23.467,0,0,1-1.5-2.083c-1.388-2.083-2.661-4.281-3.934-6.6h1.041A66.492,66.492,0,0,1,324,436.435Z" transform="translate(-324 -426.6)" fill="#00306c"/>
                </g>
                <g id="Grupo_1084311" data-name="Grupo 1084311" transform="translate(7.521)">
                  <path id="Trazado_832378" data-name="Trazado 832378" d="M330.5,433.535a74.929,74.929,0,0,1,4.4-9.835c1.041,1.851,1.967,3.7,2.893,5.554.694,1.5,1.388,3.124,1.967,4.744a23.463,23.463,0,0,1-1.5-2.083c-1.388-2.083-2.661-4.281-3.934-6.6h1.041a58.933,58.933,0,0,1-4.859,8.215Z" transform="translate(-330.5 -423.7)" fill="#00306c"/>
                </g>
              </g>
              <g id="Grupo_1084315" data-name="Grupo 1084315" transform="translate(125.421 1.388)">
                <g id="Grupo_1084313" data-name="Grupo 1084313" transform="translate(0 3.355)">
                  <path id="Trazado_832379" data-name="Trazado 832379" d="M332.3,409.635a74.929,74.929,0,0,1,4.4-9.835c1.041,1.851,1.967,3.7,2.893,5.554.694,1.5,1.388,3.124,1.967,4.744a23.471,23.471,0,0,1-1.5-2.083c-1.388-2.083-2.661-4.281-3.934-6.6h1.041a66.488,66.488,0,0,1-4.86,8.215Z" transform="translate(-332.3 -399.8)" fill="#00306c"/>
                </g>
                <g id="Grupo_1084314" data-name="Grupo 1084314" transform="translate(7.521)">
                  <path id="Trazado_832380" data-name="Trazado 832380" d="M338.8,406.735a74.928,74.928,0,0,1,4.4-9.835c1.041,1.851,1.967,3.7,2.893,5.554.694,1.5,1.388,3.124,1.967,4.744a23.475,23.475,0,0,1-1.5-2.083c-1.388-2.083-2.661-4.281-3.934-6.6h1.041a54.623,54.623,0,0,1-4.86,8.215Z" transform="translate(-338.8 -396.9)" fill="#00306c"/>
                </g>
              </g>
              <g id="Grupo_1084318" data-name="Grupo 1084318" transform="translate(80.876)">
                <g id="Grupo_1084316" data-name="Grupo 1084316" transform="translate(0 3.355)">
                  <path id="Trazado_832381" data-name="Trazado 832381" d="M293.8,408.435a74.931,74.931,0,0,1,4.4-9.835c1.041,1.851,1.967,3.7,2.893,5.554.694,1.5,1.388,3.124,1.967,4.744a23.468,23.468,0,0,1-1.5-2.083c-1.388-2.083-2.661-4.281-3.934-6.6h1.041a54.625,54.625,0,0,1-4.859,8.215Z" transform="translate(-293.8 -398.6)" fill="#00306c"/>
                </g>
                <g id="Grupo_1084317" data-name="Grupo 1084317" transform="translate(7.636)">
                  <path id="Trazado_832382" data-name="Trazado 832382" d="M300.4,405.535a74.929,74.929,0,0,1,4.4-9.835c1.041,1.851,1.967,3.7,2.893,5.554.694,1.5,1.388,3.124,1.967,4.744a23.471,23.471,0,0,1-1.5-2.083c-1.388-2.083-2.661-4.281-3.934-6.6h1.041a66.5,66.5,0,0,1-4.86,8.215Z" transform="translate(-300.4 -395.7)" fill="#00306c"/>
                </g>
              </g>
              <g id="Grupo_1084321" data-name="Grupo 1084321" transform="translate(177.719 41.074)">
                <g id="Grupo_1084319" data-name="Grupo 1084319" transform="translate(0 3.355)">
                  <path id="Trazado_832383" data-name="Trazado 832383" d="M377.5,443.935a74.93,74.93,0,0,1,4.4-9.835c1.041,1.851,1.967,3.7,2.893,5.554.694,1.5,1.388,3.124,1.967,4.744a23.458,23.458,0,0,1-1.5-2.083c-1.388-2.083-2.661-4.281-3.934-6.6h1.041a66.492,66.492,0,0,1-4.86,8.215Z" transform="translate(-377.5 -434.1)" fill="#00306c"/>
                </g>
                <g id="Grupo_1084320" data-name="Grupo 1084320" transform="translate(7.521)">
                  <path id="Trazado_832384" data-name="Trazado 832384" d="M384,441.035a74.928,74.928,0,0,1,4.4-9.835c1.041,1.851,1.967,3.7,2.893,5.554.694,1.5,1.388,3.124,1.967,4.744a23.462,23.462,0,0,1-1.5-2.083c-1.388-2.083-2.661-4.281-3.934-6.6h1.041a54.629,54.629,0,0,1-4.86,8.215Z" transform="translate(-384 -431.2)" fill="#00306c"/>
                </g>
              </g>
              <g id="Grupo_1084324" data-name="Grupo 1084324" transform="translate(164.529 62.017)">
                <g id="Grupo_1084322" data-name="Grupo 1084322" transform="translate(0 3.355)">
                  <path id="Trazado_832385" data-name="Trazado 832385" d="M366.1,462.035a74.923,74.923,0,0,1,4.4-9.835c1.041,1.851,1.967,3.7,2.893,5.554.694,1.5,1.388,3.124,1.967,4.744a23.466,23.466,0,0,1-1.5-2.083c-1.388-2.083-2.661-4.281-3.934-6.6h1.041a46.37,46.37,0,0,1-4.859,8.215Z" transform="translate(-366.1 -452.2)" fill="#00306c"/>
                </g>
                <g id="Grupo_1084323" data-name="Grupo 1084323" transform="translate(7.636)">
                  <path id="Trazado_832386" data-name="Trazado 832386" d="M372.7,459.135a74.927,74.927,0,0,1,4.4-9.835c1.041,1.851,1.967,3.7,2.893,5.554.694,1.5,1.388,3.124,1.967,4.744a23.473,23.473,0,0,1-1.5-2.083c-1.388-2.083-2.661-4.281-3.934-6.6h1.041a52.91,52.91,0,0,1-4.86,8.215Z" transform="translate(-372.7 -449.3)" fill="#00306c"/>
                </g>
              </g>
              <g id="Grupo_1084327" data-name="Grupo 1084327" transform="translate(86.43 104.595)">
                <g id="Grupo_1084325" data-name="Grupo 1084325" transform="translate(0 3.355)">
                  <path id="Trazado_832387" data-name="Trazado 832387" d="M298.6,498.835A74.93,74.93,0,0,1,303,489c1.041,1.851,1.967,3.7,2.893,5.554.694,1.5,1.388,3.124,1.967,4.744a23.466,23.466,0,0,1-1.5-2.083c-1.388-2.083-2.661-4.281-3.934-6.6h1.041a66.49,66.49,0,0,1-4.859,8.215Z" transform="translate(-298.6 -489)" fill="#00306c"/>
                </g>
                <g id="Grupo_1084326" data-name="Grupo 1084326" transform="translate(7.521)">
                  <path id="Trazado_832388" data-name="Trazado 832388" d="M305.1,495.935a74.923,74.923,0,0,1,4.4-9.835c1.041,1.851,1.967,3.7,2.893,5.554.694,1.5,1.388,3.124,1.967,4.744a23.458,23.458,0,0,1-1.5-2.083c-1.388-2.083-2.661-4.281-3.934-6.6h1.041a45.139,45.139,0,0,1-4.859,8.215Z" transform="translate(-305.1 -486.1)" fill="#00306c"/>
                </g>
              </g>
              <g id="Grupo_1084330" data-name="Grupo 1084330" transform="translate(48.942 55.884)">
                <g id="Grupo_1084328" data-name="Grupo 1084328" transform="translate(0 3.355)">
                  <path id="Trazado_832389" data-name="Trazado 832389" d="M266.2,456.735a74.93,74.93,0,0,1,4.4-9.835c1.041,1.851,1.967,3.7,2.893,5.554.694,1.5,1.388,3.124,1.967,4.744a23.466,23.466,0,0,1-1.5-2.083c-1.388-2.083-2.661-4.281-3.934-6.6h1.041a66.49,66.49,0,0,1-4.86,8.215Z" transform="translate(-266.2 -446.9)" fill="#00306c"/>
                </g>
                <g id="Grupo_1084329" data-name="Grupo 1084329" transform="translate(7.521)">
                  <path id="Trazado_832390" data-name="Trazado 832390" d="M272.7,453.835A74.923,74.923,0,0,1,277.1,444c1.041,1.851,1.967,3.7,2.893,5.554.694,1.5,1.388,3.124,1.967,4.744a23.464,23.464,0,0,1-1.5-2.083c-1.388-2.083-2.661-4.281-3.934-6.6h1.041a58.934,58.934,0,0,1-4.86,8.215Z" transform="translate(-272.7 -444)" fill="#00306c"/>
                </g>
              </g>
              <g id="Grupo_1084333" data-name="Grupo 1084333" transform="translate(23.256 32.397)">
                <g id="Grupo_1084331" data-name="Grupo 1084331" transform="translate(0 3.355)">
                  <path id="Trazado_832391" data-name="Trazado 832391" d="M244,436.435a74.928,74.928,0,0,1,4.4-9.835c1.041,1.851,1.967,3.7,2.893,5.554.694,1.5,1.388,3.124,1.967,4.744a23.48,23.48,0,0,1-1.5-2.083c-1.388-2.083-2.661-4.281-3.934-6.6h1.041A54.626,54.626,0,0,1,244,436.435Z" transform="translate(-244 -426.6)" fill="#00306c"/>
                </g>
                <g id="Grupo_1084332" data-name="Grupo 1084332" transform="translate(7.636)">
                  <path id="Trazado_832392" data-name="Trazado 832392" d="M250.6,433.535A74.925,74.925,0,0,1,255,423.7c1.041,1.851,1.967,3.7,2.893,5.554.694,1.5,1.388,3.124,1.967,4.744a23.469,23.469,0,0,1-1.5-2.083c-1.388-2.083-2.661-4.281-3.934-6.6h1.041a66.5,66.5,0,0,1-4.86,8.215Z" transform="translate(-250.6 -423.7)" fill="#00306c"/>
                </g>
              </g>
              <g id="Grupo_1084336" data-name="Grupo 1084336" transform="translate(17.124 54.612)">
                <g id="Grupo_1084334" data-name="Grupo 1084334" transform="translate(0 3.355)">
                  <path id="Trazado_832393" data-name="Trazado 832393" d="M238.7,455.635a74.926,74.926,0,0,1,4.4-9.835c1.041,1.851,1.967,3.7,2.893,5.554.694,1.5,1.388,3.124,1.967,4.744a23.471,23.471,0,0,1-1.5-2.083c-1.388-2.083-2.661-4.281-3.934-6.6h1.041a54.624,54.624,0,0,1-4.859,8.215Z" transform="translate(-238.7 -445.8)" fill="#00306c"/>
                </g>
                <g id="Grupo_1084335" data-name="Grupo 1084335" transform="translate(7.521)">
                  <path id="Trazado_832394" data-name="Trazado 832394" d="M245.2,452.735a74.931,74.931,0,0,1,4.4-9.835c1.041,1.851,1.967,3.7,2.893,5.554.694,1.5,1.388,3.124,1.967,4.744a23.48,23.48,0,0,1-1.5-2.083c-1.388-2.083-2.661-4.281-3.934-6.6h1.041a42.575,42.575,0,0,1-4.859,8.215Z" transform="translate(-245.2 -442.9)" fill="#00306c"/>
                </g>
              </g>
              <g id="Grupo_1084339" data-name="Grupo 1084339" transform="translate(0.81 69.884)">
                <g id="Grupo_1084337" data-name="Grupo 1084337" transform="translate(0 3.355)">
                  <path id="Trazado_832395" data-name="Trazado 832395" d="M224.6,468.835A74.926,74.926,0,0,1,229,459c1.041,1.851,1.967,3.7,2.893,5.554.694,1.5,1.388,3.124,1.967,4.744a23.483,23.483,0,0,1-1.5-2.083c-1.388-2.083-2.661-4.281-3.934-6.6h1.041a54.627,54.627,0,0,1-4.859,8.215Z" transform="translate(-224.6 -459)" fill="#00306c"/>
                </g>
                <g id="Grupo_1084338" data-name="Grupo 1084338" transform="translate(7.521)">
                  <path id="Trazado_832396" data-name="Trazado 832396" d="M231.1,465.935a74.923,74.923,0,0,1,4.4-9.835c1.041,1.851,1.967,3.7,2.893,5.554.694,1.5,1.388,3.124,1.967,4.744a23.473,23.473,0,0,1-1.5-2.083c-1.388-2.083-2.661-4.281-3.934-6.6h1.041a46.37,46.37,0,0,1-4.859,8.215Z" transform="translate(-231.1 -456.1)" fill="#00306c"/>
                </g>
              </g>
              <g id="Grupo_1084342" data-name="Grupo 1084342" transform="translate(20.479 87.24)">
                <g id="Grupo_1084340" data-name="Grupo 1084340" transform="translate(0 3.355)">
                  <path id="Trazado_832397" data-name="Trazado 832397" d="M241.6,483.835A74.926,74.926,0,0,1,246,474c1.041,1.851,1.967,3.7,2.893,5.554.694,1.5,1.388,3.124,1.967,4.744a23.465,23.465,0,0,1-1.5-2.083c-1.388-2.083-2.661-4.281-3.934-6.6h1.041a46.365,46.365,0,0,1-4.86,8.215Z" transform="translate(-241.6 -474)" fill="#00306c"/>
                </g>
                <g id="Grupo_1084341" data-name="Grupo 1084341" transform="translate(7.636)">
                  <path id="Trazado_832398" data-name="Trazado 832398" d="M248.2,480.935a74.931,74.931,0,0,1,4.4-9.835c1.041,1.851,1.967,3.7,2.893,5.554.694,1.5,1.388,3.124,1.967,4.744a23.467,23.467,0,0,1-1.5-2.083c-1.388-2.083-2.661-4.281-3.934-6.6h1.041a58.931,58.931,0,0,1-4.86,8.215Z" transform="translate(-248.2 -471.1)" fill="#00306c"/>
                </g>
              </g>
              <g id="Grupo_1084345" data-name="Grupo 1084345" transform="translate(0 104.017)">
                <g id="Grupo_1084343" data-name="Grupo 1084343" transform="translate(0 3.355)">
                  <path id="Trazado_832399" data-name="Trazado 832399" d="M223.9,498.335a74.919,74.919,0,0,1,4.4-9.835c1.041,1.851,1.967,3.7,2.893,5.554.694,1.5,1.388,3.124,1.967,4.744a23.458,23.458,0,0,1-1.5-2.083c-1.388-2.083-2.661-4.281-3.934-6.6h1.041a66.491,66.491,0,0,1-4.859,8.215Z" transform="translate(-223.9 -488.5)" fill="#00306c"/>
                </g>
                <g id="Grupo_1084344" data-name="Grupo 1084344" transform="translate(7.521)">
                  <path id="Trazado_832400" data-name="Trazado 832400" d="M230.4,495.435a74.926,74.926,0,0,1,4.4-9.835c1.041,1.851,1.967,3.7,2.893,5.554.694,1.5,1.388,3.124,1.967,4.744a23.458,23.458,0,0,1-1.5-2.083c-1.388-2.083-2.661-4.281-3.934-6.6h1.041a54.624,54.624,0,0,1-4.859,8.215Z" transform="translate(-230.4 -485.6)" fill="#00306c"/>
                </g>
              </g>
              <g id="Grupo_1084348" data-name="Grupo 1084348" transform="translate(15.504 111.884)">
                <g id="Grupo_1084346" data-name="Grupo 1084346" transform="translate(0 3.24)">
                  <path id="Trazado_832401" data-name="Trazado 832401" d="M237.3,505.035a74.923,74.923,0,0,1,4.4-9.835c1.041,1.851,1.967,3.7,2.893,5.554.694,1.5,1.388,3.124,1.967,4.744a23.465,23.465,0,0,1-1.5-2.083c-1.388-2.083-2.661-4.281-3.934-6.6h1.041a66.5,66.5,0,0,1-4.859,8.215Z" transform="translate(-237.3 -495.2)" fill="#00306c"/>
                </g>
                <g id="Grupo_1084347" data-name="Grupo 1084347" transform="translate(7.521)">
                  <path id="Trazado_832402" data-name="Trazado 832402" d="M243.8,502.235a74.919,74.919,0,0,1,4.4-9.835c1.041,1.851,1.967,3.7,2.893,5.554.694,1.5,1.388,3.124,1.967,4.744a23.465,23.465,0,0,1-1.5-2.083c-1.388-2.083-2.661-4.281-3.934-6.6h1.041a66.5,66.5,0,0,1-4.859,8.215Z" transform="translate(-243.8 -492.4)" fill="#00306c"/>
                </g>
              </g>
              <g id="Grupo_1084351" data-name="Grupo 1084351" transform="translate(98.463 127.157)">
                <g id="Grupo_1084349" data-name="Grupo 1084349" transform="translate(0 3.355)">
                  <path id="Trazado_832403" data-name="Trazado 832403" d="M309,518.335a74.93,74.93,0,0,1,4.4-9.835c1.041,1.851,1.967,3.7,2.893,5.554.694,1.5,1.388,3.124,1.967,4.744a23.458,23.458,0,0,1-1.5-2.083c-1.388-2.083-2.661-4.281-3.934-6.6h1.041A54.618,54.618,0,0,1,309,518.335Z" transform="translate(-309 -508.5)" fill="#00306c"/>
                </g>
                <g id="Grupo_1084350" data-name="Grupo 1084350" transform="translate(7.636)">
                  <path id="Trazado_832404" data-name="Trazado 832404" d="M315.6,515.435A74.928,74.928,0,0,1,320,505.6c1.041,1.851,1.967,3.7,2.893,5.554.694,1.5,1.388,3.124,1.967,4.744a23.471,23.471,0,0,1-1.5-2.083c-1.388-2.083-2.661-4.281-3.934-6.6h1.041a58.925,58.925,0,0,1-4.86,8.215Z" transform="translate(-315.6 -505.6)" fill="#00306c"/>
                </g>
              </g>
              <g id="Grupo_1084354" data-name="Grupo 1084354" transform="translate(71.62 121.835)">
                <g id="Grupo_1084352" data-name="Grupo 1084352" transform="translate(0 3.24)">
                  <path id="Trazado_832405" data-name="Trazado 832405" d="M285.8,513.635a74.924,74.924,0,0,1,4.4-9.835c1.041,1.851,1.967,3.7,2.893,5.554.694,1.5,1.388,3.124,1.967,4.744a23.467,23.467,0,0,1-1.5-2.083c-1.388-2.083-2.661-4.281-3.934-6.6h1.041a58.925,58.925,0,0,1-4.859,8.215Z" transform="translate(-285.8 -503.8)" fill="#00306c"/>
                </g>
                <g id="Grupo_1084353" data-name="Grupo 1084353" transform="translate(7.521)">
                  <path id="Trazado_832406" data-name="Trazado 832406" d="M292.3,510.835A74.93,74.93,0,0,1,296.7,501c1.041,1.851,1.967,3.7,2.893,5.554.694,1.5,1.388,3.124,1.967,4.744a23.458,23.458,0,0,1-1.5-2.083c-1.388-2.083-2.661-4.281-3.934-6.6h1.041a66.49,66.49,0,0,1-4.859,8.215Z" transform="translate(-292.3 -501)" fill="#00306c"/>
                </g>
              </g>
              <g id="Grupo_1084357" data-name="Grupo 1084357" transform="translate(183.851 71.851)">
                <g id="Grupo_1084355" data-name="Grupo 1084355" transform="translate(0 3.24)">
                  <path id="Trazado_832407" data-name="Trazado 832407" d="M382.8,470.435a74.927,74.927,0,0,1,4.4-9.835c1.041,1.851,1.967,3.7,2.893,5.554.694,1.5,1.388,3.124,1.967,4.744a23.466,23.466,0,0,1-1.5-2.083c-1.388-2.083-2.661-4.281-3.934-6.6h1.041a66.491,66.491,0,0,1-4.86,8.215Z" transform="translate(-382.8 -460.6)" fill="#00306c"/>
                </g>
                <g id="Grupo_1084356" data-name="Grupo 1084356" transform="translate(7.521)">
                  <path id="Trazado_832408" data-name="Trazado 832408" d="M389.3,467.635a74.923,74.923,0,0,1,4.4-9.835c1.041,1.851,1.967,3.7,2.893,5.554.694,1.5,1.388,3.124,1.967,4.744a23.466,23.466,0,0,1-1.5-2.083c-1.388-2.083-2.661-4.281-3.934-6.6h1.041a54.622,54.622,0,0,1-4.859,8.215Z" transform="translate(-389.3 -457.8)" fill="#00306c"/>
                </g>
              </g>
              <g id="Grupo_1084360" data-name="Grupo 1084360" transform="translate(201.438 86.661)">
                <g id="Grupo_1084358" data-name="Grupo 1084358" transform="translate(0 3.24)">
                  <path id="Trazado_832409" data-name="Trazado 832409" d="M398,483.235a74.931,74.931,0,0,1,4.4-9.835c1.041,1.851,1.967,3.7,2.893,5.554.694,1.5,1.388,3.124,1.967,4.744a23.458,23.458,0,0,1-1.5-2.083c-1.388-2.083-2.661-4.281-3.934-6.6h1.041a58.924,58.924,0,0,1-4.86,8.215Z" transform="translate(-398 -473.4)" fill="#00306c"/>
                </g>
                <g id="Grupo_1084359" data-name="Grupo 1084359" transform="translate(7.521)">
                  <path id="Trazado_832410" data-name="Trazado 832410" d="M404.5,480.435a74.923,74.923,0,0,1,4.4-9.835c1.041,1.851,1.967,3.7,2.893,5.554.694,1.5,1.388,3.124,1.967,4.744a23.466,23.466,0,0,1-1.5-2.083c-1.388-2.083-2.661-4.281-3.934-6.6h1.041a54.628,54.628,0,0,1-4.859,8.215Z" transform="translate(-404.5 -470.6)" fill="#00306c"/>
                </g>
              </g>
              <g id="Grupo_1084363" data-name="Grupo 1084363" transform="translate(115.24 107.835)">
                <g id="Grupo_1084361" data-name="Grupo 1084361" transform="translate(0 3.24)">
                  <path id="Trazado_832411" data-name="Trazado 832411" d="M323.5,501.535a74.93,74.93,0,0,1,4.4-9.835c1.041,1.851,1.967,3.7,2.893,5.554.694,1.5,1.388,3.124,1.967,4.744a23.458,23.458,0,0,1-1.5-2.083c-1.388-2.083-2.661-4.281-3.934-6.6h1.041a52.916,52.916,0,0,1-4.86,8.215Z" transform="translate(-323.5 -491.7)" fill="#00306c"/>
                </g>
                <g id="Grupo_1084362" data-name="Grupo 1084362" transform="translate(7.521)">
                  <path id="Trazado_832412" data-name="Trazado 832412" d="M330,498.735a74.93,74.93,0,0,1,4.4-9.835c1.041,1.851,1.967,3.7,2.893,5.554.694,1.5,1.388,3.124,1.967,4.744a23.467,23.467,0,0,1-1.5-2.083c-1.388-2.083-2.661-4.281-3.934-6.6h1.041a54.625,54.625,0,0,1-4.86,8.215Z" transform="translate(-330 -488.9)" fill="#00306c"/>
                </g>
              </g>
              <g id="Grupo_1084366" data-name="Grupo 1084366" transform="translate(126.694 128.198)">
                <g id="Grupo_1084364" data-name="Grupo 1084364" transform="translate(0 3.24)">
                  <path id="Trazado_832413" data-name="Trazado 832413" d="M333.4,519.135a74.929,74.929,0,0,1,4.4-9.835c1.041,1.851,1.967,3.7,2.893,5.554.694,1.5,1.388,3.124,1.967,4.744a23.488,23.488,0,0,1-1.5-2.083c-1.388-2.083-2.661-4.281-3.934-6.6h1.041a66.5,66.5,0,0,1-4.86,8.215Z" transform="translate(-333.4 -509.3)" fill="#00306c"/>
                </g>
                <g id="Grupo_1084365" data-name="Grupo 1084365" transform="translate(7.521)">
                  <path id="Trazado_832414" data-name="Trazado 832414" d="M339.9,516.335a74.931,74.931,0,0,1,4.4-9.835c1.041,1.851,1.967,3.7,2.893,5.554.694,1.5,1.388,3.124,1.967,4.744a23.462,23.462,0,0,1-1.5-2.083c-1.388-2.083-2.661-4.281-3.934-6.6h1.041a66.49,66.49,0,0,1-4.86,8.215Z" transform="translate(-339.9 -506.5)" fill="#00306c"/>
                </g>
              </g>
              <g id="Grupo_1084369" data-name="Grupo 1084369" transform="translate(195.884 112.231)">
                <g id="Grupo_1084367" data-name="Grupo 1084367" transform="translate(0 3.355)">
                  <path id="Trazado_832415" data-name="Trazado 832415" d="M393.2,505.435a74.93,74.93,0,0,1,4.4-9.835c1.041,1.851,1.967,3.7,2.893,5.554.694,1.5,1.388,3.124,1.967,4.744a23.458,23.458,0,0,1-1.5-2.083c-1.388-2.083-2.661-4.281-3.934-6.6h1.041a46.371,46.371,0,0,1-4.859,8.215Z" transform="translate(-393.2 -495.6)" fill="#00306c"/>
                </g>
                <g id="Grupo_1084368" data-name="Grupo 1084368" transform="translate(7.636)">
                  <path id="Trazado_832416" data-name="Trazado 832416" d="M399.8,502.535a74.926,74.926,0,0,1,4.4-9.835c1.041,1.851,1.967,3.7,2.893,5.554.694,1.5,1.388,3.124,1.967,4.744a23.473,23.473,0,0,1-1.5-2.083c-1.388-2.083-2.661-4.281-3.934-6.6h1.041a58.931,58.931,0,0,1-4.86,8.215Z" transform="translate(-399.8 -492.7)" fill="#00306c"/>
                </g>
              </g>
              <g id="Grupo_1084372" data-name="Grupo 1084372" transform="translate(200.628 131.554)">
                <g id="Grupo_1084370" data-name="Grupo 1084370" transform="translate(0 3.355)">
                  <path id="Trazado_832417" data-name="Trazado 832417" d="M397.3,522.135a74.927,74.927,0,0,1,4.4-9.835c1.041,1.851,1.967,3.7,2.893,5.554.694,1.5,1.388,3.124,1.967,4.744a23.467,23.467,0,0,1-1.5-2.083c-1.388-2.083-2.661-4.281-3.934-6.6h1.041a66.486,66.486,0,0,1-4.859,8.215Z" transform="translate(-397.3 -512.3)" fill="#00306c"/>
                </g>
                <g id="Grupo_1084371" data-name="Grupo 1084371" transform="translate(7.521)">
                  <path id="Trazado_832418" data-name="Trazado 832418" d="M403.8,519.235a74.93,74.93,0,0,1,4.4-9.835c1.041,1.851,1.967,3.7,2.893,5.554.694,1.5,1.388,3.124,1.967,4.744a23.458,23.458,0,0,1-1.5-2.083c-1.388-2.083-2.661-4.281-3.934-6.6h1.041a66.5,66.5,0,0,1-4.859,8.215Z" transform="translate(-403.8 -509.4)" fill="#00306c"/>
                </g>
              </g>
            </g>
            <g id="Grupo_1084374" data-name="Grupo 1084374" transform="translate(173.207 170.083)">
              <path id="Trazado_832419" data-name="Trazado 832419" d="M325.1,471.689a7.437,7.437,0,0,0,5.554-4.86l.694-2.43,1.157,2.43a4.366,4.366,0,0,0,3.934,2.43,4.551,4.551,0,0,0,3.818-2.43l.81-1.736,1.041,1.388c1.851,2.545,5.669,2.893,8.678,3.355-3.471.926-7.868,1.041-10.413-1.967l1.851-.231a6.165,6.165,0,0,1-11.57,0H332.5a7.223,7.223,0,0,1-7.4,4.05Z" transform="translate(-325.1 -464.4)" fill="#00b0dd"/>
            </g>
            <g id="Grupo_1084375" data-name="Grupo 1084375" transform="translate(179.917 177.719)">
              <path id="Trazado_832420" data-name="Trazado 832420" d="M330.9,478.289a7.437,7.437,0,0,0,5.554-4.859l.694-2.43,1.157,2.43a4.366,4.366,0,0,0,3.934,2.43,4.551,4.551,0,0,0,3.818-2.43l.81-1.736,1.041,1.388c1.851,2.545,5.669,2.893,8.678,3.355-3.471.926-7.868,1.041-10.413-1.967l1.851-.231a6.164,6.164,0,0,1-11.57,0H338.3a7,7,0,0,1-7.4,4.05Z" transform="translate(-330.9 -471)" fill="#00b0dd"/>
            </g>
            <g id="Grupo_1084376" data-name="Grupo 1084376" transform="translate(216.479 192.298)">
              <path id="Trazado_832421" data-name="Trazado 832421" d="M362.5,490.889a7.437,7.437,0,0,0,5.554-4.859l.694-2.43,1.157,2.43a4.366,4.366,0,0,0,3.934,2.43,4.551,4.551,0,0,0,3.818-2.43l.81-1.736,1.041,1.388c1.851,2.545,5.669,2.893,8.678,3.355-3.471.926-7.868,1.041-10.413-1.967l1.851-.231a6.165,6.165,0,0,1-11.57,0H369.9a7.314,7.314,0,0,1-7.4,4.05Z" transform="translate(-362.5 -483.6)" fill="#00b0dd"/>
            </g>
            <g id="Grupo_1084377" data-name="Grupo 1084377" transform="translate(199.24 130.628)">
              <path id="Trazado_832422" data-name="Trazado 832422" d="M347.6,437.589a7.437,7.437,0,0,0,5.554-4.86l.694-2.43L355,432.73a4.366,4.366,0,0,0,3.934,2.43,4.551,4.551,0,0,0,3.818-2.43l.81-1.736,1.041,1.388c1.851,2.545,5.669,2.893,8.678,3.355-3.471.926-7.868,1.041-10.413-1.967l1.851-.231a6.165,6.165,0,0,1-11.57,0H355a7.314,7.314,0,0,1-7.4,4.05Z" transform="translate(-347.6 -430.3)" fill="#00b0dd"/>
            </g>
            <g id="Grupo_1084378" data-name="Grupo 1084378" transform="translate(207.107 201.554)">
              <path id="Trazado_832423" data-name="Trazado 832423" d="M354.4,498.889a7.437,7.437,0,0,0,5.554-4.859l.694-2.43,1.157,2.43a4.366,4.366,0,0,0,3.934,2.43,4.551,4.551,0,0,0,3.818-2.43l.81-1.736,1.041,1.388c1.851,2.545,5.669,2.893,8.678,3.355-3.471.926-7.868,1.041-10.413-1.967l1.851-.231a6.165,6.165,0,0,1-11.57,0H361.8a7,7,0,0,1-7.4,4.05Z" transform="translate(-354.4 -491.6)" fill="#00b0dd"/>
            </g>
            <g id="Grupo_1084379" data-name="Grupo 1084379" transform="translate(80.992 222.843)">
              <path id="Trazado_832424" data-name="Trazado 832424" d="M245.4,517.289a7.437,7.437,0,0,0,5.554-4.86l.694-2.43,1.157,2.43a4.366,4.366,0,0,0,3.934,2.43,4.552,4.552,0,0,0,3.818-2.43l.81-1.736,1.041,1.388c1.851,2.545,5.669,2.893,8.678,3.355-3.471.926-7.868,1.041-10.413-1.967l1.851-.231a6.165,6.165,0,0,1-11.57,0H252.8a7.15,7.15,0,0,1-7.4,4.05Z" transform="translate(-245.4 -510)" fill="#00b0dd"/>
            </g>
            <g id="Grupo_1084380" data-name="Grupo 1084380" transform="translate(109.455 183.967)">
              <path id="Trazado_832425" data-name="Trazado 832425" d="M270,483.689a7.437,7.437,0,0,0,5.554-4.859l.694-2.43,1.157,2.43a4.366,4.366,0,0,0,3.934,2.43,4.551,4.551,0,0,0,3.818-2.43l.81-1.736,1.041,1.388c1.851,2.545,5.669,2.893,8.678,3.355-3.471.926-7.868,1.041-10.413-1.967l1.851-.231a6.165,6.165,0,0,1-11.57,0H277.4a7.15,7.15,0,0,1-7.4,4.05Z" transform="translate(-270 -476.4)" fill="#00b0dd"/>
            </g>
            <g id="Grupo_1084381" data-name="Grupo 1084381" transform="translate(138.496 146.942)">
              <path id="Trazado_832426" data-name="Trazado 832426" d="M295.1,451.689a7.437,7.437,0,0,0,5.554-4.86l.694-2.43,1.157,2.43a4.366,4.366,0,0,0,3.934,2.43,4.551,4.551,0,0,0,3.818-2.43l.81-1.736,1.041,1.388c1.851,2.545,5.669,2.893,8.678,3.355-3.471.926-7.868,1.041-10.413-1.967l1.851-.231a6.165,6.165,0,0,1-11.57,0H302.5a7.15,7.15,0,0,1-7.4,4.05Z" transform="translate(-295.1 -444.4)" fill="#00b0dd"/>
            </g>
            <g id="Grupo_1084382" data-name="Grupo 1084382" transform="translate(119.058 120.562)">
              <path id="Trazado_832427" data-name="Trazado 832427" d="M278.3,428.889a7.437,7.437,0,0,0,5.554-4.86l.694-2.43,1.157,2.43a4.366,4.366,0,0,0,3.934,2.43,4.551,4.551,0,0,0,3.818-2.43l.81-1.736,1.041,1.388c1.851,2.545,5.669,2.893,8.678,3.355-3.471.926-7.868,1.041-10.413-1.967l1.851-.231a6.165,6.165,0,0,1-11.57,0H285.7a7.314,7.314,0,0,1-7.4,4.05Z" transform="translate(-278.3 -421.6)" fill="#00b0dd"/>
            </g>
            <g id="Grupo_1084383" data-name="Grupo 1084383" transform="translate(129.702 169.388)">
              <path id="Trazado_832428" data-name="Trazado 832428" d="M287.5,469.7a5.86,5.86,0,0,0,4.4-3.934l.579-1.967.926,1.967a3.62,3.62,0,0,0,3.124,1.967,3.315,3.315,0,0,0,3.008-1.967l.694-1.388.81,1.157c1.5,2.083,4.512,2.314,6.942,2.661-2.777.694-6.132.926-8.331-1.5l1.5-.231a4.941,4.941,0,0,1-9.256,0h1.5a5.938,5.938,0,0,1-5.9,3.24Z" transform="translate(-287.5 -463.8)" fill="#00b0dd"/>
            </g>
            <g id="Grupo_1084384" data-name="Grupo 1084384" transform="translate(90.826 230.364)">
              <path id="Trazado_832429" data-name="Trazado 832429" d="M253.9,523.789a7.437,7.437,0,0,0,5.554-4.859l.694-2.43,1.157,2.43a4.366,4.366,0,0,0,3.934,2.43,4.552,4.552,0,0,0,3.818-2.43l.81-1.736,1.041,1.388c1.851,2.545,5.669,2.893,8.678,3.355-3.471.926-7.868,1.041-10.413-1.967l1.851-.231a6.165,6.165,0,0,1-11.57,0H261.3a7.15,7.15,0,0,1-7.4,4.05Z" transform="translate(-253.9 -516.5)" fill="#00b0dd"/>
            </g>
            <g id="Grupo_1084385" data-name="Grupo 1084385" transform="translate(212.661 229.901)">
              <path id="Trazado_832430" data-name="Trazado 832430" d="M359.2,522.811a7.141,7.141,0,0,0,5.207-4.512l.578-2.2,1.041,2.2a4.222,4.222,0,0,0,3.587,2.314,3.915,3.915,0,0,0,3.471-2.314l.81-1.62.926,1.388c1.736,2.43,5.207,2.661,8.1,3.124-3.24.81-7.174,1.041-9.719-1.851l1.736-.231a5.744,5.744,0,0,1-10.76,0h1.736a6.21,6.21,0,0,1-6.711,3.7Z" transform="translate(-359.2 -516.1)" fill="#00b0dd"/>
            </g>
            <path id="Trazado_832431" data-name="Trazado 832431" d="M252.766,580.507a112.354,112.354,0,0,1-6.479-12.264,118.242,118.242,0,0,1,28.579-136.992,114.991,114.991,0,0,1,19.207-14,117.382,117.382,0,0,1,59.7-16.2,118.581,118.581,0,0,1,53.455,12.727c-1.388-1.157-2.893-2.314-4.4-3.355a112.63,112.63,0,0,0-11.686-7.636,118.153,118.153,0,0,0-118.017.81,119.948,119.948,0,0,0-19.207,14A118.242,118.242,0,0,0,225.345,554.59a124.069,124.069,0,0,0,6.479,12.264,118.139,118.139,0,0,0,47.438,43.967A118.775,118.775,0,0,1,252.766,580.507Z" transform="translate(-169.229 -306.408)" fill="#a8d3f7"/>
          </g>
          <g id="Grupo_1084387" data-name="Grupo 1084387" clip-path="url(#clip-path)">
            <path id="Trazado_832432" data-name="Trazado 832432" d="M217.1,485.222h67.455c.116-3.471-.926-8.678-3.471-10.992s-7.521-2.2-9.025.926a16.785,16.785,0,0,0-4.628-11.917A12.573,12.573,0,0,0,259.8,459.3c-4.05-.347-7.983,1.851-10.645,4.975-2.661,3.008-4.281,6.826-5.9,10.529-2.314-3.124-6.364-6.132-10.182-5.322a10.5,10.5,0,0,0-7.868,7.868,5.991,5.991,0,0,0-5.9.463C217.565,478.859,216.986,483.14,217.1,485.222Z" transform="translate(-168.854 -295.123)" fill="#fff7e5"/>
          </g>
          <g id="Grupo_1084388" data-name="Grupo 1084388" clip-path="url(#clip-path)">
            <path id="Trazado_832433" data-name="Trazado 832433" d="M345.215,422.789H272.9c-.116-3.7,1.041-9.256,3.7-11.8,2.777-2.545,7.983-2.43,9.6,1.041a18.293,18.293,0,0,1,4.975-12.843A13.575,13.575,0,0,1,299.4,394.9c4.4-.347,8.562,1.967,11.455,5.322,2.893,3.24,4.628,7.4,6.364,11.339,2.43-3.355,6.826-6.6,10.992-5.785a11.239,11.239,0,0,1,8.446,8.446,6.64,6.64,0,0,1,6.248.463C344.752,415.963,345.447,420.591,345.215,422.789Z" transform="translate(-160.091 -305.235)" fill="#fff7e5"/>
          </g>
        </g>
        <g id="Grupo_1084393" data-name="Grupo 1084393" transform="translate(0 384.479)">
          <g id="Grupo_1084392" data-name="Grupo 1084392" clip-path="url(#clip-path-4)">
            <g id="Grupo_1084391" data-name="Grupo 1084391" transform="translate(9.835 17.471)">
              <path id="Trazado_832434" data-name="Trazado 832434" d="M14.616,352.7v4.628H17.74a2.11,2.11,0,0,1,1.967-1.157,2.2,2.2,0,0,1,2.2,2.2,2.276,2.276,0,0,1-2.2,2.2,2.386,2.386,0,0,1-1.967-1.157H14.616v5.207H17.74a2.11,2.11,0,0,1,1.967-1.157,2.2,2.2,0,0,1,0,4.4A2.386,2.386,0,0,1,17.74,366.7H14.616v5.207H17.74a2.11,2.11,0,0,1,1.967-1.157,2.2,2.2,0,0,1,0,4.4,2.386,2.386,0,0,1-1.967-1.157H14.616V379.2H17.74a2.11,2.11,0,0,1,1.967-1.157,2.2,2.2,0,0,1,0,4.4,2.386,2.386,0,0,1-1.967-1.157H14.616v5.207H17.74a2.11,2.11,0,0,1,1.967-1.157,2.2,2.2,0,0,1,0,4.4,2.386,2.386,0,0,1-1.967-1.157H14.616v5.207H17.74a2.11,2.11,0,0,1,1.967-1.157,2.2,2.2,0,0,1,2.2,2.2,2.276,2.276,0,0,1-2.2,2.2,2.386,2.386,0,0,1-1.967-1.157H14.616v5.207H17.74a2.11,2.11,0,0,1,1.967-1.157,2.2,2.2,0,1,1,0,4.4,2.386,2.386,0,0,1-1.967-1.157H14.616v5.207H17.74a2.11,2.11,0,0,1,1.967-1.157,2.2,2.2,0,1,1,0,4.4,2.386,2.386,0,0,1-1.967-1.157H14.616v5.207H17.74a2.11,2.11,0,0,1,1.967-1.157,2.2,2.2,0,1,1,0,4.4,2.386,2.386,0,0,1-1.967-1.157H14.616v5.207H17.74a2.11,2.11,0,0,1,1.967-1.157,2.2,2.2,0,1,1,0,4.4,2.386,2.386,0,0,1-1.967-1.157H14.616v5.207H17.74a2.11,2.11,0,0,1,1.967-1.157,2.2,2.2,0,0,1,0,4.4A2.386,2.386,0,0,1,17.74,432.3H14.616v5.207H17.74a2.11,2.11,0,0,1,1.967-1.157,2.2,2.2,0,0,1,0,4.4,2.386,2.386,0,0,1-1.967-1.157H14.616V444.8H17.74a2.11,2.11,0,0,1,1.967-1.157,2.2,2.2,0,0,1,0,4.4,2.386,2.386,0,0,1-1.967-1.157H14.616v5.207H17.74a2.11,2.11,0,0,1,1.967-1.157,2.2,2.2,0,0,1,0,4.4,2.386,2.386,0,0,1-1.967-1.157H14.616v5.207H17.74a2.11,2.11,0,0,1,1.967-1.157,2.2,2.2,0,1,1,0,4.4,2.386,2.386,0,0,1-1.967-1.157H14.616v5.207H17.74a2.11,2.11,0,0,1,1.967-1.157,2.2,2.2,0,0,1,2.2,2.2c0,1.157-1.041,4.513-2.314,4.513a2.386,2.386,0,0,1-1.967-1.157H14.5v5.207h3.124a2.11,2.11,0,0,1,1.967-1.157,2.2,2.2,0,1,1,0,4.4,2.386,2.386,0,0,1-1.967-1.157H14.5v5.207h3.124a2.11,2.11,0,0,1,1.967-1.157,2.2,2.2,0,1,1,0,4.4,2.386,2.386,0,0,1-1.967-1.157H14.5v5.207h3.124a2.11,2.11,0,0,1,1.967-1.157,2.2,2.2,0,1,1,0,4.4,2.386,2.386,0,0,1-1.967-1.157H14.5v5.207h3.124a2.11,2.11,0,0,1,1.967-1.157,2.2,2.2,0,1,1,0,4.4,2.386,2.386,0,0,1-1.967-1.157H14.5v5.207h3.124a2.11,2.11,0,0,1,1.967-1.157,2.2,2.2,0,1,1,0,4.4,2.386,2.386,0,0,1-1.967-1.157H14.5v5.207h3.124a2.11,2.11,0,0,1,1.967-1.157,2.2,2.2,0,0,1,0,4.4,2.386,2.386,0,0,1-1.967-1.157H14.5v5.207h3.124a2.11,2.11,0,0,1,1.967-1.157,2.2,2.2,0,0,1,0,4.4,2.386,2.386,0,0,1-1.967-1.157H14.5v5.207h3.124a2.11,2.11,0,0,1,1.967-1.157,2.2,2.2,0,0,1,0,4.4,2.386,2.386,0,0,1-1.967-1.157H14.5v5.438H187.591V352.7Z" transform="translate(-14.5 -352.7)" fill="#fff7e5"/>
              <g id="Grupo_1084390" data-name="Grupo 1084390" transform="translate(0.116 9.256)">
                <line id="Línea_3677" data-name="Línea 3677" x1="172.975" fill="none" stroke="#83a7ff" stroke-miterlimit="10" stroke-width="0.314"/>
                <line id="Línea_3678" data-name="Línea 3678" x1="172.975" transform="translate(0 7.521)" fill="none" stroke="#83a7ff" stroke-miterlimit="10" stroke-width="0.314"/>
                <line id="Línea_3679" data-name="Línea 3679" x1="172.975" transform="translate(0 14.926)" fill="none" stroke="#83a7ff" stroke-miterlimit="10" stroke-width="0.314"/>
                <line id="Línea_3680" data-name="Línea 3680" x1="172.975" transform="translate(0 22.446)" fill="none" stroke="#83a7ff" stroke-miterlimit="10" stroke-width="0.314"/>
                <line id="Línea_3681" data-name="Línea 3681" x1="172.975" transform="translate(0 29.851)" fill="none" stroke="#83a7ff" stroke-miterlimit="10" stroke-width="0.314"/>
                <line id="Línea_3682" data-name="Línea 3682" x1="172.975" transform="translate(0 37.256)" fill="none" stroke="#83a7ff" stroke-miterlimit="10" stroke-width="0.314"/>
                <line id="Línea_3683" data-name="Línea 3683" x1="172.975" transform="translate(0 44.777)" fill="none" stroke="#83a7ff" stroke-miterlimit="10" stroke-width="0.314"/>
                <line id="Línea_3684" data-name="Línea 3684" x1="172.975" transform="translate(0 52.182)" fill="none" stroke="#83a7ff" stroke-miterlimit="10" stroke-width="0.314"/>
                <line id="Línea_3685" data-name="Línea 3685" x1="172.975" transform="translate(0 59.702)" fill="none" stroke="#83a7ff" stroke-miterlimit="10" stroke-width="0.314"/>
                <line id="Línea_3686" data-name="Línea 3686" x1="172.975" transform="translate(0 67.107)" fill="none" stroke="#83a7ff" stroke-miterlimit="10" stroke-width="0.314"/>
                <line id="Línea_3687" data-name="Línea 3687" x1="172.975" transform="translate(0 74.628)" fill="none" stroke="#83a7ff" stroke-miterlimit="10" stroke-width="0.314"/>
                <line id="Línea_3688" data-name="Línea 3688" x1="172.975" transform="translate(0 82.033)" fill="none" stroke="#83a7ff" stroke-miterlimit="10" stroke-width="0.314"/>
                <line id="Línea_3689" data-name="Línea 3689" x1="172.975" transform="translate(0 89.438)" fill="none" stroke="#83a7ff" stroke-miterlimit="10" stroke-width="0.314"/>
                <line id="Línea_3690" data-name="Línea 3690" x1="172.975" transform="translate(0 96.959)" fill="none" stroke="#83a7ff" stroke-miterlimit="10" stroke-width="0.314"/>
                <line id="Línea_3691" data-name="Línea 3691" x1="172.975" transform="translate(0 104.364)" fill="none" stroke="#83a7ff" stroke-miterlimit="10" stroke-width="0.314"/>
                <line id="Línea_3692" data-name="Línea 3692" x1="172.975" transform="translate(0 111.884)" fill="none" stroke="#83a7ff" stroke-miterlimit="10" stroke-width="0.314"/>
                <line id="Línea_3693" data-name="Línea 3693" x1="172.975" transform="translate(0 119.289)" fill="none" stroke="#83a7ff" stroke-miterlimit="10" stroke-width="0.314"/>
                <line id="Línea_3694" data-name="Línea 3694" x1="172.975" transform="translate(0 126.694)" fill="none" stroke="#83a7ff" stroke-miterlimit="10" stroke-width="0.314"/>
                <line id="Línea_3695" data-name="Línea 3695" x1="172.975" transform="translate(0 134.215)" fill="none" stroke="#83a7ff" stroke-miterlimit="10" stroke-width="0.314"/>
                <line id="Línea_3696" data-name="Línea 3696" x1="172.975" transform="translate(0 141.62)" fill="none" stroke="#83a7ff" stroke-miterlimit="10" stroke-width="0.314"/>
                <line id="Línea_3697" data-name="Línea 3697" x1="172.975" transform="translate(0 149.14)" fill="none" stroke="#83a7ff" stroke-miterlimit="10" stroke-width="0.314"/>
                <line id="Línea_3698" data-name="Línea 3698" x1="172.975" transform="translate(0 156.545)" fill="none" stroke="#83a7ff" stroke-miterlimit="10" stroke-width="0.314"/>
                <line id="Línea_3699" data-name="Línea 3699" x1="172.975" transform="translate(0 163.95)" fill="none" stroke="#83a7ff" stroke-miterlimit="10" stroke-width="0.314"/>
                <line id="Línea_3700" data-name="Línea 3700" x1="172.975" transform="translate(0 171.471)" fill="none" stroke="#83a7ff" stroke-miterlimit="10" stroke-width="0.314"/>
              </g>
              <rect id="Rectángulo_379340" data-name="Rectángulo 379340" width="0.694" height="183.388" transform="translate(11.107)" fill="#00306c"/>
            </g>
          </g>
        </g>
        <g id="Grupo_1084416" data-name="Grupo 1084416" transform="translate(27.19 150.066)">
          <g id="Grupo_1084398" data-name="Grupo 1084398">
            <g id="Grupo_1084395" data-name="Grupo 1084395">
              <g id="Grupo_1084394" data-name="Grupo 1084394">
                <path id="Trazado_832435" data-name="Trazado 832435" d="M78.442,183.942v48.942a48.942,48.942,0,0,1,0-97.884h0Z" transform="translate(-29.5 -135)" fill="#fff7e5"/>
              </g>
            </g>
            <g id="Grupo_1084397" data-name="Grupo 1084397" transform="translate(48.942)">
              <g id="Grupo_1084396" data-name="Grupo 1084396">
                <path id="Trazado_832436" data-name="Trazado 832436" d="M71.8,183.942V135a48.942,48.942,0,0,1,0,97.884h0Z" transform="translate(-71.8 -135)" fill="#fff7e5"/>
              </g>
            </g>
          </g>
          <g id="Grupo_1084403" data-name="Grupo 1084403" transform="translate(4.397 4.397)">
            <g id="Grupo_1084400" data-name="Grupo 1084400">
              <g id="Grupo_1084399" data-name="Grupo 1084399">
                <path id="Trazado_832437" data-name="Trazado 832437" d="M77.845,183.345v44.545a44.545,44.545,0,0,1,0-89.091h0Z" transform="translate(-33.3 -138.8)" fill="#00306c"/>
              </g>
            </g>
            <g id="Grupo_1084402" data-name="Grupo 1084402" transform="translate(44.545)">
              <g id="Grupo_1084401" data-name="Grupo 1084401">
                <path id="Trazado_832438" data-name="Trazado 832438" d="M71.8,183.345V138.8a44.545,44.545,0,0,1,0,89.091h0Z" transform="translate(-71.8 -138.8)" fill="#ff6e02"/>
              </g>
            </g>
          </g>
          <g id="Grupo_1084408" data-name="Grupo 1084408" transform="translate(14.694 14.694)">
            <g id="Grupo_1084405" data-name="Grupo 1084405">
              <g id="Grupo_1084404" data-name="Grupo 1084404">
                <path id="Trazado_832439" data-name="Trazado 832439" d="M76.448,181.948V216.2a34.248,34.248,0,0,1,0-68.5h0Z" transform="translate(-42.2 -147.7)" fill="#fff7e5"/>
              </g>
            </g>
            <g id="Grupo_1084407" data-name="Grupo 1084407" transform="translate(34.248)">
              <g id="Grupo_1084406" data-name="Grupo 1084406">
                <path id="Trazado_832440" data-name="Trazado 832440" d="M71.8,181.948V147.7a34.248,34.248,0,0,1,0,68.5h0Z" transform="translate(-71.8 -147.7)" fill="#fff7e5"/>
              </g>
            </g>
          </g>
          <g id="Grupo_1084415" data-name="Grupo 1084415" transform="translate(24.182 23.372)">
            <g id="Grupo_1084413" data-name="Grupo 1084413">
              <g id="Grupo_1084410" data-name="Grupo 1084410" transform="translate(0 2.545)">
                <g id="Grupo_1084409" data-name="Grupo 1084409">
                  <path id="Trazado_832441" data-name="Trazado 832441" d="M95.64,183.664a23.855,23.855,0,0,0-.116-4.975l3.7-1.62.347-2.2a19.378,19.378,0,0,1-2.083-3.124,33.128,33.128,0,0,0-2.777-4.859l-3.7,1.62a16.482,16.482,0,0,0-3.587-3.355l1.5-3.818.231-2.43s-3.587.463-5.207-.116a22.1,22.1,0,0,0-5.438-1.388l-1.5,3.818a23.854,23.854,0,0,0-4.975.116l-1.62-3.7L60,159.714l.231,2.43,1.62,3.7a16.482,16.482,0,0,0-3.355,3.587l-3.818-1.5a20.218,20.218,0,0,0-2.545,4.975,28.051,28.051,0,0,1-1.736,3.24l.347,2.2,3.818,1.5a23.855,23.855,0,0,0,.116,4.975l-3.587,1.62a21.743,21.743,0,0,0,1.62,5.322,25.666,25.666,0,0,0,2.893,4.859l3.7-1.62a16.482,16.482,0,0,0,3.587,3.355l-1.736,2.083.231,1.736a25.2,25.2,0,0,0,4.975,2.545,22.1,22.1,0,0,0,5.438,1.388l1.5-3.818a23.853,23.853,0,0,0,4.975-.116l1.62,3.7a25.271,25.271,0,0,0,10.182-4.512l.231-1.736-1.851-1.851a16.482,16.482,0,0,0,3.355-3.587l3.818,1.5a20.217,20.217,0,0,0,2.545-4.975,22.1,22.1,0,0,0,1.388-5.438Zm-10.066,1.967a11.1,11.1,0,1,1-6.364-14.347A11.26,11.26,0,0,1,85.574,185.631Z" transform="translate(-50.4 -157.4)" fill="#002c7c"/>
                </g>
              </g>
              <g id="Grupo_1084412" data-name="Grupo 1084412" transform="translate(0.116)">
                <g id="Grupo_1084411" data-name="Grupo 1084411">
                  <path id="Trazado_832442" data-name="Trazado 832442" d="M95.971,181.927a23.666,23.666,0,0,0-.116-4.975l3.818-1.736a22.9,22.9,0,0,0-1.736-5.438,25.665,25.665,0,0,0-2.893-4.859l-3.818,1.736a25.439,25.439,0,0,0-3.587-3.471l1.5-3.934a25.635,25.635,0,0,0-4.975-2.661,22.1,22.1,0,0,0-5.438-1.388l-1.5,3.934a23.665,23.665,0,0,0-4.975.116l-1.736-3.818a24.442,24.442,0,0,0-10.3,4.628l1.62,3.7a25.441,25.441,0,0,0-3.471,3.587l-3.818-1.5a25.634,25.634,0,0,0-2.661,4.975,23.494,23.494,0,0,0-1.388,5.438l3.934,1.5a23.666,23.666,0,0,0,.116,4.975l-3.818,1.736a22.9,22.9,0,0,0,1.736,5.438,25.666,25.666,0,0,0,2.893,4.859l3.818-1.736a25.44,25.44,0,0,0,3.587,3.471l-1.5,3.934a25.635,25.635,0,0,0,4.975,2.661,22.1,22.1,0,0,0,5.438,1.388l1.5-3.934a23.665,23.665,0,0,0,4.975-.116l1.736,3.818a24.442,24.442,0,0,0,10.3-4.628l-1.62-3.7a25.441,25.441,0,0,0,3.471-3.587l3.818,1.5a25.634,25.634,0,0,0,2.661-4.975,23.494,23.494,0,0,0,1.388-5.438Zm-10.3,2.083a11.281,11.281,0,1,1-6.479-14.579A11.334,11.334,0,0,1,85.674,184.01Z" transform="translate(-50.5 -155.2)" fill="#ff6e02"/>
                </g>
              </g>
            </g>
            <g id="Grupo_1084414" data-name="Grupo 1084414" transform="translate(8.619 8.619)">
              <path id="Trazado_832443" data-name="Trazado 832443" d="M89.032,184.576a16.115,16.115,0,1,1-9.256-20.826A16.067,16.067,0,0,1,89.032,184.576Z" transform="translate(-57.85 -162.65)" fill="none" stroke="#2b1192" stroke-miterlimit="10" stroke-width="1.5"/>
            </g>
          </g>
        </g>
        <g id="Grupo_1084441" data-name="Grupo 1084441" transform="translate(266.836 150.066)">
          <g id="Grupo_1084423" data-name="Grupo 1084423">
            <g id="Grupo_1084418" data-name="Grupo 1084418">
              <g id="Grupo_1084417" data-name="Grupo 1084417">
                <path id="Trazado_832444" data-name="Trazado 832444" d="M285.539,183.942,239.026,199.1A48.909,48.909,0,0,1,270.5,137.43,47.788,47.788,0,0,1,285.654,135v48.942Z" transform="translate(-236.622 -135)" fill="#fff7e5"/>
              </g>
            </g>
            <g id="Grupo_1084420" data-name="Grupo 1084420" transform="translate(2.404 9.372)">
              <g id="Grupo_1084419" data-name="Grupo 1084419">
                <path id="Trazado_832445" data-name="Trazado 832445" d="M285.212,182.67l28.81-39.57a48.96,48.96,0,0,1-57.5,79.256A46.907,46.907,0,0,1,238.7,197.827Z" transform="translate(-238.7 -143.1)" fill="#fff7e5"/>
              </g>
            </g>
            <g id="Grupo_1084422" data-name="Grupo 1084422" transform="translate(48.917)">
              <g id="Grupo_1084421" data-name="Grupo 1084421">
                <path id="Trazado_832446" data-name="Trazado 832446" d="M278.9,183.942V135a47.187,47.187,0,0,1,28.81,9.372Z" transform="translate(-278.9 -135)" fill="#fff7e5"/>
              </g>
            </g>
          </g>
          <g id="Grupo_1084430" data-name="Grupo 1084430" transform="translate(4.364 4.397)">
            <g id="Grupo_1084425" data-name="Grupo 1084425">
              <g id="Grupo_1084424" data-name="Grupo 1084424">
                <path id="Trazado_832447" data-name="Trazado 832447" d="M284.946,183.345,242.6,197.114A44.536,44.536,0,0,1,271.178,141a42.366,42.366,0,0,1,13.769-2.2Z" transform="translate(-240.394 -138.8)" fill="#00306c"/>
              </g>
            </g>
            <g id="Grupo_1084427" data-name="Grupo 1084427" transform="translate(2.205 8.562)">
              <g id="Grupo_1084426" data-name="Grupo 1084426">
                <path id="Trazado_832448" data-name="Trazado 832448" d="M284.647,182.183,310.8,146.2a44.481,44.481,0,0,1-52.3,71.967,42.85,42.85,0,0,1-16.2-22.215Z" transform="translate(-242.3 -146.2)" fill="#007fc2"/>
              </g>
            </g>
            <g id="Grupo_1084429" data-name="Grupo 1084429" transform="translate(44.552)">
              <g id="Grupo_1084428" data-name="Grupo 1084428">
                <path id="Trazado_832449" data-name="Trazado 832449" d="M278.9,183.345V138.8a43.321,43.321,0,0,1,26.149,8.446Z" transform="translate(-278.9 -138.8)" fill="#00306c"/>
              </g>
            </g>
          </g>
          <g id="Grupo_1084437" data-name="Grupo 1084437" transform="translate(14.586 14.694)">
            <g id="Grupo_1084432" data-name="Grupo 1084432" transform="translate(0 0.116)">
              <g id="Grupo_1084431" data-name="Grupo 1084431">
                <path id="Trazado_832450" data-name="Trazado 832450" d="M283.559,181.932l-32.628,10.645a34.2,34.2,0,0,1,21.983-43.157,33.007,33.007,0,0,1,10.645-1.62v34.132Z" transform="translate(-249.229 -147.8)" fill="#fff7e5"/>
              </g>
            </g>
            <g id="Grupo_1084434" data-name="Grupo 1084434" transform="translate(1.702 6.479)">
              <g id="Grupo_1084433" data-name="Grupo 1084433">
                <path id="Trazado_832451" data-name="Trazado 832451" d="M283.328,181.069,303.46,153.3A34.3,34.3,0,0,1,263.2,208.837a33.236,33.236,0,0,1-12.5-17.124Z" transform="translate(-250.7 -153.3)" fill="#fff7e5"/>
              </g>
            </g>
            <g id="Grupo_1084436" data-name="Grupo 1084436" transform="translate(34.33)">
              <g id="Grupo_1084435" data-name="Grupo 1084435">
                <path id="Trazado_832452" data-name="Trazado 832452" d="M278.9,181.948V147.7a32.577,32.577,0,0,1,20.132,6.6Z" transform="translate(-278.9 -147.7)" fill="#fff7e5"/>
              </g>
            </g>
          </g>
          <g id="Grupo_1084440" data-name="Grupo 1084440" transform="translate(24.207 27.421)">
            <g id="Grupo_1084439" data-name="Grupo 1084439">
              <path id="Trazado_832453" data-name="Trazado 832453" d="M296.308,192.761l-1.157-2.661-26.5.694-.926,1.967a2.087,2.087,0,0,0,1.851,3.008l24.992-.116A2.029,2.029,0,0,0,296.308,192.761Z" transform="translate(-255.979 -153.769)" fill="#00306c"/>
              <g id="Grupo_1084438" data-name="Grupo 1084438">
                <path id="Trazado_832454" data-name="Trazado 832454" d="M269.7,160.3c1.736,11.8,3.934,23.6,6.479,35.174l2.661-.116c-.694-12.149-1.388-24.413-2.083-36.562A39.839,39.839,0,0,0,269.7,160.3Z" transform="translate(-255.635 -158.684)" fill="#007fc2"/>
                <path id="Trazado_832455" data-name="Trazado 832455" d="M278.677,158.7c-.926,0-1.967.116-2.777.116.694,12.149,1.388,24.413,2.083,36.562l3.471-.116c.347-12.149,1.273-24.3,2.661-36.331C282.379,158.816,280.644,158.7,278.677,158.7Z" transform="translate(-254.661 -158.7)" fill="#00306c"/>
                <path id="Trazado_832456" data-name="Trazado 832456" d="M258.766,168.007a6.326,6.326,0,0,0-.347,6.942l12.033,19.322h1.157c-4.281-8.793-8.562-17.587-12.843-26.264Z" transform="translate(-257.544 -157.247)" fill="#007fc2"/>
                <path id="Trazado_832457" data-name="Trazado 832457" d="M258.6,168.638c4.281,8.793,8.446,17.587,12.727,26.38l3.008-.116c-3.355-10.529-6.826-21.058-10.182-31.7A31.1,31.1,0,0,0,258.6,168.638Z" transform="translate(-257.378 -157.993)" fill="#007fc2"/>
                <path id="Trazado_832458" data-name="Trazado 832458" d="M263.4,163.687c3.355,10.529,6.826,21.058,10.182,31.7l3.587-.116c-2.661-11.686-4.744-23.372-6.479-35.174A26.768,26.768,0,0,0,263.4,163.687Z" transform="translate(-256.624 -158.48)" fill="#00306c"/>
                <path id="Trazado_832459" data-name="Trazado 832459" d="M283.261,159c-1.388,12.033-2.2,24.182-2.661,36.331l4.281-.116c1.273-11.686,2.893-23.256,4.744-34.826A24.612,24.612,0,0,0,283.261,159Z" transform="translate(-253.923 -158.653)" fill="#007fc2"/>
                <path id="Trazado_832460" data-name="Trazado 832460" d="M299.456,166.5c-3.24,9.025-6.248,18.165-9.256,27.421h1.62l9.025-20.248a6.278,6.278,0,0,0-.926-6.479A2.421,2.421,0,0,0,299.456,166.5Z" transform="translate(-252.416 -157.475)" fill="#007fc2"/>
                <path id="Trazado_832461" data-name="Trazado 832461" d="M294.6,162.6c-2.545,10.645-5.091,21.289-7.4,31.934l3.471-.116c2.893-9.141,6.017-18.281,9.256-27.421A32.511,32.511,0,0,0,294.6,162.6Z" transform="translate(-252.887 -158.088)" fill="#007fc2"/>
                <path id="Trazado_832462" data-name="Trazado 832462" d="M289.044,160.2c-1.851,11.57-3.355,23.256-4.744,34.826l3.24-.116c2.314-10.645,4.744-21.289,7.4-31.934A23.3,23.3,0,0,0,289.044,160.2Z" transform="translate(-253.342 -158.464)" fill="#00306c"/>
              </g>
            </g>
          </g>
        </g>
        <g id="Grupo_1084461" data-name="Grupo 1084461" transform="translate(146.968 149.95)">
          <g id="Grupo_1084446" data-name="Grupo 1084446">
            <g id="Grupo_1084443" data-name="Grupo 1084443">
              <g id="Grupo_1084442" data-name="Grupo 1084442">
                <path id="Trazado_832463" data-name="Trazado 832463" d="M182.054,183.958,228.567,168.8A48.957,48.957,0,1,1,166.9,137.33a47.788,47.788,0,0,1,15.157-2.43Z" transform="translate(-133.022 -134.9)" fill="#fff7e5"/>
              </g>
            </g>
            <g id="Grupo_1084445" data-name="Grupo 1084445" transform="translate(49.032 0.116)">
              <g id="Grupo_1084444" data-name="Grupo 1084444">
                <path id="Trazado_832464" data-name="Trazado 832464" d="M175.4,183.942V135a48.119,48.119,0,0,1,46.512,33.785Z" transform="translate(-175.4 -135)" fill="#fff7e5"/>
              </g>
            </g>
          </g>
          <g id="Grupo_1084451" data-name="Grupo 1084451" transform="translate(4.48 4.512)">
            <g id="Grupo_1084448" data-name="Grupo 1084448" transform="translate(0 0)">
              <g id="Grupo_1084447" data-name="Grupo 1084447">
                <path id="Trazado_832465" data-name="Trazado 832465" d="M181.446,183.345l42.347-13.769A44.529,44.529,0,1,1,167.678,141a42.365,42.365,0,0,1,13.769-2.2Z" transform="translate(-136.894 -138.8)" fill="#f9a200"/>
              </g>
            </g>
            <g id="Grupo_1084450" data-name="Grupo 1084450" transform="translate(44.552)">
              <g id="Grupo_1084449" data-name="Grupo 1084449">
                <path id="Trazado_832466" data-name="Trazado 832466" d="M175.4,183.345V138.8a43.845,43.845,0,0,1,42.347,30.777Z" transform="translate(-175.4 -138.8)" fill="#00306c"/>
              </g>
            </g>
          </g>
          <g id="Grupo_1084456" data-name="Grupo 1084456" transform="translate(14.862 14.81)">
            <g id="Grupo_1084453" data-name="Grupo 1084453" transform="translate(0 0)">
              <g id="Grupo_1084452" data-name="Grupo 1084452">
                <path id="Trazado_832467" data-name="Trazado 832467" d="M180.037,181.948,212.666,171.3a34.248,34.248,0,1,1-43.157-21.983,33.006,33.006,0,0,1,10.645-1.62v34.248Z" transform="translate(-145.867 -147.7)" fill="#fff7e5"/>
              </g>
            </g>
            <g id="Grupo_1084455" data-name="Grupo 1084455" transform="translate(34.171)">
              <g id="Grupo_1084454" data-name="Grupo 1084454">
                <path id="Trazado_832468" data-name="Trazado 832468" d="M175.4,181.948V147.7a33.777,33.777,0,0,1,32.628,23.719Z" transform="translate(-175.4 -147.7)" fill="#fff7e5"/>
              </g>
            </g>
          </g>
          <g id="Grupo_1084460" data-name="Grupo 1084460" transform="translate(30.026 22.981)">
            <g id="Grupo_1084458" data-name="Grupo 1084458">
              <path id="Trazado_832469" data-name="Trazado 832469" d="M168.049,197.2l7.636,1.62-.231,1.041a1.471,1.471,0,0,1-1.736,1.157l-4.859-1.041a1.472,1.472,0,0,1-1.157-1.736Z" transform="translate(-157.605 -148.098)" fill="#00306c"/>
              <path id="Trazado_832470" data-name="Trazado 832470" d="M199.269,179.219a20.344,20.344,0,1,0-39.917-7.868,19.571,19.571,0,0,0,2.893,14.694,16.1,16.1,0,0,1,2.2,11.917l-.81,3.818,19.669,4.05.81-3.934a15.547,15.547,0,0,1,6.6-9.95A20.291,20.291,0,0,0,199.269,179.219Z" transform="translate(-158.973 -154.762)" fill="#f9a200"/>
              <g id="Grupo_1084457" data-name="Grupo 1084457" transform="translate(4.735 42.854)">
                <path id="Trazado_832471" data-name="Trazado 832471" d="M163.105,195.126a2.6,2.6,0,0,0,1.967,3.008l10.066,2.083-11.8-6.017Z" transform="translate(-163.066 -191.423)" fill="#a8d3f7"/>
                <path id="Trazado_832472" data-name="Trazado 832472" d="M181.846,195.536,173.4,193.8l7.983,4.05Z" transform="translate(-161.443 -191.486)" fill="#00b0dd"/>
                <path id="Trazado_832473" data-name="Trazado 832473" d="M182.06,200.825,164.7,192.031l-.926-.231-.579,2.777,11.8,6.017,4.628.926A2.6,2.6,0,0,0,182.06,200.825Z" transform="translate(-163.045 -191.8)" fill="#00b0dd"/>
                <path id="Trazado_832474" data-name="Trazado 832474" d="M182.434,199.521l.347-1.388-7.983-4.05L164.5,192l17.355,8.793A2.569,2.569,0,0,0,182.434,199.521Z" transform="translate(-162.841 -191.769)" fill="#a8d3f7"/>
              </g>
            </g>
            <path id="Trazado_832475" data-name="Trazado 832475" d="M169.2,196.9c1.62-5.554,3.008-11.107,4.281-16.661a40.619,40.619,0,0,0,1.388-9.14,15.113,15.113,0,0,0-.579-4.512c-.116-.231-.231-.579-.463-.579-.347-.116-.579.231-.81.463a9.608,9.608,0,0,0-1.62,5.322,18.624,18.624,0,0,0,1.388,8.331c.694,1.5,1.736,3.008,3.24,3.24,1.62.231,3.124-.926,4.165-2.2,2.545-2.777,4.859-6.017,5.322-9.719.116-1.041-.231-2.545-1.273-2.314a1.8,1.8,0,0,0-.926.694,20.208,20.208,0,0,0-3.24,6.017,108.9,108.9,0,0,0-5.785,22.1" transform="translate(-157.367 -153)" fill="none" stroke="#2b1192" stroke-miterlimit="10" stroke-width="1.5"/>
            <g id="Grupo_1084459" data-name="Grupo 1084459" transform="translate(2.557 3.978)">
              <path id="Trazado_832476" data-name="Trazado 832476" d="M161.781,176.712c-2.661-8.215,3.934-17.934,12.5-18.512a36.883,36.883,0,0,0-4.859,3.471,23.965,23.965,0,0,0-7.636,15.041Z" transform="translate(-161.184 -158.2)" fill="#fff7e5"/>
            </g>
          </g>
        </g>
        <g id="Grupo_1084462" data-name="Grupo 1084462" transform="translate(0 569.256)">
          <rect id="Rectángulo_379342" data-name="Rectángulo 379342" width="24.182" height="18.512" fill="#00306c"/>
          <rect id="Rectángulo_379343" data-name="Rectángulo 379343" width="24.182" height="18.512" transform="translate(23.025)" fill="#ff1028"/>
          <rect id="Rectángulo_379344" data-name="Rectángulo 379344" width="24.182" height="18.512" transform="translate(45.934)" fill="#f9a200"/>
          <rect id="Rectángulo_379345" data-name="Rectángulo 379345" width="24.182" height="18.512" transform="translate(68.959)" fill="#009c32"/>
          <rect id="Rectángulo_379346" data-name="Rectángulo 379346" width="24.182" height="18.512" transform="translate(91.983)" fill="#ff122e"/>
          <rect id="Rectángulo_379347" data-name="Rectángulo 379347" width="24.182" height="18.512" transform="translate(114.893)" fill="#ff3c22"/>
          <rect id="Rectángulo_379348" data-name="Rectángulo 379348" width="24.182" height="18.512" transform="translate(137.917)" fill="#00b0dd"/>
          <rect id="Rectángulo_379349" data-name="Rectángulo 379349" width="24.182" height="18.512" transform="translate(160.942)" fill="#ffb800"/>
          <rect id="Rectángulo_379350" data-name="Rectángulo 379350" width="24.182" height="18.512" transform="translate(183.851)" fill="#c40a34"/>
          <rect id="Rectángulo_379351" data-name="Rectángulo 379351" width="24.182" height="18.512" transform="translate(206.876)" fill="#ff6e02"/>
          <rect id="Rectángulo_379352" data-name="Rectángulo 379352" width="24.182" height="18.512" transform="translate(229.785)" fill="#ff058a"/>
          <rect id="Rectángulo_379353" data-name="Rectángulo 379353" width="24.182" height="18.512" transform="translate(252.81)" fill="#ff9f00"/>
          <rect id="Rectángulo_379354" data-name="Rectángulo 379354" width="24.182" height="18.512" transform="translate(275.835)" fill="#fc8f00"/>
          <rect id="Rectángulo_379355" data-name="Rectángulo 379355" width="24.182" height="18.512" transform="translate(298.744)" fill="#00792e"/>
          <rect id="Rectángulo_379356" data-name="Rectángulo 379356" width="24.182" height="18.512" transform="translate(321.769)" fill="#007fc2"/>
          <rect id="Rectángulo_379357" data-name="Rectángulo 379357" width="24.182" height="18.512" transform="translate(344.793)" fill="#00bd1f"/>
          <rect id="Rectángulo_379358" data-name="Rectángulo 379358" width="24.182" height="18.512" transform="translate(367.702)" fill="#005390"/>
        </g>
        <g id="Grupo_1084466" data-name="Grupo 1084466" transform="translate(213.934 379.851)">
          <g id="Grupo_1084463" data-name="Grupo 1084463">
            <rect id="Rectángulo_379359" data-name="Rectángulo 379359" width="3.24" height="69.306" fill="#00792e"/>
            <text id="OUR_EARTH_OUR_HOME" data-name="OUR EARTH,
OUR HOME" transform="translate(11.15 10.161)" fill="#00792e" font-size="9" font-family="Poppins-Black, Poppins" font-weight="800"><tspan x="0" y="0">OUR EARTH,</tspan><tspan x="0" y="8">OUR HOME</tspan></text>
            <rect id="Rectángulo_379360" data-name="Rectángulo 379360" width="57.967" height="65.603" transform="translate(11.107 25.686)" fill="none"/>
            <text id="Lorem_ipsum_dolor_sit_amet_consectetuer_adipiscing_elit_sed_diam_nonummy_nibh_euismod_tincidunt_ut_laoreet_dolore_magna_aliquam_erat." data-name="Lorem ipsum dolor sit 
amet, consectetuer 
adipiscing elit, sed 
diam nonummy nibh 
euismod tincidunt ut 
laoreet dolore magna 
aliquam erat." transform="translate(11.15 28.687)" fill="#00306c" font-size="5" font-family="Poppins-SemiBold, Poppins" font-weight="600"><tspan x="0" y="0">Lorem ipsum dolor sit </tspan><tspan x="0" y="8">amet, consectetuer </tspan><tspan x="0" y="16">adipiscing elit, sed </tspan><tspan x="0" y="24">diam nonummy nibh </tspan><tspan x="0" y="32">euismod tincidunt ut </tspan><tspan x="0" y="40">laoreet dolore magna </tspan><tspan x="0" y="48">aliquam erat.</tspan></text>
          </g>
          <g id="Grupo_1084465" data-name="Grupo 1084465" transform="translate(1.736 69.19)">
            <g id="Grupo_1084464" data-name="Grupo 1084464">
              <line id="Línea_3701" data-name="Línea 3701" y2="1.736" fill="none" stroke="#00306c" stroke-miterlimit="10" stroke-width="2"/>
              <line id="Línea_3702" data-name="Línea 3702" y2="55.537" transform="translate(0 5.322)" fill="none" stroke="#00306c" stroke-miterlimit="10" stroke-width="2" stroke-dasharray="3.094 3.094"/>
              <path id="Trazado_832477" data-name="Trazado 832477" d="M192.4,447.5v1.736h1.736" transform="translate(-192.4 -384.905)" fill="none" stroke="#00306c" stroke-miterlimit="10" stroke-width="2"/>
              <line id="Línea_3703" data-name="Línea 3703" x2="23.025" transform="translate(4.86 64.331)" fill="none" stroke="#00306c" stroke-miterlimit="10" stroke-width="2" stroke-dasharray="2.663 2.663"/>
              <line id="Línea_3704" data-name="Línea 3704" x2="1.736" transform="translate(29.504 64.331)" fill="none" stroke="#00306c" stroke-miterlimit="10" stroke-width="2"/>
            </g>
          </g>
        </g>
        <g id="Grupo_1084467" data-name="Grupo 1084467" transform="translate(306.951 371.503)">
          <text id="_80_" data-name="80%" transform="translate(0 33)" fill="#00306c" font-size="31" font-family="Poppins-Black, Poppins" font-weight="800"><tspan x="0" y="0">80%</tspan></text>
          <text id="Lorem_ipsum" data-name="Lorem ipsum" transform="translate(0.589 43.294)" fill="#00306c" font-size="10" font-family="Poppins-SemiBold, Poppins" font-weight="600"><tspan x="0" y="0">Lorem ipsum</tspan></text>
        </g>
        <g id="Grupo_1084473" data-name="Grupo 1084473" transform="translate(24.39 412.364)">
          <g id="Grupo_1084468" data-name="Grupo 1084468">
            <circle id="Elipse_6664" data-name="Elipse 6664" cx="9.256" cy="9.256" r="9.256" transform="translate(0 16.821) rotate(-45)" fill="#00306c"/>
            <text id="GOAL_1_Lorem_ipsum_dolor_sit_amet." data-name="GOAL 1 
Lorem ipsum dolor sit amet." transform="translate(28.635 15.665)" fill="#ff3c22" font-size="9" font-family="Poppins-Black, Poppins" font-weight="800"><tspan x="0" y="0">GOAL 1 </tspan><tspan fill="#00306c" font-size="8" font-family="Poppins-SemiBold, Poppins" font-weight="600"><tspan x="0" y="8">Lorem ipsum dolor sit amet.</tspan></tspan></text>
            <path id="Trazado_832478" data-name="Trazado 832478" d="M34.4,375.353c1.62,2.43,4.628,6.132,4.628,6.132s6.364-13.306,10.645-19.785" transform="translate(-25.93 -361.7)" fill="none" stroke="#ff3c22" stroke-miterlimit="10" stroke-width="3.191"/>
          </g>
          <g id="Grupo_1084469" data-name="Grupo 1084469" transform="translate(2.354 28.926)">
            <circle id="Elipse_6665" data-name="Elipse 6665" cx="9.256" cy="9.256" r="9.256" transform="translate(0 24.383) rotate(-80.008)" fill="#00306c"/>
            <text id="GOAL_2_Lorem_ipsum_dolor_sit_amet." data-name="GOAL 2 
Lorem ipsum dolor sit amet." transform="translate(26.281 15.689)" fill="#009c32" font-size="9" font-family="Poppins-Black, Poppins" font-weight="800"><tspan x="0" y="0">GOAL 2 </tspan><tspan fill="#00306c" font-size="8" font-family="Poppins-SemiBold, Poppins" font-weight="600"><tspan x="0" y="8">Lorem ipsum dolor sit amet.</tspan></tspan></text>
            <path id="Trazado_832479" data-name="Trazado 832479" d="M34.4,400.353c1.62,2.43,4.628,6.132,4.628,6.132s6.364-13.306,10.645-19.785" transform="translate(-28.284 -386.7)" fill="none" stroke="#ff3c22" stroke-miterlimit="10" stroke-width="3.191"/>
          </g>
          <g id="Grupo_1084470" data-name="Grupo 1084470" transform="translate(0.048 57.851)">
            <circle id="Elipse_6666" data-name="Elipse 6666" cx="9.256" cy="9.256" r="9.256" transform="translate(0 16.916) rotate(-45)" fill="#00306c"/>
            <text id="GOAL_3_Lorem_ipsum_dolor_sit_amet." data-name="GOAL 3 
Lorem ipsum dolor sit amet." transform="translate(28.587 15.713)" fill="#ff6e02" font-size="9" font-family="Poppins-Black, Poppins" font-weight="800"><tspan x="0" y="0">GOAL 3 </tspan><tspan fill="#00306c" font-size="8" font-family="Poppins-SemiBold, Poppins" font-weight="600"><tspan x="0" y="8">Lorem ipsum dolor sit amet.</tspan></tspan></text>
            <path id="Trazado_832480" data-name="Trazado 832480" d="M34.4,425.353c1.62,2.43,4.628,6.132,4.628,6.132s6.364-13.306,10.645-19.785" transform="translate(-25.978 -411.7)" fill="none" stroke="#ff3c22" stroke-miterlimit="10" stroke-width="3.191"/>
          </g>
          <g id="Grupo_1084471" data-name="Grupo 1084471" transform="translate(1.996 86.777)">
            <circle id="Elipse_6667" data-name="Elipse 6667" cx="9.256" cy="9.256" r="9.256" transform="translate(0 23.841) rotate(-76.714)" fill="#00306c"/>
            <text id="GOAL_4_Lorem_ipsum_dolor_sit_amet." data-name="GOAL 4 
Lorem ipsum dolor sit amet." transform="translate(26.639 15.737)" fill="#007fc2" font-size="9" font-family="Poppins-Black, Poppins" font-weight="800"><tspan x="0" y="0">GOAL 4 </tspan><tspan fill="#00306c" font-size="8" font-family="Poppins-SemiBold, Poppins" font-weight="600"><tspan x="0" y="8">Lorem ipsum dolor sit amet.</tspan></tspan></text>
            <path id="Trazado_832481" data-name="Trazado 832481" d="M34.4,450.353c1.62,2.43,4.628,6.132,4.628,6.132s6.364-13.306,10.645-19.785" transform="translate(-27.926 -436.7)" fill="none" stroke="#ff3c22" stroke-miterlimit="10" stroke-width="3.191"/>
          </g>
          <g id="Grupo_1084472" data-name="Grupo 1084472" transform="translate(0.014 115.702)">
            <circle id="Elipse_6668" data-name="Elipse 6668" cx="9.256" cy="9.256" r="9.256" transform="translate(0 16.929) rotate(-45)" fill="#00306c"/>
            <text id="GOAL_5_Lorem_ipsum_dolor_sit_amet." data-name="GOAL 5 
Lorem ipsum dolor sit amet." transform="translate(28.621 15.76)" fill="#ff058a" font-size="9" font-family="Poppins-Black, Poppins" font-weight="800"><tspan x="0" y="0">GOAL 5 </tspan><tspan fill="#00306c" font-size="8" font-family="Poppins-SemiBold, Poppins" font-weight="600"><tspan x="0" y="8">Lorem ipsum dolor sit amet.</tspan></tspan></text>
            <path id="Trazado_832482" data-name="Trazado 832482" d="M34.4,475.353c1.62,2.43,4.628,6.132,4.628,6.132s6.364-13.306,10.645-19.785" transform="translate(-25.944 -461.7)" fill="none" stroke="#ff3c22" stroke-miterlimit="10" stroke-width="3.191"/>
          </g>
        </g>
        <g id="Grupo_1084474" data-name="Grupo 1084474" transform="translate(27.537 254.202)">
          <rect id="Rectángulo_379361" data-name="Rectángulo 379361" width="4.165" height="88.744" transform="translate(92.935 84.141) rotate(90)" fill="#fff7e5"/>
          <g id="Grupo" transform="translate(11.372)">
            <text id="INDUSTRY" transform="translate(3.702 13)" fill="#fff7e5" font-size="12" font-family="Poppins-Black, Poppins" font-weight="800"><tspan x="0" y="0">INDUSTRY</tspan></text>
            <text id="AND_WORK" data-name="AND WORK" transform="translate(0 24.802)" fill="#fff7e5" font-size="12" font-family="Poppins-Black, Poppins" font-weight="800"><tspan x="0" y="0">AND WORK</tspan></text>
          </g>
          <rect id="Rectángulo_379362" data-name="Rectángulo 379362" width="97.19" height="42.579" transform="translate(0 31.931)" fill="none"/>
          <g id="Grupo-2" data-name="Grupo" transform="translate(5.733 29.632)">
            <text id="Lorem_ipsum_dolor_sit_" data-name="Lorem ipsum dolor sit " transform="translate(0 7)" fill="#00306c" font-size="7" font-family="Poppins-SemiBold, Poppins" font-weight="600"><tspan x="0" y="0">Lorem ipsum dolor sit </tspan></text>
            <text id="amet_consectetuer_" data-name="amet, consectetuer " transform="translate(3.818 15.678)" fill="#00306c" font-size="7" font-family="Poppins-SemiBold, Poppins" font-weight="600"><tspan x="0" y="0">amet, consectetuer </tspan></text>
            <text id="adipiscing_elit_sed_" data-name="adipiscing elit, sed " transform="translate(5.669 24.24)" fill="#00306c" font-size="7" font-family="Poppins-SemiBold, Poppins" font-weight="600"><tspan x="0" y="0">adipiscing elit, sed </tspan></text>
            <text id="diam_nonummy_nibh_" data-name="diam nonummy nibh " transform="translate(0.694 32.917)" fill="#00306c" font-size="7" font-family="Poppins-SemiBold, Poppins" font-weight="600"><tspan x="0" y="0">diam nonummy nibh </tspan></text>
            <text id="euismod_tincidunt." data-name="euismod tincidunt." transform="translate(5.438 41.479)" fill="#00306c" font-size="7" font-family="Poppins-SemiBold, Poppins" font-weight="600"><tspan x="0" y="0">euismod tincidunt.</tspan></text>
          </g>
        </g>
        <g id="Grupo_1084475" data-name="Grupo 1084475" transform="translate(147.289 254.202)">
          <rect id="Rectángulo_379363" data-name="Rectángulo 379363" width="4.165" height="88.744" transform="translate(93.001 84.075) rotate(90)" fill="#fff7e5"/>
          <g id="Grupo-3" data-name="Grupo" transform="translate(22.576)">
            <text id="CLEAN" transform="translate(4.397 13)" fill="#fff7e5" font-size="12" font-family="Poppins-Black, Poppins" font-weight="800"><tspan x="0" y="0">CLEAN</tspan></text>
            <text id="ENERGY" transform="translate(0 24.802)" fill="#fff7e5" font-size="12" font-family="Poppins-Black, Poppins" font-weight="800"><tspan x="0" y="0">ENERGY</tspan></text>
          </g>
          <rect id="Rectángulo_379364" data-name="Rectángulo 379364" width="97.19" height="42.579" transform="translate(0 31.931)" fill="none"/>
          <g id="Grupo-4" data-name="Grupo" transform="translate(5.8 29.632)">
            <text id="Lorem_ipsum_dolor_sit_2" data-name="Lorem ipsum dolor sit " transform="translate(0 7)" fill="#00306c" font-size="7" font-family="Poppins-SemiBold, Poppins" font-weight="600"><tspan x="0" y="0">Lorem ipsum dolor sit </tspan></text>
            <text id="amet_consectetuer_2" data-name="amet, consectetuer " transform="translate(3.818 15.678)" fill="#00306c" font-size="7" font-family="Poppins-SemiBold, Poppins" font-weight="600"><tspan x="0" y="0">amet, consectetuer </tspan></text>
            <text id="adipiscing_elit_sed_2" data-name="adipiscing elit, sed " transform="translate(5.669 24.24)" fill="#00306c" font-size="7" font-family="Poppins-SemiBold, Poppins" font-weight="600"><tspan x="0" y="0">adipiscing elit, sed </tspan></text>
            <text id="diam_nonummy_nibh_2" data-name="diam nonummy nibh " transform="translate(0.694 32.917)" fill="#00306c" font-size="7" font-family="Poppins-SemiBold, Poppins" font-weight="600"><tspan x="0" y="0">diam nonummy nibh </tspan></text>
            <text id="euismod_tincidunt.-2" data-name="euismod tincidunt." transform="translate(5.438 41.479)" fill="#00306c" font-size="7" font-family="Poppins-SemiBold, Poppins" font-weight="600"><tspan x="0" y="0">euismod tincidunt.</tspan></text>
          </g>
        </g>
        <g id="Grupo_1084476" data-name="Grupo 1084476" transform="translate(267.157 254.202)">
          <rect id="Rectángulo_379365" data-name="Rectángulo 379365" width="4.165" height="88.744" transform="translate(92.944 84.132) rotate(90)" fill="#fff7e5"/>
          <g id="Grupo-5" data-name="Grupo" transform="translate(6.731)">
            <text id="PROTECTING" transform="translate(0 13)" fill="#fff7e5" font-size="12" font-family="Poppins-Black, Poppins" font-weight="800"><tspan x="0" y="0">PROTECTING</tspan></text>
            <text id="SEA_LIFE" data-name="SEA LIFE" transform="translate(15.62 24.802)" fill="#fff7e5" font-size="12" font-family="Poppins-Black, Poppins" font-weight="800"><tspan x="0" y="0">SEA LIFE</tspan></text>
          </g>
          <rect id="Rectángulo_379366" data-name="Rectángulo 379366" width="97.19" height="42.579" transform="translate(0 31.931)" fill="none"/>
          <g id="Grupo-6" data-name="Grupo" transform="translate(5.743 29.632)">
            <text id="Lorem_ipsum_dolor_sit_3" data-name="Lorem ipsum dolor sit " transform="translate(0 7)" fill="#00306c" font-size="7" font-family="Poppins-SemiBold, Poppins" font-weight="600"><tspan x="0" y="0">Lorem ipsum dolor sit </tspan></text>
            <text id="amet_consectetuer_3" data-name="amet, consectetuer " transform="translate(3.818 15.678)" fill="#00306c" font-size="7" font-family="Poppins-SemiBold, Poppins" font-weight="600"><tspan x="0" y="0">amet, consectetuer </tspan></text>
            <text id="adipiscing_elit_sed_3" data-name="adipiscing elit, sed " transform="translate(5.669 24.24)" fill="#00306c" font-size="7" font-family="Poppins-SemiBold, Poppins" font-weight="600"><tspan x="0" y="0">adipiscing elit, sed </tspan></text>
            <text id="diam_nonummy_nibh_3" data-name="diam nonummy nibh " transform="translate(0.694 32.917)" fill="#00306c" font-size="7" font-family="Poppins-SemiBold, Poppins" font-weight="600"><tspan x="0" y="0">diam nonummy nibh </tspan></text>
            <text id="euismod_tincidunt.-3" data-name="euismod tincidunt." transform="translate(5.438 41.479)" fill="#00306c" font-size="7" font-family="Poppins-SemiBold, Poppins" font-weight="600"><tspan x="0" y="0">euismod tincidunt.</tspan></text>
          </g>
        </g>
        <g id="Grupo_1084497" data-name="Grupo 1084497" transform="translate(23.516 15.528)">
          <g id="Grupo_1084494" data-name="Grupo 1084494" transform="translate(44.054 53.199)">
            <g id="Grupo_1084477" data-name="Grupo 1084477" transform="translate(28.347 3.24)">
              <path id="Trazado_832483" data-name="Trazado 832483" d="M91.677,76.988l6.479-4.859A21.479,21.479,0,0,0,93.065,67.5L88.9,74.442A11.55,11.55,0,0,1,91.677,76.988Z" transform="translate(-88.9 -67.5)" fill="#f5ad12"/>
            </g>
            <g id="Grupo_1084478" data-name="Grupo 1084478" transform="translate(4.628 3.24)">
              <path id="Trazado_832484" data-name="Trazado 832484" d="M74.764,76.988a10.193,10.193,0,0,1,2.893-2.545L73.491,67.5A21.7,21.7,0,0,0,68.4,72.128Z" transform="translate(-68.4 -67.5)" fill="#00c26c"/>
            </g>
            <g id="Grupo_1084479" data-name="Grupo 1084479" transform="translate(31.702 8.446)">
              <path id="Trazado_832485" data-name="Trazado 832485" d="M98.164,72,91.8,76.975a16.222,16.222,0,0,1,1.736,3.471l7.752-2.2A22.586,22.586,0,0,0,98.164,72Z" transform="translate(-91.8 -72)" fill="#00a938"/>
            </g>
            <g id="Grupo_1084480" data-name="Grupo 1084480" transform="translate(23.95 0.231)">
              <path id="Trazado_832486" data-name="Trazado 832486" d="M85.1,72.883a13.56,13.56,0,0,1,3.587,1.388l4.281-6.826A24.4,24.4,0,0,0,86.488,64.9Z" transform="translate(-85.1 -64.9)" fill="#ff3b4c"/>
            </g>
            <g id="Grupo_1084481" data-name="Grupo 1084481" transform="translate(0 15.504)">
              <path id="Trazado_832487" data-name="Trazado 832487" d="M72.5,83.538a14.361,14.361,0,0,1,.347-3.124L65.094,78.1a21.234,21.234,0,0,0-.694,5.438v1.388l7.983-.81A.867.867,0,0,0,72.5,83.538Z" transform="translate(-64.4 -78.1)" fill="#00792e"/>
            </g>
            <g id="Grupo_1084482" data-name="Grupo 1084482" transform="translate(10.413 0.347)">
              <path id="Trazado_832488" data-name="Trazado 832488" d="M73.4,67.43l4.281,6.826a19.192,19.192,0,0,1,3.587-1.388L79.879,65A19.789,19.789,0,0,0,73.4,67.43Z" transform="translate(-73.4 -65)" fill="#008bc9"/>
            </g>
            <g id="Grupo_1084483" data-name="Grupo 1084483" transform="translate(30.198 27.074)">
              <path id="Trazado_832489" data-name="Trazado 832489" d="M92.814,88.1A12.169,12.169,0,0,1,90.5,91.224l5.438,6.017a19.439,19.439,0,0,0,4.165-5.554Z" transform="translate(-90.5 -88.1)" fill="#00b0de"/>
            </g>
            <g id="Grupo_1084484" data-name="Grupo 1084484" transform="translate(2.314 27.074)">
              <path id="Trazado_832490" data-name="Trazado 832490" d="M73.689,88.1,66.4,91.571a21.833,21.833,0,0,0,4.165,5.554L76,91.108A12.221,12.221,0,0,1,73.689,88.1Z" transform="translate(-66.4 -88.1)" fill="#ff9f00"/>
            </g>
            <g id="Grupo_1084485" data-name="Grupo 1084485" transform="translate(32.859 22.562)">
              <path id="Trazado_832491" data-name="Trazado 832491" d="M93.841,84.2A10.43,10.43,0,0,1,92.8,87.9l7.174,3.587a22.242,22.242,0,0,0,1.851-6.711Z" transform="translate(-92.8 -84.2)" fill="#ff5f1f"/>
            </g>
            <g id="Grupo_1084486" data-name="Grupo 1084486" transform="translate(21.405 33.207)">
              <path id="Trazado_832492" data-name="Trazado 832492" d="M86.834,93.4a10.191,10.191,0,0,1-3.818.694l-.116,8.1a19.961,19.961,0,0,0,6.942-1.273Z" transform="translate(-82.9 -93.4)" fill="#d60939"/>
            </g>
            <g id="Grupo_1084487" data-name="Grupo 1084487" transform="translate(26.264 30.777)">
              <path id="Trazado_832493" data-name="Trazado 832493" d="M90.34,91.3a15.519,15.519,0,0,1-3.24,2.083l2.893,7.521a22.114,22.114,0,0,0,5.9-3.7Z" transform="translate(-87.1 -91.3)" fill="#ffb800"/>
            </g>
            <g id="Grupo_1084488" data-name="Grupo 1084488" transform="translate(33.669 15.504)">
              <path id="Trazado_832494" data-name="Trazado 832494" d="M101.252,78.1,93.5,80.414a14.362,14.362,0,0,1,.347,3.124v.694l7.983.81V83.654A17.443,17.443,0,0,0,101.252,78.1Z" transform="translate(-93.5 -78.1)" fill="#e92137"/>
            </g>
            <g id="Grupo_1084489" data-name="Grupo 1084489" transform="translate(17.702)">
              <path id="Trazado_832495" data-name="Trazado 832495" d="M81.2,72.8a10.586,10.586,0,0,1,1.967-.116,11.226,11.226,0,0,1,1.967.116l1.5-7.868a17.515,17.515,0,0,0-3.471-.231c-1.157,0-2.314.116-3.471.231Z" transform="translate(-79.7 -64.7)" fill="#07579f"/>
            </g>
            <g id="Grupo_1084490" data-name="Grupo 1084490" transform="translate(13.769 33.207)">
              <path id="Trazado_832496" data-name="Trazado 832496" d="M83.126,94.094a14.762,14.762,0,0,1-3.818-.694L76.3,100.921a19.961,19.961,0,0,0,6.942,1.273Z" transform="translate(-76.3 -93.4)" fill="#ff893e"/>
            </g>
            <g id="Grupo_1084491" data-name="Grupo 1084491" transform="translate(0.116 22.562)">
              <path id="Trazado_832497" data-name="Trazado 832497" d="M73.64,87.9A10.43,10.43,0,0,1,72.6,84.2l-8.1.579a21.35,21.35,0,0,0,1.851,6.711Z" transform="translate(-64.5 -84.2)" fill="#fc8e00"/>
            </g>
            <g id="Grupo_1084492" data-name="Grupo 1084492" transform="translate(0.926 8.446)">
              <path id="Trazado_832498" data-name="Trazado 832498" d="M72.952,80.446a16.222,16.222,0,0,1,1.736-3.471L68.324,72A19.8,19.8,0,0,0,65.2,78.248Z" transform="translate(-65.2 -72)" fill="#009ec9"/>
            </g>
            <g id="Grupo_1084493" data-name="Grupo 1084493" transform="translate(7.174 30.777)">
              <path id="Trazado_832499" data-name="Trazado 832499" d="M79.393,93.383a9.706,9.706,0,0,1-3.24-2.083L70.6,97.2a22.114,22.114,0,0,0,5.9,3.7Z" transform="translate(-70.6 -91.3)" fill="#ff4eac"/>
            </g>
          </g>
          <g id="Grupo_1084495" data-name="Grupo 1084495" transform="translate(0 37.55)">
            <text id="G_ALS" data-name="G ALS" transform="translate(0 56)" fill="#fff7e5" font-size="53" font-family="Poppins-Black, Poppins" font-weight="800"><tspan x="0" y="0">G ALS</tspan></text>
          </g>
          <g id="Grupo_1084496" data-name="Grupo 1084496">
            <text id="SUSTAINABLE_DEVELOPMENT" data-name="SUSTAINABLE
DEVELOPMENT" transform="translate(0 27)" fill="#fff7e5" font-size="26" font-family="Poppins-Black, Poppins" font-weight="800"><tspan x="0" y="0">SUSTAINABLE</tspan><tspan font-size="24"><tspan x="0" y="21">DEVELOPMENT</tspan></tspan></text>
          </g>
        </g>
        <g id="Grupo_1084498" data-name="Grupo 1084498" transform="translate(229.669 23.14)">
          <rect id="Rectángulo_379367" data-name="Rectángulo 379367" width="4.165" height="88.512" fill="#ff058a"/>
          <text id="WHY_ARE_THE_SDG_s_SO_IMPORTANT_" data-name="WHY ARE THE SDG’s
SO IMPORTANT?" transform="translate(14.277 15.548)" fill="#fff7e5" font-size="12" font-family="Poppins-Black, Poppins" font-weight="800"><tspan x="0" y="0">WHY ARE THE SDG’s</tspan><tspan x="0" y="11">SO IMPORTANT?</tspan></text>
          <rect id="Rectángulo_379368" data-name="Rectángulo 379368" width="132.826" height="65.603" transform="translate(14.231 34.479)" fill="none"/>
          <text id="Lorem_ipsum_dolor_sit_amet_consectetuer_adipiscing_elit_sed_diam_nonummy_nibh_euismod_tincidunt_ut_laoreet_dolore_magna_aliquam_erat_volutpat._Ut_wisi_enim_ad.Lorem_ipsum_dolor_sit_amet_consectetuer_adipiscing_elit_sed_diam_nonummy_nibh_euismod." data-name="Lorem ipsum dolor sit amet, 
consectetuer adipiscing elit, sed diam 
nonummy nibh euismod tincidunt ut 
laoreet dolore magna aliquam erat 
volutpat. Ut wisi enim ad.Lorem ipsum 
dolor sit amet, consectetuer adipiscing 
elit, sed diam nonummy nibh euismod." transform="translate(14.277 38.359)" fill="#fff7e5" font-size="6" font-family="Poppins-SemiBold, Poppins" font-weight="600"><tspan x="0" y="0">Lorem ipsum dolor sit amet, </tspan><tspan x="0" y="9">consectetuer adipiscing elit, sed diam </tspan><tspan x="0" y="18">nonummy nibh euismod tincidunt ut </tspan><tspan x="0" y="27">laoreet dolore magna aliquam erat </tspan><tspan x="0" y="36">volutpat. Ut wisi enim ad.Lorem ipsum </tspan><tspan x="0" y="45">dolor sit amet, consectetuer adipiscing </tspan><tspan x="0" y="54">elit, sed diam nonummy nibh euismod.</tspan></text>
        </g>
        <g id="Grupo_1084499" data-name="Grupo 1084499" transform="translate(17.613 376.069)">
          <text id="OUR_CURRENT_GOALS" data-name="OUR CURRENT GOALS" transform="translate(0 14)" fill="#00306c" font-size="13" font-family="Poppins-Black, Poppins" font-weight="800"><tspan x="0" y="0">OUR CURRENT GOALS</tspan></text>
        </g>
      </g>
    </g>
  </g>
</svg>
