<svg xmlns="http://www.w3.org/2000/svg" width="820" height="480" viewBox="0 0 820 480">
  <g id="Grupo_1085283" data-name="Grupo 1085283" transform="translate(-390 -24168.059)">
    <path id="Trazado_833722" data-name="Trazado 833722" d="M0,0H820V480H0Z" transform="translate(390 24168.059)" fill="#f3f9ff"/>
    <g id="Kontent" transform="translate(711 24205.059)">
      <path id="Trazado_832504" data-name="Trazado 832504" d="M53.9,329.257s107.836-11.266,121.248-97.643c0,0,15.827-79,26.691-98.581,0,0,18.509-34.872,58.612-32.86,0,0,41.042-5.5,54.454,31.787,0,0,14.351,59.551,22.667,94.558,0,0,22.667,102.739,123.26,98.581" transform="translate(-53.9 -99.887)" fill="none" stroke="#ea8d14" stroke-miterlimit="10" stroke-width="10"/>
    </g>
    <path id="Trazado_833723" data-name="Trazado 833723" d="M0,0V133" transform="translate(914.5 24352.559)" fill="none" stroke="#12263f" stroke-width="2"/>
    <path id="Trazado_833724" data-name="Trazado 833724" d="M0,0H154" transform="translate(835.5 24373.559)" fill="none" stroke="#f9bcab" stroke-width="2"/>
    <path id="Trazado_832505" data-name="Trazado 832505" d="M-3936,12360v300.266h459.733" transform="translate(4620.5 11845.058)" fill="none" stroke="#707070" stroke-width="2"/>
    <path id="Trazado_833725" data-name="Trazado 833725" d="M33.273,15V3.625h3.5a5.315,5.315,0,0,1,2.684.676A4.712,4.712,0,0,1,41.3,6.223a5.928,5.928,0,0,1,.664,2.832v.523a5.945,5.945,0,0,1-.652,2.82,4.672,4.672,0,0,1-1.84,1.914A5.355,5.355,0,0,1,36.8,15Zm2.344-9.477v7.594H36.75a2.545,2.545,0,0,0,2.1-.9,4.06,4.06,0,0,0,.742-2.57v-.6a4.124,4.124,0,0,0-.719-2.629,2.537,2.537,0,0,0-2.1-.895ZM45.906,15H43.641V6.547h2.266Zm-2.4-10.641a1.112,1.112,0,0,1,.34-.836,1.465,1.465,0,0,1,1.848,0,1.105,1.105,0,0,1,.344.836,1.108,1.108,0,0,1-.348.844,1.448,1.448,0,0,1-1.836,0A1.108,1.108,0,0,1,43.508,4.359Zm8.836,8.3a.727.727,0,0,0-.41-.652,4.659,4.659,0,0,0-1.316-.426Q47.6,10.953,47.6,9.023a2.323,2.323,0,0,1,.934-1.879,3.766,3.766,0,0,1,2.441-.754,4.053,4.053,0,0,1,2.574.758,2.388,2.388,0,0,1,.965,1.969H52.258a1.092,1.092,0,0,0-.312-.8A1.322,1.322,0,0,0,50.969,8a1.351,1.351,0,0,0-.883.258.814.814,0,0,0-.312.656.7.7,0,0,0,.355.605,3.657,3.657,0,0,0,1.2.4,9.8,9.8,0,0,1,1.422.379,2.336,2.336,0,0,1,1.789,2.273,2.2,2.2,0,0,1-.992,1.871,4.28,4.28,0,0,1-2.562.715,4.47,4.47,0,0,1-1.887-.379A3.166,3.166,0,0,1,47.8,13.738a2.414,2.414,0,0,1-.469-1.426h2.141a1.179,1.179,0,0,0,.445.922,1.766,1.766,0,0,0,1.109.32,1.635,1.635,0,0,0,.98-.246A.766.766,0,0,0,52.344,12.664ZM63.6,10.852a5.07,5.07,0,0,1-.887,3.129,2.843,2.843,0,0,1-2.395,1.176,2.633,2.633,0,0,1-2.07-.891V18.25H55.992V6.547h2.094l.078.828A2.654,2.654,0,0,1,60.3,6.391a2.862,2.862,0,0,1,2.43,1.156,5.207,5.207,0,0,1,.867,3.188Zm-2.258-.164a3.327,3.327,0,0,0-.418-1.82,1.361,1.361,0,0,0-1.215-.641,1.479,1.479,0,0,0-1.461.813V12.5a1.5,1.5,0,0,0,1.477.836Q61.344,13.336,61.344,10.688Zm7.547,4.469a4.15,4.15,0,0,1-3.027-1.141A4.054,4.054,0,0,1,64.7,10.977v-.219a5.106,5.106,0,0,1,.492-2.277,3.612,3.612,0,0,1,1.395-1.547,3.914,3.914,0,0,1,2.059-.543,3.508,3.508,0,0,1,2.73,1.094,4.444,4.444,0,0,1,1,3.1v.922H66.984a2.1,2.1,0,0,0,.66,1.328,2,2,0,0,0,1.395.5,2.437,2.437,0,0,0,2.039-.945l1.109,1.242a3.389,3.389,0,0,1-1.375,1.121A4.511,4.511,0,0,1,68.891,15.156Zm-.258-6.945a1.411,1.411,0,0,0-1.09.455,2.357,2.357,0,0,0-.535,1.3h3.141V9.788a1.681,1.681,0,0,0-.406-1.165A1.456,1.456,0,0,0,68.633,8.211Zm9.766.453a6.134,6.134,0,0,0-.812-.062,1.654,1.654,0,0,0-1.68.867V15H73.648V6.547h2.133l.063,1.008a2.092,2.092,0,0,1,1.883-1.164,2.366,2.366,0,0,1,.7.1Zm5.664,4a.727.727,0,0,0-.41-.652,4.659,4.659,0,0,0-1.316-.426q-3.016-.633-3.016-2.562a2.323,2.323,0,0,1,.934-1.879A3.766,3.766,0,0,1,82.7,6.391a4.053,4.053,0,0,1,2.574.758,2.388,2.388,0,0,1,.965,1.969H83.977a1.092,1.092,0,0,0-.312-.8A1.322,1.322,0,0,0,82.688,8a1.351,1.351,0,0,0-.883.258.814.814,0,0,0-.312.656.7.7,0,0,0,.355.605,3.657,3.657,0,0,0,1.2.4,9.8,9.8,0,0,1,1.422.379,2.336,2.336,0,0,1,1.789,2.273,2.2,2.2,0,0,1-.992,1.871,4.28,4.28,0,0,1-2.562.715,4.47,4.47,0,0,1-1.887-.379,3.166,3.166,0,0,1-1.293-1.039,2.414,2.414,0,0,1-.469-1.426H81.2a1.179,1.179,0,0,0,.445.922,1.766,1.766,0,0,0,1.109.32,1.635,1.635,0,0,0,.98-.246A.766.766,0,0,0,84.063,12.664ZM90.094,15H87.828V6.547h2.266ZM87.7,4.359a1.112,1.112,0,0,1,.34-.836,1.465,1.465,0,0,1,1.848,0,1.105,1.105,0,0,1,.344.836,1.108,1.108,0,0,1-.348.844,1.448,1.448,0,0,1-1.836,0A1.108,1.108,0,0,1,87.7,4.359ZM91.6,10.7a5.013,5.013,0,0,1,.484-2.242A3.546,3.546,0,0,1,93.48,6.93a4.069,4.069,0,0,1,2.113-.539,3.849,3.849,0,0,1,2.793,1.047,4.2,4.2,0,0,1,1.207,2.844l.016.578a4.418,4.418,0,0,1-1.086,3.121,4.209,4.209,0,0,1-5.832,0A4.5,4.5,0,0,1,91.6,10.8Zm2.258.16a3.16,3.16,0,0,0,.453,1.843,1.628,1.628,0,0,0,2.578.008,3.457,3.457,0,0,0,.461-2.015,3.128,3.128,0,0,0-.461-1.831,1.5,1.5,0,0,0-1.3-.649,1.474,1.474,0,0,0-1.281.646A3.516,3.516,0,0,0,93.859,10.856ZM96.039,3H98.5L96.336,5.422H94.5Zm7.039,3.547.07.977a2.951,2.951,0,0,1,2.43-1.133,2.453,2.453,0,0,1,2,.789,3.682,3.682,0,0,1,.672,2.359V15h-2.258V9.594a1.465,1.465,0,0,0-.312-1.043,1.4,1.4,0,0,0-1.039-.324,1.553,1.553,0,0,0-1.43.813V15h-2.258V6.547Zm7,7.344a1.137,1.137,0,0,1,.363-.875,1.412,1.412,0,0,1,1.828,0,1.137,1.137,0,0,1,.363.875,1.121,1.121,0,0,1-.359.863,1.435,1.435,0,0,1-1.836,0A1.121,1.121,0,0,1,110.078,13.891ZM12.656,37V25.625h3.5a5.315,5.315,0,0,1,2.684.676,4.712,4.712,0,0,1,1.848,1.922,5.928,5.928,0,0,1,.664,2.832v.523A5.945,5.945,0,0,1,20.7,34.4a4.672,4.672,0,0,1-1.84,1.914A5.355,5.355,0,0,1,16.18,37ZM15,27.523v7.594h1.133a2.545,2.545,0,0,0,2.1-.9,4.06,4.06,0,0,0,.742-2.57v-.6a4.124,4.124,0,0,0-.719-2.629,2.537,2.537,0,0,0-2.1-.895Zm11.8,9.633a4.15,4.15,0,0,1-3.027-1.141A4.054,4.054,0,0,1,22.6,32.977v-.219a5.106,5.106,0,0,1,.492-2.277,3.612,3.612,0,0,1,1.395-1.547,3.914,3.914,0,0,1,2.059-.543,3.508,3.508,0,0,1,2.73,1.094,4.444,4.444,0,0,1,1,3.1v.922H24.891a2.1,2.1,0,0,0,.66,1.328,2,2,0,0,0,1.395.5,2.437,2.437,0,0,0,2.039-.945l1.109,1.242a3.389,3.389,0,0,1-1.375,1.121A4.511,4.511,0,0,1,26.8,37.156Zm-.258-6.945a1.411,1.411,0,0,0-1.09.455,2.357,2.357,0,0,0-.535,1.3h3.141v-.181a1.681,1.681,0,0,0-.406-1.165A1.456,1.456,0,0,0,26.539,30.211Zm9.594,4.453a.727.727,0,0,0-.41-.652,4.659,4.659,0,0,0-1.316-.426q-3.016-.633-3.016-2.562a2.323,2.323,0,0,1,.934-1.879,3.766,3.766,0,0,1,2.441-.754,4.053,4.053,0,0,1,2.574.758,2.388,2.388,0,0,1,.965,1.969H36.047a1.092,1.092,0,0,0-.312-.8A1.322,1.322,0,0,0,34.758,30a1.351,1.351,0,0,0-.883.258.814.814,0,0,0-.312.656.7.7,0,0,0,.355.605,3.657,3.657,0,0,0,1.2.4,9.8,9.8,0,0,1,1.422.379,2.336,2.336,0,0,1,1.789,2.273,2.205,2.205,0,0,1-.992,1.871,4.28,4.28,0,0,1-2.562.715,4.47,4.47,0,0,1-1.887-.379,3.166,3.166,0,0,1-1.293-1.039,2.414,2.414,0,0,1-.469-1.426h2.141a1.179,1.179,0,0,0,.445.922,1.766,1.766,0,0,0,1.109.32,1.635,1.635,0,0,0,.98-.246A.766.766,0,0,0,36.133,34.664Zm6.813-.422,1.57-5.7h2.359L44.023,37H41.867l-2.852-8.453h2.359ZM50.25,37H47.984V28.547H50.25Zm-2.4-10.641a1.112,1.112,0,0,1,.34-.836,1.465,1.465,0,0,1,1.848,0,1.193,1.193,0,0,1,0,1.68,1.448,1.448,0,0,1-1.836,0A1.108,1.108,0,0,1,47.852,26.359ZM57.008,37a2.507,2.507,0,0,1-.227-.758,2.732,2.732,0,0,1-2.133.914,3,3,0,0,1-2.059-.719,2.312,2.312,0,0,1-.816-1.812,2.389,2.389,0,0,1,1-2.062,4.915,4.915,0,0,1,2.879-.727h1.039v-.484a1.393,1.393,0,0,0-.3-.937,1.183,1.183,0,0,0-.949-.352,1.345,1.345,0,0,0-.895.273.929.929,0,0,0-.324.75H51.961a2.268,2.268,0,0,1,.453-1.359,3,3,0,0,1,1.281-.98,4.669,4.669,0,0,1,1.859-.355,3.689,3.689,0,0,1,2.48.785,2.747,2.747,0,0,1,.918,2.207v3.664a4.041,4.041,0,0,0,.336,1.82V37Zm-1.867-1.57a1.945,1.945,0,0,0,.922-.223,1.462,1.462,0,0,0,.625-.6V33.156h-.844q-1.7,0-1.8,1.172l-.008.133a.9.9,0,0,0,.3.7A1.153,1.153,0,0,0,55.141,35.43Zm9.063-.094a1.481,1.481,0,0,0,1.016-.344,1.2,1.2,0,0,0,.406-.914h2.117a2.9,2.9,0,0,1-.469,1.574,3.093,3.093,0,0,1-1.262,1.109,3.949,3.949,0,0,1-1.77.395A3.67,3.67,0,0,1,61.383,36a4.56,4.56,0,0,1-1.047-3.184v-.148a4.508,4.508,0,0,1,1.039-3.117,3.627,3.627,0,0,1,2.852-1.164,3.555,3.555,0,0,1,2.543.9,3.2,3.2,0,0,1,.973,2.4H65.625a1.551,1.551,0,0,0-.406-1.072A1.51,1.51,0,0,0,63,30.786a3.333,3.333,0,0,0-.4,1.866v.235a3.375,3.375,0,0,0,.4,1.878A1.377,1.377,0,0,0,64.2,35.336ZM71.414,37H69.148V28.547h2.266Zm-2.4-10.641a1.112,1.112,0,0,1,.34-.836,1.465,1.465,0,0,1,1.848,0,1.193,1.193,0,0,1,0,1.68,1.448,1.448,0,0,1-1.836,0A1.108,1.108,0,0,1,69.016,26.359ZM72.922,32.7a5.013,5.013,0,0,1,.484-2.242A3.546,3.546,0,0,1,74.8,28.93a4.069,4.069,0,0,1,2.113-.539,3.849,3.849,0,0,1,2.793,1.047,4.2,4.2,0,0,1,1.207,2.844l.016.578a4.418,4.418,0,0,1-1.086,3.121,4.209,4.209,0,0,1-5.832,0,4.5,4.5,0,0,1-1.09-3.187Zm2.258.16a3.16,3.16,0,0,0,.453,1.843,1.628,1.628,0,0,0,2.578.008,3.457,3.457,0,0,0,.461-2.015,3.128,3.128,0,0,0-.461-1.831,1.5,1.5,0,0,0-1.3-.649,1.474,1.474,0,0,0-1.281.646A3.516,3.516,0,0,0,75.18,32.856ZM77.359,25H79.82l-2.164,2.422H75.82ZM84.4,28.547l.07.977a2.951,2.951,0,0,1,2.43-1.133,2.453,2.453,0,0,1,2,.789,3.682,3.682,0,0,1,.672,2.359V37H87.313V31.594A1.465,1.465,0,0,0,87,30.551a1.4,1.4,0,0,0-1.039-.324,1.553,1.553,0,0,0-1.43.813V37H82.273V28.547Zm13.57-2.078v2.078h1.445V30.2H97.969v4.219a1.007,1.007,0,0,0,.18.672.9.9,0,0,0,.688.2,3.6,3.6,0,0,0,.664-.055v1.711a4.648,4.648,0,0,1-1.367.2,2.156,2.156,0,0,1-2.422-2.4V30.2H94.477V28.547h1.234V26.469ZM103.109,37h-2.258V28.547h2.258Zm-.664-11.883h2.461l-2.164,2.422h-1.836Zm10.219,7.734a5.07,5.07,0,0,1-.887,3.129,2.843,2.843,0,0,1-2.395,1.176,2.633,2.633,0,0,1-2.07-.891V40.25h-2.258v-11.7h2.094l.078.828a2.654,2.654,0,0,1,2.141-.984,2.862,2.862,0,0,1,2.43,1.156,5.207,5.207,0,0,1,.867,3.188Zm-2.258-.164a3.327,3.327,0,0,0-.418-1.82,1.361,1.361,0,0,0-1.215-.641,1.478,1.478,0,0,0-1.461.813V34.5a1.5,1.5,0,0,0,1.477.836Q110.406,35.336,110.406,32.688ZM116.445,37H114.18V28.547h2.266Zm-2.4-10.641a1.112,1.112,0,0,1,.34-.836,1.465,1.465,0,0,1,1.848,0,1.193,1.193,0,0,1,0,1.68,1.448,1.448,0,0,1-1.836,0A1.108,1.108,0,0,1,114.047,26.359Zm7.773,8.977a1.481,1.481,0,0,0,1.016-.344,1.2,1.2,0,0,0,.406-.914h2.117a2.9,2.9,0,0,1-.469,1.574,3.093,3.093,0,0,1-1.262,1.109,3.949,3.949,0,0,1-1.77.395A3.67,3.67,0,0,1,119,36a4.56,4.56,0,0,1-1.047-3.184v-.148a4.508,4.508,0,0,1,1.039-3.117,3.627,3.627,0,0,1,2.852-1.164,3.555,3.555,0,0,1,2.543.9,3.2,3.2,0,0,1,.973,2.4h-2.117a1.551,1.551,0,0,0-.406-1.072,1.51,1.51,0,0,0-2.223.163,3.333,3.333,0,0,0-.4,1.866v.235a3.375,3.375,0,0,0,.4,1.878A1.377,1.377,0,0,0,121.82,35.336ZM131.547,37a2.507,2.507,0,0,1-.227-.758,2.732,2.732,0,0,1-2.133.914,3,3,0,0,1-2.059-.719,2.312,2.312,0,0,1-.816-1.812,2.389,2.389,0,0,1,1-2.062,4.915,4.915,0,0,1,2.879-.727h1.039v-.484a1.393,1.393,0,0,0-.3-.937,1.183,1.183,0,0,0-.949-.352,1.345,1.345,0,0,0-.895.273.929.929,0,0,0-.324.75H126.5a2.268,2.268,0,0,1,.453-1.359,3,3,0,0,1,1.281-.98,4.669,4.669,0,0,1,1.859-.355,3.689,3.689,0,0,1,2.48.785,2.747,2.747,0,0,1,.918,2.207v3.664a4.041,4.041,0,0,0,.336,1.82V37Zm-1.867-1.57a1.945,1.945,0,0,0,.922-.223,1.462,1.462,0,0,0,.625-.6V33.156h-.844q-1.7,0-1.8,1.172l-.008.133a.9.9,0,0,0,.3.7A1.153,1.153,0,0,0,129.68,35.43Z" transform="translate(757 24434.059)" fill="#12263f"/>
    <path id="Trazado_833726" data-name="Trazado 833726" d="M32.434,12.18l2.578-8.555h2.609L33.66,15H31.215L27.27,3.625h2.6ZM43.082,15a2.507,2.507,0,0,1-.227-.758,2.732,2.732,0,0,1-2.133.914,3,3,0,0,1-2.059-.719,2.312,2.312,0,0,1-.816-1.812,2.389,2.389,0,0,1,1-2.062,4.915,4.915,0,0,1,2.879-.727h1.039V9.352a1.393,1.393,0,0,0-.3-.937,1.183,1.183,0,0,0-.949-.352,1.345,1.345,0,0,0-.895.273.929.929,0,0,0-.324.75H38.035a2.268,2.268,0,0,1,.453-1.359,3,3,0,0,1,1.281-.98,4.669,4.669,0,0,1,1.859-.355,3.689,3.689,0,0,1,2.48.785,2.747,2.747,0,0,1,.918,2.207v3.664a4.041,4.041,0,0,0,.336,1.82V15Zm-1.867-1.57a1.945,1.945,0,0,0,.922-.223,1.462,1.462,0,0,0,.625-.6V11.156h-.844q-1.7,0-1.8,1.172l-.008.133a.9.9,0,0,0,.3.7A1.153,1.153,0,0,0,41.215,13.43ZM49.145,15H46.879V3h2.266Zm1.508-4.3a5.013,5.013,0,0,1,.484-2.242A3.546,3.546,0,0,1,52.531,6.93a4.069,4.069,0,0,1,2.113-.539,3.849,3.849,0,0,1,2.793,1.047,4.2,4.2,0,0,1,1.207,2.844l.016.578a4.418,4.418,0,0,1-1.086,3.121,4.209,4.209,0,0,1-5.832,0,4.5,4.5,0,0,1-1.09-3.187Zm2.258.16a3.16,3.16,0,0,0,.453,1.843,1.628,1.628,0,0,0,2.578.008,3.457,3.457,0,0,0,.461-2.015,3.128,3.128,0,0,0-.461-1.831,1.5,1.5,0,0,0-1.3-.649,1.474,1.474,0,0,0-1.281.646A3.516,3.516,0,0,0,52.91,10.856ZM64.8,8.664a6.134,6.134,0,0,0-.812-.062,1.654,1.654,0,0,0-1.68.867V15H60.051V6.547h2.133l.063,1.008a2.092,2.092,0,0,1,1.883-1.164,2.366,2.366,0,0,1,.7.1Zm8.586,4.672a1.481,1.481,0,0,0,1.016-.344,1.2,1.2,0,0,0,.406-.914h2.117a2.9,2.9,0,0,1-.469,1.574A3.093,3.093,0,0,1,75.2,14.762a3.949,3.949,0,0,1-1.77.395A3.67,3.67,0,0,1,70.566,14,4.56,4.56,0,0,1,69.52,10.82v-.148a4.508,4.508,0,0,1,1.039-3.117A3.627,3.627,0,0,1,73.41,6.391a3.555,3.555,0,0,1,2.543.9,3.2,3.2,0,0,1,.973,2.4H74.809A1.551,1.551,0,0,0,74.4,8.623a1.51,1.51,0,0,0-2.223.163,3.333,3.333,0,0,0-.4,1.866v.235a3.375,3.375,0,0,0,.4,1.878A1.377,1.377,0,0,0,73.387,13.336Zm8.719,1.82a4.15,4.15,0,0,1-3.027-1.141,4.054,4.054,0,0,1-1.168-3.039v-.219A5.106,5.106,0,0,1,78.4,8.48,3.612,3.612,0,0,1,79.8,6.934a3.914,3.914,0,0,1,2.059-.543,3.508,3.508,0,0,1,2.73,1.094,4.444,4.444,0,0,1,1,3.1v.922H80.2a2.1,2.1,0,0,0,.66,1.328,2,2,0,0,0,1.395.5,2.437,2.437,0,0,0,2.039-.945L85.4,13.633a3.389,3.389,0,0,1-1.375,1.121A4.511,4.511,0,0,1,82.105,15.156Zm-.258-6.945a1.411,1.411,0,0,0-1.09.455,2.357,2.357,0,0,0-.535,1.3h3.141V9.788a1.681,1.681,0,0,0-.406-1.165A1.456,1.456,0,0,0,81.848,8.211Zm7.094-1.664.07.977a2.951,2.951,0,0,1,2.43-1.133,2.453,2.453,0,0,1,2,.789,3.682,3.682,0,0,1,.672,2.359V15H91.855V9.594a1.465,1.465,0,0,0-.312-1.043A1.4,1.4,0,0,0,90.5,8.227a1.553,1.553,0,0,0-1.43.813V15H86.816V6.547Zm9.586-2.078V6.547h1.445V8.2H98.527v4.219a1.007,1.007,0,0,0,.18.672.9.9,0,0,0,.688.2,3.6,3.6,0,0,0,.664-.055v1.711a4.648,4.648,0,0,1-1.367.2,2.156,2.156,0,0,1-2.422-2.4V8.2H95.035V6.547H96.27V4.469Zm7.453,4.2a6.134,6.134,0,0,0-.812-.062,1.654,1.654,0,0,0-1.68.867V15H101.23V6.547h2.133l.063,1.008a2.092,2.092,0,0,1,1.883-1.164,2.366,2.366,0,0,1,.7.1ZM111.73,15a2.507,2.507,0,0,1-.227-.758,2.732,2.732,0,0,1-2.133.914,3,3,0,0,1-2.059-.719,2.312,2.312,0,0,1-.816-1.812,2.389,2.389,0,0,1,1-2.062,4.915,4.915,0,0,1,2.879-.727h1.039V9.352a1.393,1.393,0,0,0-.3-.937,1.183,1.183,0,0,0-.949-.352,1.345,1.345,0,0,0-.895.273.929.929,0,0,0-.324.75h-2.258a2.268,2.268,0,0,1,.453-1.359,3,3,0,0,1,1.281-.98,4.669,4.669,0,0,1,1.859-.355,3.689,3.689,0,0,1,2.48.785,2.747,2.747,0,0,1,.918,2.207v3.664a4.041,4.041,0,0,0,.336,1.82V15Zm-1.867-1.57a1.945,1.945,0,0,0,.922-.223,1.462,1.462,0,0,0,.625-.6V11.156h-.844q-1.7,0-1.8,1.172l-.008.133a.9.9,0,0,0,.3.7A1.153,1.153,0,0,0,109.863,13.43Zm7.93,1.57h-2.266V3h2.266ZM46.172,32.375a11.99,11.99,0,0,1,.477-3.406,8.989,8.989,0,0,1,1.406-2.863,5.251,5.251,0,0,1,2.016-1.73l.438,1.219A5.438,5.438,0,0,0,48.727,28.2a12.082,12.082,0,0,0-.641,4.125v.242a12.313,12.313,0,0,0,.633,4.141,5.544,5.544,0,0,0,1.789,2.648l-.437,1.2a5.253,5.253,0,0,1-1.98-1.684,8.838,8.838,0,0,1-1.4-2.785,11.918,11.918,0,0,1-.516-3.3ZM53.8,28.547l.07.945a2.971,2.971,0,0,1,2.43-1.1,2.255,2.255,0,0,1,2.242,1.289,2.9,2.9,0,0,1,2.539-1.289,2.521,2.521,0,0,1,2.047.8A3.681,3.681,0,0,1,63.8,31.6V37H61.539V31.609a1.61,1.61,0,0,0-.281-1.051,1.246,1.246,0,0,0-.992-.332,1.409,1.409,0,0,0-1.406.969l.008,5.8H56.609V31.617a1.59,1.59,0,0,0-.289-1.062,1.259,1.259,0,0,0-.984-.328,1.463,1.463,0,0,0-1.391.8V37H51.688V28.547ZM69.43,37.156A4.15,4.15,0,0,1,66.4,36.016a4.054,4.054,0,0,1-1.168-3.039v-.219a5.106,5.106,0,0,1,.492-2.277,3.612,3.612,0,0,1,1.395-1.547,3.914,3.914,0,0,1,2.059-.543,3.508,3.508,0,0,1,2.73,1.094,4.444,4.444,0,0,1,1,3.1v.922H67.523a2.1,2.1,0,0,0,.66,1.328,2,2,0,0,0,1.395.5,2.437,2.437,0,0,0,2.039-.945l1.109,1.242a3.389,3.389,0,0,1-1.375,1.121A4.511,4.511,0,0,1,69.43,37.156Zm-.258-6.945a1.411,1.411,0,0,0-1.09.455,2.357,2.357,0,0,0-.535,1.3h3.141v-.181a1.681,1.681,0,0,0-.406-1.165A1.456,1.456,0,0,0,69.172,30.211Zm4.664,2.5a5.094,5.094,0,0,1,.887-3.148,2.877,2.877,0,0,1,2.426-1.172,2.589,2.589,0,0,1,2.039.922V25h2.266V37H79.414l-.109-.9a2.657,2.657,0,0,1-2.172,1.055,2.869,2.869,0,0,1-2.395-1.176A5.258,5.258,0,0,1,73.836,32.711Zm2.258.168a3.337,3.337,0,0,0,.414,1.823,1.349,1.349,0,0,0,1.2.634,1.511,1.511,0,0,0,1.477-.884V31.111a1.489,1.489,0,0,0-1.461-.884Q76.094,30.227,76.094,32.879ZM85.586,37H83.32V28.547h2.266Zm-2.4-10.641a1.112,1.112,0,0,1,.34-.836,1.465,1.465,0,0,1,1.848,0,1.193,1.193,0,0,1,0,1.68,1.448,1.448,0,0,1-1.836,0A1.108,1.108,0,0,1,83.188,26.359ZM92.344,37a2.507,2.507,0,0,1-.227-.758,2.732,2.732,0,0,1-2.133.914,3,3,0,0,1-2.059-.719,2.312,2.312,0,0,1-.816-1.812,2.389,2.389,0,0,1,1-2.062,4.915,4.915,0,0,1,2.879-.727h1.039v-.484a1.393,1.393,0,0,0-.3-.937,1.183,1.183,0,0,0-.949-.352,1.345,1.345,0,0,0-.895.273.929.929,0,0,0-.324.75H87.3a2.268,2.268,0,0,1,.453-1.359,3,3,0,0,1,1.281-.98,4.669,4.669,0,0,1,1.859-.355,3.689,3.689,0,0,1,2.48.785,2.747,2.747,0,0,1,.918,2.207v3.664a4.041,4.041,0,0,0,.336,1.82V37Zm-1.867-1.57a1.945,1.945,0,0,0,.922-.223,1.462,1.462,0,0,0,.625-.6V33.156H91.18q-1.7,0-1.8,1.172l-.008.133a.9.9,0,0,0,.3.7A1.153,1.153,0,0,0,90.477,35.43Zm9.438-2.875a11.377,11.377,0,0,1-.508,3.4,9.225,9.225,0,0,1-1.461,2.883,5.263,5.263,0,0,1-2.039,1.719l-.437-1.2a5.494,5.494,0,0,0,1.75-2.578,11.939,11.939,0,0,0,.664-4.008v-.414a12.209,12.209,0,0,0-.637-4.117,5.727,5.727,0,0,0-1.777-2.672l.438-1.2a5.265,5.265,0,0,1,2,1.672,9.106,9.106,0,0,1,1.461,2.82,11.3,11.3,0,0,1,.543,3.336Z" transform="translate(843 24302.059)" fill="#12263f"/>
    <path id="Trazado_833727" data-name="Trazado 833727" d="M0,0V66" transform="translate(914.5 24227.559)" fill="none" stroke="#12263f" stroke-width="2"/>
    <path id="Trazado_833728" data-name="Trazado 833728" d="M5,0l5,9H0Z" transform="translate(909 24222.059)" fill="#12263f"/>
    <path id="Trazado_833729" data-name="Trazado 833729" d="M5,0l5,9H0Z" transform="translate(919 24490.059) rotate(180)" fill="#12263f"/>
    <path id="Trazado_833730" data-name="Trazado 833730" d="M5,0l5,9H0Z" transform="translate(831 24378.559) rotate(-90)" fill="#f9bcab"/>
    <path id="Trazado_833731" data-name="Trazado 833731" d="M5,0l5,9H0Z" transform="translate(993.5 24368.559) rotate(90)" fill="#f9bcab"/>
    <path id="Trazado_833732" data-name="Trazado 833732" d="M-7.293-4.7A5.762,5.762,0,0,1-8.27-1.094,3.409,3.409,0,0,1-11.129.156,3.433,3.433,0,0,1-13.973-1.07,5.594,5.594,0,0,1-14.98-4.586V-6.68a5.687,5.687,0,0,1,.988-3.617,3.434,3.434,0,0,1,2.848-1.234A3.437,3.437,0,0,1-8.3-10.309,5.576,5.576,0,0,1-7.293-6.8Zm-2.258-2.3a4.165,4.165,0,0,0-.387-2.061,1.307,1.307,0,0,0-1.207-.645A1.284,1.284,0,0,0-12.32-9.1a3.9,3.9,0,0,0-.4,1.92v2.768a4.372,4.372,0,0,0,.379,2.068,1.29,1.29,0,0,0,1.215.676,1.268,1.268,0,0,0,1.2-.649A4.268,4.268,0,0,0-9.551-4.3ZM-5.09,2.852l-1.18-.617.281-.508a4.059,4.059,0,0,0,.539-1.9v-1.75h1.906L-3.551-.359a4.059,4.059,0,0,1-.437,1.75A4.486,4.486,0,0,1-5.09,2.852ZM4.816-4.281H6.105v1.82H4.816V0H2.559V-2.461H-2.105l-.1-1.422,4.742-7.492H4.816Zm-4.773,0H2.559V-8.3l-.148.258ZM14.973-4.7A5.762,5.762,0,0,1,14-1.094,3.409,3.409,0,0,1,11.137.156,3.433,3.433,0,0,1,8.293-1.07,5.594,5.594,0,0,1,7.285-4.586V-6.68A5.687,5.687,0,0,1,8.273-10.3a3.434,3.434,0,0,1,2.848-1.234,3.437,3.437,0,0,1,2.844,1.223A5.576,5.576,0,0,1,14.973-6.8Zm-2.258-2.3a4.165,4.165,0,0,0-.387-2.061,1.307,1.307,0,0,0-1.207-.645A1.284,1.284,0,0,0,9.945-9.1a3.9,3.9,0,0,0-.4,1.92v2.768a4.372,4.372,0,0,0,.379,2.068,1.29,1.29,0,0,0,1.215.676,1.268,1.268,0,0,0,1.2-.649A4.268,4.268,0,0,0,12.715-4.3Z" transform="translate(652 24250.059)" fill="#12263f"/>
    <path id="Trazado_833733" data-name="Trazado 833733" d="M-7.293-4.7A5.762,5.762,0,0,1-8.27-1.094,3.409,3.409,0,0,1-11.129.156,3.433,3.433,0,0,1-13.973-1.07,5.594,5.594,0,0,1-14.98-4.586V-6.68a5.687,5.687,0,0,1,.988-3.617,3.434,3.434,0,0,1,2.848-1.234A3.437,3.437,0,0,1-8.3-10.309,5.576,5.576,0,0,1-7.293-6.8Zm-2.258-2.3a4.165,4.165,0,0,0-.387-2.061,1.307,1.307,0,0,0-1.207-.645A1.284,1.284,0,0,0-12.32-9.1a3.9,3.9,0,0,0-.4,1.92v2.768a4.372,4.372,0,0,0,.379,2.068,1.29,1.29,0,0,0,1.215.676,1.268,1.268,0,0,0,1.2-.649A4.268,4.268,0,0,0-9.551-4.3ZM-5.09,2.852l-1.18-.617.281-.508a4.059,4.059,0,0,0,.539-1.9v-1.75h1.906L-3.551-.359a4.059,4.059,0,0,1-.437,1.75A4.486,4.486,0,0,1-5.09,2.852ZM.434-6.687h1.2a1.7,1.7,0,0,0,1.273-.43,1.574,1.574,0,0,0,.414-1.141,1.392,1.392,0,0,0-.41-1.07,1.59,1.59,0,0,0-1.129-.383A1.666,1.666,0,0,0,.7-9.355a1.137,1.137,0,0,0-.437.926H-2a2.777,2.777,0,0,1,.48-1.6A3.2,3.2,0,0,1-.172-11.133a4.485,4.485,0,0,1,1.9-.4,4.253,4.253,0,0,1,2.828.863A2.945,2.945,0,0,1,5.582-8.289a2.394,2.394,0,0,1-.477,1.438,3.1,3.1,0,0,1-1.25,1.008A2.826,2.826,0,0,1,5.289-4.812a2.8,2.8,0,0,1,.473,1.625A2.994,2.994,0,0,1,4.656-.758,4.445,4.445,0,0,1,1.73.156a4.214,4.214,0,0,1-2.785-.9A2.934,2.934,0,0,1-2.137-3.117H.121A1.308,1.308,0,0,0,.6-2.07a1.771,1.771,0,0,0,1.184.406A1.779,1.779,0,0,0,3.047-2.09,1.47,1.47,0,0,0,3.5-3.219q0-1.7-1.875-1.7H.434ZM7.652-5.594l.656-5.781h6.375v1.883H10.16L9.879-7.047a3.58,3.58,0,0,1,1.711-.43,3.279,3.279,0,0,1,2.547,1.008,4.026,4.026,0,0,1,.922,2.82,4.124,4.124,0,0,1-.465,1.973A3.281,3.281,0,0,1,13.262-.324a4.158,4.158,0,0,1-2.047.48A4.416,4.416,0,0,1,9.3-.262,3.4,3.4,0,0,1,7.906-1.437a3.2,3.2,0,0,1-.543-1.727H9.6a1.669,1.669,0,0,0,.5,1.105,1.573,1.573,0,0,0,1.113.395,1.388,1.388,0,0,0,1.18-.551A2.551,2.551,0,0,0,12.8-3.773a2.11,2.11,0,0,0-.477-1.484,1.749,1.749,0,0,0-1.352-.516,1.954,1.954,0,0,0-1.3.422l-.219.2Z" transform="translate(652 24280.059)" fill="#12263f"/>
    <path id="Trazado_833734" data-name="Trazado 833734" d="M-7.293-4.7A5.762,5.762,0,0,1-8.27-1.094,3.409,3.409,0,0,1-11.129.156,3.433,3.433,0,0,1-13.973-1.07,5.594,5.594,0,0,1-14.98-4.586V-6.68a5.687,5.687,0,0,1,.988-3.617,3.434,3.434,0,0,1,2.848-1.234A3.437,3.437,0,0,1-8.3-10.309,5.576,5.576,0,0,1-7.293-6.8Zm-2.258-2.3a4.165,4.165,0,0,0-.387-2.061,1.307,1.307,0,0,0-1.207-.645A1.284,1.284,0,0,0-12.32-9.1a3.9,3.9,0,0,0-.4,1.92v2.768a4.372,4.372,0,0,0,.379,2.068,1.29,1.29,0,0,0,1.215.676,1.268,1.268,0,0,0,1.2-.649A4.268,4.268,0,0,0-9.551-4.3ZM-5.09,2.852l-1.18-.617.281-.508a4.059,4.059,0,0,0,.539-1.9v-1.75h1.906L-3.551-.359a4.059,4.059,0,0,1-.437,1.75A4.486,4.486,0,0,1-5.09,2.852ZM.434-6.687h1.2a1.7,1.7,0,0,0,1.273-.43,1.574,1.574,0,0,0,.414-1.141,1.392,1.392,0,0,0-.41-1.07,1.59,1.59,0,0,0-1.129-.383A1.666,1.666,0,0,0,.7-9.355a1.137,1.137,0,0,0-.437.926H-2a2.777,2.777,0,0,1,.48-1.6A3.2,3.2,0,0,1-.172-11.133a4.485,4.485,0,0,1,1.9-.4,4.253,4.253,0,0,1,2.828.863A2.945,2.945,0,0,1,5.582-8.289a2.394,2.394,0,0,1-.477,1.438,3.1,3.1,0,0,1-1.25,1.008A2.826,2.826,0,0,1,5.289-4.812a2.8,2.8,0,0,1,.473,1.625A2.994,2.994,0,0,1,4.656-.758,4.445,4.445,0,0,1,1.73.156a4.214,4.214,0,0,1-2.785-.9A2.934,2.934,0,0,1-2.137-3.117H.121A1.308,1.308,0,0,0,.6-2.07a1.771,1.771,0,0,0,1.184.406A1.779,1.779,0,0,0,3.047-2.09,1.47,1.47,0,0,0,3.5-3.219q0-1.7-1.875-1.7H.434ZM14.973-4.7A5.762,5.762,0,0,1,14-1.094,3.409,3.409,0,0,1,11.137.156,3.433,3.433,0,0,1,8.293-1.07,5.594,5.594,0,0,1,7.285-4.586V-6.68A5.687,5.687,0,0,1,8.273-10.3a3.434,3.434,0,0,1,2.848-1.234,3.437,3.437,0,0,1,2.844,1.223A5.576,5.576,0,0,1,14.973-6.8Zm-2.258-2.3a4.165,4.165,0,0,0-.387-2.061,1.307,1.307,0,0,0-1.207-.645A1.284,1.284,0,0,0,9.945-9.1a3.9,3.9,0,0,0-.4,1.92v2.768a4.372,4.372,0,0,0,.379,2.068,1.29,1.29,0,0,0,1.215.676,1.268,1.268,0,0,0,1.2-.649A4.268,4.268,0,0,0,12.715-4.3Z" transform="translate(652 24310.059)" fill="#12263f"/>
    <path id="Trazado_833735" data-name="Trazado 833735" d="M-7.293-4.7A5.762,5.762,0,0,1-8.27-1.094,3.409,3.409,0,0,1-11.129.156,3.433,3.433,0,0,1-13.973-1.07,5.594,5.594,0,0,1-14.98-4.586V-6.68a5.687,5.687,0,0,1,.988-3.617,3.434,3.434,0,0,1,2.848-1.234A3.437,3.437,0,0,1-8.3-10.309,5.576,5.576,0,0,1-7.293-6.8Zm-2.258-2.3a4.165,4.165,0,0,0-.387-2.061,1.307,1.307,0,0,0-1.207-.645A1.284,1.284,0,0,0-12.32-9.1a3.9,3.9,0,0,0-.4,1.92v2.768a4.372,4.372,0,0,0,.379,2.068,1.29,1.29,0,0,0,1.215.676,1.268,1.268,0,0,0,1.2-.649A4.268,4.268,0,0,0-9.551-4.3ZM-5.09,2.852l-1.18-.617.281-.508a4.059,4.059,0,0,0,.539-1.9v-1.75h1.906L-3.551-.359a4.059,4.059,0,0,1-.437,1.75A4.486,4.486,0,0,1-5.09,2.852ZM5.934,0h-7.8V-1.547l3.68-3.922A9.078,9.078,0,0,0,2.938-6.914,2.322,2.322,0,0,0,3.3-8.086a1.738,1.738,0,0,0-.383-1.191,1.382,1.382,0,0,0-1.094-.434,1.49,1.49,0,0,0-1.207.527A2.089,2.089,0,0,0,.176-7.8H-2.09a3.729,3.729,0,0,1,.5-1.9,3.5,3.5,0,0,1,1.4-1.348,4.262,4.262,0,0,1,2.055-.488,4.036,4.036,0,0,1,2.73.844A2.985,2.985,0,0,1,5.566-8.3a3.825,3.825,0,0,1-.437,1.719,9.551,9.551,0,0,1-1.5,2.039L1.043-1.82H5.934ZM7.652-5.594l.656-5.781h6.375v1.883H10.16L9.879-7.047a3.58,3.58,0,0,1,1.711-.43,3.279,3.279,0,0,1,2.547,1.008,4.026,4.026,0,0,1,.922,2.82,4.124,4.124,0,0,1-.465,1.973A3.281,3.281,0,0,1,13.262-.324a4.158,4.158,0,0,1-2.047.48A4.416,4.416,0,0,1,9.3-.262,3.4,3.4,0,0,1,7.906-1.437a3.2,3.2,0,0,1-.543-1.727H9.6a1.669,1.669,0,0,0,.5,1.105,1.573,1.573,0,0,0,1.113.395,1.388,1.388,0,0,0,1.18-.551A2.551,2.551,0,0,0,12.8-3.773a2.11,2.11,0,0,0-.477-1.484,1.749,1.749,0,0,0-1.352-.516,1.954,1.954,0,0,0-1.3.422l-.219.2Z" transform="translate(652 24340.059)" fill="#12263f"/>
    <path id="Trazado_833736" data-name="Trazado 833736" d="M-7.293-4.7A5.762,5.762,0,0,1-8.27-1.094,3.409,3.409,0,0,1-11.129.156,3.433,3.433,0,0,1-13.973-1.07,5.594,5.594,0,0,1-14.98-4.586V-6.68a5.687,5.687,0,0,1,.988-3.617,3.434,3.434,0,0,1,2.848-1.234A3.437,3.437,0,0,1-8.3-10.309,5.576,5.576,0,0,1-7.293-6.8Zm-2.258-2.3a4.165,4.165,0,0,0-.387-2.061,1.307,1.307,0,0,0-1.207-.645A1.284,1.284,0,0,0-12.32-9.1a3.9,3.9,0,0,0-.4,1.92v2.768a4.372,4.372,0,0,0,.379,2.068,1.29,1.29,0,0,0,1.215.676,1.268,1.268,0,0,0,1.2-.649A4.268,4.268,0,0,0-9.551-4.3ZM-5.09,2.852l-1.18-.617.281-.508a4.059,4.059,0,0,0,.539-1.9v-1.75h1.906L-3.551-.359a4.059,4.059,0,0,1-.437,1.75A4.486,4.486,0,0,1-5.09,2.852ZM5.934,0h-7.8V-1.547l3.68-3.922A9.078,9.078,0,0,0,2.938-6.914,2.322,2.322,0,0,0,3.3-8.086a1.738,1.738,0,0,0-.383-1.191,1.382,1.382,0,0,0-1.094-.434,1.49,1.49,0,0,0-1.207.527A2.089,2.089,0,0,0,.176-7.8H-2.09a3.729,3.729,0,0,1,.5-1.9,3.5,3.5,0,0,1,1.4-1.348,4.262,4.262,0,0,1,2.055-.488,4.036,4.036,0,0,1,2.73.844A2.985,2.985,0,0,1,5.566-8.3a3.825,3.825,0,0,1-.437,1.719,9.551,9.551,0,0,1-1.5,2.039L1.043-1.82H5.934Zm9.039-4.7A5.762,5.762,0,0,1,14-1.094,3.409,3.409,0,0,1,11.137.156,3.433,3.433,0,0,1,8.293-1.07,5.594,5.594,0,0,1,7.285-4.586V-6.68A5.687,5.687,0,0,1,8.273-10.3a3.434,3.434,0,0,1,2.848-1.234,3.437,3.437,0,0,1,2.844,1.223A5.576,5.576,0,0,1,14.973-6.8Zm-2.258-2.3a4.165,4.165,0,0,0-.387-2.061,1.307,1.307,0,0,0-1.207-.645A1.284,1.284,0,0,0,9.945-9.1a3.9,3.9,0,0,0-.4,1.92v2.768a4.372,4.372,0,0,0,.379,2.068,1.29,1.29,0,0,0,1.215.676,1.268,1.268,0,0,0,1.2-.649A4.268,4.268,0,0,0,12.715-4.3Z" transform="translate(652 24370.059)" fill="#12263f"/>
    <path id="Trazado_833737" data-name="Trazado 833737" d="M-7.293-4.7A5.762,5.762,0,0,1-8.27-1.094,3.409,3.409,0,0,1-11.129.156,3.433,3.433,0,0,1-13.973-1.07,5.594,5.594,0,0,1-14.98-4.586V-6.68a5.687,5.687,0,0,1,.988-3.617,3.434,3.434,0,0,1,2.848-1.234A3.437,3.437,0,0,1-8.3-10.309,5.576,5.576,0,0,1-7.293-6.8Zm-2.258-2.3a4.165,4.165,0,0,0-.387-2.061,1.307,1.307,0,0,0-1.207-.645A1.284,1.284,0,0,0-12.32-9.1a3.9,3.9,0,0,0-.4,1.92v2.768a4.372,4.372,0,0,0,.379,2.068,1.29,1.29,0,0,0,1.215.676,1.268,1.268,0,0,0,1.2-.649A4.268,4.268,0,0,0-9.551-4.3ZM-5.09,2.852l-1.18-.617.281-.508a4.059,4.059,0,0,0,.539-1.9v-1.75h1.906L-3.551-.359a4.059,4.059,0,0,1-.437,1.75A4.486,4.486,0,0,1-5.09,2.852ZM3.621,0H1.363V-8.7l-2.7.836V-9.7l4.711-1.687h.242ZM7.652-5.594l.656-5.781h6.375v1.883H10.16L9.879-7.047a3.58,3.58,0,0,1,1.711-.43,3.279,3.279,0,0,1,2.547,1.008,4.026,4.026,0,0,1,.922,2.82,4.124,4.124,0,0,1-.465,1.973A3.281,3.281,0,0,1,13.262-.324a4.158,4.158,0,0,1-2.047.48A4.416,4.416,0,0,1,9.3-.262,3.4,3.4,0,0,1,7.906-1.437a3.2,3.2,0,0,1-.543-1.727H9.6a1.669,1.669,0,0,0,.5,1.105,1.573,1.573,0,0,0,1.113.395,1.388,1.388,0,0,0,1.18-.551A2.551,2.551,0,0,0,12.8-3.773a2.11,2.11,0,0,0-.477-1.484,1.749,1.749,0,0,0-1.352-.516,1.954,1.954,0,0,0-1.3.422l-.219.2Z" transform="translate(652 24400.059)" fill="#12263f"/>
    <path id="Trazado_833738" data-name="Trazado 833738" d="M-7.293-4.7A5.762,5.762,0,0,1-8.27-1.094,3.409,3.409,0,0,1-11.129.156,3.433,3.433,0,0,1-13.973-1.07,5.594,5.594,0,0,1-14.98-4.586V-6.68a5.687,5.687,0,0,1,.988-3.617,3.434,3.434,0,0,1,2.848-1.234A3.437,3.437,0,0,1-8.3-10.309,5.576,5.576,0,0,1-7.293-6.8Zm-2.258-2.3a4.165,4.165,0,0,0-.387-2.061,1.307,1.307,0,0,0-1.207-.645A1.284,1.284,0,0,0-12.32-9.1a3.9,3.9,0,0,0-.4,1.92v2.768a4.372,4.372,0,0,0,.379,2.068,1.29,1.29,0,0,0,1.215.676,1.268,1.268,0,0,0,1.2-.649A4.268,4.268,0,0,0-9.551-4.3ZM-5.09,2.852l-1.18-.617.281-.508a4.059,4.059,0,0,0,.539-1.9v-1.75h1.906L-3.551-.359a4.059,4.059,0,0,1-.437,1.75A4.486,4.486,0,0,1-5.09,2.852ZM3.621,0H1.363V-8.7l-2.7.836V-9.7l4.711-1.687h.242ZM14.973-4.7A5.762,5.762,0,0,1,14-1.094,3.409,3.409,0,0,1,11.137.156,3.433,3.433,0,0,1,8.293-1.07,5.594,5.594,0,0,1,7.285-4.586V-6.68A5.687,5.687,0,0,1,8.273-10.3a3.434,3.434,0,0,1,2.848-1.234,3.437,3.437,0,0,1,2.844,1.223A5.576,5.576,0,0,1,14.973-6.8Zm-2.258-2.3a4.165,4.165,0,0,0-.387-2.061,1.307,1.307,0,0,0-1.207-.645A1.284,1.284,0,0,0,9.945-9.1a3.9,3.9,0,0,0-.4,1.92v2.768a4.372,4.372,0,0,0,.379,2.068,1.29,1.29,0,0,0,1.215.676,1.268,1.268,0,0,0,1.2-.649A4.268,4.268,0,0,0,12.715-4.3Z" transform="translate(652 24430.059)" fill="#12263f"/>
    <path id="Trazado_833739" data-name="Trazado 833739" d="M-7.293-4.7A5.762,5.762,0,0,1-8.27-1.094,3.409,3.409,0,0,1-11.129.156,3.433,3.433,0,0,1-13.973-1.07,5.594,5.594,0,0,1-14.98-4.586V-6.68a5.687,5.687,0,0,1,.988-3.617,3.434,3.434,0,0,1,2.848-1.234A3.437,3.437,0,0,1-8.3-10.309,5.576,5.576,0,0,1-7.293-6.8Zm-2.258-2.3a4.165,4.165,0,0,0-.387-2.061,1.307,1.307,0,0,0-1.207-.645A1.284,1.284,0,0,0-12.32-9.1a3.9,3.9,0,0,0-.4,1.92v2.768a4.372,4.372,0,0,0,.379,2.068,1.29,1.29,0,0,0,1.215.676,1.268,1.268,0,0,0,1.2-.649A4.268,4.268,0,0,0-9.551-4.3ZM-5.09,2.852l-1.18-.617.281-.508a4.059,4.059,0,0,0,.539-1.9v-1.75h1.906L-3.551-.359a4.059,4.059,0,0,1-.437,1.75A4.486,4.486,0,0,1-5.09,2.852ZM5.793-4.7a5.762,5.762,0,0,1-.977,3.609A3.409,3.409,0,0,1,1.957.156,3.433,3.433,0,0,1-.887-1.07,5.594,5.594,0,0,1-1.895-4.586V-6.68A5.687,5.687,0,0,1-.906-10.3a3.434,3.434,0,0,1,2.848-1.234,3.437,3.437,0,0,1,2.844,1.223A5.576,5.576,0,0,1,5.793-6.8Zm-2.258-2.3a4.165,4.165,0,0,0-.387-2.061,1.307,1.307,0,0,0-1.207-.645A1.284,1.284,0,0,0,.766-9.1a3.9,3.9,0,0,0-.4,1.92v2.768A4.372,4.372,0,0,0,.742-2.341a1.29,1.29,0,0,0,1.215.676,1.268,1.268,0,0,0,1.2-.649A4.268,4.268,0,0,0,3.535-4.3ZM7.652-5.594l.656-5.781h6.375v1.883H10.16L9.879-7.047a3.58,3.58,0,0,1,1.711-.43,3.279,3.279,0,0,1,2.547,1.008,4.026,4.026,0,0,1,.922,2.82,4.124,4.124,0,0,1-.465,1.973A3.281,3.281,0,0,1,13.262-.324a4.158,4.158,0,0,1-2.047.48A4.416,4.416,0,0,1,9.3-.262,3.4,3.4,0,0,1,7.906-1.437a3.2,3.2,0,0,1-.543-1.727H9.6a1.669,1.669,0,0,0,.5,1.105,1.573,1.573,0,0,0,1.113.395,1.388,1.388,0,0,0,1.18-.551A2.551,2.551,0,0,0,12.8-3.773a2.11,2.11,0,0,0-.477-1.484,1.749,1.749,0,0,0-1.352-.516,1.954,1.954,0,0,0-1.3.422l-.219.2Z" transform="translate(652 24460.059)" fill="#12263f"/>
    <path id="Trazado_833740" data-name="Trazado 833740" d="M-7.293-4.7A5.762,5.762,0,0,1-8.27-1.094,3.409,3.409,0,0,1-11.129.156,3.433,3.433,0,0,1-13.973-1.07,5.594,5.594,0,0,1-14.98-4.586V-6.68a5.687,5.687,0,0,1,.988-3.617,3.434,3.434,0,0,1,2.848-1.234A3.437,3.437,0,0,1-8.3-10.309,5.576,5.576,0,0,1-7.293-6.8Zm-2.258-2.3a4.165,4.165,0,0,0-.387-2.061,1.307,1.307,0,0,0-1.207-.645A1.284,1.284,0,0,0-12.32-9.1a3.9,3.9,0,0,0-.4,1.92v2.768a4.372,4.372,0,0,0,.379,2.068,1.29,1.29,0,0,0,1.215.676,1.268,1.268,0,0,0,1.2-.649A4.268,4.268,0,0,0-9.551-4.3ZM-5.09,2.852l-1.18-.617.281-.508a4.059,4.059,0,0,0,.539-1.9v-1.75h1.906L-3.551-.359a4.059,4.059,0,0,1-.437,1.75A4.486,4.486,0,0,1-5.09,2.852ZM5.793-4.7a5.762,5.762,0,0,1-.977,3.609A3.409,3.409,0,0,1,1.957.156,3.433,3.433,0,0,1-.887-1.07,5.594,5.594,0,0,1-1.895-4.586V-6.68A5.687,5.687,0,0,1-.906-10.3a3.434,3.434,0,0,1,2.848-1.234,3.437,3.437,0,0,1,2.844,1.223A5.576,5.576,0,0,1,5.793-6.8Zm-2.258-2.3a4.165,4.165,0,0,0-.387-2.061,1.307,1.307,0,0,0-1.207-.645A1.284,1.284,0,0,0,.766-9.1a3.9,3.9,0,0,0-.4,1.92v2.768A4.372,4.372,0,0,0,.742-2.341a1.29,1.29,0,0,0,1.215.676,1.268,1.268,0,0,0,1.2-.649A4.268,4.268,0,0,0,3.535-4.3ZM14.973-4.7A5.762,5.762,0,0,1,14-1.094,3.409,3.409,0,0,1,11.137.156,3.433,3.433,0,0,1,8.293-1.07,5.594,5.594,0,0,1,7.285-4.586V-6.68A5.687,5.687,0,0,1,8.273-10.3a3.434,3.434,0,0,1,2.848-1.234,3.437,3.437,0,0,1,2.844,1.223A5.576,5.576,0,0,1,14.973-6.8Zm-2.258-2.3a4.165,4.165,0,0,0-.387-2.061,1.307,1.307,0,0,0-1.207-.645A1.284,1.284,0,0,0,9.945-9.1a3.9,3.9,0,0,0-.4,1.92v2.768a4.372,4.372,0,0,0,.379,2.068,1.29,1.29,0,0,0,1.215.676,1.268,1.268,0,0,0,1.2-.649A4.268,4.268,0,0,0,12.715-4.3Z" transform="translate(652 24490.059)" fill="#12263f"/>
    <path id="Trazado_833741" data-name="Trazado 833741" d="M-2.434-3.961h-4.4v-1.82h4.4ZM4.77,0H2.512V-8.7l-2.7.836V-9.7l4.711-1.687H4.77Z" transform="translate(711 24532.059)" fill="#12263f"/>
    <path id="Trazado_833742" data-name="Trazado 833742" d="M3.84-4.7a5.762,5.762,0,0,1-.977,3.609A3.409,3.409,0,0,1,0,.156,3.433,3.433,0,0,1-2.84-1.07,5.594,5.594,0,0,1-3.848-4.586V-6.68A5.687,5.687,0,0,1-2.859-10.3,3.434,3.434,0,0,1-.012-11.531a3.437,3.437,0,0,1,2.844,1.223A5.576,5.576,0,0,1,3.84-6.8Zm-2.258-2.3A4.165,4.165,0,0,0,1.2-9.066,1.307,1.307,0,0,0-.012-9.711,1.284,1.284,0,0,0-1.187-9.1a3.9,3.9,0,0,0-.4,1.92v2.768a4.372,4.372,0,0,0,.379,2.068A1.29,1.29,0,0,0,0-1.664a1.268,1.268,0,0,0,1.2-.649A4.268,4.268,0,0,0,1.582-4.3Z" transform="translate(786 24532.059)" fill="#12263f"/>
    <path id="Trazado_833743" data-name="Trazado 833743" d="M17.98,15h-7.8V13.453l3.68-3.922a9.078,9.078,0,0,0,1.121-1.445,2.322,2.322,0,0,0,.363-1.172,1.738,1.738,0,0,0-.383-1.191,1.382,1.382,0,0,0-1.094-.434,1.49,1.49,0,0,0-1.207.527A2.089,2.089,0,0,0,12.223,7.2H9.957a3.729,3.729,0,0,1,.5-1.9,3.5,3.5,0,0,1,1.4-1.348,4.262,4.262,0,0,1,2.055-.488,4.036,4.036,0,0,1,2.73.844A2.985,2.985,0,0,1,17.613,6.7a3.825,3.825,0,0,1-.437,1.719,9.551,9.551,0,0,1-1.5,2.039L13.09,13.18H17.98Z" transform="translate(854 24517.059)" fill="#12263f"/>
    <path id="Trazado_833744" data-name="Trazado 833744" d="M12.48,8.313h1.2a1.7,1.7,0,0,0,1.273-.43,1.574,1.574,0,0,0,.414-1.141,1.392,1.392,0,0,0-.41-1.07,1.59,1.59,0,0,0-1.129-.383,1.666,1.666,0,0,0-1.086.355,1.137,1.137,0,0,0-.437.926H10.051a2.777,2.777,0,0,1,.48-1.6,3.2,3.2,0,0,1,1.344-1.105,4.485,4.485,0,0,1,1.9-.4,4.253,4.253,0,0,1,2.828.863,2.945,2.945,0,0,1,1.023,2.379,2.394,2.394,0,0,1-.477,1.438A3.1,3.1,0,0,1,15.9,9.156a2.826,2.826,0,0,1,1.434,1.031,2.8,2.8,0,0,1,.473,1.625,2.994,2.994,0,0,1-1.105,2.43,4.445,4.445,0,0,1-2.926.914,4.214,4.214,0,0,1-2.785-.9A2.934,2.934,0,0,1,9.91,11.883h2.258a1.308,1.308,0,0,0,.48,1.047,1.771,1.771,0,0,0,1.184.406,1.779,1.779,0,0,0,1.262-.426,1.47,1.47,0,0,0,.457-1.129q0-1.7-1.875-1.7h-1.2Z" transform="translate(944 24517.059)" fill="#12263f"/>
    <path id="Trazado_833745" data-name="Trazado 833745" d="M16.863,10.719h1.289v1.82H16.863V15H14.605V12.539H9.941l-.1-1.422,4.742-7.492h2.281Zm-4.773,0h2.516V6.7l-.148.258Z" transform="translate(1035 24517.059)" fill="#12263f"/>
    <path id="Trazado_833746" data-name="Trazado 833746" d="M10.52,9.406l.656-5.781h6.375V5.508H13.027l-.281,2.445a3.58,3.58,0,0,1,1.711-.43A3.279,3.279,0,0,1,17,8.531a4.026,4.026,0,0,1,.922,2.82,4.124,4.124,0,0,1-.465,1.973,3.281,3.281,0,0,1-1.332,1.352,4.158,4.158,0,0,1-2.047.48,4.416,4.416,0,0,1-1.914-.418,3.4,3.4,0,0,1-1.395-1.176,3.2,3.2,0,0,1-.543-1.727h2.234a1.669,1.669,0,0,0,.5,1.105,1.573,1.573,0,0,0,1.113.395,1.388,1.388,0,0,0,1.18-.551,2.551,2.551,0,0,0,.414-1.559,2.11,2.11,0,0,0-.477-1.484,1.749,1.749,0,0,0-1.352-.516,1.954,1.954,0,0,0-1.3.422l-.219.2Z" transform="translate(1125 24517.059)" fill="#12263f"/>
    <path id="Trazado_833747" data-name="Trazado 833747" d="M9,0H128a9,9,0,0,1,9,9V34a9,9,0,0,1-9,9H9a9,9,0,0,1-9-9V9A9,9,0,0,1,9,0Z" transform="translate(453 24358.059)" fill="#cadeb4"/>
    <path id="Trazado_833748" data-name="Trazado 833748" d="M9,0H128a9,9,0,0,1,9,9V34a9,9,0,0,1-9,9H9a9,9,0,0,1-9-9V9A9,9,0,0,1,9,0Z" transform="translate(815 24577.059)" fill="#cadeb4"/>
    <path id="Trazado_833749" data-name="Trazado 833749" d="M36.414,15V8.2H35.156V6.547h1.258V5.828a2.918,2.918,0,0,1,.816-2.207,3.162,3.162,0,0,1,2.285-.785,5.278,5.278,0,0,1,1.148.156l-.023,1.75a2.878,2.878,0,0,0-.687-.07q-1.273,0-1.273,1.2v.68h1.68V8.2H38.68V15Zm9.867-6.336a6.134,6.134,0,0,0-.812-.062,1.654,1.654,0,0,0-1.68.867V15H41.531V6.547h2.133l.063,1.008a2.092,2.092,0,0,1,1.883-1.164,2.366,2.366,0,0,1,.7.1Zm4.828,6.492a4.15,4.15,0,0,1-3.027-1.141,4.054,4.054,0,0,1-1.168-3.039v-.219a5.106,5.106,0,0,1,.492-2.277A3.612,3.612,0,0,1,48.8,6.934a3.914,3.914,0,0,1,2.059-.543,3.508,3.508,0,0,1,2.73,1.094,4.444,4.444,0,0,1,1,3.1v.922H49.2a2.1,2.1,0,0,0,.66,1.328,2,2,0,0,0,1.395.5,2.437,2.437,0,0,0,2.039-.945l1.109,1.242a3.389,3.389,0,0,1-1.375,1.121A4.511,4.511,0,0,1,51.109,15.156Zm-.258-6.945a1.411,1.411,0,0,0-1.09.455,2.357,2.357,0,0,0-.535,1.3h3.141V9.788a1.681,1.681,0,0,0-.406-1.165A1.456,1.456,0,0,0,50.852,8.211Zm8.531,5.125a1.481,1.481,0,0,0,1.016-.344,1.2,1.2,0,0,0,.406-.914h2.117a2.9,2.9,0,0,1-.469,1.574,3.093,3.093,0,0,1-1.262,1.109,3.949,3.949,0,0,1-1.77.395A3.67,3.67,0,0,1,56.563,14a4.56,4.56,0,0,1-1.047-3.184v-.148a4.508,4.508,0,0,1,1.039-3.117,3.627,3.627,0,0,1,2.852-1.164,3.555,3.555,0,0,1,2.543.9,3.2,3.2,0,0,1,.973,2.4H60.8A1.551,1.551,0,0,0,60.4,8.623a1.51,1.51,0,0,0-2.223.163,3.333,3.333,0,0,0-.4,1.866v.235a3.375,3.375,0,0,0,.4,1.878A1.377,1.377,0,0,0,59.383,13.336Zm9.891.8a2.831,2.831,0,0,1-2.312,1.016,2.67,2.67,0,0,1-2.074-.781,3.335,3.335,0,0,1-.73-2.289V6.547h2.258v5.467q0,1.322,1.2,1.322a1.63,1.63,0,0,0,1.578-.8V6.547h2.266V15H69.336Zm7.781,1.016a4.15,4.15,0,0,1-3.027-1.141,4.054,4.054,0,0,1-1.168-3.039v-.219a5.106,5.106,0,0,1,.492-2.277,3.612,3.612,0,0,1,1.395-1.547A3.914,3.914,0,0,1,76.8,6.391a3.508,3.508,0,0,1,2.73,1.094,4.444,4.444,0,0,1,1,3.1v.922H75.148a2.1,2.1,0,0,0,.66,1.328,2,2,0,0,0,1.395.5,2.437,2.437,0,0,0,2.039-.945l1.109,1.242a3.389,3.389,0,0,1-1.375,1.121A4.511,4.511,0,0,1,77.055,15.156ZM76.8,8.211a1.411,1.411,0,0,0-1.09.455,2.357,2.357,0,0,0-.535,1.3h3.141V9.788a1.681,1.681,0,0,0-.406-1.165A1.456,1.456,0,0,0,76.8,8.211Zm7.094-1.664.07.977a2.951,2.951,0,0,1,2.43-1.133,2.453,2.453,0,0,1,2,.789,3.682,3.682,0,0,1,.672,2.359V15H86.8V9.594a1.465,1.465,0,0,0-.312-1.043,1.4,1.4,0,0,0-1.039-.324,1.553,1.553,0,0,0-1.43.813V15H81.766V6.547Zm10.4,6.789a1.481,1.481,0,0,0,1.016-.344,1.2,1.2,0,0,0,.406-.914h2.117a2.9,2.9,0,0,1-.469,1.574A3.093,3.093,0,0,1,96.1,14.762a3.949,3.949,0,0,1-1.77.395A3.67,3.67,0,0,1,91.469,14a4.56,4.56,0,0,1-1.047-3.184v-.148a4.508,4.508,0,0,1,1.039-3.117,3.627,3.627,0,0,1,2.852-1.164,3.555,3.555,0,0,1,2.543.9,3.2,3.2,0,0,1,.973,2.4H95.711A1.551,1.551,0,0,0,95.3,8.623a1.51,1.51,0,0,0-2.223.163,3.333,3.333,0,0,0-.4,1.866v.235a3.375,3.375,0,0,0,.4,1.878A1.377,1.377,0,0,0,94.289,13.336ZM101.5,15H99.234V6.547H101.5ZM99.1,4.359a1.112,1.112,0,0,1,.34-.836,1.465,1.465,0,0,1,1.848,0,1.105,1.105,0,0,1,.344.836,1.108,1.108,0,0,1-.348.844,1.448,1.448,0,0,1-1.836,0A1.108,1.108,0,0,1,99.1,4.359ZM108.258,15a2.507,2.507,0,0,1-.227-.758,2.732,2.732,0,0,1-2.133.914,3,3,0,0,1-2.059-.719,2.312,2.312,0,0,1-.816-1.812,2.389,2.389,0,0,1,1-2.062,4.915,4.915,0,0,1,2.879-.727h1.039V9.352a1.393,1.393,0,0,0-.3-.937,1.183,1.183,0,0,0-.949-.352,1.345,1.345,0,0,0-.895.273.929.929,0,0,0-.324.75h-2.258a2.268,2.268,0,0,1,.453-1.359,3,3,0,0,1,1.281-.98,4.669,4.669,0,0,1,1.859-.355,3.689,3.689,0,0,1,2.48.785,2.747,2.747,0,0,1,.918,2.207v3.664a4.041,4.041,0,0,0,.336,1.82V15Zm-1.867-1.57a1.945,1.945,0,0,0,.922-.223,1.462,1.462,0,0,0,.625-.6V11.156h-.844q-1.7,0-1.8,1.172l-.008.133a.9.9,0,0,0,.3.7A1.153,1.153,0,0,0,106.391,13.43Z" transform="translate(448 24370.059)" fill="#12263f"/>
    <path id="Trazado_833750" data-name="Trazado 833750" d="M14.4,9.57a6.867,6.867,0,0,1-.594,2.945,4.472,4.472,0,0,1-1.7,1.953,4.7,4.7,0,0,1-2.535.688,4.732,4.732,0,0,1-2.523-.68,4.515,4.515,0,0,1-1.719-1.941,6.67,6.67,0,0,1-.617-2.9V9.07a6.831,6.831,0,0,1,.605-2.957A4.508,4.508,0,0,1,7.027,4.152a4.706,4.706,0,0,1,2.527-.684,4.706,4.706,0,0,1,2.527.684,4.508,4.508,0,0,1,1.711,1.961A6.811,6.811,0,0,1,14.4,9.063Zm-2.375-.516a4.787,4.787,0,0,0-.641-2.719,2.088,2.088,0,0,0-1.828-.93,2.088,2.088,0,0,0-1.82.918,4.732,4.732,0,0,0-.648,2.691V9.57a4.847,4.847,0,0,0,.641,2.7,2.082,2.082,0,0,0,1.844.961,2.064,2.064,0,0,0,1.813-.926,4.819,4.819,0,0,0,.641-2.7Zm11.547,1.8A5.119,5.119,0,0,1,22.7,14.02a2.872,2.872,0,0,1-2.422,1.137,2.639,2.639,0,0,1-2.2-1.055l-.1.9H15.953V3h2.258V7.3a2.571,2.571,0,0,1,2.055-.914,2.9,2.9,0,0,1,2.426,1.137,5.126,5.126,0,0,1,.879,3.2Zm-2.258-.164a3.363,3.363,0,0,0-.406-1.871,1.374,1.374,0,0,0-1.211-.59,1.489,1.489,0,0,0-1.484.883v3.336a1.509,1.509,0,0,0,1.5.891,1.394,1.394,0,0,0,1.438-1.078A5.562,5.562,0,0,0,21.313,10.688Zm8.227,1.977a.727.727,0,0,0-.41-.652,4.659,4.659,0,0,0-1.316-.426Q24.8,10.953,24.8,9.023a2.323,2.323,0,0,1,.934-1.879,3.766,3.766,0,0,1,2.441-.754,4.053,4.053,0,0,1,2.574.758,2.388,2.388,0,0,1,.965,1.969H29.453a1.092,1.092,0,0,0-.312-.8A1.322,1.322,0,0,0,28.164,8a1.351,1.351,0,0,0-.883.258.814.814,0,0,0-.312.656.7.7,0,0,0,.355.605,3.657,3.657,0,0,0,1.2.4,9.8,9.8,0,0,1,1.422.379,2.336,2.336,0,0,1,1.789,2.273,2.2,2.2,0,0,1-.992,1.871,4.28,4.28,0,0,1-2.562.715,4.47,4.47,0,0,1-1.887-.379A3.166,3.166,0,0,1,25,13.738a2.414,2.414,0,0,1-.469-1.426h2.141a1.179,1.179,0,0,0,.445.922,1.766,1.766,0,0,0,1.109.32,1.635,1.635,0,0,0,.98-.246A.766.766,0,0,0,29.539,12.664Zm7.539,2.492a4.15,4.15,0,0,1-3.027-1.141,4.054,4.054,0,0,1-1.168-3.039v-.219a5.106,5.106,0,0,1,.492-2.277A3.612,3.612,0,0,1,34.77,6.934a3.914,3.914,0,0,1,2.059-.543,3.508,3.508,0,0,1,2.73,1.094,4.444,4.444,0,0,1,1,3.1v.922H35.172a2.1,2.1,0,0,0,.66,1.328,2,2,0,0,0,1.395.5,2.437,2.437,0,0,0,2.039-.945l1.109,1.242A3.389,3.389,0,0,1,39,14.754,4.511,4.511,0,0,1,37.078,15.156ZM36.82,8.211a1.411,1.411,0,0,0-1.09.455,2.357,2.357,0,0,0-.535,1.3h3.141V9.788a1.681,1.681,0,0,0-.406-1.165A1.456,1.456,0,0,0,36.82,8.211Zm9.766.453a6.134,6.134,0,0,0-.812-.062,1.654,1.654,0,0,0-1.68.867V15H41.836V6.547h2.133l.063,1.008a2.092,2.092,0,0,1,1.883-1.164,2.366,2.366,0,0,1,.7.1Zm4.391,3.578,1.57-5.7h2.359L52.055,15H49.9L47.047,6.547h2.359ZM60.68,15a2.507,2.507,0,0,1-.227-.758,2.732,2.732,0,0,1-2.133.914,3,3,0,0,1-2.059-.719,2.312,2.312,0,0,1-.816-1.812,2.389,2.389,0,0,1,1-2.062,4.915,4.915,0,0,1,2.879-.727h1.039V9.352a1.393,1.393,0,0,0-.3-.937,1.183,1.183,0,0,0-.949-.352,1.345,1.345,0,0,0-.895.273.929.929,0,0,0-.324.75H55.633a2.268,2.268,0,0,1,.453-1.359,3,3,0,0,1,1.281-.98,4.669,4.669,0,0,1,1.859-.355,3.689,3.689,0,0,1,2.48.785,2.747,2.747,0,0,1,.918,2.207v3.664a4.041,4.041,0,0,0,.336,1.82V15Zm-1.867-1.57a1.945,1.945,0,0,0,.922-.223,1.462,1.462,0,0,0,.625-.6V11.156h-.844q-1.7,0-1.8,1.172l-.008.133a.9.9,0,0,0,.3.7A1.153,1.153,0,0,0,58.813,13.43Zm9.063-.094a1.481,1.481,0,0,0,1.016-.344,1.2,1.2,0,0,0,.406-.914h2.117a2.9,2.9,0,0,1-.469,1.574,3.093,3.093,0,0,1-1.262,1.109,3.949,3.949,0,0,1-1.77.395A3.67,3.67,0,0,1,65.055,14a4.56,4.56,0,0,1-1.047-3.184v-.148a4.508,4.508,0,0,1,1.039-3.117A3.627,3.627,0,0,1,67.9,6.391a3.555,3.555,0,0,1,2.543.9,3.2,3.2,0,0,1,.973,2.4H69.3a1.551,1.551,0,0,0-.406-1.072,1.51,1.51,0,0,0-2.223.163,3.333,3.333,0,0,0-.4,1.866v.235a3.375,3.375,0,0,0,.4,1.878A1.377,1.377,0,0,0,67.875,13.336ZM75.086,15H72.82V6.547h2.266Zm-2.4-10.641a1.112,1.112,0,0,1,.34-.836,1.465,1.465,0,0,1,1.848,0,1.105,1.105,0,0,1,.344.836,1.108,1.108,0,0,1-.348.844,1.448,1.448,0,0,1-1.836,0A1.108,1.108,0,0,1,72.688,4.359ZM76.594,10.7a5.013,5.013,0,0,1,.484-2.242A3.546,3.546,0,0,1,78.473,6.93a4.069,4.069,0,0,1,2.113-.539,3.849,3.849,0,0,1,2.793,1.047,4.2,4.2,0,0,1,1.207,2.844l.016.578a4.418,4.418,0,0,1-1.086,3.121,4.209,4.209,0,0,1-5.832,0,4.5,4.5,0,0,1-1.09-3.187Zm2.258.16A3.16,3.16,0,0,0,79.3,12.7a1.628,1.628,0,0,0,2.578.008,3.457,3.457,0,0,0,.461-2.015,3.128,3.128,0,0,0-.461-1.831,1.5,1.5,0,0,0-1.3-.649,1.474,1.474,0,0,0-1.281.646A3.516,3.516,0,0,0,78.852,10.856ZM88.07,6.547l.07.977a2.951,2.951,0,0,1,2.43-1.133,2.453,2.453,0,0,1,2,.789,3.682,3.682,0,0,1,.672,2.359V15H90.984V9.594a1.465,1.465,0,0,0-.312-1.043,1.4,1.4,0,0,0-1.039-.324,1.553,1.553,0,0,0-1.43.813V15H85.945V6.547Zm10.773,8.609a4.15,4.15,0,0,1-3.027-1.141,4.054,4.054,0,0,1-1.168-3.039v-.219a5.106,5.106,0,0,1,.492-2.277,3.612,3.612,0,0,1,1.395-1.547,3.914,3.914,0,0,1,2.059-.543,3.508,3.508,0,0,1,2.73,1.094,4.444,4.444,0,0,1,1,3.1v.922H96.938a2.1,2.1,0,0,0,.66,1.328,2,2,0,0,0,1.395.5,2.437,2.437,0,0,0,2.039-.945l1.109,1.242a3.389,3.389,0,0,1-1.375,1.121A4.511,4.511,0,0,1,98.844,15.156Zm-.258-6.945a1.411,1.411,0,0,0-1.09.455,2.357,2.357,0,0,0-.535,1.3H100.1V9.788A1.681,1.681,0,0,0,99.7,8.623,1.456,1.456,0,0,0,98.586,8.211Zm9.594,4.453a.727.727,0,0,0-.41-.652,4.659,4.659,0,0,0-1.316-.426q-3.016-.633-3.016-2.562a2.323,2.323,0,0,1,.934-1.879,3.766,3.766,0,0,1,2.441-.754,4.053,4.053,0,0,1,2.574.758,2.388,2.388,0,0,1,.965,1.969h-2.258a1.092,1.092,0,0,0-.312-.8A1.322,1.322,0,0,0,106.8,8a1.351,1.351,0,0,0-.883.258.814.814,0,0,0-.312.656.7.7,0,0,0,.355.605,3.657,3.657,0,0,0,1.2.4,9.8,9.8,0,0,1,1.422.379,2.336,2.336,0,0,1,1.789,2.273,2.2,2.2,0,0,1-.992,1.871,4.28,4.28,0,0,1-2.562.715,4.47,4.47,0,0,1-1.887-.379,3.166,3.166,0,0,1-1.293-1.039,2.414,2.414,0,0,1-.469-1.426h2.141a1.179,1.179,0,0,0,.445.922,1.766,1.766,0,0,0,1.109.32,1.635,1.635,0,0,0,.98-.246A.766.766,0,0,0,108.18,12.664Z" transform="translate(825 24589.059)" fill="#12263f"/>
  </g>
</svg>
