<svg xmlns="http://www.w3.org/2000/svg" xmlns:xlink="http://www.w3.org/1999/xlink" width="503" height="1205" viewBox="0 0 503 1205">
  <defs>
    <linearGradient id="linear-gradient" x1="0.5" x2="0.5" y2="1" gradientUnits="objectBoundingBox">
      <stop offset="0" stop-color="#f1ece6"/>
      <stop offset="1" stop-color="#fbfbfb"/>
    </linearGradient>
    <linearGradient id="linear-gradient-2" x1="0.5" x2="0.5" y2="1" gradientUnits="objectBoundingBox">
      <stop offset="0" stop-color="#eaf2e1"/>
      <stop offset="0.562" stop-color="#f8f8f8"/>
      <stop offset="1" stop-color="#e6ebfb"/>
    </linearGradient>
  </defs>
  <g id="Grupo_1085261" data-name="Grupo 1085261" transform="translate(5093 8222)">
    <path id="Trazado_833312" data-name="Trazado 833312" d="M18,0H485a18,18,0,0,1,18,18V1187a18,18,0,0,1-18,18H18a18,18,0,0,1-18-18V18A18,18,0,0,1,18,0Z" transform="translate(-5093 -8222)" fill="url(#linear-gradient)"/>
    <path id="Trazado_833313" data-name="Trazado 833313" d="M15,0H238a15,15,0,0,1,15,15V189a15,15,0,0,1-15,15H15A15,15,0,0,1,0,189V15A15,15,0,0,1,15,0Z" transform="translate(-4965 -8183)" fill="url(#linear-gradient-2)"/>
    <path id="Trazado_833314" data-name="Trazado 833314" d="M15,0H238a15,15,0,0,1,15,15V189a15,15,0,0,1-15,15H15A15,15,0,0,1,0,189V15A15,15,0,0,1,15,0Z" transform="translate(-4965 -7966)" fill="url(#linear-gradient-2)"/>
    <path id="Trazado_833315" data-name="Trazado 833315" d="M15,0H238a15,15,0,0,1,15,15V189a15,15,0,0,1-15,15H15A15,15,0,0,1,0,189V15A15,15,0,0,1,15,0Z" transform="translate(-4965 -7743)" fill="url(#linear-gradient-2)"/>
    <path id="Trazado_833316" data-name="Trazado 833316" d="M15,0H238a15,15,0,0,1,15,15V189a15,15,0,0,1-15,15H15A15,15,0,0,1,0,189V15A15,15,0,0,1,15,0Z" transform="translate(-4965 -7518)" fill="url(#linear-gradient-2)"/>
    <path id="Trazado_832547" data-name="Trazado 832547" d="M0,0,105,26.6,206,0V67a12,12,0,0,1-12,12H12A12,12,0,0,1,0,67Z" transform="translate(-4942 -8070.429)" fill="#c1cdf5"/>
    <path id="Trazado_833317" data-name="Trazado 833317" d="M8,0H157a8,8,0,0,1,8,8V84a8,8,0,0,1-8,8H8a8,8,0,0,1-8-8V8A8,8,0,0,1,8,0Z" transform="translate(-4921 -8094.429)" fill="#f3f9ff"/>
    <path id="Trazado_833318" data-name="Trazado 833318" d="M39,0A39,39,0,1,1,0,39,39,39,0,0,1,39,0Z" transform="translate(-4878 -8133.429)" fill="#c1cdf5"/>
    <path id="Trazado_833319" data-name="Trazado 833319" d="M30.5,0A30.5,30.5,0,1,1,0,30.5,30.5,30.5,0,0,1,30.5,0Z" transform="translate(-4869 -8125.429)" fill="#fff"/>
    <g id="Grupo_1084535" data-name="Grupo 1084535" transform="translate(-4868 -8124)">
      <g id="Grupo_1081407" data-name="Grupo 1081407">
        <g id="Elipse_5877" data-name="Elipse 5877" transform="translate(0 0.001)" fill="#fff" stroke="#c1cdf5" stroke-width="2">
          <circle cx="29.5" cy="29.5" r="29.5" stroke="none"/>
          <circle cx="29.5" cy="29.5" r="28.5" fill="none"/>
        </g>
        <circle id="Elipse_5876" data-name="Elipse 5876" cx="22.5" cy="22.5" r="22.5" transform="translate(7 7.001)" fill="#c1cdf5"/>
      </g>
      <text id="_1" data-name="1" transform="translate(24 38)" fill="#12263f" font-size="23" font-family="Roboto-Black, Roboto" font-weight="800"><tspan x="0" y="0">1</tspan></text>
    </g>
    <path id="Trazado_833320" data-name="Trazado 833320" d="M9.688,11.391a4.185,4.185,0,0,1-1.332,2.785,4.365,4.365,0,0,1-2.98.98,4.008,4.008,0,0,1-3.23-1.445A5.815,5.815,0,0,1,.93,9.844V8.75A6.481,6.481,0,0,1,1.5,5.961,4.231,4.231,0,0,1,3.1,4.113a4.47,4.47,0,0,1,2.406-.645A4.11,4.11,0,0,1,8.414,4.48a4.235,4.235,0,0,1,1.273,2.8H8.18a3.268,3.268,0,0,0-.848-1.975A2.565,2.565,0,0,0,5.508,4.7,2.684,2.684,0,0,0,3.254,5.759a4.882,4.882,0,0,0-.816,3.026v1.1a5.018,5.018,0,0,0,.773,2.948A2.5,2.5,0,0,0,5.375,13.93a2.887,2.887,0,0,0,1.918-.566,3.143,3.143,0,0,0,.887-1.973Zm5.328,3.766a3.693,3.693,0,0,1-2.8-1.129,4.19,4.19,0,0,1-1.078-3.02v-.266a5.073,5.073,0,0,1,.48-2.246,3.748,3.748,0,0,1,1.344-1.547,3.378,3.378,0,0,1,1.871-.559A3.166,3.166,0,0,1,17.4,7.477a4.7,4.7,0,0,1,.914,3.109v.6H12.586a3,3,0,0,0,.73,2.02,2.3,2.3,0,0,0,1.777.77,2.517,2.517,0,0,0,1.3-.312,3.259,3.259,0,0,0,.93-.828l.883.688A3.55,3.55,0,0,1,15.016,15.156Zm-.18-7.578a1.928,1.928,0,0,0-1.469.637A3.1,3.1,0,0,0,12.633,10h4.234V9.891a2.753,2.753,0,0,0-.594-1.707A1.815,1.815,0,0,0,14.836,7.578Zm6.516-1.031L21.4,7.609A3.08,3.08,0,0,1,23.93,6.391q2.68,0,2.7,3.023V15H25.188V9.406a1.946,1.946,0,0,0-.418-1.352,1.675,1.675,0,0,0-1.277-.437,2.086,2.086,0,0,0-1.234.375,2.546,2.546,0,0,0-.828.984V15H19.984V6.547Zm12.383,6.211a1.064,1.064,0,0,0-.441-.91,4.249,4.249,0,0,0-1.539-.559,7.277,7.277,0,0,1-1.742-.562,2.479,2.479,0,0,1-.953-.781,1.869,1.869,0,0,1-.309-1.078,2.193,2.193,0,0,1,.879-1.758,3.432,3.432,0,0,1,2.246-.719,3.532,3.532,0,0,1,2.332.742,2.357,2.357,0,0,1,.895,1.9H33.648a1.3,1.3,0,0,0-.5-1.023,1.888,1.888,0,0,0-1.27-.43,1.976,1.976,0,0,0-1.234.344,1.082,1.082,0,0,0-.445.9.877.877,0,0,0,.414.789,5.1,5.1,0,0,0,1.5.508,7.8,7.8,0,0,1,1.754.578,2.558,2.558,0,0,1,1,.809,1.988,1.988,0,0,1,.324,1.152,2.163,2.163,0,0,1-.906,1.816,3.8,3.8,0,0,1-2.352.684,4.257,4.257,0,0,1-1.8-.359,2.922,2.922,0,0,1-1.223-1,2.42,2.42,0,0,1-.441-1.395h1.445a1.5,1.5,0,0,0,.582,1.152,2.258,2.258,0,0,0,1.434.426,2.331,2.331,0,0,0,1.316-.332A1.02,1.02,0,0,0,33.734,12.758ZM36.68,10.7a4.993,4.993,0,0,1,.488-2.234A3.643,3.643,0,0,1,38.527,6.93a3.7,3.7,0,0,1,1.988-.539,3.565,3.565,0,0,1,2.793,1.2,4.6,4.6,0,0,1,1.066,3.18v.1a5.036,5.036,0,0,1-.473,2.215,3.589,3.589,0,0,1-1.352,1.527,3.743,3.743,0,0,1-2.02.547,3.556,3.556,0,0,1-2.785-1.2A4.575,4.575,0,0,1,36.68,10.8Zm1.453.172a3.616,3.616,0,0,0,.652,2.258,2.211,2.211,0,0,0,3.5-.012A3.955,3.955,0,0,0,42.93,10.7a3.61,3.61,0,0,0-.66-2.254,2.1,2.1,0,0,0-1.754-.863,2.075,2.075,0,0,0-1.727.852A3.925,3.925,0,0,0,38.133,10.867Zm12.977,1.891a1.064,1.064,0,0,0-.441-.91,4.249,4.249,0,0,0-1.539-.559,7.277,7.277,0,0,1-1.742-.562,2.479,2.479,0,0,1-.953-.781,1.869,1.869,0,0,1-.309-1.078A2.193,2.193,0,0,1,47,7.109a3.432,3.432,0,0,1,2.246-.719,3.532,3.532,0,0,1,2.332.742,2.357,2.357,0,0,1,.895,1.9H51.023a1.3,1.3,0,0,0-.5-1.023,1.888,1.888,0,0,0-1.27-.43,1.976,1.976,0,0,0-1.234.344,1.082,1.082,0,0,0-.445.9.877.877,0,0,0,.414.789,5.1,5.1,0,0,0,1.5.508,7.8,7.8,0,0,1,1.754.578,2.558,2.558,0,0,1,1,.809,1.988,1.988,0,0,1,.324,1.152,2.163,2.163,0,0,1-.906,1.816,3.8,3.8,0,0,1-2.352.684,4.257,4.257,0,0,1-1.8-.359,2.922,2.922,0,0,1-1.223-1,2.42,2.42,0,0,1-.441-1.395h1.445a1.5,1.5,0,0,0,.582,1.152,2.258,2.258,0,0,0,1.434.426,2.331,2.331,0,0,0,1.316-.332A1.02,1.02,0,0,0,51.109,12.758ZM62.8,10.4H60.125V15H58.617V3.625h3.766A4.457,4.457,0,0,1,65.34,4.5a3.148,3.148,0,0,1,1.035,2.547A3.062,3.062,0,0,1,65.8,8.9a3.428,3.428,0,0,1-1.6,1.18l2.672,4.828V15H65.266ZM60.125,9.172h2.3a2.6,2.6,0,0,0,1.777-.579,1.959,1.959,0,0,0,.66-1.55,2.062,2.062,0,0,0-.629-1.62,2.663,2.663,0,0,0-1.816-.571h-2.3Zm11.633,5.984a3.693,3.693,0,0,1-2.8-1.129,4.19,4.19,0,0,1-1.078-3.02v-.266a5.073,5.073,0,0,1,.48-2.246,3.748,3.748,0,0,1,1.344-1.547,3.378,3.378,0,0,1,1.871-.559,3.166,3.166,0,0,1,2.563,1.086,4.7,4.7,0,0,1,.914,3.109v.6H69.328a3,3,0,0,0,.73,2.02,2.3,2.3,0,0,0,1.777.77,2.517,2.517,0,0,0,1.3-.312,3.259,3.259,0,0,0,.93-.828l.883.688A3.55,3.55,0,0,1,71.758,15.156Zm-.18-7.578a1.928,1.928,0,0,0-1.469.637A3.1,3.1,0,0,0,69.375,10h4.234V9.891a2.753,2.753,0,0,0-.594-1.707A1.815,1.815,0,0,0,71.578,7.578Zm4.8,3.125A4.968,4.968,0,0,1,77.3,7.559a3.151,3.151,0,0,1,4.836-.074l.07-.937h1.32V14.8a3.439,3.439,0,0,1-.973,2.586,3.589,3.589,0,0,1-2.613.945,4.348,4.348,0,0,1-1.789-.391,3.08,3.08,0,0,1-1.336-1.07l.75-.867a2.826,2.826,0,0,0,2.273,1.148,2.214,2.214,0,0,0,1.645-.594,2.269,2.269,0,0,0,.59-1.672v-.727a2.971,2.971,0,0,1-2.367,1,2.887,2.887,0,0,1-2.4-1.2A5.224,5.224,0,0,1,76.383,10.7Zm1.453.164a3.79,3.79,0,0,0,.586,2.246,1.9,1.9,0,0,0,1.641.816,2.117,2.117,0,0,0,2.008-1.242V8.828a2.142,2.142,0,0,0-1.992-1.211,1.921,1.921,0,0,0-1.648.82A4.128,4.128,0,0,0,77.836,10.867ZM87.273,15H85.828V6.547h1.445ZM85.711,4.3a.863.863,0,0,1,.215-.594.807.807,0,0,1,.637-.242.819.819,0,0,1,.641.242.854.854,0,0,1,.219.594.826.826,0,0,1-.219.586.834.834,0,0,1-.641.234.821.821,0,0,1-.637-.234A.834.834,0,0,1,85.711,4.3Zm8.8,8.453a1.064,1.064,0,0,0-.441-.91,4.249,4.249,0,0,0-1.539-.559,7.277,7.277,0,0,1-1.742-.562,2.479,2.479,0,0,1-.953-.781,1.869,1.869,0,0,1-.309-1.078A2.193,2.193,0,0,1,90.4,7.109a3.432,3.432,0,0,1,2.246-.719,3.532,3.532,0,0,1,2.332.742,2.357,2.357,0,0,1,.895,1.9H94.422a1.3,1.3,0,0,0-.5-1.023,1.888,1.888,0,0,0-1.27-.43,1.976,1.976,0,0,0-1.234.344,1.082,1.082,0,0,0-.445.9.877.877,0,0,0,.414.789,5.1,5.1,0,0,0,1.5.508,7.8,7.8,0,0,1,1.754.578,2.558,2.558,0,0,1,1,.809,1.988,1.988,0,0,1,.324,1.152,2.163,2.163,0,0,1-.906,1.816,3.8,3.8,0,0,1-2.352.684,4.257,4.257,0,0,1-1.8-.359,2.922,2.922,0,0,1-1.223-1,2.42,2.42,0,0,1-.441-1.395H90.68a1.5,1.5,0,0,0,.582,1.152,2.258,2.258,0,0,0,1.434.426,2.331,2.331,0,0,0,1.316-.332A1.02,1.02,0,0,0,94.508,12.758ZM99.8,4.5V6.547h1.578V7.664H99.8v5.249a1.173,1.173,0,0,0,.211.763.888.888,0,0,0,.719.254,3.5,3.5,0,0,0,.688-.094V15a4.215,4.215,0,0,1-1.109.155,1.8,1.8,0,0,1-1.461-.586,2.517,2.517,0,0,1-.492-1.664V7.664H96.813V6.547h1.539V4.5Zm7.352,3.344a4.331,4.331,0,0,0-.711-.055A1.9,1.9,0,0,0,104.508,9v6h-1.445V6.547h1.406l.023.977a2.251,2.251,0,0,1,2.016-1.133,1.477,1.477,0,0,1,.641.109Zm.789,2.852a4.993,4.993,0,0,1,.488-2.234,3.643,3.643,0,0,1,1.359-1.531,3.7,3.7,0,0,1,1.988-.539,3.565,3.565,0,0,1,2.793,1.2,4.6,4.6,0,0,1,1.066,3.18v.1a5.036,5.036,0,0,1-.473,2.215,3.589,3.589,0,0,1-1.352,1.527,3.743,3.743,0,0,1-2.02.547,3.556,3.556,0,0,1-2.785-1.2,4.575,4.575,0,0,1-1.066-3.164Zm1.453.172a3.616,3.616,0,0,0,.652,2.258,2.211,2.211,0,0,0,3.5-.012,3.955,3.955,0,0,0,.648-2.418,3.61,3.61,0,0,0-.66-2.254,2.1,2.1,0,0,0-1.754-.863,2.075,2.075,0,0,0-1.727.852A3.925,3.925,0,0,0,109.391,10.867Zm12.977,1.891a1.064,1.064,0,0,0-.441-.91,4.249,4.249,0,0,0-1.539-.559,7.277,7.277,0,0,1-1.742-.562,2.479,2.479,0,0,1-.953-.781,1.869,1.869,0,0,1-.309-1.078,2.193,2.193,0,0,1,.879-1.758,3.432,3.432,0,0,1,2.246-.719,3.532,3.532,0,0,1,2.332.742,2.357,2.357,0,0,1,.895,1.9h-1.453a1.3,1.3,0,0,0-.5-1.023,1.888,1.888,0,0,0-1.27-.43,1.976,1.976,0,0,0-1.234.344,1.082,1.082,0,0,0-.445.9.877.877,0,0,0,.414.789,5.1,5.1,0,0,0,1.5.508,7.8,7.8,0,0,1,1.754.578,2.558,2.558,0,0,1,1,.809,1.988,1.988,0,0,1,.324,1.152,2.163,2.163,0,0,1-.906,1.816,3.8,3.8,0,0,1-2.352.684,4.257,4.257,0,0,1-1.8-.359,2.922,2.922,0,0,1-1.223-1,2.42,2.42,0,0,1-.441-1.395h1.445a1.5,1.5,0,0,0,.582,1.152,2.258,2.258,0,0,0,1.434.426,2.331,2.331,0,0,0,1.316-.332A1.02,1.02,0,0,0,122.367,12.758Z" transform="translate(-4909 -8164)" fill="#12263f"/>
    <path id="Trazado_833321" data-name="Trazado 833321" d="M7.8-5.078H3.133v3.5H8.594V0H1.156V-11.375H8.539v1.594H3.133v3.141H7.8Zm3.977-3.375.055.977A3.039,3.039,0,0,1,14.3-8.609q2.641,0,2.688,3.023V0h-1.9V-5.477a1.741,1.741,0,0,0-.348-1.191A1.462,1.462,0,0,0,13.6-7.055a1.829,1.829,0,0,0-1.711,1.039V0h-1.9V-8.453ZM21.3-10.508v2.055h1.492v1.406H21.3v4.719a1.039,1.039,0,0,0,.191.7.888.888,0,0,0,.684.215,2.924,2.924,0,0,0,.664-.078V-.023a4.676,4.676,0,0,1-1.25.18Q19.4.156,19.4-2.258V-7.047H18.008V-8.453H19.4v-2.055Zm7.367,3.789a4.7,4.7,0,0,0-.773-.062,1.741,1.741,0,0,0-1.758,1V0h-1.9V-8.453h1.813l.047.945A2.139,2.139,0,0,1,28-8.609a1.777,1.777,0,0,1,.672.109ZM34.68,0a2.93,2.93,0,0,1-.219-.789,2.955,2.955,0,0,1-2.219.945A2.982,2.982,0,0,1,30.164-.57a2.325,2.325,0,0,1-.8-1.8,2.4,2.4,0,0,1,1-2.074,4.865,4.865,0,0,1,2.871-.723H34.4v-.555a1.481,1.481,0,0,0-.367-1.051,1.456,1.456,0,0,0-1.117-.395,1.672,1.672,0,0,0-1.062.324,1,1,0,0,0-.414.824h-1.9A2.107,2.107,0,0,1,30-7.316a3.071,3.071,0,0,1,1.254-.949,4.4,4.4,0,0,1,1.77-.344,3.547,3.547,0,0,1,2.367.746,2.661,2.661,0,0,1,.906,2.1v3.813a4.321,4.321,0,0,0,.32,1.82V0ZM32.594-1.367a2.16,2.16,0,0,0,1.059-.273,1.827,1.827,0,0,0,.746-.734V-3.969H33.375a2.8,2.8,0,0,0-1.586.367,1.189,1.189,0,0,0-.531,1.039,1.109,1.109,0,0,0,.363.871A1.407,1.407,0,0,0,32.594-1.367ZM37.93-4.289a5.026,5.026,0,0,1,.906-3.137,2.9,2.9,0,0,1,2.43-1.184,2.759,2.759,0,0,1,2.172.938V-12h1.9V0H43.617l-.094-.875A2.8,2.8,0,0,1,41.25.156a2.887,2.887,0,0,1-2.4-1.2A5.21,5.21,0,0,1,37.93-4.289Zm1.9.164a3.519,3.519,0,0,0,.5,2.012,1.61,1.61,0,0,0,1.41.723,1.793,1.793,0,0,0,1.7-1.039V-6.039A1.766,1.766,0,0,0,41.75-7.055a1.622,1.622,0,0,0-1.422.73A3.919,3.919,0,0,0,39.828-4.125ZM52.367,0a2.93,2.93,0,0,1-.219-.789A2.955,2.955,0,0,1,49.93.156,2.982,2.982,0,0,1,47.852-.57a2.325,2.325,0,0,1-.8-1.8,2.4,2.4,0,0,1,1-2.074,4.865,4.865,0,0,1,2.871-.723h1.164v-.555a1.481,1.481,0,0,0-.367-1.051A1.456,1.456,0,0,0,50.6-7.164a1.672,1.672,0,0,0-1.062.324,1,1,0,0,0-.414.824h-1.9a2.107,2.107,0,0,1,.461-1.3,3.071,3.071,0,0,1,1.254-.949,4.4,4.4,0,0,1,1.77-.344,3.547,3.547,0,0,1,2.367.746,2.661,2.661,0,0,1,.906,2.1v3.813a4.321,4.321,0,0,0,.32,1.82V0ZM50.281-1.367a2.16,2.16,0,0,0,1.059-.273,1.827,1.827,0,0,0,.746-.734V-3.969H51.063a2.8,2.8,0,0,0-1.586.367,1.189,1.189,0,0,0-.531,1.039,1.109,1.109,0,0,0,.363.871A1.407,1.407,0,0,0,50.281-1.367Zm10.43-.93a.861.861,0,0,0-.418-.773,4.445,4.445,0,0,0-1.387-.469,7.129,7.129,0,0,1-1.617-.516,2.158,2.158,0,0,1-1.422-1.992,2.25,2.25,0,0,1,.922-1.828,3.644,3.644,0,0,1,2.344-.734,3.792,3.792,0,0,1,2.449.75,2.38,2.38,0,0,1,.934,1.945h-1.9a1.17,1.17,0,0,0-.406-.91,1.557,1.557,0,0,0-1.078-.363,1.682,1.682,0,0,0-1.02.289.911.911,0,0,0-.395.773.769.769,0,0,0,.367.68,5.049,5.049,0,0,0,1.484.488,7.027,7.027,0,0,1,1.754.586,2.484,2.484,0,0,1,.945.816A2.082,2.082,0,0,1,62.578-2.4a2.2,2.2,0,0,1-.945,1.848,4.031,4.031,0,0,1-2.477.707A4.371,4.371,0,0,1,57.3-.219,3.047,3.047,0,0,1,56.039-1.25a2.441,2.441,0,0,1-.453-1.414H57.43a1.338,1.338,0,0,0,.508,1.035,1.973,1.973,0,0,0,1.242.363,1.92,1.92,0,0,0,1.141-.285A.883.883,0,0,0,60.711-2.3ZM67.859-4.3a4.984,4.984,0,0,1,.492-2.238,3.6,3.6,0,0,1,1.383-1.531,3.9,3.9,0,0,1,2.047-.535,3.692,3.692,0,0,1,2.777,1.1,4.333,4.333,0,0,1,1.152,2.922l.008.445a5.029,5.029,0,0,1-.48,2.234A3.551,3.551,0,0,1,73.863-.383,3.925,3.925,0,0,1,71.8.156a3.667,3.667,0,0,1-2.863-1.191,4.563,4.563,0,0,1-1.074-3.176Zm1.9.164A3.406,3.406,0,0,0,70.3-2.1a1.752,1.752,0,0,0,1.5.738,1.733,1.733,0,0,0,1.5-.75,3.762,3.762,0,0,0,.535-2.2,3.362,3.362,0,0,0-.551-2.031,1.759,1.759,0,0,0-1.5-.75,1.743,1.743,0,0,0-1.477.738A3.691,3.691,0,0,0,69.758-4.141ZM83.328,0h-1.9V-8.453h1.9ZM81.313-10.648a1.008,1.008,0,0,1,.277-.727,1.048,1.048,0,0,1,.793-.289,1.061,1.061,0,0,1,.8.289,1,1,0,0,1,.281.727.977.977,0,0,1-.281.715,1.069,1.069,0,0,1-.8.285,1.056,1.056,0,0,1-.793-.285A.984.984,0,0,1,81.313-10.648Zm5.844,2.2.055.977a3.039,3.039,0,0,1,2.461-1.133q2.641,0,2.688,3.023V0h-1.9V-5.477a1.741,1.741,0,0,0-.348-1.191,1.462,1.462,0,0,0-1.137-.387,1.829,1.829,0,0,0-1.711,1.039V0h-1.9V-8.453ZM99.031-2.3a.861.861,0,0,0-.418-.773,4.445,4.445,0,0,0-1.387-.469,7.129,7.129,0,0,1-1.617-.516,2.158,2.158,0,0,1-1.422-1.992,2.25,2.25,0,0,1,.922-1.828,3.644,3.644,0,0,1,2.344-.734,3.792,3.792,0,0,1,2.449.75,2.38,2.38,0,0,1,.934,1.945h-1.9a1.17,1.17,0,0,0-.406-.91,1.557,1.557,0,0,0-1.078-.363,1.682,1.682,0,0,0-1.02.289.911.911,0,0,0-.395.773.769.769,0,0,0,.367.68,5.049,5.049,0,0,0,1.484.488,7.027,7.027,0,0,1,1.754.586,2.484,2.484,0,0,1,.945.816A2.082,2.082,0,0,1,100.9-2.4a2.2,2.2,0,0,1-.945,1.848,4.031,4.031,0,0,1-2.477.707,4.371,4.371,0,0,1-1.852-.375A3.047,3.047,0,0,1,94.359-1.25a2.441,2.441,0,0,1-.453-1.414H95.75a1.338,1.338,0,0,0,.508,1.035,1.973,1.973,0,0,0,1.242.363,1.92,1.92,0,0,0,1.141-.285A.883.883,0,0,0,99.031-2.3Zm8.641,1.469A2.944,2.944,0,0,1,105.3.156a2.624,2.624,0,0,1-2.082-.8,3.423,3.423,0,0,1-.707-2.328V-8.453h1.9V-3q0,1.609,1.336,1.609a1.876,1.876,0,0,0,1.867-.992v-6.07h1.9V0h-1.789Zm5.555-7.625.055.883a3.042,3.042,0,0,1,2.438-1.039,2.337,2.337,0,0,1,2.32,1.3,3,3,0,0,1,2.594-1.3,2.636,2.636,0,0,1,2.082.773,3.405,3.405,0,0,1,.7,2.281V0h-1.9V-5.5a1.681,1.681,0,0,0-.352-1.18A1.539,1.539,0,0,0,120-7.055a1.581,1.581,0,0,0-1.059.348,1.833,1.833,0,0,0-.574.91l.008,5.8h-1.9V-5.562a1.354,1.354,0,0,0-1.523-1.492,1.671,1.671,0,0,0-1.617.93V0h-1.9V-8.453ZM125.008-4.3a4.984,4.984,0,0,1,.492-2.238,3.6,3.6,0,0,1,1.383-1.531,3.9,3.9,0,0,1,2.047-.535,3.692,3.692,0,0,1,2.777,1.1,4.333,4.333,0,0,1,1.152,2.922l.008.445a5.029,5.029,0,0,1-.48,2.234,3.551,3.551,0,0,1-1.375,1.523,3.925,3.925,0,0,1-2.066.539,3.667,3.667,0,0,1-2.863-1.191,4.563,4.563,0,0,1-1.074-3.176Zm1.9.164a3.406,3.406,0,0,0,.539,2.043,1.752,1.752,0,0,0,1.5.738,1.733,1.733,0,0,0,1.5-.75,3.762,3.762,0,0,0,.535-2.2,3.362,3.362,0,0,0-.551-2.031,1.759,1.759,0,0,0-1.5-.75,1.743,1.743,0,0,0-1.477.738A3.691,3.691,0,0,0,126.906-4.141Zm12.3,1.844a.861.861,0,0,0-.418-.773,4.445,4.445,0,0,0-1.387-.469,7.129,7.129,0,0,1-1.617-.516,2.158,2.158,0,0,1-1.422-1.992,2.25,2.25,0,0,1,.922-1.828,3.644,3.644,0,0,1,2.344-.734,3.792,3.792,0,0,1,2.449.75,2.38,2.38,0,0,1,.934,1.945h-1.9a1.17,1.17,0,0,0-.406-.91,1.557,1.557,0,0,0-1.078-.363,1.682,1.682,0,0,0-1.02.289.911.911,0,0,0-.395.773.769.769,0,0,0,.367.68,5.049,5.049,0,0,0,1.484.488,7.027,7.027,0,0,1,1.754.586,2.484,2.484,0,0,1,.945.816,2.082,2.082,0,0,1,.309,1.156,2.2,2.2,0,0,1-.945,1.848,4.031,4.031,0,0,1-2.477.707A4.371,4.371,0,0,1,135.8-.219a3.047,3.047,0,0,1-1.266-1.031,2.441,2.441,0,0,1-.453-1.414h1.844a1.338,1.338,0,0,0,.508,1.035,1.973,1.973,0,0,0,1.242.363,1.92,1.92,0,0,0,1.141-.285A.883.883,0,0,0,139.211-2.3Z" transform="translate(-4910 -8025)" fill="#12263f"/>
    <path id="Trazado_832548" data-name="Trazado 832548" d="M0,0,105,26.6,206,0V67a12,12,0,0,1-12,12H12A12,12,0,0,1,0,67Z" transform="translate(-4736 -7875.429) rotate(180)" fill="#cadeb4"/>
    <path id="Trazado_833322" data-name="Trazado 833322" d="M8,0H157a8,8,0,0,1,8,8V85a8,8,0,0,1-8,8H8a8,8,0,0,1-8-8V8A8,8,0,0,1,8,0Z" transform="translate(-4756 -7851.429) rotate(180)" fill="#f3f9ff"/>
    <path id="Trazado_833323" data-name="Trazado 833323" d="M39,0A39,39,0,1,1,0,39,39,39,0,0,1,39,0Z" transform="translate(-4800 -7813.429) rotate(180)" fill="#cadeb4"/>
    <path id="Trazado_833324" data-name="Trazado 833324" d="M30.5,0A30.5,30.5,0,1,1,0,30.5,30.5,30.5,0,0,1,30.5,0Z" transform="translate(-4869 -7882.429)" fill="#fff"/>
    <g id="Grupo_1084536" data-name="Grupo 1084536" transform="translate(-4867.792 -7881)">
      <g id="Grupo_1081407-2" data-name="Grupo 1081407">
        <g id="Elipse_5877-2" data-name="Elipse 5877" transform="translate(-0.208 0.001)" fill="#fff" stroke="#c1cdf5" stroke-width="2">
          <circle cx="29.5" cy="29.5" r="29.5" stroke="none"/>
          <circle cx="29.5" cy="29.5" r="28.5" fill="none"/>
        </g>
        <circle id="Elipse_5876-2" data-name="Elipse 5876" cx="22.5" cy="22.5" r="22.5" transform="translate(6.792 7.001)" fill="#cadeb4"/>
      </g>
      <text id="_2" data-name="2" transform="translate(23.792 38)" fill="#12263f" font-size="23" font-family="Roboto-Black, Roboto" font-weight="800"><tspan x="0" y="0">2</tspan></text>
    </g>
    <path id="Trazado_833325" data-name="Trazado 833325" d="M15.871,11.391a4.185,4.185,0,0,1-1.332,2.785,4.365,4.365,0,0,1-2.98.98,4.008,4.008,0,0,1-3.23-1.445A5.815,5.815,0,0,1,7.113,9.844V8.75A6.481,6.481,0,0,1,7.68,5.961,4.231,4.231,0,0,1,9.285,4.113a4.47,4.47,0,0,1,2.406-.645A4.11,4.11,0,0,1,14.6,4.48a4.235,4.235,0,0,1,1.273,2.8H14.363a3.268,3.268,0,0,0-.848-1.975A2.565,2.565,0,0,0,11.691,4.7,2.684,2.684,0,0,0,9.438,5.759a4.882,4.882,0,0,0-.816,3.026v1.1a5.018,5.018,0,0,0,.773,2.948,2.5,2.5,0,0,0,2.164,1.095,2.886,2.886,0,0,0,1.918-.566,3.143,3.143,0,0,0,.887-1.973Zm7.039,2.773a3.07,3.07,0,0,1-2.477.992,2.628,2.628,0,0,1-2.059-.785,3.4,3.4,0,0,1-.715-2.324v-5.5h1.445v5.461q0,1.922,1.563,1.922a2.163,2.163,0,0,0,2.2-1.234V6.547h1.445V15H22.941ZM31.73,15a3.036,3.036,0,0,1-.2-.891,3.225,3.225,0,0,1-2.406,1.047,2.984,2.984,0,0,1-2.051-.707,2.287,2.287,0,0,1-.8-1.793,2.39,2.39,0,0,1,1-2.051,4.733,4.733,0,0,1,2.824-.73H31.5V9.211A1.623,1.623,0,0,0,31.051,8a1.821,1.821,0,0,0-1.336-.449,2.108,2.108,0,0,0-1.3.391,1.151,1.151,0,0,0-.523.945H26.441a2,2,0,0,1,.449-1.223,3.066,3.066,0,0,1,1.219-.934A4.1,4.1,0,0,1,29.8,6.391a3.342,3.342,0,0,1,2.289.73,2.635,2.635,0,0,1,.859,2.012v3.891a4.757,4.757,0,0,0,.3,1.852V15Zm-2.4-1.1a2.54,2.54,0,0,0,1.289-.352,2.127,2.127,0,0,0,.883-.914V10.9H30.371q-2.656,0-2.656,1.555a1.316,1.316,0,0,0,.453,1.063A1.742,1.742,0,0,0,29.332,13.9ZM36.785,15H35.34V3h1.445Zm3.883,0H39.223V6.547h1.445ZM39.105,4.3a.863.863,0,0,1,.215-.594.807.807,0,0,1,.637-.242.819.819,0,0,1,.641.242.854.854,0,0,1,.219.594.826.826,0,0,1-.219.586.834.834,0,0,1-.641.234.821.821,0,0,1-.637-.234A.834.834,0,0,1,39.105,4.3Zm5.836.2V6.547H46.52V7.664H44.941v5.249a1.173,1.173,0,0,0,.211.763.888.888,0,0,0,.719.254,3.5,3.5,0,0,0,.688-.094V15a4.215,4.215,0,0,1-1.109.155,1.8,1.8,0,0,1-1.461-.586,2.517,2.517,0,0,1-.492-1.664V7.664H41.957V6.547H43.5V4.5ZM53.426,15a3.036,3.036,0,0,1-.2-.891,3.225,3.225,0,0,1-2.406,1.047,2.984,2.984,0,0,1-2.051-.707,2.287,2.287,0,0,1-.8-1.793,2.39,2.39,0,0,1,1-2.051,4.733,4.733,0,0,1,2.824-.73H53.2V9.211A1.623,1.623,0,0,0,52.746,8a1.821,1.821,0,0,0-1.336-.449,2.107,2.107,0,0,0-1.3.391,1.151,1.151,0,0,0-.523.945H48.137a2,2,0,0,1,.449-1.223A3.066,3.066,0,0,1,49.8,6.734,4.1,4.1,0,0,1,51.5,6.391a3.342,3.342,0,0,1,2.289.73,2.635,2.635,0,0,1,.859,2.012v3.891a4.757,4.757,0,0,0,.3,1.852V15Zm-2.4-1.1a2.54,2.54,0,0,0,1.289-.352,2.127,2.127,0,0,0,.883-.914V10.9H52.066q-2.656,0-2.656,1.555a1.316,1.316,0,0,0,.453,1.063A1.742,1.742,0,0,0,51.027,13.9Zm7.844-9.4V6.547h1.578V7.664H58.871v5.249a1.173,1.173,0,0,0,.211.763.888.888,0,0,0,.719.254,3.5,3.5,0,0,0,.688-.094V15a4.215,4.215,0,0,1-1.109.155,1.8,1.8,0,0,1-1.461-.586,2.517,2.517,0,0,1-.492-1.664V7.664H55.887V6.547h1.539V4.5ZM63.707,15H62.262V6.547h1.445ZM62.145,4.3a.863.863,0,0,1,.215-.594A.807.807,0,0,1,63,3.469a.819.819,0,0,1,.641.242.854.854,0,0,1,.219.594.826.826,0,0,1-.219.586A.834.834,0,0,1,63,5.125a.821.821,0,0,1-.637-.234A.834.834,0,0,1,62.145,4.3Zm6.664,8.734L70.9,6.547h1.477L69.348,15h-1.1L65.184,6.547H66.66ZM73.27,10.7a4.993,4.993,0,0,1,.488-2.234A3.643,3.643,0,0,1,75.117,6.93a3.7,3.7,0,0,1,1.988-.539,3.565,3.565,0,0,1,2.793,1.2,4.6,4.6,0,0,1,1.066,3.18v.1a5.036,5.036,0,0,1-.473,2.215,3.589,3.589,0,0,1-1.352,1.527,3.743,3.743,0,0,1-2.02.547,3.556,3.556,0,0,1-2.785-1.2A4.575,4.575,0,0,1,73.27,10.8Zm1.453.172a3.616,3.616,0,0,0,.652,2.258,2.211,2.211,0,0,0,3.5-.012A3.955,3.955,0,0,0,79.52,10.7a3.61,3.61,0,0,0-.66-2.254,2.1,2.1,0,0,0-1.754-.863,2.075,2.075,0,0,0-1.727.852A3.925,3.925,0,0,0,74.723,10.867ZM87.7,12.758a1.064,1.064,0,0,0-.441-.91,4.249,4.249,0,0,0-1.539-.559,7.277,7.277,0,0,1-1.742-.562,2.479,2.479,0,0,1-.953-.781,1.869,1.869,0,0,1-.309-1.078,2.193,2.193,0,0,1,.879-1.758,3.432,3.432,0,0,1,2.246-.719,3.532,3.532,0,0,1,2.332.742,2.357,2.357,0,0,1,.895,1.9H87.613a1.3,1.3,0,0,0-.5-1.023,1.888,1.888,0,0,0-1.27-.43,1.976,1.976,0,0,0-1.234.344,1.082,1.082,0,0,0-.445.9.877.877,0,0,0,.414.789,5.1,5.1,0,0,0,1.5.508,7.8,7.8,0,0,1,1.754.578,2.558,2.558,0,0,1,1,.809,1.988,1.988,0,0,1,.324,1.152,2.163,2.163,0,0,1-.906,1.816,3.8,3.8,0,0,1-2.352.684,4.257,4.257,0,0,1-1.8-.359,2.922,2.922,0,0,1-1.223-1,2.42,2.42,0,0,1-.441-1.395h1.445a1.5,1.5,0,0,0,.582,1.152,2.258,2.258,0,0,0,1.434.426,2.331,2.331,0,0,0,1.316-.332A1.02,1.02,0,0,0,87.7,12.758Zm15.883-1.367a4.185,4.185,0,0,1-1.332,2.785,4.365,4.365,0,0,1-2.98.98,4.008,4.008,0,0,1-3.23-1.445,5.815,5.815,0,0,1-1.215-3.867V8.75a6.481,6.481,0,0,1,.566-2.789A4.231,4.231,0,0,1,97,4.113,4.47,4.47,0,0,1,99.4,3.469a4.11,4.11,0,0,1,2.906,1.012,4.235,4.235,0,0,1,1.273,2.8h-1.508a3.268,3.268,0,0,0-.848-1.975A2.565,2.565,0,0,0,99.4,4.7a2.684,2.684,0,0,0-2.254,1.063,4.882,4.882,0,0,0-.816,3.026v1.1a5.018,5.018,0,0,0,.773,2.948A2.5,2.5,0,0,0,99.27,13.93a2.886,2.886,0,0,0,1.918-.566,3.143,3.143,0,0,0,.887-1.973Zm7.039,2.773a3.07,3.07,0,0,1-2.477.992,2.628,2.628,0,0,1-2.059-.785,3.4,3.4,0,0,1-.715-2.324v-5.5h1.445v5.461q0,1.922,1.563,1.922a2.163,2.163,0,0,0,2.2-1.234V6.547h1.445V15h-1.375Zm8.82.836a3.036,3.036,0,0,1-.2-.891,3.225,3.225,0,0,1-2.406,1.047,2.984,2.984,0,0,1-2.051-.707,2.288,2.288,0,0,1-.8-1.793,2.39,2.39,0,0,1,1-2.051,4.733,4.733,0,0,1,2.824-.73h1.406V9.211A1.623,1.623,0,0,0,118.762,8a1.821,1.821,0,0,0-1.336-.449,2.108,2.108,0,0,0-1.3.391,1.151,1.151,0,0,0-.523.945h-1.453a2,2,0,0,1,.449-1.223,3.066,3.066,0,0,1,1.219-.934,4.1,4.1,0,0,1,1.691-.344,3.342,3.342,0,0,1,2.289.73,2.635,2.635,0,0,1,.859,2.012v3.891a4.757,4.757,0,0,0,.3,1.852V15Zm-2.4-1.1a2.54,2.54,0,0,0,1.289-.352,2.127,2.127,0,0,0,.883-.914V10.9h-1.133q-2.656,0-2.656,1.555a1.316,1.316,0,0,0,.453,1.063A1.742,1.742,0,0,0,117.043,13.9Zm7.25-7.352.047,1.063a3.08,3.08,0,0,1,2.531-1.219q2.68,0,2.7,3.023V15h-1.445V9.406a1.946,1.946,0,0,0-.418-1.352,1.675,1.675,0,0,0-1.277-.437,2.086,2.086,0,0,0-1.234.375,2.546,2.546,0,0,0-.828.984V15h-1.445V6.547ZM133.715,4.5V6.547h1.578V7.664h-1.578v5.249a1.173,1.173,0,0,0,.211.763.888.888,0,0,0,.719.254,3.5,3.5,0,0,0,.688-.094V15a4.215,4.215,0,0,1-1.109.155,1.8,1.8,0,0,1-1.461-.586,2.517,2.517,0,0,1-.492-1.664V7.664H130.73V6.547h1.539V4.5ZM138.551,15h-1.445V6.547h1.445ZM136.988,4.3a.863.863,0,0,1,.215-.594.807.807,0,0,1,.637-.242.819.819,0,0,1,.641.242.854.854,0,0,1,.219.594.826.826,0,0,1-.219.586.834.834,0,0,1-.641.234.821.821,0,0,1-.637-.234A.834.834,0,0,1,136.988,4.3Zm5.836.2V6.547H144.4V7.664h-1.578v5.249a1.173,1.173,0,0,0,.211.763.888.888,0,0,0,.719.254,3.5,3.5,0,0,0,.688-.094V15a4.215,4.215,0,0,1-1.109.155,1.8,1.8,0,0,1-1.461-.586,2.517,2.517,0,0,1-.492-1.664V7.664H139.84V6.547h1.539V4.5ZM151.309,15a3.036,3.036,0,0,1-.2-.891,3.225,3.225,0,0,1-2.406,1.047,2.984,2.984,0,0,1-2.051-.707,2.287,2.287,0,0,1-.8-1.793,2.39,2.39,0,0,1,1-2.051,4.733,4.733,0,0,1,2.824-.73h1.406V9.211A1.623,1.623,0,0,0,150.629,8a1.821,1.821,0,0,0-1.336-.449,2.107,2.107,0,0,0-1.3.391,1.151,1.151,0,0,0-.523.945H146.02a2,2,0,0,1,.449-1.223,3.066,3.066,0,0,1,1.219-.934,4.1,4.1,0,0,1,1.691-.344,3.342,3.342,0,0,1,2.289.73,2.635,2.635,0,0,1,.859,2.012v3.891a4.757,4.757,0,0,0,.3,1.852V15Zm-2.4-1.1a2.54,2.54,0,0,0,1.289-.352,2.127,2.127,0,0,0,.883-.914V10.9h-1.133q-2.656,0-2.656,1.555a1.316,1.316,0,0,0,.453,1.063A1.742,1.742,0,0,0,148.91,13.9Zm7.844-9.4V6.547h1.578V7.664h-1.578v5.249a1.173,1.173,0,0,0,.211.763.888.888,0,0,0,.719.254,3.5,3.5,0,0,0,.688-.094V15a4.215,4.215,0,0,1-1.109.155,1.8,1.8,0,0,1-1.461-.586,2.517,2.517,0,0,1-.492-1.664V7.664H153.77V6.547h1.539V4.5ZM161.59,15h-1.445V6.547h1.445ZM160.027,4.3a.863.863,0,0,1,.215-.594.807.807,0,0,1,.637-.242.819.819,0,0,1,.641.242.854.854,0,0,1,.219.594.826.826,0,0,1-.219.586.834.834,0,0,1-.641.234.821.821,0,0,1-.637-.234A.834.834,0,0,1,160.027,4.3Zm6.664,8.734,2.094-6.492h1.477L167.23,15h-1.1l-3.062-8.453h1.477Zm4.461-2.344a4.993,4.993,0,0,1,.488-2.234A3.642,3.642,0,0,1,173,6.93a3.7,3.7,0,0,1,1.988-.539,3.565,3.565,0,0,1,2.793,1.2,4.6,4.6,0,0,1,1.066,3.18v.1a5.036,5.036,0,0,1-.473,2.215,3.589,3.589,0,0,1-1.352,1.527,3.743,3.743,0,0,1-2.02.547,3.556,3.556,0,0,1-2.785-1.2,4.575,4.575,0,0,1-1.066-3.164Zm1.453.172a3.616,3.616,0,0,0,.652,2.258,2.211,2.211,0,0,0,3.5-.012A3.954,3.954,0,0,0,177.4,10.7a3.61,3.61,0,0,0-.66-2.254,2.1,2.1,0,0,0-1.754-.863,2.075,2.075,0,0,0-1.727.852A3.925,3.925,0,0,0,172.605,10.867Zm12.977,1.891a1.064,1.064,0,0,0-.441-.91,4.249,4.249,0,0,0-1.539-.559,7.277,7.277,0,0,1-1.742-.562,2.479,2.479,0,0,1-.953-.781,1.869,1.869,0,0,1-.309-1.078,2.193,2.193,0,0,1,.879-1.758,3.432,3.432,0,0,1,2.246-.719,3.532,3.532,0,0,1,2.332.742,2.357,2.357,0,0,1,.895,1.9H185.5a1.3,1.3,0,0,0-.5-1.023,1.888,1.888,0,0,0-1.27-.43,1.976,1.976,0,0,0-1.234.344,1.082,1.082,0,0,0-.445.9.877.877,0,0,0,.414.789,5.1,5.1,0,0,0,1.5.508,7.8,7.8,0,0,1,1.754.578,2.558,2.558,0,0,1,1,.809,1.988,1.988,0,0,1,.324,1.152,2.163,2.163,0,0,1-.906,1.816,3.8,3.8,0,0,1-2.352.684,4.257,4.257,0,0,1-1.8-.359,2.922,2.922,0,0,1-1.223-1,2.42,2.42,0,0,1-.441-1.395h1.445a1.5,1.5,0,0,0,.582,1.152,2.258,2.258,0,0,0,1.434.426,2.331,2.331,0,0,0,1.316-.332A1.02,1.02,0,0,0,185.582,12.758Z" transform="translate(-4935 -7800)" fill="#12263f"/>
    <path id="Trazado_833326" data-name="Trazado 833326" d="M3.719-11.375,7-2.656l3.273-8.719h2.555V0H10.859V-3.75l.2-5.016L7.7,0H6.281L2.93-8.758l.2,5.008V0H1.156V-11.375ZM18.7.156A3.928,3.928,0,0,1,15.777-.98a4.124,4.124,0,0,1-1.121-3.027v-.234A5.072,5.072,0,0,1,15.145-6.5a3.716,3.716,0,0,1,1.371-1.551,3.625,3.625,0,0,1,1.969-.555,3.318,3.318,0,0,1,2.668,1.1,4.658,4.658,0,0,1,.941,3.117v.766H16.57a2.539,2.539,0,0,0,.7,1.656,2.1,2.1,0,0,0,1.543.609,2.571,2.571,0,0,0,2.125-1.055l1.023.977A3.418,3.418,0,0,1,20.605-.262,4.244,4.244,0,0,1,18.7.156Zm-.227-7.242a1.6,1.6,0,0,0-1.262.547A2.835,2.835,0,0,0,16.6-5.016h3.617v-.141A2.307,2.307,0,0,0,19.711-6.6,1.586,1.586,0,0,0,18.477-7.086ZM18.906-12H21.07L18.906-9.633l-1.523,0Zm7.039,1.492v2.055h1.492v1.406H25.945v4.719a1.039,1.039,0,0,0,.191.7.888.888,0,0,0,.684.215,2.924,2.924,0,0,0,.664-.078V-.023a4.676,4.676,0,0,1-1.25.18q-2.188,0-2.187-2.414V-7.047H22.656V-8.453h1.391v-2.055ZM28.3-4.3a4.984,4.984,0,0,1,.492-2.238,3.6,3.6,0,0,1,1.383-1.531,3.9,3.9,0,0,1,2.047-.535A3.692,3.692,0,0,1,35-7.508a4.333,4.333,0,0,1,1.152,2.922l.008.445a5.029,5.029,0,0,1-.48,2.234A3.551,3.551,0,0,1,34.3-.383a3.925,3.925,0,0,1-2.066.539,3.667,3.667,0,0,1-2.863-1.191A4.563,4.563,0,0,1,28.3-4.211Zm1.9.164A3.406,3.406,0,0,0,30.734-2.1a1.752,1.752,0,0,0,1.5.738,1.733,1.733,0,0,0,1.5-.75,3.762,3.762,0,0,0,.535-2.2,3.362,3.362,0,0,0-.551-2.031,1.759,1.759,0,0,0-1.5-.75,1.743,1.743,0,0,0-1.477.738A3.691,3.691,0,0,0,30.2-4.141Zm7.211-.148a5.026,5.026,0,0,1,.906-3.137,2.9,2.9,0,0,1,2.43-1.184,2.759,2.759,0,0,1,2.172.938V-12h1.9V0H43.094L43-.875A2.8,2.8,0,0,1,40.727.156a2.887,2.887,0,0,1-2.4-1.2A5.21,5.21,0,0,1,37.406-4.289Zm1.9.164a3.519,3.519,0,0,0,.5,2.012,1.61,1.61,0,0,0,1.41.723,1.793,1.793,0,0,0,1.7-1.039V-6.039a1.766,1.766,0,0,0-1.687-1.016,1.622,1.622,0,0,0-1.422.73A3.919,3.919,0,0,0,39.3-4.125Zm7.133-.18a4.984,4.984,0,0,1,.492-2.238,3.6,3.6,0,0,1,1.383-1.531,3.9,3.9,0,0,1,2.047-.535,3.692,3.692,0,0,1,2.777,1.1,4.333,4.333,0,0,1,1.152,2.922l.008.445a5.029,5.029,0,0,1-.48,2.234A3.551,3.551,0,0,1,52.441-.383a3.925,3.925,0,0,1-2.066.539,3.667,3.667,0,0,1-2.863-1.191,4.563,4.563,0,0,1-1.074-3.176Zm1.9.164A3.406,3.406,0,0,0,48.875-2.1a1.752,1.752,0,0,0,1.5.738,1.733,1.733,0,0,0,1.5-.75,3.762,3.762,0,0,0,.535-2.2,3.362,3.362,0,0,0-.551-2.031,1.759,1.759,0,0,0-1.5-.75,1.743,1.743,0,0,0-1.477.738A3.691,3.691,0,0,0,48.336-4.141ZM60.641-2.3a.861.861,0,0,0-.418-.773,4.445,4.445,0,0,0-1.387-.469,7.129,7.129,0,0,1-1.617-.516A2.158,2.158,0,0,1,55.8-6.047a2.25,2.25,0,0,1,.922-1.828,3.644,3.644,0,0,1,2.344-.734,3.792,3.792,0,0,1,2.449.75,2.38,2.38,0,0,1,.934,1.945h-1.9a1.17,1.17,0,0,0-.406-.91,1.557,1.557,0,0,0-1.078-.363,1.682,1.682,0,0,0-1.02.289.911.911,0,0,0-.395.773.769.769,0,0,0,.367.68,5.049,5.049,0,0,0,1.484.488,7.027,7.027,0,0,1,1.754.586,2.484,2.484,0,0,1,.945.816A2.082,2.082,0,0,1,62.508-2.4a2.2,2.2,0,0,1-.945,1.848,4.031,4.031,0,0,1-2.477.707,4.371,4.371,0,0,1-1.852-.375A3.047,3.047,0,0,1,55.969-1.25a2.441,2.441,0,0,1-.453-1.414h1.844a1.338,1.338,0,0,0,.508,1.035,1.973,1.973,0,0,0,1.242.363,1.92,1.92,0,0,0,1.141-.285A.883.883,0,0,0,60.641-2.3Zm7.148-1.992A5.026,5.026,0,0,1,68.7-7.426a2.9,2.9,0,0,1,2.43-1.184,2.759,2.759,0,0,1,2.172.938V-12h1.9V0H73.477l-.094-.875A2.8,2.8,0,0,1,71.109.156a2.887,2.887,0,0,1-2.4-1.2A5.21,5.21,0,0,1,67.789-4.289Zm1.9.164a3.519,3.519,0,0,0,.5,2.012,1.61,1.61,0,0,0,1.41.723A1.793,1.793,0,0,0,73.3-2.43V-6.039a1.766,1.766,0,0,0-1.687-1.016,1.622,1.622,0,0,0-1.422.73A3.918,3.918,0,0,0,69.688-4.125ZM80.9.156A3.928,3.928,0,0,1,77.973-.98a4.124,4.124,0,0,1-1.121-3.027v-.234A5.072,5.072,0,0,1,77.34-6.5a3.716,3.716,0,0,1,1.371-1.551,3.625,3.625,0,0,1,1.969-.555,3.318,3.318,0,0,1,2.668,1.1,4.658,4.658,0,0,1,.941,3.117v.766H78.766a2.539,2.539,0,0,0,.7,1.656,2.1,2.1,0,0,0,1.543.609,2.571,2.571,0,0,0,2.125-1.055l1.023.977A3.418,3.418,0,0,1,82.8-.262,4.244,4.244,0,0,1,80.9.156Zm-.227-7.242a1.6,1.6,0,0,0-1.262.547A2.835,2.835,0,0,0,78.8-5.016h3.617v-.141A2.307,2.307,0,0,0,81.906-6.6,1.586,1.586,0,0,0,80.672-7.086ZM94.8,0a2.93,2.93,0,0,1-.219-.789,2.955,2.955,0,0,1-2.219.945A2.982,2.982,0,0,1,90.281-.57a2.325,2.325,0,0,1-.8-1.8,2.4,2.4,0,0,1,1-2.074,4.865,4.865,0,0,1,2.871-.723h1.164v-.555a1.481,1.481,0,0,0-.367-1.051,1.456,1.456,0,0,0-1.117-.395,1.672,1.672,0,0,0-1.062.324,1,1,0,0,0-.414.824h-1.9a2.107,2.107,0,0,1,.461-1.3,3.071,3.071,0,0,1,1.254-.949,4.4,4.4,0,0,1,1.77-.344,3.547,3.547,0,0,1,2.367.746,2.661,2.661,0,0,1,.906,2.1v3.813a4.321,4.321,0,0,0,.32,1.82V0ZM92.711-1.367a2.159,2.159,0,0,0,1.059-.273,1.827,1.827,0,0,0,.746-.734V-3.969H93.492a2.8,2.8,0,0,0-1.586.367,1.189,1.189,0,0,0-.531,1.039,1.109,1.109,0,0,0,.363.871A1.407,1.407,0,0,0,92.711-1.367Zm7.453-7.086.055.977a3.039,3.039,0,0,1,2.461-1.133q2.641,0,2.688,3.023V0h-1.9V-5.477a1.741,1.741,0,0,0-.348-1.191,1.462,1.462,0,0,0-1.137-.387,1.829,1.829,0,0,0-1.711,1.039V0h-1.9V-8.453ZM112.352,0a2.93,2.93,0,0,1-.219-.789,2.955,2.955,0,0,1-2.219.945,2.982,2.982,0,0,1-2.078-.727,2.325,2.325,0,0,1-.8-1.8,2.4,2.4,0,0,1,1-2.074,4.865,4.865,0,0,1,2.871-.723h1.164v-.555A1.481,1.481,0,0,0,111.7-6.77a1.456,1.456,0,0,0-1.117-.395,1.672,1.672,0,0,0-1.062.324,1,1,0,0,0-.414.824h-1.9a2.107,2.107,0,0,1,.461-1.3,3.071,3.071,0,0,1,1.254-.949,4.4,4.4,0,0,1,1.77-.344,3.547,3.547,0,0,1,2.367.746,2.661,2.661,0,0,1,.906,2.1v3.813a4.321,4.321,0,0,0,.32,1.82V0Zm-2.086-1.367a2.159,2.159,0,0,0,1.059-.273,1.827,1.827,0,0,0,.746-.734V-3.969h-1.023a2.8,2.8,0,0,0-1.586.367,1.189,1.189,0,0,0-.531,1.039,1.109,1.109,0,0,0,.363.871A1.407,1.407,0,0,0,110.266-1.367ZM111.32-12h2.164L111.32-9.633l-1.523,0Zm6.656,12h-1.9V-12h1.9Zm4.086,0h-1.9V-8.453h1.9Zm-2.016-10.648a1.008,1.008,0,0,1,.277-.727,1.048,1.048,0,0,1,.793-.289,1.061,1.061,0,0,1,.8.289,1,1,0,0,1,.281.727.977.977,0,0,1-.281.715,1.069,1.069,0,0,1-.8.285,1.056,1.056,0,0,1-.793-.285A.984.984,0,0,1,120.047-10.648Zm8.82,8.352a.861.861,0,0,0-.418-.773,4.445,4.445,0,0,0-1.387-.469,7.129,7.129,0,0,1-1.617-.516,2.158,2.158,0,0,1-1.422-1.992,2.25,2.25,0,0,1,.922-1.828,3.644,3.644,0,0,1,2.344-.734,3.792,3.792,0,0,1,2.449.75,2.38,2.38,0,0,1,.934,1.945h-1.9a1.17,1.17,0,0,0-.406-.91,1.557,1.557,0,0,0-1.078-.363,1.682,1.682,0,0,0-1.02.289.911.911,0,0,0-.395.773.769.769,0,0,0,.367.68,5.049,5.049,0,0,0,1.484.488,7.027,7.027,0,0,1,1.754.586,2.484,2.484,0,0,1,.945.816,2.082,2.082,0,0,1,.309,1.156,2.2,2.2,0,0,1-.945,1.848,4.031,4.031,0,0,1-2.477.707,4.371,4.371,0,0,1-1.852-.375A3.047,3.047,0,0,1,124.2-1.25a2.441,2.441,0,0,1-.453-1.414h1.844a1.338,1.338,0,0,0,.508,1.035,1.973,1.973,0,0,0,1.242.363,1.92,1.92,0,0,0,1.141-.285A.883.883,0,0,0,128.867-2.3ZM134.406,0h-1.9V-8.453h1.9Zm-2.016-10.648a1.008,1.008,0,0,1,.277-.727,1.048,1.048,0,0,1,.793-.289,1.061,1.061,0,0,1,.8.289,1,1,0,0,1,.281.727.977.977,0,0,1-.281.715,1.069,1.069,0,0,1-.8.285,1.056,1.056,0,0,1-.793-.285A.984.984,0,0,1,132.391-10.648Zm8.82,8.352a.861.861,0,0,0-.418-.773,4.445,4.445,0,0,0-1.387-.469,7.129,7.129,0,0,1-1.617-.516,2.158,2.158,0,0,1-1.422-1.992,2.25,2.25,0,0,1,.922-1.828,3.644,3.644,0,0,1,2.344-.734,3.792,3.792,0,0,1,2.449.75,2.38,2.38,0,0,1,.934,1.945h-1.9a1.17,1.17,0,0,0-.406-.91,1.557,1.557,0,0,0-1.078-.363,1.682,1.682,0,0,0-1.02.289.911.911,0,0,0-.395.773.769.769,0,0,0,.367.68,5.049,5.049,0,0,0,1.484.488,7.027,7.027,0,0,1,1.754.586,2.484,2.484,0,0,1,.945.816,2.082,2.082,0,0,1,.309,1.156,2.2,2.2,0,0,1-.945,1.848,4.031,4.031,0,0,1-2.477.707A4.371,4.371,0,0,1,137.8-.219a3.047,3.047,0,0,1-1.266-1.031,2.441,2.441,0,0,1-.453-1.414h1.844a1.338,1.338,0,0,0,.508,1.035,1.973,1.973,0,0,0,1.242.363,1.92,1.92,0,0,0,1.141-.285A.883.883,0,0,0,141.211-2.3Z" transform="translate(-4911 -7910)" fill="#12263f"/>
    <g id="Grupo_1084538" data-name="Grupo 1084538" transform="translate(0 -29)">
      <path id="Trazado_832549" data-name="Trazado 832549" d="M0,0,105,26.6,206,0V67a12,12,0,0,1-12,12H12A12,12,0,0,1,0,67Z" transform="translate(-4936 -7602)" fill="#c1cdf5"/>
      <rect id="Rectángulo_379455" data-name="Rectángulo 379455" width="165" height="92" rx="8" transform="translate(-4915 -7626)" fill="#f3f9ff"/>
      <ellipse id="Elipse_6680" data-name="Elipse 6680" cx="38.5" cy="39" rx="38.5" ry="39" transform="translate(-4870 -7665)" fill="#c1cdf5"/>
      <rect id="Rectángulo_379456" data-name="Rectángulo 379456" width="61" height="61" rx="30.5" transform="translate(-4862 -7656)" fill="#fff"/>
      <g id="Grupo_1084537" data-name="Grupo 1084537" transform="translate(-4861.03 -7655.571)">
        <g id="Grupo_1081407-3" data-name="Grupo 1081407">
          <g id="Elipse_5877-3" data-name="Elipse 5877" transform="translate(0.03 0.001)" fill="#fff" stroke="#c1cdf5" stroke-width="2">
            <circle cx="29.5" cy="29.5" r="29.5" stroke="none"/>
            <circle cx="29.5" cy="29.5" r="28.5" fill="none"/>
          </g>
          <circle id="Elipse_5876-3" data-name="Elipse 5876" cx="22.5" cy="22.5" r="22.5" transform="translate(7.03 7.001)" fill="#c1cdf5"/>
        </g>
        <text id="_3" data-name="3" transform="translate(24.03 38)" fill="#12263f" font-size="23" font-family="Roboto-Black, Roboto" font-weight="800"><tspan x="0" y="0">3</tspan></text>
      </g>
      <text id="Mapas_cifras_estadísticas._" data-name="Mapas, cifras,estadísticas. " transform="translate(-4928 -7700)" fill="#12263f" font-size="16" font-family="Roboto-Regular, Roboto"><tspan x="0" y="15">Mapas, cifras,estadísticas. </tspan></text>
      <text id="Presentación_de_la_información" data-name="Presentación de 
la información" transform="translate(-4827 -7563.571)" fill="#12263f" font-size="16" font-family="Roboto-Medium, Roboto" font-weight="500"><tspan x="-60.031" y="0">Presentación de </tspan><tspan x="-51.582" y="22">la información</tspan></text>
    </g>
    <g id="Grupo_1084539" data-name="Grupo 1084539" transform="translate(10 -9)">
      <path id="Trazado_832550" data-name="Trazado 832550" d="M0,0,105,26.6,206,0V67a12,12,0,0,1-12,12H12A12,12,0,0,1,0,67Z" transform="translate(-4743 -7419.429) rotate(180)" fill="#cadeb4"/>
      <rect id="Rectángulo_379460" data-name="Rectángulo 379460" width="165" height="93" rx="8" transform="translate(-4763 -7395.429) rotate(180)" fill="#f3f9ff"/>
      <circle id="Elipse_6681" data-name="Elipse 6681" cx="39" cy="39" r="39" transform="translate(-4806 -7357.429) rotate(180)" fill="#cadeb4"/>
      <rect id="Rectángulo_379461" data-name="Rectángulo 379461" width="61" height="61" rx="30.5" transform="translate(-4875 -7426.429)" fill="#fff"/>
      <g id="Grupo_1081407-4" data-name="Grupo 1081407" transform="translate(-4874.269 -7425)">
        <g id="Elipse_5877-4" data-name="Elipse 5877" transform="translate(0.269 0.001)" fill="#fff" stroke="#c1cdf5" stroke-width="2">
          <circle cx="29.5" cy="29.5" r="29.5" stroke="none"/>
          <circle cx="29.5" cy="29.5" r="28.5" fill="none"/>
        </g>
        <circle id="Elipse_5876-4" data-name="Elipse 5876" cx="22.5" cy="22.5" r="22.5" transform="translate(7.269 7.001)" fill="#cadeb4"/>
      </g>
      <text id="_4" data-name="4" transform="translate(-4850 -7387)" fill="#12263f" font-size="23" font-family="Roboto-Black, Roboto" font-weight="800"><tspan x="0" y="0">4</tspan></text>
      <text id="Consolidación_de_resultados" data-name="Consolidación de 
resultados" transform="translate(-4917 -7480)" fill="#12263f" font-size="16" font-family="Roboto-Medium, Roboto" font-weight="500"><tspan x="-61.875" y="15">Consolidación de </tspan><tspan x="-37.836" y="37">resultados</tspan></text>
      <text id="Documentos_boletines_plegables." data-name="Documentos, 
boletines, plegables." transform="translate(-4840 -7342)" fill="#12263f" font-size="16" font-family="Roboto-Regular, Roboto"><tspan x="-48.844" y="0">Documentos, </tspan><tspan x="-72.52" y="22">boletines, plegables.</tspan></text>
    </g>
    <g id="Grupo_1084541" data-name="Grupo 1084541" transform="translate(0 -41)">
      <rect id="Rectángulo_379465" data-name="Rectángulo 379465" width="253" height="215" rx="15" transform="translate(-4965 -7250)" fill="url(#linear-gradient-2)"/>
      <path id="Trazado_832551" data-name="Trazado 832551" d="M0,0,105,26.6,206,0V67a12,12,0,0,1-12,12H12A12,12,0,0,1,0,67Z" transform="translate(-4938 -7125.214)" fill="#c1cdf5"/>
      <rect id="Rectángulo_379464" data-name="Rectángulo 379464" width="165" height="92" rx="8" transform="translate(-4917 -7149.214)" fill="#f3f9ff"/>
      <circle id="Elipse_6682" data-name="Elipse 6682" cx="39" cy="39" r="39" transform="translate(-4872 -7188.214)" fill="#c1cdf5"/>
      <rect id="Rectángulo_379463" data-name="Rectángulo 379463" width="61" height="61" rx="30.5" transform="translate(-4863 -7179.214)" fill="#fff"/>
      <g id="Grupo_1084540" data-name="Grupo 1084540" transform="translate(-4862 -7178.786)">
        <g id="Grupo_1081407-5" data-name="Grupo 1081407">
          <g id="Elipse_5877-5" data-name="Elipse 5877" transform="translate(0 0.001)" fill="#fff" stroke="#c1cdf5" stroke-width="2">
            <circle cx="29.5" cy="29.5" r="29.5" stroke="none"/>
            <circle cx="29.5" cy="29.5" r="28.5" fill="none"/>
          </g>
          <circle id="Elipse_5876-5" data-name="Elipse 5876" cx="22.5" cy="22.5" r="22.5" transform="translate(7 7.001)" fill="#c1cdf5"/>
        </g>
        <text id="_5" data-name="5" transform="translate(24 38)" fill="#12263f" font-size="23" font-family="Roboto-Black, Roboto" font-weight="800"><tspan x="0" y="0">5</tspan></text>
      </g>
      <text id="Página_web_publicaciones_eventos._" data-name="Página web, 
publicaciones, eventos. " transform="translate(-4917 -7240.786)" fill="#12263f" font-size="16" font-family="Roboto-Regular, Roboto"><tspan x="-42.84" y="15">Página web, </tspan><tspan x="-82.82" y="41">publicaciones, eventos. </tspan></text>
      <text id="Difusión_y_divulgación" data-name="Difusión y 
divulgación" transform="translate(-4831 -7088.786)" fill="#12263f" font-size="16" font-family="Roboto-Medium, Roboto" font-weight="500"><tspan x="-37.605" y="0">Difusión y </tspan><tspan x="-41.102" y="22">divulgación</tspan></text>
    </g>
  </g>
</svg>
