<svg xmlns="http://www.w3.org/2000/svg" width="400" height="380.231" viewBox="0 0 400 380.231">
  <g id="svg18" transform="translate(-103 576.55)">
    <g id="OBJECTS" transform="translate(81.107 -640)">
      <g id="Grupo_1081400" data-name="Grupo 1081400" transform="translate(21.893 63.45)">
        <g id="Grupo_1081318" data-name="Grupo 1081318" transform="translate(12.718 18.371)">
          <path id="Trazado_722772" data-name="Trazado 722772" d="M428.732,238.613s-56.1,4.35-76.664-39.991-30.2-135.887-3.334-109.3,52.352,70.717,56.476,42,67.721,76.25,24.237,104.862" transform="translate(-74.964 -84.566)" fill="#e7f2f0"/>
          <path id="Trazado_722773" data-name="Trazado 722773" d="M69.613,230.674s33.838,71.48,68.66,43.072,48.422,18.848,27.088,31.208-90.286,31.738-106.1-16.707S69.613,230.674,69.613,230.674Z" transform="translate(-38.808 -103.561)" fill="#e7f2f0"/>
          <path id="Trazado_722774" data-name="Trazado 722774" d="M36.511,449.27s83.212-3.548,71.7-35.136-65.635-20.013-43.447-69.013,78.277-9.547,104.538-42.286-3.6-93.885-36.345-58.083-75.054-45.834-29.6-76.992,116.3-84.348,158.084-50.372S293.7,228.815,333.829,243s85.051,21.44,79.971,72.171S347.569,376.4,350,405.378,423.793,448.8,423.793,448.8Z" transform="translate(-36.511 -87.411)" fill="#e7f2f0"/>
        </g>
        <rect id="Rectángulo_378326" data-name="Rectángulo 378326" width="138.684" height="86.853" transform="translate(154.394 292.912)" fill="#4d748c"/>
        <g id="Grupo_1081335" data-name="Grupo 1081335" transform="translate(36.729 226.755)">
          <g id="Grupo_1081320" data-name="Grupo 1081320" transform="translate(13.273)">
            <path id="Trazado_722775" data-name="Trazado 722775" d="M81.031,342.82c-1.306-2.249-1.412-4.667-.237-5.4s3.187.5,4.494,2.745c.01.017.018.035.029.052,1.236,2.162,1.363,4.46.315,5.267-.036.027-.068.057-.106.081C84.349,346.3,82.337,345.07,81.031,342.82Z" transform="translate(-79.446 -325.795)" fill="#df7660"/>
            <g id="Grupo_1081319" data-name="Grupo 1081319" transform="translate(6.367 19.983)">
              <path id="Trazado_722776" data-name="Trazado 722776" d="M87.661,348.3c-.338-1.087,8.9-3.343,7.688,3.484a.027.027,0,0,0,0,.009,6.28,6.28,0,0,0-.733,1.382,7.206,7.206,0,0,0-.465,3.471c.331,2.853-8.512,2.291-7.362-2.111.2-.752.358-1.39.5-1.949a18.087,18.087,0,0,0,.545-2.88A3.554,3.554,0,0,0,87.661,348.3Z" transform="translate(-86.685 -347.058)" fill="#d79081"/>
              <path id="Trazado_722777" data-name="Trazado 722777" d="M87.876,350.51h0a8.031,8.031,0,0,0,.1-.8,3.557,3.557,0,0,0-.168-1.409c-.338-1.087,8.9-3.343,7.688,3.484C95.494,351.786,92.573,353.368,87.876,350.51Z" transform="translate(-86.83 -347.058)" fill="#af695d"/>
            </g>
            <path id="Trazado_722778" data-name="Trazado 722778" d="M99.2,337.329a17.269,17.269,0,0,0-.076,5.024c.4,2.227-1.826,5.945-3.894,7.139s-6.6-.811-8.313-2.372-3.08-5.72-3.27-7.625,2.228-9.664,7.726-9.1S99.851,332.567,99.2,337.329Z" transform="translate(-79.922 -324.906)" fill="#eab8b5"/>
            <path id="Trazado_722779" data-name="Trazado 722779" d="M96.082,334.231s-7.035,6.039-6.8,3.517c0,0-4.015,1.394-4.779-1.128,0,0-1.128,4.2-.417,5.819a13.315,13.315,0,0,1-1.6-6.693s-1.8-.879-2.563,1.524c0,0-1.623-5.03.7-8.282s9.137-7.234,14.756-3.186,8.805,6.637,6.415,9.425-3.308,2.589-3.308,2.589S95.685,336.487,96.082,334.231Z" transform="translate(-79.367 -324.09)" fill="#4c1813"/>
            <path id="Trazado_722780" data-name="Trazado 722780" d="M102.453,335.812a8.126,8.126,0,0,0-3.785-1.6c-.1-1.833-1.007-3.275-2.125-3.275s-2,1.408-2.121,3.21c-2.145.05-7.732.357-11.7,2.122a.4.4,0,0,0,.162.762A.412.412,0,0,0,83.05,337c3.78-1.684,9.275-1.993,11.373-2.05.123,1.792,1.02,3.189,2.119,3.189s1.974-1.36,2.116-3.117a7.309,7.309,0,0,1,3.282,1.4.4.4,0,0,0,.512-.609Z" transform="translate(-79.773 -324.98)" fill="#abdfd3"/>
          </g>
          <path id="Trazado_722781" data-name="Trazado 722781" d="M65.529,383.468c2.032-8.229,4.561-24.2,8.17-25.869v-.009l.184-.066c.02-.007.04-.019.06-.024l.024-.006,9.813-3.534c-.142.561,1.8,3.229,4.552,3.38a3.293,3.293,0,0,0,3.476-1.995l4.877,2.225c1.637.7,3.161,3.626,3.926,7.377,1.062,5.2-.451,19.075-.451,19.075l9.238-6.4,2.658,1.9a1.056,1.056,0,0,1,.26,1.456c-1.917,2.8-8.053,11.525-10.418,12.18a3.233,3.233,0,0,1-3.64-.813l.1,6.085c-9.92,5.453-25.293-.883-25.293-.883l.228-4.845h0a9.711,9.711,0,0,1-2.981.742C66.152,393.44,63.451,391.882,65.529,383.468Z" transform="translate(-64.202 -327.973)" fill="#e5fcff"/>
          <g id="Grupo_1081330" data-name="Grupo 1081330" transform="translate(0 25.687)">
            <g id="Grupo_1081322" data-name="Grupo 1081322" transform="translate(27.013 101.787)">
              <path id="Trazado_722782" data-name="Trazado 722782" d="M96.746,481.667l-.379-11.054,7.073.893.295,10.161S100.7,487.063,96.746,481.667Z" transform="translate(-95.317 -470.613)" fill="#d79081"/>
              <g id="Grupo_1081321" data-name="Grupo 1081321" transform="translate(0 11.054)">
                <path id="Trazado_722783" data-name="Trazado 722783" d="M96.589,483.319,95.16,489.2h19.377a7.272,7.272,0,0,0-5.4-3.971c-4.13-.794-5.559-1.906-5.559-1.906S101.037,486.337,96.589,483.319Z" transform="translate(-95.16 -483.319)" fill="#26597f"/>
                <rect id="Rectángulo_378327" data-name="Rectángulo 378327" width="19.377" height="1.271" transform="translate(0 5.877)" fill="#22374c"/>
              </g>
            </g>
            <g id="Grupo_1081324" data-name="Grupo 1081324" transform="translate(6.793 101.787)">
              <path id="Trazado_722784" data-name="Trazado 722784" d="M73.505,481.667l-.379-11.054,7.073.893.294,10.161S77.459,487.063,73.505,481.667Z" transform="translate(-72.076 -470.613)" fill="#d79081"/>
              <g id="Grupo_1081323" data-name="Grupo 1081323" transform="translate(0 11.054)">
                <path id="Trazado_722785" data-name="Trazado 722785" d="M73.348,483.319,71.919,489.2H91.3a7.274,7.274,0,0,0-5.4-3.971c-4.13-.794-5.559-1.906-5.559-1.906S77.8,486.337,73.348,483.319Z" transform="translate(-71.919 -483.319)" fill="#26597f"/>
                <rect id="Rectángulo_378328" data-name="Rectángulo 378328" width="19.378" height="1.271" transform="translate(0 5.877)" fill="#22374c"/>
              </g>
            </g>
            <path id="Trazado_722786" data-name="Trazado 722786" d="M65.217,441.3S93,439.951,99.809,432.361l-3.375-26.884-27.6,2.753Z" transform="translate(-64.255 -360.357)" fill="#93bcb7"/>
            <g id="Grupo_1081326" data-name="Grupo 1081326" transform="translate(6.795 43.583)">
              <path id="Trazado_722787" data-name="Trazado 722787" d="M73.373,403.711l25.293.883,4.6,62.879a2.291,2.291,0,0,1-2.285,2.459H93.536a2.29,2.29,0,0,1-2.285-2.135l-3.593-52.485-4.6,52.528a2.291,2.291,0,0,1-2.282,2.091H74.213a2.292,2.292,0,0,1-2.291-2.343Z" transform="translate(-71.921 -403.711)" fill="#68bb9f"/>
              <g id="Grupo_1081325" data-name="Grupo 1081325" transform="translate(1.463 3.853)">
                <path id="Trazado_722788" data-name="Trazado 722788" d="M91.411,408.143a.224.224,0,0,0-.26.179l-1.4,7.524a.224.224,0,0,0,.179.261.218.218,0,0,0,.041,0,.223.223,0,0,0,.219-.183l1.4-7.524A.224.224,0,0,0,91.411,408.143Z" transform="translate(-75.702 -408.14)" fill="#407f68"/>
                <path id="Trazado_722789" data-name="Trazado 722789" d="M103.98,469.274H96.96L91.8,416.989a.224.224,0,0,0-.445.044l5.155,52.241h-.8a.224.224,0,1,0,0,.447h8.264a.224.224,0,0,0,0-.447Z" transform="translate(-75.911 -409.264)" fill="#407f68"/>
                <path id="Trazado_722790" data-name="Trazado 722790" d="M81.2,472.629H74.571l.032-29.809a.224.224,0,0,0-.223-.224h0a.223.223,0,0,0-.224.224l-.032,29.809h-.3a.224.224,0,1,0,0,.447H81.2a.224.224,0,1,0,0-.447Z" transform="translate(-73.603 -412.62)" fill="#407f68"/>
              </g>
            </g>
            <g id="Grupo_1081329" data-name="Grupo 1081329">
              <g id="Grupo_1081327" data-name="Grupo 1081327">
                <path id="Trazado_722791" data-name="Trazado 722791" d="M115.2,379.38l-2.658-1.9L106.1,381.6s-1.286-11.59-2.348-16.793c-.766-3.751-2.289-6.675-3.926-7.377l-4.877-2.225a3.143,3.143,0,0,1-1.276,1.5s3.595,22.32,6.462,42.237c1.608,11.17,2.987,21.585,3.375,26.884l.848-15.036L101.4,392.2a3.233,3.233,0,0,0,3.64.813c2.366-.655,8.5-9.382,10.418-12.18A1.057,1.057,0,0,0,115.2,379.38Z" transform="translate(-67.954 -353.822)" fill="#b1e4df"/>
                <path id="Trazado_722792" data-name="Trazado 722792" d="M88.107,374.257l.154.882-2.507.345c-.285-9.184-.865-19.517-.865-19.517h0c-1.2-.863-1.9-2.006-1.811-2.352l-9.813,3.534-.024.006c-.02.006-.04.018-.06.025l-.184.066v.009c-3.609,1.669-6.138,17.64-8.17,25.868-2.078,8.414.623,9.972,4.778,9.972l-4.532,41.46,16.38-6.7s1.877-15.214,3.2-27.714c.683-6.456,1.217-12.189,1.268-14.725.01-.492.012-1.065.01-1.674l3.247-1.86.232,1.8,2.354-2.468-1.4-6.534Z" transform="translate(-64.111 -353.615)" fill="#b1e4df"/>
              </g>
              <g id="Grupo_1081328" data-name="Grupo 1081328" transform="translate(4.239 7.853)">
                <path id="Trazado_722793" data-name="Trazado 722793" d="M86.575,388.04a61.375,61.375,0,0,1-16.259,9.314.223.223,0,0,0,.077.433.235.235,0,0,0,.077-.013,60.822,60.822,0,0,0,14.477-7.919l-4.64,41.251a.223.223,0,0,0,.2.247l.025,0a.224.224,0,0,0,.222-.2l4.687-41.665c.894-.67,1.407-1.094,1.426-1.11a.224.224,0,1,0-.288-.342Z" transform="translate(-69.137 -365.936)" fill="#6ab79d"/>
                <path id="Trazado_722794" data-name="Trazado 722794" d="M91.806,378.1a.224.224,0,0,0-.191.251l.917,6.743a.224.224,0,0,0,.221.193l.03,0a.224.224,0,0,0,.191-.251l-.917-6.743A.229.229,0,0,0,91.806,378.1Z" transform="translate(-71.925 -364.651)" fill="#6ab79d"/>
                <path id="Trazado_722795" data-name="Trazado 722795" d="M73.588,380.7l12.863-3.826a.223.223,0,0,0,.151-.278.219.219,0,0,0-.278-.15l-10.755,3.2,1.752-16.755a.224.224,0,0,0-.2-.246.221.221,0,0,0-.245.2l-1.771,16.94-1.649.49a6.908,6.908,0,0,0-4.473,5.852.224.224,0,0,0,.2.242h.019a.223.223,0,0,0,.222-.2A6.343,6.343,0,0,1,73.588,380.7Z" transform="translate(-68.983 -362.641)" fill="#6ab79d"/>
                <path id="Trazado_722796" data-name="Trazado 722796" d="M99.619,365.473a.224.224,0,0,0-.164.271c1.1,4.5,2.456,27.574,2.47,27.807a.224.224,0,0,0,.223.211h.013a.224.224,0,0,0,.21-.237c-.056-.951-1.373-23.351-2.482-27.887A.222.222,0,0,0,99.619,365.473Z" transform="translate(-72.944 -363.009)" fill="#6ab79d"/>
                <path id="Trazado_722797" data-name="Trazado 722797" d="M107.576,385.421a.222.222,0,0,0-.294-.112c-.146.065-3.584,1.658-3.811,7.219a.224.224,0,0,0,.214.232h.01a.224.224,0,0,0,.224-.215c.214-5.268,3.513-6.814,3.546-6.829A.224.224,0,0,0,107.576,385.421Z" transform="translate(-73.467 -365.586)" fill="#6ab79d"/>
                <path id="Trazado_722798" data-name="Trazado 722798" d="M81.032,404.274a.219.219,0,0,0-.229-.06l-7.855,2.446a.221.221,0,0,0-.155.24c.47,3.85,1.332,5.721,2.636,5.721,2.477,0,5.332-7.284,5.649-8.114A.223.223,0,0,0,81.032,404.274Zm-5.6,7.9c-.693,0-1.628-.9-2.17-5.143l7.231-2.252C79.52,407.187,77.156,412.174,75.428,412.174Z" transform="translate(-69.478 -368.045)" fill="#6ab79d"/>
                <path id="Trazado_722799" data-name="Trazado 722799" d="M80.845,366.781h5.1a.224.224,0,1,0,0-.447h-5.1a.224.224,0,1,0,0,.447Z" transform="translate(-70.496 -363.121)" fill="#6ab79d"/>
              </g>
            </g>
          </g>
          <g id="Grupo_1081332" data-name="Grupo 1081332" transform="translate(16.959 24.247)">
            <g id="Grupo_1081331" data-name="Grupo 1081331">
              <path id="Trazado_722800" data-name="Trazado 722800" d="M85.983,351.96,83.6,353.536l3.976,6.358.509,11.369.785-13.6.091-1.588Z" transform="translate(-83.604 -351.96)" fill="#68bb9f"/>
              <path id="Trazado_722801" data-name="Trazado 722801" d="M95.528,369.364l-2.9-12.9,2.5-1.937.945.893-1.824,3.129Z" transform="translate(-84.777 -352.294)" fill="#68bb9f"/>
            </g>
          </g>
          <g id="Grupo_1081334" data-name="Grupo 1081334" transform="translate(27.019 35.404)">
            <g id="Grupo_1081333" data-name="Grupo 1081333" transform="translate(2.797)">
              <path id="Trazado_722802" data-name="Trazado 722802" d="M116.587,366.068H104.832a1.268,1.268,0,0,0-1.212.9l-5.183,17A1.267,1.267,0,0,0,99.65,385.6H110.68a1.265,1.265,0,0,0,1.2-.851l5.906-17A1.267,1.267,0,0,0,116.587,366.068Z" transform="translate(-98.382 -364.951)" fill="#936c4c"/>
              <path id="Trazado_722803" data-name="Trazado 722803" d="M115.867,367.019h-7.148l.893-2.235h7.148Z" transform="translate(-99.726 -364.784)" fill="#ad9f95"/>
            </g>
            <path id="Trazado_722804" data-name="Trazado 722804" d="M118.443,372.789a12.655,12.655,0,0,1,.873,8.04c-1.084,4.17-4.617,2.135-3.733.192a4.183,4.183,0,0,0,.053-3.439c-.727-2.243-.551-2.836-.193-2.225s.526.883.526.883-1.442-3.376-.675-2.532,1.26,1.442,1.26,1.442-2.228-3.337-1.484-3.182,2.263,2.051,2.263,2.051-1.662-2.22-1.117-2.168,2.025,1.467,2.025,1.467Z" transform="translate(-97.735 -365.703)" fill="#ecc1ba"/>
            <path id="Trazado_722805" data-name="Trazado 722805" d="M106.815,373.281c.992-1.705-3.515,1.868-4.239,2.448a11.609,11.609,0,0,0,2.482-2.935c1.068-1.812-2.707,1.593-4.339,3.122h0l.428-1.4a2.559,2.559,0,0,0-2.068,2.127,19.193,19.193,0,0,1-3.912,1.463l1.022,4.781a1.144,1.144,0,0,0,.363-.047c1.349-.419,2.981-.953,2.981-.953v-.017c1.686-.153,5.467-2.977,6.316-4.1,1.017-1.349-1.973.086-1.973.086a7.11,7.11,0,0,0,2.4-2.162c.514-1.087-2.934,1.049-2.934,1.049A13.164,13.164,0,0,0,106.815,373.281Z" transform="translate(-95.167 -365.758)" fill="#ecc1ba"/>
          </g>
        </g>
        <rect id="Rectángulo_378329" data-name="Rectángulo 378329" width="141.943" height="7.969" transform="translate(4.762 371.795)" fill="#81aac9"/>
        <rect id="Rectángulo_378330" data-name="Rectángulo 378330" width="113.612" height="49.44" transform="translate(263.274 330.344)" fill="#81aac9"/>
        <g id="Grupo_1081372" data-name="Grupo 1081372" transform="translate(75.597)">
          <path id="Trazado_722806" data-name="Trazado 722806" d="M155.17,318.134s-1.074-1.689-5.3-3.054c-.823-.266-10.89-.02-13.564-.369s-7-2.944-8.5-.978,3.461,4.479,7.316,6.45,6.293,6.843,11.406,7.394S155.17,318.134,155.17,318.134Z" transform="translate(-111.224 -95.894)" fill="#c1695d"/>
          <g id="Grupo_1081353" data-name="Grupo 1081353" transform="translate(1.107 76.96)">
            <g id="Grupo_1081338" data-name="Grupo 1081338" transform="translate(30.962)">
              <g id="Grupo_1081336" data-name="Grupo 1081336" transform="translate(0.601 25.703)">
                <path id="Trazado_722807" data-name="Trazado 722807" d="M162.584,185.81v-3.239l-5.8-1.117s-.481,1.5-8.679,9.29,14.849,8.02,14.849,8.02Z" transform="translate(-146.338 -181.454)" fill="#d79081"/>
                <path id="Trazado_722808" data-name="Trazado 722808" d="M158.074,181.454a10.285,10.285,0,0,1-1.79,2.325,25.709,25.709,0,0,0,7.593.372v-1.581Z" transform="translate(-147.631 -181.454)" fill="#af695d"/>
              </g>
              <g id="Grupo_1081337" data-name="Grupo 1081337">
                <path id="Trazado_722809" data-name="Trazado 722809" d="M172.7,170.818a9.536,9.536,0,1,1-10.789-8.093A9.537,9.537,0,0,1,172.7,170.818Z" transform="translate(-146.697 -153.303)" fill="#f2c3ba"/>
                <path id="Trazado_722810" data-name="Trazado 722810" d="M162.918,173.826c.179,2.616-.843,4.816-2.282,4.915s-2.751-1.943-2.93-4.558.843-4.816,2.282-4.915S162.74,171.211,162.918,173.826Z" transform="translate(-147.213 -154.166)" fill="#ea9495"/>
                <path id="Trazado_722811" data-name="Trazado 722811" d="M172.872,173.374c-.1.1.686-2.589-1.283-4.39a22.341,22.341,0,0,1-7.07,1.94l1.3-.912a15.166,15.166,0,0,1-4.242.034s.724,2.482-.456,4.093c0,0,.423-5.042-1.219-6.454s-4.332,4.606-3.228,6.634.224,3.583,1.276,4.658-2.867-.641-3.941-1.59a10.251,10.251,0,0,1-3.228-5.542c-.844-3.453,1.938-8.619,1.938-8.619s-6.123,2.3-7.01-1.041,8.133-12.147,10.255-9.918.641,6.157.641,6.157,8.41-4.549,13.632,1.116S174.764,171.471,172.872,173.374Z" transform="translate(-145.648 -151.91)" fill="#4c1813"/>
              </g>
            </g>
            <g id="Grupo_1081343" data-name="Grupo 1081343" transform="translate(66.139 22.969)">
              <g id="Grupo_1081339" data-name="Grupo 1081339" transform="translate(0 21.82)">
                <path id="Trazado_722812" data-name="Trazado 722812" d="M190.23,210.287c1.249.246,3.339.314,4.105-.57a4.934,4.934,0,0,0,.961-1.483s1.195-.877.688-1.6c0,0,.587-1.028.019-1.4,0,0-.435-1.389-1.4-1.716a6.743,6.743,0,0,0-4.053.534c-.836.51-4.2,2.024-4.2,2.024a4.088,4.088,0,0,0,.448,3.767Z" transform="translate(-186.081 -203.392)" fill="#ecc1ba"/>
                <path id="Trazado_722813" data-name="Trazado 722813" d="M192.69,207.035a2.962,2.962,0,0,0,1.6.454,3.736,3.736,0,0,0,2.146-.736.06.06,0,1,0-.069-.1,3.138,3.138,0,0,1-3.609.281c.048-.079.094-.162.137-.251,0-.005.216-.484,1.264-.581a3.23,3.23,0,0,0,1.782-.7.06.06,0,0,0-.08-.089,2.155,2.155,0,0,1-.249.179.684.684,0,0,0-.212-.512,2.577,2.577,0,0,0-1.656-.412,2.483,2.483,0,0,1,1.188-.525.06.06,0,0,0,.02-.117c-.427-.076-1.3.559-1.419.645a9.748,9.748,0,0,0-1.227.113.059.059,0,0,0-.049.069.06.06,0,0,0,.069.05c.023,0,2.316-.382,2.99.265a.577.577,0,0,1,.175.5,3.343,3.343,0,0,1-1.342.417c-1.129.1-1.355.632-1.362.651a1.755,1.755,0,0,1-1.2,1.064,3.163,3.163,0,0,1-2.226-.792.06.06,0,0,0-.078.09,3.55,3.55,0,0,0,1.99.852,1.683,1.683,0,0,0,.279-.024,2.056,2.056,0,0,0,.487.468.973.973,0,0,0-.236.729,1.129,1.129,0,0,0,.661.778,2.506,2.506,0,0,0,1.221.331,2.079,2.079,0,0,0,1.1-.3.06.06,0,0,0,.015-.084.061.061,0,0,0-.084-.015,2.139,2.139,0,0,1-2.192-.042,1.02,1.02,0,0,1-.6-.689.874.874,0,0,1,.217-.646,2.917,2.917,0,0,0,1.6.432,5.392,5.392,0,0,0,2-.433.06.06,0,0,0,.033-.077.059.059,0,0,0-.077-.033c-2.631,1.05-3.771-.144-4.009-.449A1.723,1.723,0,0,0,192.69,207.035Z" transform="translate(-186.495 -203.461)" fill="#af6c66"/>
              </g>
              <g id="Grupo_1081342" data-name="Grupo 1081342" transform="translate(4.527)">
                <g id="Grupo_1081341" data-name="Grupo 1081341">
                  <g id="Grupo_1081340" data-name="Grupo 1081340">
                    <path id="Trazado_722814" data-name="Trazado 722814" d="M192.606,210.452h0v0Z" transform="translate(-191.457 -182.489)" fill="#4e7498"/>
                    <path id="Trazado_722815" data-name="Trazado 722815" d="M192.434,210.452l-1.116,4.016a.894.894,0,0,0,.621,1.1.882.882,0,0,0,.24.033.9.9,0,0,0,.86-.654l1.1-3.975A1.78,1.78,0,0,1,192.434,210.452Z" transform="translate(-191.285 -182.49)" fill="#4e7498"/>
                    <path id="Trazado_722816" data-name="Trazado 722816" d="M201.818,178.392c-2.3-.684-5.437,3.048-7.011,8.336-1.375,4.621-1.1,8.9.524,10.362l-1.154,4.149a2.332,2.332,0,0,1,1.756.355l1.114-4.006c2.155-.358,4.712-3.779,6.082-8.383C204.7,183.918,204.116,179.077,201.818,178.392Z" transform="translate(-191.628 -178.311)" fill="#4e7498"/>
                  </g>
                </g>
                <path id="Trazado_722817" data-name="Trazado 722817" d="M202.44,188.956c-1.378,4.609-3.985,7.9-5.821,7.351s-2.209-4.731-.831-9.339,3.985-7.9,5.821-7.351S203.818,184.347,202.44,188.956Z" transform="translate(-191.762 -178.473)" fill="#d7ebec"/>
              </g>
            </g>
            <path id="Trazado_722818" data-name="Trazado 722818" d="M178.047,224.013s-.184-2.448,3.548-4.714,2.469-.716,1.628.318-1.478,2.623.9,2.2,9.171-1.517,6.79-.345a13.672,13.672,0,0,1-4.574,1.326s8.316-.831,6.017.318A15.805,15.805,0,0,1,186.6,224.3s6.348-.332,5.117.419a25.1,25.1,0,0,1-5.168,1.527s3.945.436,2.037,1.121S178.216,229.142,178.047,224.013Z" transform="translate(-118.898 -160.519)" fill="#ecc1ba"/>
            <g id="Grupo_1081345" data-name="Grupo 1081345" transform="translate(13.688 123.645)">
              <path id="Trazado_722819" data-name="Trazado 722819" d="M127.435,304.852l1.463-10.821,6.8.9-1.271,9.923S131.387,310.248,127.435,304.852Z" transform="translate(-126.006 -294.031)" fill="#d79081"/>
              <g id="Grupo_1081344" data-name="Grupo 1081344" transform="translate(0 10.821)">
                <path id="Trazado_722820" data-name="Trazado 722820" d="M127.221,306.469l-1.429,5.877h19.377a7.274,7.274,0,0,0-5.4-3.971c-4.13-.794-5.559-1.906-5.559-1.906S131.669,309.487,127.221,306.469Z" transform="translate(-125.792 -306.469)" fill="#26597f"/>
                <rect id="Rectángulo_378331" data-name="Rectángulo 378331" width="19.377" height="1.271" transform="translate(0 5.877)" fill="#22374c"/>
              </g>
            </g>
            <g id="Grupo_1081347" data-name="Grupo 1081347" transform="translate(21.681 129.353)">
              <path id="Trazado_722821" data-name="Trazado 722821" d="M136.566,311.646l-.379-11.054,7.073.893.295,10.161S140.52,317.042,136.566,311.646Z" transform="translate(-135.137 -300.592)" fill="#d79081"/>
              <g id="Grupo_1081346" data-name="Grupo 1081346" transform="translate(0 11.054)">
                <path id="Trazado_722822" data-name="Trazado 722822" d="M136.409,313.3l-1.429,5.877h19.378a7.274,7.274,0,0,0-5.4-3.971c-4.13-.794-5.559-1.906-5.559-1.906S140.857,316.316,136.409,313.3Z" transform="translate(-134.98 -313.298)" fill="#26597f"/>
                <rect id="Rectángulo_378332" data-name="Rectángulo 378332" width="19.378" height="1.271" transform="translate(0 5.877)" fill="#22374c"/>
              </g>
            </g>
            <g id="Grupo_1081349" data-name="Grupo 1081349" transform="translate(14.302 75.923)">
              <path id="Trazado_722823" data-name="Trazado 722823" d="M145.292,240.028l1.093,7.782,2.285,20.648-4.866,31.31H133.775V294.63l-7.277-1.125,3.554-36.218-.846-18.11Z" transform="translate(-126.498 -239.178)" fill="#68bb9f"/>
              <g id="Grupo_1081348" data-name="Grupo 1081348" transform="translate(1.342 6.266)">
                <path id="Trazado_722824" data-name="Trazado 722824" d="M133.975,257.192a.224.224,0,0,0-.224.224V294l-5.175-.92,3.077-29.615a.223.223,0,1,0-.445-.045l-3.168,30.489a.224.224,0,0,0,.2.245h.023a.223.223,0,0,0,.222-.2l.044-.429,5.221.928v2.515a.224.224,0,0,0,.447,0V257.415A.224.224,0,0,0,133.975,257.192Z" transform="translate(-128.041 -247.786)" fill="#407f68"/>
                <path id="Trazado_722825" data-name="Trazado 722825" d="M146.8,269.829l-3.1-23.255a.223.223,0,1,0-.443.059l3.1,23.224-4.186,29.149h-6.021a.224.224,0,1,0,0,.447h7.38a.224.224,0,1,0,0-.447h-.907l4.181-29.117A.287.287,0,0,0,146.8,269.829Z" transform="translate(-129.065 -246.38)" fill="#407f68"/>
              </g>
            </g>
            <path id="Trazado_722826" data-name="Trazado 722826" d="M162.865,186.326s-2.24,14.753-7.6-2.249l-7.1,49.2,1.035,7.371,12.947-34.526Z" transform="translate(-115.013 -156.092)" fill="#e5fcff"/>
            <g id="Grupo_1081352" data-name="Grupo 1081352" transform="translate(0 27.985)">
              <path id="Trazado_722827" data-name="Trazado 722827" d="M133.273,200.7a1.722,1.722,0,0,0-.146.183c-.549.932-4.85,8.267-9.434,16.96-4.908,9.308-13.634,30.252-13.634,30.252,2.285,2.623,19.294,14.893,19.294,14.893,1.565-5.477,16.946-36.56,19.257-41.219a.853.853,0,0,1,.934-.457h0a.857.857,0,0,1,.647,1.107l-5.946,18.229,2.285,20.648,8.73-38.845,14.557,2.455,3.455-11L157.7,211.581l.676-3.008,5.162,3.385s15.57-1.862,15.316-1.946-1.557-9.455-1.557-9.455l-10.321,1.228-6.569-5.566-2.542-10.068L155.674,205.6h0l-5.363-21.526-2.72,1.124S134.407,199.262,133.273,200.7Z" transform="translate(-110.059 -184.077)" fill="#b1e4df"/>
              <g id="Grupo_1081350" data-name="Grupo 1081350" transform="translate(2.13 12.87)">
                <path id="Trazado_722828" data-name="Trazado 722828" d="M155.617,224.3l-6.137-1.047c-.584-1.5-6.5-16.82-6.148-23.031a.223.223,0,0,0-.211-.236.216.216,0,0,0-.236.211c-.276,4.913,3.156,15.06,5.042,20.212L128.8,261.435l-15.936-12.043a.223.223,0,1,0-.27.356l16.157,12.209a.225.225,0,0,0,.135.045.192.192,0,0,0,.054-.007.22.22,0,0,0,.148-.122L148.145,221c.532,1.438.9,2.382.965,2.536a.223.223,0,0,0,.17.137l6.261,1.068a.189.189,0,0,0,.038,0,.224.224,0,0,0,.038-.444Z" transform="translate(-112.508 -199.015)" fill="#6ab79d"/>
                <path id="Trazado_722829" data-name="Trazado 722829" d="M162.387,208.575a.223.223,0,0,0-.14.283l2.027,5.979a.223.223,0,0,0,.211.151.2.2,0,0,0,.071-.012.223.223,0,0,0,.14-.283l-2.027-5.979A.224.224,0,0,0,162.387,208.575Z" transform="translate(-118.973 -200.13)" fill="#6ab79d"/>
                <path id="Trazado_722830" data-name="Trazado 722830" d="M166.189,198.871a.223.223,0,0,0-.2.241c.219,2.629-.634,11.276-.642,11.363a.224.224,0,0,0,.2.244h.023a.223.223,0,0,0,.222-.2c.036-.358.866-8.775.643-11.445A.229.229,0,0,0,166.189,198.871Z" transform="translate(-119.377 -198.87)" fill="#6ab79d"/>
                <path id="Trazado_722831" data-name="Trazado 722831" d="M174.825,204.224c-.117.093-2.888,2.306-3.347,4.371a.224.224,0,0,0,.17.266.238.238,0,0,0,.049.005.224.224,0,0,0,.218-.175c.424-1.909,3.161-4.1,3.188-4.118a.223.223,0,1,0-.278-.35Z" transform="translate(-120.174 -199.56)" fill="#6ab79d"/>
                <path id="Trazado_722832" data-name="Trazado 722832" d="M186.269,203.854a.228.228,0,0,0-.255-.186.224.224,0,0,0-.186.255l1.139,7.251a.223.223,0,0,0,.22.189l.035,0a.223.223,0,0,0,.186-.255Z" transform="translate(-122.04 -199.493)" fill="#6ab79d"/>
                <path id="Trazado_722833" data-name="Trazado 722833" d="M180.254,219.334a.223.223,0,0,0-.281.144l-2.755,8.568a.223.223,0,0,0,.144.281.235.235,0,0,0,.069.01.222.222,0,0,0,.212-.155l2.755-8.568A.222.222,0,0,0,180.254,219.334Z" transform="translate(-120.919 -201.529)" fill="#6ab79d"/>
                <path id="Trazado_722834" data-name="Trazado 722834" d="M131.251,244.032a3.277,3.277,0,0,0,1.046.172c5.123,0,10.045-11.928,10.251-12.436a.222.222,0,0,0-.127-.292l-9.232-3.535a.227.227,0,0,0-.276.1c-.217.4-5.312,9.788-3.63,14.1A3.1,3.1,0,0,0,131.251,244.032Zm1.963-15.6,8.833,3.382c-.69,1.616-5.279,11.947-9.749,11.947a2.812,2.812,0,0,1-.9-.149,2.634,2.634,0,0,1-1.694-1.629C128.213,238.168,132.522,229.739,133.214,228.429Z" transform="translate(-114.645 -202.648)" fill="#6ab79d"/>
              </g>
              <g id="Grupo_1081351" data-name="Grupo 1081351" transform="translate(38.539)">
                <path id="Trazado_722835" data-name="Trazado 722835" d="M156.072,184.077h-1.715l1.33,10.171,2.565-1.421,1.378,5.532.25-6.434Z" transform="translate(-154.357 -184.077)" fill="#68bb9f"/>
                <path id="Trazado_722836" data-name="Trazado 722836" d="M164.762,186.461l-1.675,6.142.555.559s-.217,5.171-.205,5.062.488-4.84.488-4.84l1,.726.684-6.421Z" transform="translate(-155.492 -184.387)" fill="#68bb9f"/>
              </g>
            </g>
          </g>
          <g id="Grupo_1081371" data-name="Grupo 1081371">
            <g id="Grupo_1081362" data-name="Grupo 1081362" transform="translate(85.279)">
              <path id="Trazado_722837" data-name="Trazado 722837" d="M286.073,150.307c4.25,2.206,11-2.366,15.073-10.215s3.932-16-.318-18.205c-3.275-1.7-8.029.635-11.9,5.382a28.2,28.2,0,0,0-3.169,4.833c-.031.061-.057.121-.088.181-3.621,7.09-3.8,14.37-.622,17.275a4.865,4.865,0,0,0,.641.5A4.424,4.424,0,0,0,286.073,150.307Z" transform="translate(-216.688 -70.975)" fill="#de9595"/>
              <g id="Grupo_1081355" data-name="Grupo 1081355" transform="translate(35.623 79.955)">
                <path id="Trazado_722838" data-name="Trazado 722838" d="M280.684,186.161a8.886,8.886,0,0,0-.226-6.622c-1.01-2.521-1.853-4.665-2.57-6.542a63.112,63.112,0,0,1-3.151-9.749,12.394,12.394,0,0,1-.034-4.959c.7-3.916-32.321-7.7-25.143,15.452,0,.01,0,.018.008.029a21.889,21.889,0,0,1,3.145,4.474,26.426,26.426,0,0,1,1.309,2.789c-.073.211-8.893,25.667-5.484,36.492,3.423,10.871,17.531,13.4,28.495,2.68C283.68,213.7,282.58,197.73,280.684,186.161Z" transform="translate(-247.755 -155.353)" fill="#d79081"/>
                <path id="Trazado_722839" data-name="Trazado 722839" d="M274.819,158.29c.7-3.916-32.321-7.7-25.142,15.452,0,.01,0,.018.008.029s8.455,4.346,27.466-3.056a50.825,50.825,0,0,1-2.3-7.465A12.38,12.38,0,0,1,274.819,158.29Z" transform="translate(-247.872 -155.353)" fill="#c1695d"/>
                <g id="Grupo_1081354" data-name="Grupo 1081354" transform="translate(5.818 17.2)">
                  <path id="Trazado_722840" data-name="Trazado 722840" d="M255.216,184.494a.447.447,0,1,0-.654.608l6.763,7.271a.445.445,0,0,0,.327.143.446.446,0,0,0,.327-.751Z" transform="translate(-254.442 -176.322)" fill="#c1695d"/>
                  <path id="Trazado_722841" data-name="Trazado 722841" d="M281.246,175.191a.448.448,0,0,0-.616.139l-8.8,13.97a.447.447,0,0,0,.139.616.446.446,0,0,0,.616-.14l8.8-13.97A.445.445,0,0,0,281.246,175.191Z" transform="translate(-256.694 -175.123)" fill="#c1695d"/>
                </g>
              </g>
              <g id="Grupo_1081356" data-name="Grupo 1081356" transform="translate(16.294 29.517)">
                <path id="Trazado_722842" data-name="Trazado 722842" d="M226.573,125.442s2.884,9.491,2.461,17.393,8.936,19.82,16.633,23.06,22.548-5.7,27.8-11.864,8.287-21.193,8.006-27.879c-.488-11.606-11.956-32.546-30.781-28.188S222.217,109.209,226.573,125.442Z" transform="translate(-225.538 -97.377)" fill="#eab8b5"/>
                <path id="Trazado_722843" data-name="Trazado 722843" d="M273.464,154.032c5.249-6.161,8.287-21.193,8.006-27.879-.488-11.606-11.956-32.546-30.781-28.188s-28.471,11.245-24.115,27.477c0,0,.378,1.244.839,3.2h0s6.787-4.672,9.656-11.968c0,0,4.027,13.774,19.567,11.987,0,0-5.6-4.02-5.977-7.222a9.277,9.277,0,0,0,9.6.372s4.1,10.722,12.173,8.86a6.093,6.093,0,0,1-2.3-2.978s2.714,2.978,7.554.819c0,0,3.331,7.411-1.945,7.689l2.982.824s-2.313,13.356-7.218,19.024A24.64,24.64,0,0,0,273.464,154.032Z" transform="translate(-225.538 -97.377)" fill="#d18282"/>
              </g>
              <g id="Grupo_1081361" data-name="Grupo 1081361" transform="translate(17.667 51.498)">
                <g id="Grupo_1081357" data-name="Grupo 1081357" transform="translate(10.917 20.764)">
                  <path id="Trazado_722844" data-name="Trazado 722844" d="M239.818,149.392s4.962-4.823,7.319-1.988l.713,2.122a3.357,3.357,0,0,1-2.961,2.741c-2.779.585-4.667,1.436-4.99-.953Z" transform="translate(-239.684 -146.511)" fill="#d38d7a"/>
                  <path id="Trazado_722845" data-name="Trazado 722845" d="M242.874,148.427l.619-.17,2.944-.807.194-.053a.513.513,0,0,1,.637.347l.553,2.018a.514.514,0,0,1-.371.624l-.194.053s-1.011.465-.981,1.18c0,0,.121.342-1.067.667l-.568.156-2.283.472a1.3,1.3,0,0,1-1.609-.689l-.194.053h0a.512.512,0,0,1-.637-.348l-.254-2.136s.068-.509.79-.7Z" transform="translate(-239.664 -146.623)" fill="#ea344f"/>
                </g>
                <g id="Grupo_1081358" data-name="Grupo 1081358">
                  <path id="Trazado_722846" data-name="Trazado 722846" d="M250.371,129.1s9.616-4.937,15.023-2.32c2.318,1.121,1.4-.869-.768-2.623-4.306-3.491-10.348.25-12.809-.477-.725-.214-4.233,2.068-4.1,3.9S248.116,130.182,250.371,129.1Z" transform="translate(-229.793 -122.644)" fill="#8e2119"/>
                  <path id="Trazado_722847" data-name="Trazado 722847" d="M234.487,132.34c-.806-1.3-4.281-1.121-4.665-.623a5.849,5.849,0,0,1-2.205,1.342h0c-1.141,2.07-.044,2.748.439,2.936a1.315,1.315,0,0,0,.2.064,29.207,29.207,0,0,1,5.183-1.4C235.487,134.288,235.293,133.637,234.487,132.34Z" transform="translate(-227.116 -123.775)" fill="#8e2119"/>
                </g>
                <g id="Grupo_1081359" data-name="Grupo 1081359" transform="translate(4.516 21.932)">
                  <path id="Trazado_722848" data-name="Trazado 722848" d="M274.721,159.536c-2.667,4.535-7.078,6.889-9.852,5.258s-2.861-6.63-.194-11.165,7.078-6.889,9.852-5.258S277.389,155,274.721,159.536Z" transform="translate(-236.262 -147.853)" fill="#df7660"/>
                  <path id="Trazado_722849" data-name="Trazado 722849" d="M238.5,162.691a10.879,10.879,0,0,0-6.192-3.037,37.246,37.246,0,0,0,9.492,11.432C242.672,168.836,241.389,165.372,238.5,162.691Z" transform="translate(-232.307 -149.387)" fill="#df7660"/>
                </g>
                <g id="Grupo_1081360" data-name="Grupo 1081360" transform="translate(4.229 9.854)">
                  <path id="Trazado_722850" data-name="Trazado 722850" d="M259.687,140.512l-2.982.448-.8-5.332a1.421,1.421,0,0,1,1.195-1.616l.171-.026a1.421,1.421,0,0,1,1.616,1.195Z" transform="translate(-235.086 -133.97)" fill="#17072b"/>
                  <path id="Trazado_722851" data-name="Trazado 722851" d="M235.941,146.685l-2.966.545-.974-5.3a1.421,1.421,0,0,1,1.141-1.655l.17-.031a1.421,1.421,0,0,1,1.655,1.141Z" transform="translate(-231.977 -134.782)" fill="#17072b"/>
                </g>
                <path id="Trazado_722852" data-name="Trazado 722852" d="M244.434,164.237s4.608,4.225,9.042-2.321C253.476,161.916,248.787,164.52,244.434,164.237Z" transform="translate(-229.367 -127.749)" fill="#d83a21"/>
              </g>
              <path id="Trazado_722853" data-name="Trazado 722853" d="M223.556,214.288c4.244-10.275,7.137-33.057,7.137-33.057l18-12.151q-.308-.762-.635-1.458l0-.009c-.219-.465-.443-.906-.667-1.316q-.294-.538-.585-1.014c-.041-.068-.08-.124-.12-.19-.151-.244-.3-.486-.448-.706l-.063-.09c-.161-.24-.319-.47-.468-.676-.023-.033-.044-.058-.068-.09-.143-.2-.283-.384-.41-.547l-.024-.03c-.137-.177-.266-.336-.378-.472l-.012-.014c-.114-.137-.216-.256-.3-.349l-.006-.007c-.082-.092-.148-.165-.193-.213l-.038-.04-.03-.031a7.963,7.963,0,0,1-1.016-.342c-7.7-3.24-17.055-15.158-16.633-23.06a53.964,53.964,0,0,0-1.623-14.19h0s5.936-4.448,8.9-14.834c0,0,5.085,13.514,20.327,14.853a15.322,15.322,0,0,1-9.216-12.173s1.875,8.212,13.111,3.6c0,0,4.982,10.245,11.906,10.58a8.018,8.018,0,0,1-4.467-4.914s4.842,3.619,9.8,1.364l0,0s2.892,3.473,2.073,6.3-4.551,4.02-5.7,1.117c0,0,1.117,4.767,6.312,1.676,4.734-2.816,2.93-12.149,2.572-13.786,3.537-3.563,7.506-5.142,10.356-3.662,4.25,2.206,4.392,10.357.318,18.205s-10.824,12.421-15.073,10.215c-.137-.071-.258-.165-.386-.249a4.939,4.939,0,0,1-.641-.5,26.6,26.6,0,0,1-4.138,7.587c-.462.543-1.015,1.109-1.615,1.685.02.1.047.216.069.322.036.171.069.338.111.519.02.087.047.184.069.273.052.213.1.425.165.652.01.039.024.084.035.123.079.288.162.584.256.9.035.116.077.245.114.365.077.249.151.494.238.761.08.248.173.519.262.784.053.157.1.3.156.465.451,1.312,1,2.821,1.676,4.582h0s31.179,8.343,38.773,14.82c6.187,5.277,7.927,14.957,10.292,31.307a58.213,58.213,0,0,0-1.483-27.308,35.909,35.909,0,0,1,6.7,25.91s6.477-19.04-5.584-42.689S295.8,118.225,287.311,96.782c0,0,8.488,10.915,15.188-3.812,0,0,14.63-4.564,4.691-16.626,0,0,5.137,2.011,6.031,9.492,0,0,1.676-17.534-19.991-21.108s-28.143,1.117-29.037,4.579,5.137,7.483,5.137,7.483-21.554-2.233-35.458,6.478-19.154,20.209-21.5,30.542-.224,26.578,2.233,31.8c0,0-.335-11.418,2.011-16.443,0,0,4.02,16.586-.224,33.924s-12.731,36.1-8.376,52.852c2.094,8.054,7.44,13.752,12.874,17.493C220.685,226.454,221.392,219.528,223.556,214.288Z" transform="translate(-206.809 -63.45)" fill="#281a19"/>
              <path id="Trazado_722854" data-name="Trazado 722854" d="M278.674,78.738s9.76,1.83,17.981,19.991C296.655,98.729,295.412,75.627,278.674,78.738Z" transform="translate(-216.152 -65.4)" fill="#ff4401"/>
            </g>
            <g id="Grupo_1081364" data-name="Grupo 1081364" transform="translate(26.038 238.918)">
              <path id="Trazado_722855" data-name="Trazado 722855" d="M319.731,358.917c-4.568-7.445-11.046-17.78-11.046-17.78l-77.908-3.067s4.179,11.317,2.689,12.806-71.177,18.167-83.685,21.443-11.614,19.953-10.423,31.866,11.614,74.751,11.614,74.751h123.3l10.126-30.973s23.318-28.7,35.142-40.963C335.547,390.391,324.3,366.362,319.731,358.917ZM211.726,452.133c-9.828-20.549-5.763-36.333-5.763-36.333l40.011-12.784Z" transform="translate(-138.715 -338.07)" fill="#ff4401"/>
              <g id="Grupo_1081363" data-name="Grupo 1081363" transform="translate(6.449 12.34)">
                <path id="Trazado_722856" data-name="Trazado 722856" d="M310.624,373.732c-10.826-7.048-40.519,2.593-45.87,4.419a26.189,26.189,0,0,0,.806-8.163.436.436,0,0,0-.48-.411.447.447,0,0,0-.411.48c.451,5.954-1.908,12.58-4.973,18.48l-3.917-5.725a60.317,60.317,0,0,0,2.187-22.823.457.457,0,0,0-.492-.4.446.446,0,0,0-.4.492,59.11,59.11,0,0,1-2.214,22.655.447.447,0,0,0,.054.4l4.308,6.3-50.413,28.942a.454.454,0,0,0-.1-.124c-.082-.067-8.233-6.826-14.667-20.044a.446.446,0,0,0-.8.391A69.6,69.6,0,0,0,206.2,417.132c-8.494-3.786-37.157-17.037-47.793-28.023a.447.447,0,1,0-.642.621c12.611,13.026,50.106,29.116,50.484,29.278a.447.447,0,0,0,.558-.18.44.44,0,0,0,.038-.361l39.591-12.208a.444.444,0,0,0,.333-.15,91.781,91.781,0,0,0,6.471-8.391l.005-.006,0,0c3.454-5.025,7.364-11.73,9.244-18.522,2.963-1.023,34.824-11.752,45.648-4.708a.446.446,0,1,0,.485-.747Z" transform="translate(-147.624 -353.207)" fill="#2c1815"/>
                <path id="Trazado_722857" data-name="Trazado 722857" d="M314.082,442.655c-.469.1-47.226,10.545-68.757,19.984a.447.447,0,0,0,.18.856.453.453,0,0,0,.179-.037c21.451-9.4,68.124-19.826,68.592-19.93a.447.447,0,0,0-.194-.873Z" transform="translate(-158.989 -364.005)" fill="#2c1815"/>
                <path id="Trazado_722858" data-name="Trazado 722858" d="M311.341,448.577l-48,44.364a.447.447,0,0,0,.607.656l48-44.364a.447.447,0,1,0-.607-.656Z" transform="translate(-161.348 -364.761)" fill="#2c1815"/>
                <path id="Trazado_722859" data-name="Trazado 722859" d="M219.011,468.779c-.013.011-.157.144-.4.381-12.4,4.616-21.565,26.755-21.565,26.755H206.6a.447.447,0,0,0,.893,0c0-15.395,12-26.362,12.118-26.471a.447.447,0,0,0-.6-.665Z" transform="translate(-152.747 -367.388)" fill="#2c1815"/>
                <path id="Trazado_722860" data-name="Trazado 722860" d="M346.3,366.52a.449.449,0,0,0-.569-.276c-17.282,6.011-28.885-13.569-29-13.768a.447.447,0,0,0-.773.449c.1.177,9.091,15.363,23.181,15.363a20.847,20.847,0,0,0,6.884-1.2A.449.449,0,0,0,346.3,366.52Z" transform="translate(-168.198 -352.254)" fill="#2c1815"/>
                <path id="Trazado_722861" data-name="Trazado 722861" d="M146.5,403.2a.447.447,0,0,0-.371.512l12.806,79.755a.447.447,0,0,0,.441.376.5.5,0,0,0,.071-.005.447.447,0,0,0,.371-.512l-12.806-79.755A.451.451,0,0,0,146.5,403.2Z" transform="translate(-146.127 -358.877)" fill="#2c1815"/>
              </g>
              <path id="Trazado_722862" data-name="Trazado 722862" d="M244.533,338.07s4.179,11.317,2.689,12.806c0,0,31.375,4.965,80.978-.51-3.107-5-5.759-9.229-5.759-9.229Z" transform="translate(-152.472 -338.07)" fill="#292422"/>
            </g>
            <g id="Grupo_1081366" data-name="Grupo 1081366" transform="translate(0 179.783)">
              <path id="Trazado_722863" data-name="Trazado 722863" d="M231.362,307.939c-1.34-4.467-20.549-37.841-20.549-37.841l3.368,38.79s-20.18,4.262-29.575,4.67c0,0-23.676.261-29.1-.84s-11.563,2.91-11.563,2.91l-4.4-3.5s-2.439-6.492-3.54-8.773-3.54-3.461-3.383-1.652,1.18,6.45,1.573,9.5a13.936,13.936,0,0,0,2.832,5.991L133,313.9l-1.573-7.63c.551-2.2-.629-7.394-1.415-7.63S126,306.975,126,306.975l.629,8.731-4.484-5.742s-.866-4.326-1.416-6.214-2.124-2.832-2.91-2.6-.551,7.787-.315,8.338,3.068,8.338,3.068,8.338l-4.091-.944c-3.147-4.247-6.293-3.933-7.316-3.933s.157,1.966,1.73,3.933,4.641,5.113,7,5.27,12.192,1.652,12.822,1.73,2.517,1.888,2.989,1.73,2.754-.471,4.326-.786,23.886,4.33,26.37,3.172a7.043,7.043,0,0,1,3.648-.111c.644.157,44.264,8.2,52.025,9.753,7.818,1.563,11.5,1.563,14.965-.67S232.7,312.407,231.362,307.939Z" transform="translate(-108.786 -270.098)" fill="#eaaaa0"/>
              <g id="Grupo_1081365" data-name="Grupo 1081365" transform="translate(11.567 45.387)">
                <path id="Trazado_722864" data-name="Trazado 722864" d="M155.718,333.413a20.451,20.451,0,0,1-5.953-1.622c-2.517-1.256-8.339-7.668-8.4-7.733a.224.224,0,0,0-.331.3c.241.266,5.938,6.54,8.529,7.833a20.54,20.54,0,0,0,6.108,1.668h.023a.223.223,0,0,0,.222-.2A.226.226,0,0,0,155.718,333.413Z" transform="translate(-124.538 -322.49)" fill="#cc662e"/>
                <path id="Trazado_722865" data-name="Trazado 722865" d="M129.483,322.433a.223.223,0,1,0-.432.113c.072.276,1.794,6.786,4.186,8.313a.223.223,0,1,0,.24-.377C131.233,329.05,129.5,322.5,129.483,322.433Z" transform="translate(-122.987 -322.267)" fill="#cc662e"/>
                <path id="Trazado_722866" data-name="Trazado 722866" d="M122.506,324.835a.223.223,0,1,0-.4.192l2.347,4.935a.224.224,0,0,0,.2.127.22.22,0,0,0,.1-.022.223.223,0,0,0,.105-.3Z" transform="translate(-122.081 -322.584)" fill="#cc662e"/>
                <path id="Trazado_722867" data-name="Trazado 722867" d="M174.834,334.525c-.06-.024-5.98-2.53-5.332-10.3a.223.223,0,1,0-.445-.037c-.676,8.1,5.546,10.724,5.61,10.748a.22.22,0,0,0,.084.017.223.223,0,0,0,.084-.43Z" transform="translate(-128.182 -322.49)" fill="#cc662e"/>
              </g>
            </g>
            <g id="Grupo_1081368" data-name="Grupo 1081368" transform="translate(99.326 97.601)">
              <path id="Trazado_722868" data-name="Trazado 722868" d="M329.667,268.772c-.837-8.867-2.206-21.653-4.169-34.8-.662-4.434-1.232-8.5-1.77-12.213-2.365-16.35-4.1-26.029-10.292-31.307-7.594-6.477-38.772-14.82-38.773-14.82h0s-2.772,30.456-13.009,42.74S250.8,183.661,250.8,183.661l-.006,0-18,12.151s-2.893,22.782-7.137,33.057c-2.165,5.24-2.871,12.166-2.664,19.146.2,6.706,3.028,19.129,4.451,24.492,2.9,10.944,7.148,51.514,7.148,51.514,19.879,7.818,87.259-4.393,87.259-4.393a58.709,58.709,0,0,0-5.062-14.816,117.412,117.412,0,0,1-6.7-18.539l20.028-7.639.358,4.507.21-2.452,3.108-13.327Z" transform="translate(-222.955 -175.635)" fill="#018b87"/>
              <g id="Grupo_1081367" data-name="Grupo 1081367" transform="translate(13.868 34.625)">
                <path id="Trazado_722869" data-name="Trazado 722869" d="M337.877,273.508l-34.159,6.64-5.888-64.306a.447.447,0,1,0-.89.081l-3.385,66.2-6.433,1.25a.447.447,0,0,0-.146.82l19.262,11.734a.446.446,0,0,0,.464-.763L288.425,284.03l49.623-9.646a.448.448,0,0,0,.353-.525A.452.452,0,0,0,337.877,273.508Z" transform="translate(-245.119 -215.434)" fill="#2c1815"/>
                <path id="Trazado_722870" data-name="Trazado 722870" d="M294.479,320.091a.508.508,0,0,0,.094.01.447.447,0,0,0,.094-.884c-31.072-6.694-53.757-28.89-53.982-29.113a.447.447,0,0,0-.629.635C240.282,290.963,263.144,313.34,294.479,320.091Z" transform="translate(-239.029 -225.125)" fill="#2c1815"/>
                <path id="Trazado_722871" data-name="Trazado 722871" d="M259.6,339.49a198.789,198.789,0,0,1-20.211-.7.455.455,0,0,0-.493.4.447.447,0,0,0,.395.493c.128.014,6.682.709,18.426.709a379.054,379.054,0,0,0,48.7-3.35.447.447,0,1,0-.116-.886,381.852,381.852,0,0,1-46.438,3.336l46.592-19.542-5.832-12.162,1.7,11.309Z" transform="translate(-238.896 -227.441)" fill="#2c1815"/>
              </g>
              <path id="Trazado_722872" data-name="Trazado 722872" d="M259.357,222.658c7.979,4.652,14.509-10.525,18.16-22.193,3.28-10.48,5.676-21.257,6.13-23.343-3.2-.932-5.275-1.488-5.275-1.488h0s-2.772,30.456-13.009,42.74-10.854-34.714-10.854-34.714l-.006,0-3.024,2.041C251.516,190.3,252.033,218.388,259.357,222.658Z" transform="translate(-226.664 -175.635)" fill="#13a59d"/>
            </g>
            <g id="Grupo_1081370" data-name="Grupo 1081370" transform="translate(74.792 200.604)">
              <path id="Trazado_722873" data-name="Trazado 722873" d="M328.145,322.07v-.018a16.238,16.238,0,0,0-.137-2.265l-1.559-25.755L294.889,306s3.8,7.093,5.927,12.364L245.83,340.972c-6.552,2.233-11.093-.6-11.093-.6-3.648-.6-4.244-11.54-4.244-11.54-4.989-1.191-12.434-8.93-12.434-8.93-1.861,1.2-8.935,1.038-8.935,1.038-1.936,2.532-7.669,2.68-6.7,4.914s9.009.149,9.009.149c1.563,1.042,5.51.521,5.51.521l3.35,4.02-4.592.372c-3.922-2.085-11.192-4.17-11.266-1.712s3.35,4.02,3.35,4.02a28.289,28.289,0,0,1-6.031,2.532c-3.8,5.062-8.935,5.733-6.254,7.893,1.857,1.5,7.919-1.583,11.469-3.616-3.293,2.03-8.468,5.4-8.416,6.519.074,1.638,5.063.224,5.063.224s-1.563.967,0,2.532,10.572-.745,11.317-.745,8.785,4.84,11.614,7.519,7.371,2.9,7.371,2.9,58.67-8.636,78.177-16.827c13.963-5.862,16.012-15.237,16.05-20.093Z" transform="translate(-194.755 -294.031)" fill="#eab8b5"/>
              <g id="Grupo_1081369" data-name="Grupo 1081369" transform="translate(6.777 22.648)">
                <path id="Trazado_722874" data-name="Trazado 722874" d="M208.875,346.37l5.379-3.223,9.226-1.445a.224.224,0,0,0-.069-.442l-9.27,1.452a.216.216,0,0,0-.08.029l-5.417,3.245a.223.223,0,0,0,.115.415A.221.221,0,0,0,208.875,346.37Z" transform="translate(-203.324 -322.819)" fill="#cc662e"/>
                <path id="Trazado_722875" data-name="Trazado 722875" d="M224.152,347.57c-.284.028-6.965.678-9.261,1.2-2.312.53-9.776,4.6-10.093,4.77a.223.223,0,0,0,.214.392c.077-.042,7.727-4.211,9.98-4.727s9.135-1.189,9.2-1.2a.223.223,0,1,0-.044-.445Z" transform="translate(-202.822 -323.639)" fill="#cc662e"/>
                <path id="Trazado_722876" data-name="Trazado 722876" d="M239.208,346.414a.224.224,0,0,0-.021.316c.05.057,5.062,5.9,3.468,13.067a.224.224,0,0,0,.17.267.232.232,0,0,0,.049.005.224.224,0,0,0,.218-.175c1.643-7.4-3.516-13.4-3.568-13.461A.225.225,0,0,0,239.208,346.414Z" transform="translate(-207.301 -323.482)" fill="#cc662e"/>
                <path id="Trazado_722877" data-name="Trazado 722877" d="M231.557,332.453c-4.868-1.162-12.25-8.79-12.324-8.867a.221.221,0,0,0-.282-.033c-1.783,1.145-8.736,1-8.809,1a.254.254,0,0,0-.183.087c-.834,1.091-2.447,1.737-3.87,2.306-1.38.552-2.571,1.029-2.9,1.825a1.258,1.258,0,0,0,.041,1.007c.985,2.27,7.984.6,9.176.3,1.516.917,4.768.6,5.454.519l3,3.6-4.1.329c-3.354-1.769-9.093-3.565-10.926-2.5a1.163,1.163,0,0,0-.611,1.01c-.064,2.116,2.228,3.566,3.129,4.052a31.132,31.132,0,0,1-5.65,2.292.223.223,0,0,0,.064.438.2.2,0,0,0,.064-.01,28.153,28.153,0,0,0,6.079-2.551l3.218-1.83,4.608-.45h0l9.635-.773a.223.223,0,0,0-.036-.445l-4.929.395-3.279-3.935a.235.235,0,0,0-.2-.078c-.038.005-3.881.5-5.357-.486a.234.234,0,0,0-.18-.03c-2.185.566-8.017,1.669-8.748-.021a.815.815,0,0,1-.037-.659c.256-.621,1.42-1.087,2.652-1.581A9.78,9.78,0,0,0,210.245,325c.92.017,6.819.071,8.79-.982,1.021,1.043,7.717,7.744,12.42,8.866a.224.224,0,0,0,.1-.435Zm-19.522,2.535a.241.241,0,0,0-.089.028l-3.158,1.795c-.536-.268-3.182-1.7-3.119-3.761a.71.71,0,0,1,.388-.638c1.434-.83,6.354.481,9.871,2.195Z" transform="translate(-202.544 -320.512)" fill="#cc662e"/>
                <path id="Trazado_722878" data-name="Trazado 722878" d="M334.273,323.105c-8.64-5.74-17.645-1.6-17.736-1.562a.224.224,0,1,0,.191.4c.088-.041,8.87-4.068,17.3,1.529a.223.223,0,1,0,.248-.371Z" transform="translate(-217.348 -320.063)" fill="#cc662e"/>
              </g>
            </g>
          </g>
        </g>
        <g id="Grupo_1081383" data-name="Grupo 1081383" transform="translate(246.991 150.586)">
          <path id="Trazado_722879" data-name="Trazado 722879" d="M383.254,413.234l-16.748-67.651V342.76h-.7L339.975,238.415a2.471,2.471,0,0,0-4.8,1.186l4.92,19.925H315.889l-5.226-21.111a2.471,2.471,0,0,0-4.8,1.186l43.162,174.82a2.471,2.471,0,0,0,2.4,1.878h.117a2.471,2.471,0,0,0,2.4-3.064l-2.36-9.533h24.112l2.647,10.719a2.471,2.471,0,0,0,2.4,1.878h.117A2.472,2.472,0,0,0,383.254,413.234Zm-45.63-65.914h24.15l5.827,23.6H343.466Zm-1.128-4.56-6.123-24.731h24.169l6.107,24.731Zm16.921-29.292H329.243L323.259,289.3h24.188Zm-12.192-49.383,5.1,20.654H322.131l-5.113-20.654Zm9.229,135.055L344.6,375.482h24.131l5.841,23.659Z" transform="translate(-305.793 -236.538)" fill="#2c4355"/>
          <g id="Grupo_1081382" data-name="Grupo 1081382" transform="translate(16.791 17.606)">
            <g id="Grupo_1081374" data-name="Grupo 1081374" transform="translate(30.01 126.816)">
              <path id="Trazado_722880" data-name="Trazado 722880" d="M379.175,413.6l.378-11.054-7.073.893-.295,10.161S375.221,418.991,379.175,413.6Z" transform="translate(-361.226 -402.541)" fill="#d79081"/>
              <g id="Grupo_1081373" data-name="Grupo 1081373" transform="translate(0 11.054)">
                <path id="Trazado_722881" data-name="Trazado 722881" d="M377.537,415.247l1.429,5.877H359.588a7.274,7.274,0,0,1,5.4-3.971c4.13-.794,5.559-1.906,5.559-1.906S373.089,418.265,377.537,415.247Z" transform="translate(-359.588 -415.247)" fill="#26597f"/>
                <rect id="Rectángulo_378333" data-name="Rectángulo 378333" width="19.378" height="1.271" transform="translate(19.378 7.147) rotate(180)" fill="#22374c"/>
              </g>
            </g>
            <g id="Grupo_1081375" data-name="Grupo 1081375" transform="translate(29.631)">
              <path id="Trazado_722882" data-name="Trazado 722882" d="M360.28,268.613c-2.142,5.082-1.141,10.356,2.237,11.78s7.853-1.542,9.994-6.624,1.141-10.355-2.236-11.78S362.421,263.531,360.28,268.613Z" transform="translate(-359.152 -257.406)" fill="#efcdca"/>
              <path id="Trazado_722883" data-name="Trazado 722883" d="M385.707,262.269c-2.447-4.127-6.2-6.426-8.373-5.136-1.393.827-1.8,2.924-1.274,5.407a5.932,5.932,0,0,0-1.79-1.056c-4.322-1.512-6.232-.592-7.082-1.075s-7.873-.418-5.244,6.866a4.925,4.925,0,0,0,3.07,3.44l-.853,4.229s-.044,4.089-1.8,4.907,9.69,4.764,14.012-.048a12.7,12.7,0,0,0,3.488-8.609h0c2.97,3.334,3.377.914,3.377.914a3.335,3.335,0,0,0,2.96-.03C388.375,270.788,388.155,266.4,385.707,262.269Z" transform="translate(-359.439 -256.775)" fill="#4c1813"/>
              <path id="Trazado_722884" data-name="Trazado 722884" d="M366.676,270.581c1.054.582,1.037,2.632-.037,4.578s-2.8,3.052-3.855,2.47c-.034-.019-.063-.043-.1-.065a1.255,1.255,0,0,1-.17-.141c-.766-.758-.671-2.577.28-4.326.008-.015.015-.03.023-.045a5.866,5.866,0,0,1,2.142-2.3A1.771,1.771,0,0,1,366.676,270.581Z" transform="translate(-359.523 -258.549)" fill="#de9595"/>
            </g>
            <g id="Grupo_1081377" data-name="Grupo 1081377" transform="translate(10.737 61.344)">
              <path id="Trazado_722885" data-name="Trazado 722885" d="M365.806,401.109l10.824.219h0l4.266-70.42-13.313-3.623-17.774,4.168-12.267,21.935s-1.6,4.813,7.583,12.1,15.9,13.416,15.9,13.416h0l1.731,1.609,3.055,20.591m-4.494-42.47-6.125-4.813,6.125-4.812Z" transform="translate(-337.434 -327.285)" fill="#68bb9f"/>
              <g id="Grupo_1081376" data-name="Grupo 1081376" transform="translate(1.086 7.074)">
                <path id="Trazado_722886" data-name="Trazado 722886" d="M356.7,357.431a.224.224,0,0,0,.271-.356l-3.9-2.956a.223.223,0,1,0-.271.356Z" transform="translate(-340.507 -337.842)" fill="#407f68"/>
                <path id="Trazado_722887" data-name="Trazado 722887" d="M380.962,335.493a.222.222,0,0,0-.315-.02l-16.333,14.375a.223.223,0,0,0-.02.315.223.223,0,0,0,.315.02l16.333-14.376A.22.22,0,0,0,380.962,335.493Z" transform="translate(-342.005 -335.417)" fill="#407f68"/>
                <path id="Trazado_722888" data-name="Trazado 722888" d="M378.99,409.951h-8.335a.224.224,0,1,0,0,.447h8.335a.224.224,0,0,0,0-.447Z" transform="translate(-342.81 -345.107)" fill="#407f68"/>
                <path id="Trazado_722889" data-name="Trazado 722889" d="M339.107,359.162a.223.223,0,0,0-.4.2c2.819,5.788,22.317,20.74,23.145,21.373a.223.223,0,1,0,.272-.354C361.92,380.222,341.88,364.856,339.107,359.162Z" transform="translate(-338.683 -338.487)" fill="#407f68"/>
                <path id="Trazado_722890" data-name="Trazado 722890" d="M373.309,375.432,364.643,363.1a.223.223,0,0,0-.365.257l8.57,12.2-7.126,9.417a.223.223,0,0,0,.043.312.221.221,0,0,0,.135.045.224.224,0,0,0,.178-.089l7.224-9.546A.222.222,0,0,0,373.309,375.432Z" transform="translate(-342.005 -339.003)" fill="#407f68"/>
              </g>
            </g>
            <path id="Trazado_722891" data-name="Trazado 722891" d="M396.671,371.231l-11.973,3,.676-11.164Z" transform="translate(-332.842 -270.593)" fill="#93bcb7"/>
            <path id="Trazado_722892" data-name="Trazado 722892" d="M337.416,319.357s-.844-2.62-5.677-3.4c-.685-.11-1.221-.18-1.653-.222l.342,1.382c1.216.746,2.232,1.992-.252,2.52a29.3,29.3,0,0,0-3.982,1.131l-.072-.293a1.959,1.959,0,0,0-.959.837h0c-.209.223,0,.395.908.459.764.055,1.2.079,1.45.082-.3.117-.638.264-.959.422l-.08-.323a1.952,1.952,0,0,0-1.233,1.294h0c-.081.24.16.429.972.492.621.048.921.082,1.072.1-.111.058-.211.115-.3.17l-.03-.1a1.05,1.05,0,0,0-.742.887s0,.006,0,.009v0h0c-.049.319.312.517.678.565a4.6,4.6,0,0,0,2.387-.267,14.979,14.979,0,0,0-1.782.986l-.069-.278a1.75,1.75,0,0,0-.4.754h0c-.022.14.159.224.686.2C330,326.674,339.406,324.755,337.416,319.357Z" transform="translate(-325.093 -264.44)" fill="#efcdca"/>
            <g id="Grupo_1081379" data-name="Grupo 1081379" transform="translate(8.668 24.039)">
              <path id="Trazado_722893" data-name="Trazado 722893" d="M382.276,318.6l1.969-1.385s-9.187-26.687-10.062-28.874-4.229-3.938-6.2-3.938-7.262.419-7.262.419l-4.332,1.476s-2.042.584-4.375,6.052-3.573,7.8-3.573,7.8l-13.387,12.22,2.81,7.614,11.451-5.907,1.587,48.486s31.717-8.041,39.311-1.563C390.217,361,387.513,336.061,382.276,318.6Z" transform="translate(-335.056 -284.406)" fill="#b1e4df"/>
              <g id="Grupo_1081378" data-name="Grupo 1081378" transform="translate(1.219 10.706)">
                <path id="Trazado_722894" data-name="Trazado 722894" d="M362.381,307.921l2.011-10.944a.224.224,0,0,0-.44-.08l-1.994,10.857L351.285,315.5a.223.223,0,0,0,.131.4.22.22,0,0,0,.13-.043l10.745-7.8A.222.222,0,0,0,362.381,307.921Z" transform="translate(-338.373 -296.712)" fill="#6ab79d"/>
                <path id="Trazado_722895" data-name="Trazado 722895" d="M388,320.426a.223.223,0,0,0,.209-.3l-8.7-23.266a.224.224,0,0,0-.419.157l8.7,23.266A.226.226,0,0,0,388,320.426Z" transform="translate(-341.998 -296.712)" fill="#6ab79d"/>
                <path id="Trazado_722896" data-name="Trazado 722896" d="M391.636,368.911c-9.137-5.919-35.029,1.027-36.127,1.326a.224.224,0,0,0,.117.432c.268-.072,26.8-7.193,35.767-1.382a.223.223,0,0,0,.243-.375Z" transform="translate(-338.913 -305.789)" fill="#6ab79d"/>
                <path id="Trazado_722897" data-name="Trazado 722897" d="M362.7,343.522a3.912,3.912,0,0,0,3.18-1.509c3.671-4.545.873-17.818.751-18.381a.223.223,0,0,0-.332-.145l-10.847,6.471a.226.226,0,0,0-.109.179c-.019.321-.436,7.906,2.975,11.528A5.79,5.79,0,0,0,362.7,343.522Zm-6.916-13.241,10.474-6.248c.4,2.043,2.514,13.69-.725,17.7a3.482,3.482,0,0,1-2.832,1.342,5.359,5.359,0,0,1-4.057-1.715C355.584,338.116,355.741,331.261,355.78,330.281Z" transform="translate(-338.909 -300.189)" fill="#6ab79d"/>
                <path id="Trazado_722898" data-name="Trazado 722898" d="M336.608,316.366a.222.222,0,0,0-.138.284l2.048,5.972a.223.223,0,0,0,.211.151.207.207,0,0,0,.072-.012.222.222,0,0,0,.138-.284l-2.048-5.972A.223.223,0,0,0,336.608,316.366Z" transform="translate(-336.458 -299.266)" fill="#6ab79d"/>
              </g>
            </g>
            <g id="Grupo_1081381" data-name="Grupo 1081381" transform="translate(37.388 107.548)">
              <path id="Trazado_722899" data-name="Trazado 722899" d="M376.317,384.181l-3.978-3.787-4.272,5.626,3.642,3.416S377.768,390.71,376.317,384.181Z" transform="translate(-368.068 -380.394)" fill="#d79081"/>
              <g id="Grupo_1081380" data-name="Grupo 1081380" transform="translate(0.29 3.787)">
                <path id="Trazado_722900" data-name="Trazado 722900" d="M376.361,384.747l5.362,2.8-12.775,14.571a7.272,7.272,0,0,1,.574-6.678c2.125-3.629,2.232-5.437,2.232-5.437S375.7,390.081,376.361,384.747Z" transform="translate(-368.401 -384.747)" fill="#26597f"/>
                <rect id="Rectángulo_378334" data-name="Rectángulo 378334" width="19.378" height="1.271" transform="translate(14.301 3.639) rotate(131.241)" fill="#22374c"/>
              </g>
            </g>
          </g>
        </g>
        <g id="Grupo_1081386" data-name="Grupo 1081386" transform="translate(322.314 260.765)">
          <g id="Grupo_1081385" data-name="Grupo 1081385">
            <g id="Grupo_1081384" data-name="Grupo 1081384" transform="translate(0 18.042)">
              <path id="Trazado_722901" data-name="Trazado 722901" d="M455.125,388.806l-8.707,1.714c1.425.375,12.009,8.621,12.009,8.621C458.472,395.567,455.125,388.806,455.125,388.806Z" transform="translate(-399.398 -384.555)" fill="#2d543d"/>
              <path id="Trazado_722902" data-name="Trazado 722902" d="M405.583,392.422s8.706-6.782,9.878-7.091l-7.162-1.41S405.546,389.482,405.583,392.422Z" transform="translate(-394.089 -383.92)" fill="#2d543d"/>
              <path id="Trazado_722903" data-name="Trazado 722903" d="M392.372,410.423s12.076-3.144,16.242-2.414l-7.544-2.1A17.911,17.911,0,0,0,392.372,410.423Z" transform="translate(-392.372 -386.779)" fill="#2d543d"/>
              <path id="Trazado_722904" data-name="Trazado 722904" d="M411.041,408.323l.739.205A3.322,3.322,0,0,0,411.041,408.323Z" transform="translate(-394.799 -387.093)" fill="#2d543d"/>
            </g>
            <path id="Trazado_722905" data-name="Trazado 722905" d="M449.4,385.475l-8.707,1.714c-3.962,2.453-6.5,10.856-7.709,13.379s-4.438,6.164-3.965,8.386c.344,1.614.09,5.661-.073,7.761a49.869,49.869,0,0,0-2.212,6.126,155.113,155.113,0,0,1,.913-18.462h0v-.02a88.621,88.621,0,0,1,1.863-10.906c1.615-1.513,7.044-6.635,8.7-8.656a11.668,11.668,0,0,0,3.176-7.652c.144-3.321.578-8.663.361-8.59s-4.043,2.671-5.125,4.331-4.4,3.971-5.558,5.992-2.6,6.857-2.021,7.833c.394.666.25,3.771.119,5.674a76.086,76.086,0,0,0-1.662,8.531,51.853,51.853,0,0,0-2.57-12.463c.272.253.437.41.437.41s-.8-9.826-1.458-12.832a11.666,11.666,0,0,0-4.038-7.234c-2.517-2.171-6.441-5.821-6.518-5.606s-.409,4.828.224,6.707.387,5.916,1.258,8.075,3.772,6.289,4.895,6.44c.724.1,2.854,1.917,4.28,3.2a50.686,50.686,0,0,1,3.045,16.77h.012c-.388,3.544-.613,7.017-.735,10.085-.385-2.365-.994-5.046-1.623-7.533a32.9,32.9,0,0,1-.061-6.4c.389-1.828-2.265-4.823-3.262-6.9s-3.082-8.988-6.341-11.005l-7.162-1.41s-.313,5.561,2.288,9.027,7.692,8.607,8.154,10.218c.372,1.3,4.353,5.4,5.88,6.94a56.749,56.749,0,0,1,1.94,11.085h.073c-.007.432-.012.852-.016,1.252-.568-.493-1.43-1.164-2.43-1.91-1.18-2.044-4.831-8.31-6.393-10.342a11.663,11.663,0,0,0-6.728-4.835c-3.2-.9-8.3-2.534-8.282-2.307s1.681,4.544,3.051,5.977,2.864,5.191,4.568,6.776,6.086,4.092,7.166,3.751c.821-.259,4.431.82,6.117,1.352a33.246,33.246,0,0,1,2.927,2.343c-.007,2.185.035,3.768.067,4.434-.006.04-.011.081-.017.121l.024,0a1.634,1.634,0,0,0,.02.226l.119.166.4-.113.028-.2a34.492,34.492,0,0,1,2.361-7.525c1.476-1.475,7.019-7.1,7.5-8.795.56-1.958,6.75-8.208,9.913-12.422S449.4,385.475,449.4,385.475Z" transform="translate(-393.672 -363.181)" fill="#42aa6f"/>
          </g>
          <path id="Trazado_722906" data-name="Trazado 722906" d="M432.034,441.758h-7.348a8.835,8.835,0,0,1-8.835-8.835v-.536h25.017v.536A8.834,8.834,0,0,1,432.034,441.758Z" transform="translate(-395.424 -372.179)" fill="#2c1815"/>
        </g>
        <g id="Grupo_1081389" data-name="Grupo 1081389" transform="translate(0 330.389)">
          <g id="Grupo_1081388" data-name="Grupo 1081388">
            <g id="Grupo_1081387" data-name="Grupo 1081387" transform="translate(0 10.739)">
              <path id="Trazado_722907" data-name="Trazado 722907" d="M59.236,458.461l-5.181,1.02c.848.224,7.146,5.129,7.146,5.129C61.227,462.485,59.236,458.461,59.236,458.461Z" transform="translate(-26.074 -455.933)" fill="#2d543d"/>
              <path id="Trazado_722908" data-name="Trazado 722908" d="M29.754,460.613s5.181-4.036,5.879-4.219l-4.262-.839S29.732,458.864,29.754,460.613Z" transform="translate(-22.915 -455.555)" fill="#2d543d"/>
              <path id="Trazado_722909" data-name="Trazado 722909" d="M21.893,471.325s7.185-1.871,9.665-1.436l-4.489-1.25A10.661,10.661,0,0,0,21.893,471.325Z" transform="translate(-21.893 -457.256)" fill="#2d543d"/>
              <path id="Trazado_722910" data-name="Trazado 722910" d="M33,470.075l.439.123A1.952,1.952,0,0,0,33,470.075Z" transform="translate(-23.337 -457.443)" fill="#2d543d"/>
            </g>
            <path id="Trazado_722911" data-name="Trazado 722911" d="M55.828,456.478l-5.181,1.02c-2.358,1.459-3.866,6.46-4.587,7.961s-2.641,3.668-2.359,4.99a23.776,23.776,0,0,1-.043,4.619,29.925,29.925,0,0,0-1.317,3.646,92.2,92.2,0,0,1,.544-10.986h0v-.012a52.8,52.8,0,0,1,1.108-6.49c.96-.9,4.192-3.948,5.176-5.15a6.943,6.943,0,0,0,1.89-4.554c.086-1.976.344-5.155.215-5.112a13.264,13.264,0,0,0-3.05,2.577c-.645.988-2.62,2.363-3.308,3.565s-1.547,4.08-1.2,4.661a11.335,11.335,0,0,1,.07,3.376,45.043,45.043,0,0,0-.988,5.076,30.839,30.839,0,0,0-1.529-7.416c.162.151.26.244.26.244s-.473-5.847-.867-7.636a6.941,6.941,0,0,0-2.4-4.3c-1.5-1.292-3.832-3.464-3.878-3.336a13.264,13.264,0,0,0,.133,3.991c.376,1.118.231,3.521.749,4.8s2.245,3.743,2.913,3.832a10.4,10.4,0,0,1,2.546,1.9,30.175,30.175,0,0,1,1.812,9.98h.007c-.231,2.109-.365,4.175-.438,6-.229-1.408-.592-3-.966-4.482a19.592,19.592,0,0,1-.037-3.806c.231-1.087-1.348-2.87-1.941-4.1s-1.834-5.348-3.773-6.548l-4.262-.839s-.186,3.309,1.362,5.371,4.578,5.122,4.852,6.08c.221.773,2.591,3.215,3.5,4.13a33.787,33.787,0,0,1,1.154,6.6h.043c0,.258-.007.507-.009.745-.338-.294-.851-.693-1.446-1.136-.7-1.216-2.874-4.945-3.8-6.154a6.943,6.943,0,0,0-4-2.877c-1.9-.533-4.941-1.508-4.929-1.373a13.235,13.235,0,0,0,1.816,3.557c.815.853,1.7,3.089,2.719,4.032s3.622,2.435,4.265,2.232a13.135,13.135,0,0,1,3.64.8,19.827,19.827,0,0,1,1.742,1.395c0,1.3.021,2.242.04,2.639l-.01.072.014,0a.9.9,0,0,0,.012.135l.07.1.238-.068.017-.12a20.463,20.463,0,0,1,1.405-4.477c.879-.878,4.177-4.224,4.466-5.234.333-1.166,4.017-4.884,5.9-7.391S55.828,456.478,55.828,456.478Z" transform="translate(-22.667 -443.211)" fill="#42aa6f"/>
          </g>
          <path id="Trazado_722912" data-name="Trazado 722912" d="M45.494,489.971H41.121a5.257,5.257,0,0,1-5.257-5.257v-.319H50.75v.319A5.256,5.256,0,0,1,45.494,489.971Z" transform="translate(-23.709 -448.565)" fill="#2c1815"/>
        </g>
        <g id="Grupo_1081399" data-name="Grupo 1081399" transform="translate(23.606 16.733)">
          <g id="Grupo_1081390" data-name="Grupo 1081390" transform="translate(0 143.836)">
            <path id="Trazado_722913" data-name="Trazado 722913" d="M82.594,262.664a1.562,1.562,0,0,0-2.193-.275L65.508,273.96,57.768,266.9a1.563,1.563,0,1,0-2.106,2.31l8.712,7.944a1.563,1.563,0,0,0,2.012.079l15.932-12.378A1.564,1.564,0,0,0,82.594,262.664Z" transform="translate(-49.823 -249.839)" fill="#42aa6f"/>
            <path id="Trazado_722914" data-name="Trazado 722914" d="M68.241,248.013a19.214,19.214,0,1,0,19.214,19.214A19.235,19.235,0,0,0,68.241,248.013Zm0,36.672A17.458,17.458,0,1,1,85.7,267.227,17.477,17.477,0,0,1,68.241,284.685Z" transform="translate(-49.027 -248.013)" fill="#42aa6f"/>
          </g>
          <g id="Grupo_1081394" data-name="Grupo 1081394" transform="translate(262.608 6.394)">
            <g id="Grupo_1081393" data-name="Grupo 1081393" transform="translate(3.607 0.619)">
              <rect id="Rectángulo_378335" data-name="Rectángulo 378335" width="69.406" height="97.458" transform="translate(0 11.222)" fill="#68bb9f"/>
              <g id="Grupo_1081391" data-name="Grupo 1081391" transform="translate(4.467 18.461)">
                <path id="Trazado_722915" data-name="Trazado 722915" d="M420.631,111.964H360.159V197.7h49.4l11.069-10.271Z" transform="translate(-360.159 -111.964)" fill="#fff"/>
                <path id="Trazado_722916" data-name="Trazado 722916" d="M427.7,198.7H414.506l2.122,10.271Z" transform="translate(-367.225 -123.241)" fill="#7d9ab7"/>
                <path id="Trazado_722917" data-name="Trazado 722917" d="M416.945,208.674,428.014,198.4l-11.069-2.01Z" transform="translate(-367.542 -122.94)" fill="#bfd8ef"/>
              </g>
              <path id="Trazado_722918" data-name="Trazado 722918" d="M402.953,93.424v-2.68h-21.96v2.68h-8.7v12.8h39.363v-12.8Zm-5.549,5.06H386.531a2.976,2.976,0,0,1,0-5.952H397.4a2.976,2.976,0,0,1,0,5.952Z" transform="translate(-357.269 -90.744)" fill="#ff4200"/>
              <g id="Grupo_1081392" data-name="Grupo 1081392" transform="translate(9.533 24.604)">
                <circle id="Elipse_6546" data-name="Elipse 6546" cx="9.79" cy="9.79" r="9.79" transform="translate(0 0.412)" fill="#b1e4df"/>
                <rect id="Rectángulo_378336" data-name="Rectángulo 378336" width="51.597" height="2.583" transform="translate(0 25.08)" fill="#b1e4df"/>
                <rect id="Rectángulo_378337" data-name="Rectángulo 378337" width="28.591" height="6.295" transform="translate(22.316 13.2)" fill="#b1e4df"/>
                <rect id="Rectángulo_378338" data-name="Rectángulo 378338" width="28.591" height="6.295" transform="translate(22.316)" fill="#b1e4df"/>
                <rect id="Rectángulo_378339" data-name="Rectángulo 378339" width="51.597" height="2.583" transform="translate(0 29.023)" fill="#b1e4df"/>
                <rect id="Rectángulo_378340" data-name="Rectángulo 378340" width="33.504" height="2.583" transform="translate(18.092 36.918)" fill="#b1e4df"/>
                <rect id="Rectángulo_378341" data-name="Rectángulo 378341" width="33.504" height="2.583" transform="translate(18.092 41.932)" fill="#b1e4df"/>
                <rect id="Rectángulo_378342" data-name="Rectángulo 378342" width="33.504" height="2.583" transform="translate(18.092 54.16)" fill="#b1e4df"/>
                <rect id="Rectángulo_378343" data-name="Rectángulo 378343" width="33.504" height="2.583" transform="translate(18.092 59.534)" fill="#b1e4df"/>
                <rect id="Rectángulo_378344" data-name="Rectángulo 378344" width="15.859" height="12.163" transform="translate(0 36.641)" fill="#b1e4df"/>
                <rect id="Rectángulo_378345" data-name="Rectángulo 378345" width="15.859" height="12.163" transform="translate(0 54.346)" fill="#b1e4df"/>
              </g>
              <path id="Trazado_722919" data-name="Trazado 722919" d="M382.693,162.115a1.067,1.067,0,0,0-1.5-.188l-10.169,7.9-5.284-4.819a1.067,1.067,0,0,0-1.438,1.577l5.949,5.424a1.067,1.067,0,0,0,1.374.054l10.879-8.452A1.067,1.067,0,0,0,382.693,162.115Z" transform="translate(-356.185 -99.969)" fill="#42aa6f"/>
              <path id="Trazado_722920" data-name="Trazado 722920" d="M382.693,181.783a1.067,1.067,0,0,0-1.5-.188l-10.169,7.9-5.284-4.819a1.067,1.067,0,0,0-1.438,1.577l5.949,5.424a1.067,1.067,0,0,0,1.374.054l10.879-8.452A1.067,1.067,0,0,0,382.693,181.783Z" transform="translate(-356.185 -102.526)" fill="#42aa6f"/>
            </g>
            <path id="Trazado_722921" data-name="Trazado 722921" d="M411.751,103.309l.579-8.522-8.681-.591.182-2.674-21.91-1.49-.182,2.674-8.681-.591-.579,8.522-14.987-1.02-6.614,97.234,69.246,4.71,6.614-97.234ZM387.326,92.19l10.849.738a2.977,2.977,0,0,1-.4,5.939l-10.849-.738a2.977,2.977,0,0,1,.4-5.939Z" transform="translate(-350.878 -90.032)" fill="none" stroke="#247f49" stroke-miterlimit="10" stroke-width="0.5"/>
          </g>
          <g id="Grupo_1081395" data-name="Grupo 1081395" transform="translate(66.142)">
            <path id="Trazado_722922" data-name="Trazado 722922" d="M164.6,100.454V88.977a6.294,6.294,0,0,0-6.294-6.294H131.347a6.294,6.294,0,0,0-6.294,6.294v18.53a6.294,6.294,0,0,0,6.294,6.294h22.06l22.634,13.868Z" transform="translate(-125.053 -82.683)" fill="#b1e4df"/>
            <path id="Trazado_722923" data-name="Trazado 722923" d="M154.932,95.817h-7.148V88.669a2.122,2.122,0,1,0-4.244,0v7.148h-7.148a2.122,2.122,0,1,0,0,4.244h7.148v7.148a2.122,2.122,0,1,0,4.244,0v-7.148h7.148a2.122,2.122,0,1,0,0-4.244Z" transform="translate(-126.251 -83.185)" fill="#42aa6f"/>
          </g>
          <g id="Grupo_1081397" data-name="Grupo 1081397" transform="translate(315.788 143.071)">
            <path id="Trazado_722924" data-name="Trazado 722924" d="M433.744,267.947l-.542-.093,3.543-20.608-.651-.111-3.543,20.608-.543-.093-2.685,8.472,1.735.3.651.112,1.736.3Z" transform="translate(-414.257 -247.134)" fill="#4e7191"/>
            <path id="Trazado_722925" data-name="Trazado 722925" d="M428.124,336.532l-6.508-1.119,1.857-10.792-.868-.15-.867-.149-1.856,10.792L413.373,334l-1.368,2.11,8.352,1.436,8.351,1.436Z" transform="translate(-412.005 -257.169)" fill="#5ec8a4"/>
            <path id="Trazado_722926" data-name="Trazado 722926" d="M434.183,284.518a2.951,2.951,0,0,0-2.408-3.409l-3.511-.6a2.951,2.951,0,0,0-3.409,2.408l-6.028,35.054,1.112.191-.112.651,6.833,1.175.112-.651,1.383.238Z" transform="translate(-412.892 -251.467)" fill="#a5d6d6"/>
            <g id="Grupo_1081396" data-name="Grupo 1081396" transform="translate(10.909 34.869)">
              <path id="Trazado_722927" data-name="Trazado 722927" d="M429.691,287.869l5.288.909a.33.33,0,1,0,.111-.651l-5.288-.909a.33.33,0,0,0-.111.651Z" transform="translate(-425.178 -287.214)" fill="#5ec8a4"/>
              <path id="Trazado_722928" data-name="Trazado 722928" d="M433.6,296.823l-5.288-.909a.33.33,0,0,0-.111.651l5.288.909a.33.33,0,1,0,.111-.651Z" transform="translate(-424.983 -288.344)" fill="#5ec8a4"/>
              <path id="Trazado_722929" data-name="Trazado 722929" d="M431.971,306.267l-5.288-.909a.33.33,0,0,0-.111.651l5.288.909a.33.33,0,1,0,.111-.651Z" transform="translate(-424.772 -289.572)" fill="#5ec8a4"/>
              <path id="Trazado_722930" data-name="Trazado 722930" d="M430.218,316.459l-5.288-.909a.33.33,0,0,0-.111.651l5.288.909a.33.33,0,1,0,.111-.651Z" transform="translate(-424.544 -290.897)" fill="#5ec8a4"/>
            </g>
          </g>
          <g id="Grupo_1081398" data-name="Grupo 1081398" transform="translate(25.103 62.97)">
            <path id="Trazado_722931" data-name="Trazado 722931" d="M108.3,155.755C98.536,152.4,95.42,162.34,95.42,162.34S92.3,152.4,82.538,155.755s-3.557,27.492,12.882,34.211C111.859,183.247,118.068,159.113,108.3,155.755Z" transform="translate(-77.881 -155.063)" fill="#42aa6f"/>
            <path id="Trazado_722932" data-name="Trazado 722932" d="M108.811,171.193a.461.461,0,0,0-.635.151l-1.605,2.606-3.445-10.737a.461.461,0,0,0-.86-.047l-4.8,10.8-2.56-5.051a.455.455,0,0,0-.438-.252.462.462,0,0,0-.406.3l-1.86,5.023-4.7-7.72a.472.472,0,0,0-.432-.22.462.462,0,0,0-.391.286l-3.461,8.535a.462.462,0,0,0,.254.6.468.468,0,0,0,.173.034.463.463,0,0,0,.428-.288l3.115-7.685,4.714,7.752a.455.455,0,0,0,.438.219.46.46,0,0,0,.388-.3l1.825-4.927,2.522,4.975a.461.461,0,0,0,.833-.021l4.7-10.585L106,175.189a.464.464,0,0,0,.384.318.456.456,0,0,0,.448-.217l2.131-3.46A.463.463,0,0,0,108.811,171.193Z" transform="translate(-78.572 -156.081)" fill="#fff"/>
          </g>
        </g>
      </g>
    </g>
  </g>
</svg>
