<svg xmlns="http://www.w3.org/2000/svg" xmlns:xlink="http://www.w3.org/1999/xlink" width="347" height="207" viewBox="0 0 347 207">
  <defs>
    <linearGradient id="linear-gradient" y1="0.5" x2="1" y2="0.5" gradientUnits="objectBoundingBox">
      <stop offset="0" stop-color="#444b8c"/>
      <stop offset="0.996" stop-color="#26264f"/>
    </linearGradient>
    <linearGradient id="linear-gradient-2" x1="0.839" y1="-0.188" x2="0.22" y2="0.933" xlink:href="#linear-gradient"/>
    <linearGradient id="linear-gradient-3" x1="0.34" y1="1.198" x2="1.228" y2="-1.374" gradientUnits="objectBoundingBox">
      <stop offset="0" stop-color="#ffc444"/>
      <stop offset="0.996" stop-color="#f36f56"/>
    </linearGradient>
    <linearGradient id="linear-gradient-4" x1="46.116" y1="-9.142" x2="46.378" y2="-16.092" xlink:href="#linear-gradient-3"/>
    <linearGradient id="linear-gradient-5" x1="-57.969" y1="6.206" x2="-57.708" y2="-0.75" xlink:href="#linear-gradient-3"/>
    <linearGradient id="linear-gradient-6" x1="0.487" y1="0.806" x2="0.536" y2="-0.735" xlink:href="#linear-gradient-3"/>
    <linearGradient id="linear-gradient-7" x1="0.827" y1="-0.202" x2="0.365" y2="0.931" xlink:href="#linear-gradient"/>
    <linearGradient id="linear-gradient-8" y1="0.5" x2="1.001" y2="0.5" gradientUnits="objectBoundingBox">
      <stop offset="0" stop-color="#ff9085"/>
      <stop offset="1" stop-color="#fb6fbb"/>
    </linearGradient>
    <linearGradient id="linear-gradient-9" x1="0" y1="0.5" x2="1.001" y2="0.5" xlink:href="#linear-gradient-8"/>
    <linearGradient id="linear-gradient-10" x1="0" y1="0.499" x2="1.001" y2="0.499" xlink:href="#linear-gradient-8"/>
    <linearGradient id="linear-gradient-11" x1="0" y1="0.5" x2="1.001" y2="0.5" xlink:href="#linear-gradient-8"/>
    <linearGradient id="linear-gradient-12" x1="-5.996" y1="-5.19" x2="-4.716" y2="3.965" gradientUnits="objectBoundingBox">
      <stop offset="0" stop-color="#311944"/>
      <stop offset="1" stop-color="#893976"/>
    </linearGradient>
    <linearGradient id="linear-gradient-13" x1="-16.404" y1="2.445" x2="-16.342" y2="-1.729" xlink:href="#linear-gradient-3"/>
    <linearGradient id="linear-gradient-14" x1="-2.596" y1="-6.595" x2="-1.316" y2="2.56" xlink:href="#linear-gradient-12"/>
    <linearGradient id="linear-gradient-15" x1="-4.313" y1="1.793" x2="-4.251" y2="-2.381" xlink:href="#linear-gradient-3"/>
    <linearGradient id="linear-gradient-16" x1="-3.123" y1="0.5" x2="-2.123" y2="0.5" xlink:href="#linear-gradient"/>
    <linearGradient id="linear-gradient-17" x1="-4.522" y1="0.5" x2="-3.074" y2="0.5" xlink:href="#linear-gradient"/>
    <linearGradient id="linear-gradient-18" x1="-0.973" y1="0.5" x2="0.028" y2="0.5" xlink:href="#linear-gradient"/>
    <linearGradient id="linear-gradient-19" x1="0.616" y1="1.504" x2="-0.593" y2="0.252" gradientUnits="objectBoundingBox">
      <stop offset="0.004" stop-color="#6165d7"/>
      <stop offset="1" stop-color="#aa80f9"/>
    </linearGradient>
    <linearGradient id="linear-gradient-20" x1="0.734" y1="1.578" x2="-0.707" y2="0.143" gradientUnits="objectBoundingBox">
      <stop offset="0" stop-color="#aa80f9"/>
      <stop offset="0.996" stop-color="#6165d7"/>
    </linearGradient>
    <linearGradient id="linear-gradient-21" x1="-0.866" y1="0.499" x2="0.135" y2="0.499" xlink:href="#linear-gradient-3"/>
    <linearGradient id="linear-gradient-22" x1="2.097" y1="1.604" x2="0.044" y2="0.089" xlink:href="#linear-gradient-19"/>
    <linearGradient id="linear-gradient-23" x1="-13.633" y1="6.498" x2="-13.633" y2="5.099" xlink:href="#linear-gradient-3"/>
    <linearGradient id="linear-gradient-24" x1="-4.532" y1="1.739" x2="-5.234" y2="0.126" gradientUnits="objectBoundingBox">
      <stop offset="0" stop-color="#444b8c"/>
      <stop offset="0.996" stop-color="#3e4177"/>
    </linearGradient>
    <linearGradient id="linear-gradient-25" x1="-36.808" y1="11.732" x2="-35.684" y2="9.354" xlink:href="#linear-gradient-3"/>
    <linearGradient id="linear-gradient-26" x1="4.35" y1="-3.52" x2="4.583" y2="6.379" xlink:href="#linear-gradient"/>
    <linearGradient id="linear-gradient-27" x1="11.896" y1="1.882" x2="11.541" y2="-8.952" xlink:href="#linear-gradient-3"/>
    <linearGradient id="linear-gradient-28" x1="5.454" y1="-1.189" x2="5.753" y2="2.683" xlink:href="#linear-gradient"/>
    <linearGradient id="linear-gradient-29" x1="6.237" y1="1.268" x2="6.059" y2="-3.813" xlink:href="#linear-gradient-3"/>
    <linearGradient id="linear-gradient-30" x1="1.637" y1="0.668" x2="2.642" y2="0.31" xlink:href="#linear-gradient"/>
    <linearGradient id="linear-gradient-31" x1="0.096" y1="1.998" x2="0.829" y2="8.142" xlink:href="#linear-gradient-3"/>
    <linearGradient id="linear-gradient-32" x1="1.031" y1="0.737" x2="2.648" y2="0.111" xlink:href="#linear-gradient"/>
    <linearGradient id="linear-gradient-33" x1="1.135" y1="0.683" x2="0.919" y2="0.44" xlink:href="#linear-gradient"/>
    <linearGradient id="linear-gradient-34" x1="2.069" y1="0.693" x2="3.474" y2="0.332" xlink:href="#linear-gradient"/>
    <linearGradient id="linear-gradient-35" x1="0.896" y1="0.5" x2="1.896" y2="0.5" xlink:href="#linear-gradient-20"/>
    <linearGradient id="linear-gradient-36" x1="0.942" y1="-0.146" x2="1.154" y2="0.812" xlink:href="#linear-gradient-20"/>
    <linearGradient id="linear-gradient-37" x1="1.943" y1="0.256" x2="2.781" y2="5.391" xlink:href="#linear-gradient-20"/>
    <linearGradient id="linear-gradient-38" x1="2.367" y1="0.968" x2="3.059" y2="-0.8" xlink:href="#linear-gradient-3"/>
    <linearGradient id="linear-gradient-39" x1="6.625" y1="0.616" x2="10.321" y2="-1.366" xlink:href="#linear-gradient-3"/>
    <linearGradient id="linear-gradient-40" x1="1.68" y1="2.309" x2="1.777" y2="1.469" xlink:href="#linear-gradient-8"/>
    <linearGradient id="linear-gradient-41" x1="4.194" y1="0.266" x2="5.118" y2="6.347" xlink:href="#linear-gradient-3"/>
    <linearGradient id="linear-gradient-42" x1="2.388" y1="2.359" x2="2.543" y2="1.493" xlink:href="#linear-gradient-8"/>
  </defs>
  <g id="Grupo_1085223" data-name="Grupo 1085223" transform="translate(-400 -5903)">
    <rect id="Rectángulo_377525" data-name="Rectángulo 377525" width="347" height="207" rx="8" transform="translate(400 5903)" fill="#dee4f0"/>
    <g id="Illustration" transform="translate(482.242 5914.432)">
      <g id="Grupo_1079350" data-name="Grupo 1079350" transform="translate(0 0)">
        <path id="Trazado_609519" data-name="Trazado 609519" d="M661.461,581.391c-9.09,24.182-27.938,36.877-35.149,41.159-37.166,22.067-92.963,15.322-121.479-20.083-18.264-22.671-18.5-48.62-18.317-56.008,1.011-40.121,30.565-84.327,74.147-90.665,48.245-7.014,81.372,35.432,84.59,39.7C649.134,500.65,677.282,539.287,661.461,581.391Z" transform="translate(-486.488 -455.013)" fill="#f4f7fa"/>
        <g id="Grupo_1079343" data-name="Grupo 1079343" transform="translate(6.575 3.665)">
          <path id="Trazado_609520" data-name="Trazado 609520" d="M712.6,740.544,591.88,733.839c-2.778-.131-5.28,2.785-5.28,5.228v149.28c0,3.4,3.612,4.079,6.39,3.8L712.6,880.42a4.424,4.424,0,0,0,3.947-4.289v-131.5A4.157,4.157,0,0,0,712.6,740.544Z" transform="translate(-586.6 -719.188)" fill="#97a6b7"/>
          <path id="Trazado_609521" data-name="Trazado 609521" d="M742.8,736.522l-120.954-5.714c-2.778-.131-5.044,1.76-5.044,4.223V885.48c0,2.463,2.266,4.243,5.044,3.967L742.8,877.494a4.446,4.446,0,0,0,3.947-4.322V740.64A4.172,4.172,0,0,0,742.8,736.522Z" transform="translate(-614.817 -716.355)" fill="#d8dee8"/>
          <path id="Trazado_609522" data-name="Trazado 609522" d="M654.826,916.517a2.31,2.31,0,0,1-2.726-2.148V764.243a2.451,2.451,0,0,1,2.726-2.285l120.954,5.484a2.256,2.256,0,0,1,2.141,2.227V902.443a2.4,2.4,0,0,1-2.141,2.338Z" transform="translate(-647.798 -745.461)" fill="#fff" opacity="0.74"/>
          <path id="Trazado_609523" data-name="Trazado 609523" d="M944.852,1048.333,841.4,1057.9V919.4l103.452,3.737Z" transform="translate(-824.666 -892.566)" fill="#fff"/>
          <path id="Trazado_609524" data-name="Trazado 609524" d="M1198.349,776.757l-41.349.5.926-8.952a2.47,2.47,0,0,1,2.1-2.292l7-1.031a2.489,2.489,0,0,0,1.891-1.4l.762-1.583L1188,763.084Z" transform="translate(-1119.539 -745.504)" fill="#97a6b7" opacity="0.3"/>
          <path id="Trazado_609525" data-name="Trazado 609525" d="M1220.335,536.263a2.193,2.193,0,0,0-2.108-1.773l-6.607-.282a5.183,5.183,0,0,1-5.09-5.431l.256-6.87a2.272,2.272,0,0,0-2.193-2.364l-2.174-.125a2.661,2.661,0,0,1-2.522-3.12,4.756,4.756,0,0,0-4.545-5.464,5.9,5.9,0,0,0-6.147,4.84,3.112,3.112,0,0,1-.46,1.222,3.444,3.444,0,0,1-3.047,1.563l-2.239-.131a2.948,2.948,0,0,0-2.988,2.121l-1.859,6.968a7.084,7.084,0,0,1-7.067,5.057l-7.251-.315a3.155,3.155,0,0,0-2.9,1.655l-4.368,8.321a.967.967,0,0,0,.86,1.445l62.851,2a1.133,1.133,0,0,0,1.143-1.294Zm-25.863-19.479a1.4,1.4,0,0,1-1.34-1.616,1.728,1.728,0,0,1,1.793-1.425,1.392,1.392,0,0,1,1.333,1.616A1.721,1.721,0,0,1,1194.472,516.784Z" transform="translate(-1119.451 -510.822)" fill="url(#linear-gradient)"/>
          <path id="Trazado_609526" data-name="Trazado 609526" d="M1226.035,539.063a2.194,2.194,0,0,0-2.108-1.773l-6.607-.282a5.183,5.183,0,0,1-5.09-5.431l.256-6.87a2.272,2.272,0,0,0-2.194-2.364l-2.174-.125a2.661,2.661,0,0,1-2.522-3.12,4.756,4.756,0,0,0-4.545-5.464,5.9,5.9,0,0,0-6.147,4.84,3.113,3.113,0,0,1-.46,1.222,3.445,3.445,0,0,1-3.047,1.563l-2.24-.131a2.948,2.948,0,0,0-2.988,2.121l-1.858,6.968a7.084,7.084,0,0,1-7.067,5.057l-7.251-.309a3.155,3.155,0,0,0-2.9,1.655l-4.367,8.321a.966.966,0,0,0,.86,1.445l62.851,2a1.133,1.133,0,0,0,1.143-1.294Zm-25.87-19.479a1.4,1.4,0,0,1-1.34-1.616,1.728,1.728,0,0,1,1.793-1.425,1.392,1.392,0,0,1,1.333,1.616A1.712,1.712,0,0,1,1200.165,519.584Z" transform="translate(-1124.776 -513.438)" fill="#97a6b7"/>
          <g id="Grupo_1079335" data-name="Grupo 1079335" transform="translate(37.829 10.986)">
            <path id="Trazado_609527" data-name="Trazado 609527" d="M1215.277,696.568c-5.609-3.323-9.91-.965-13.4-4.715-3.744-4.013-1.215-9.293-5.09-11.789-2.476-1.6-4.689-.19-7.573-.617a8.058,8.058,0,0,1-3.349-1.346l-1.55,5.812a7.084,7.084,0,0,1-7.067,5.057l-7.251-.309a3.155,3.155,0,0,0-2.9,1.655l-4.368,8.321a.966.966,0,0,0,.86,1.445l57.118,1.819A16.518,16.518,0,0,0,1215.277,696.568Z" transform="translate(-1162.606 -678.1)" fill="#fff" opacity="0.5"/>
          </g>
          <g id="Grupo_1079342" data-name="Grupo 1079342" transform="translate(29.508 37.21)">
            <g id="Grupo_1079336" data-name="Grupo 1079336" transform="translate(0.46 53.538)">
              <path id="Trazado_609528" data-name="Trazado 609528" d="M1052.574,1918.832v7.914l-8.761.282v-7.993l8.761-.2Zm.919-.932-10.593.25v9.832l10.593-.342v-9.74Z" transform="translate(-1042.9 -1916.238)" fill="#d8dee8"/>
              <path id="Trazado_609529" data-name="Trazado 609529" d="M1330.011,1901.716l-66.411,2.154v-9.7l66.411-1.569Z" transform="translate(-1249.105 -1892.6)" fill="#d8dee8"/>
            </g>
            <g id="Grupo_1079337" data-name="Grupo 1079337" transform="translate(0.46 66.818)">
              <path id="Trazado_609530" data-name="Trazado 609530" d="M1052.574,2134.845v7.914l-8.761.394v-7.993l8.761-.315Zm.919-.946-10.593.388v9.831l10.593-.479v-9.74Z" transform="translate(-1042.9 -2131.332)" fill="#d8dee8"/>
              <path id="Trazado_609531" data-name="Trazado 609531" d="M1330.011,2103.922l-66.411,3v-9.7l66.411-2.423Z" transform="translate(-1249.105 -2094.8)" fill="#d8dee8"/>
            </g>
            <g id="Grupo_1079338" data-name="Grupo 1079338" transform="translate(0.46 80.104)">
              <path id="Trazado_609532" data-name="Trazado 609532" d="M1052.574,2350.858v7.914l-8.761.506v-7.993l8.761-.427Zm.919-.959-10.593.519v9.832l10.593-.617V2349.9Z" transform="translate(-1042.9 -2346.432)" fill="#d8dee8"/>
              <path id="Trazado_609533" data-name="Trazado 609533" d="M1330.011,2306.216l-66.411,3.855v-9.7l66.411-3.271Z" transform="translate(-1249.105 -2297.1)" fill="#d8dee8"/>
            </g>
            <g id="Grupo_1079339" data-name="Grupo 1079339" transform="translate(0.46 93.39)">
              <path id="Trazado_609534" data-name="Trazado 609534" d="M1052.574,2566.779v7.914l-8.761.624v-7.986l8.761-.552Zm.919-.979-10.593.656v9.832l10.593-.749v-9.74Z" transform="translate(-1042.9 -2561.439)" fill="#d8dee8"/>
              <path id="Trazado_609535" data-name="Trazado 609535" d="M1330.011,2508.516l-66.411,4.709v-9.7l66.411-4.124Z" transform="translate(-1249.105 -2499.4)" fill="#d8dee8"/>
            </g>
            <path id="Trazado_609536" data-name="Trazado 609536" d="M1036.359,1124.194a.458.458,0,0,1-.322-.131.468.468,0,0,1-.138-.329V1077.86a.468.468,0,0,1,.138-.328.462.462,0,0,1,.328-.131l42.118,1.077a.458.458,0,0,1,.447.46v44.147a.464.464,0,0,1-.453.46l-42.118.65Zm.46-45.861v44.942l41.2-.637V1079.39Zm41.658,44.751Z" transform="translate(-1035.9 -1077.4)" fill="#d8dee8"/>
            <path id="Trazado_609537" data-name="Trazado 609537" d="M1817.074,1109.929l-32.174-.65v-5.78l32.174.821Z" transform="translate(-1735.709 -1101.786)" fill="#d8dee8"/>
            <path id="Trazado_609538" data-name="Trazado 609538" d="M1817.074,1346.152l-32.174-.263V1343l32.174.348Z" transform="translate(-1735.709 -1325.557)" fill="#d8dee8"/>
            <path id="Trazado_609539" data-name="Trazado 609539" d="M1817.074,1418.508l-32.174-.118v-2.89l32.174.2Z" transform="translate(-1735.709 -1393.295)" fill="#d8dee8"/>
            <path id="Trazado_609540" data-name="Trazado 609540" d="M1817.074,1490.863l-32.174.026V1488l32.174.059Z" transform="translate(-1735.709 -1461.034)" fill="#d8dee8"/>
            <g id="Grupo_1079341" data-name="Grupo 1079341" transform="translate(2.102 5.212)">
              <path id="Trazado_609541" data-name="Trazado 609541" d="M1230.136,1171.132a3.313,3.313,0,0,1-1.084-1.425c-.355-1.018.164-1.6.072-2.693s-.676-1.392-1.307-2.581c-.361-.683-1.655-3.133-.65-5.142a4.926,4.926,0,0,1,5.274-2.384c1.491.46,1.517,1.839,3.159,2.147,1.346.256,1.793-.591,3.139-.2a9.543,9.543,0,0,1,2.345,1.649,6.059,6.059,0,0,1,1.629,1.563,3.394,3.394,0,0,1-.144,2.66c-.506,1.333-1.143,1.346-1.557,2.443-.571,1.51.381,2.174,0,3.2C1240.067,1172.873,1232.658,1173.247,1230.136,1171.132Z" transform="translate(-1216.358 -1156.767)" fill="url(#linear-gradient-2)"/>
              <path id="Trazado_609542" data-name="Trazado 609542" d="M1067.9,1492.285V1474.7l6.134-.854,26.191-.243,6.627,1.044v17.1Z" transform="translate(-1067.9 -1452.792)" fill="#d8dee8"/>
              <path id="Trazado_609543" data-name="Trazado 609543" d="M1175.846,1306.5q.453,4.049.906,8.1a1.581,1.581,0,0,0,1.484,1.366c3.067.25,6.121,1.261,9.155,1.51l-13.595,4.131-12.6-3.888a58.877,58.877,0,0,0,8.472-1.747,1.566,1.566,0,0,0,1.149-1.281c.21-1.675.42-3.343.63-5.017Z" transform="translate(-1155.073 -1296.666)" fill="url(#linear-gradient-3)"/>
              <g id="Grupo_1079340" data-name="Grupo 1079340" transform="translate(12.41 3.751)">
                <path id="Trazado_609544" data-name="Trazado 609544" d="M1419.86,1315.327c-.2.874-1.176,1.924-1.556,1.846s-.532-.854-.335-1.727.663-1.517,1.044-1.438A1.05,1.05,0,0,1,1419.86,1315.327Z" transform="translate(-1407.307 -1307.425)" fill="url(#linear-gradient-4)"/>
                <path id="Trazado_609545" data-name="Trazado 609545" d="M1256.9,1313.337c.2.887,1.2,1.97,1.589,1.9s.538-.847.342-1.734-.677-1.55-1.064-1.478A1.037,1.037,0,0,0,1256.9,1313.337Z" transform="translate(-1256.864 -1305.573)" fill="url(#linear-gradient-5)"/>
                <path id="Trazado_609546" data-name="Trazado 609546" d="M1281.2,1219.709c0,3.947-2.4,8.571-5.372,8.551s-5.425-4.7-5.425-8.7,2.437-5.734,5.425-5.681S1281.2,1215.762,1281.2,1219.709Z" transform="translate(-1269.511 -1213.882)" fill="url(#linear-gradient-6)"/>
              </g>
              <path id="Trazado_609547" data-name="Trazado 609547" d="M1250.207,1199.986a2.842,2.842,0,0,0,1.563,2.305c1.011.381,1.97-.25,6.528-1.832.788-.276,1.13-.381,1.543-.263,1.852.545,1.563,4.61,2.226,4.643.526.026,1.694-2.5.847-4.945a6.758,6.758,0,0,0-3.454-3.6c-.23-.111-3.776-1.76-6.745-.052C1252.276,1196.492,1249.945,1197.911,1250.207,1199.986Z" transform="translate(-1238.215 -1192.93)" fill="url(#linear-gradient-7)"/>
            </g>
            <path id="Trazado_609548" data-name="Trazado 609548" d="M1073.373,1922.924a.794.794,0,0,1-.677-.328l-2.666-3.914a.706.706,0,0,1,.263-1.011.822.822,0,0,1,1.09.21l1.97,2.9,3.809-6.121a.822.822,0,0,1,1.07-.283.688.688,0,0,1,.282.985l-4.466,7.185a.836.836,0,0,1-.67.381Z" transform="translate(-1067.679 -1859.317)" fill="url(#linear-gradient-8)"/>
            <path id="Trazado_609549" data-name="Trazado 609549" d="M1073.373,2361.237a.763.763,0,0,1-.677-.309l-2.666-3.849a.717.717,0,0,1,.263-1.018.809.809,0,0,1,1.09.184l1.97,2.85,3.809-6.219a.847.847,0,0,1,1.07-.315.678.678,0,0,1,.282.979l-4.466,7.3a.856.856,0,0,1-.67.4Z" transform="translate(-1067.679 -2268.74)" fill="url(#linear-gradient-9)"/>
            <path id="Trazado_609550" data-name="Trazado 609550" d="M1073.373,2143.23a.768.768,0,0,1-.677-.315l-2.666-3.881a.717.717,0,0,1,.263-1.018.819.819,0,0,1,1.09.2l1.97,2.877,3.809-6.167a.842.842,0,0,1,1.07-.3.686.686,0,0,1,.282.985l-4.466,7.244a.826.826,0,0,1-.67.388C1073.379,2143.23,1073.379,2143.23,1073.373,2143.23Z" transform="translate(-1067.679 -2065.11)" fill="url(#linear-gradient-10)"/>
            <path id="Trazado_609551" data-name="Trazado 609551" d="M1073.373,2560.365a.745.745,0,0,1-.677-.3l-2.666-3.816a.726.726,0,0,1,.263-1.024.807.807,0,0,1,1.09.171l1.97,2.824,3.809-6.265a.851.851,0,0,1,1.07-.328.674.674,0,0,1,.282.978l-4.466,7.349a.862.862,0,0,1-.67.407C1073.379,2560.365,1073.379,2560.365,1073.373,2560.365Z" transform="translate(-1067.679 -2454.733)" fill="url(#linear-gradient-11)"/>
          </g>
        </g>
        <g id="Grupo_1079349" data-name="Grupo 1079349" transform="translate(53.768 52.958)">
          <g id="Grupo_1079345" data-name="Grupo 1079345">
            <path id="Trazado_609552" data-name="Trazado 609552" d="M1793.412,3146.6a20.667,20.667,0,0,0-.512,2.751c-.013.729,8.032,1.754,8.157,1.215s-1.222-1.517-2.194-1.9-3.829-1.438-3.829-1.438Z" transform="translate(-1760.869 -3022.787)" fill="url(#linear-gradient-12)"/>
            <path id="Trazado_609553" data-name="Trazado 609553" d="M1798.43,3113.883l-.46,2.522a1.846,1.846,0,0,1-1.78,0l-.19-2.8Z" transform="translate(-1763.765 -2991.955)" fill="url(#linear-gradient-13)"/>
            <path id="Trazado_609554" data-name="Trazado 609554" d="M1569.812,3179.5a20.666,20.666,0,0,0-.512,2.752c-.013.729,8.032,1.753,8.157,1.215s-1.222-1.517-2.193-1.9-3.829-1.438-3.829-1.438Z" transform="translate(-1551.954 -3053.526)" fill="url(#linear-gradient-14)"/>
            <path id="Trazado_609555" data-name="Trazado 609555" d="M1574.93,3146.782l-.46,2.522a1.847,1.847,0,0,1-1.78,0l-.19-2.8Z" transform="translate(-1554.944 -3022.694)" fill="url(#linear-gradient-15)"/>
            <path id="Trazado_609556" data-name="Trazado 609556" d="M1732.426,2077.912q1.172,2.955,2.345,5.9c-.112,10.863-.683,22.645-1.931,35.189-.926,9.332-2.135,18.146-3.52,26.4-1.261-.157-2.522-.322-3.783-.479a38.117,38.117,0,0,1-2.916-16.268c.361-7.106,2.588-7.875,2.995-14.672.526-8.813-2.975-11.454-4.091-22.192a56.8,56.8,0,0,1,.6-15.795Q1727.28,2076.946,1732.426,2077.912Z" transform="translate(-1693.906 -2022.5)" fill="url(#linear-gradient-16)"/>
            <path id="Trazado_609557" data-name="Trazado 609557" d="M1722.188,2075.9c1.852.342,3.7.689,5.556,1.031,2.9,6.121,3.343,12.288,2.542,14.941-1.143,3.744-3.448,4.788-3.632,8.63-.184,3.8,1.97,4.959,3.028,9.536.729,3.172.243,5.99-.755,11.506-2.023,11.106-5,14.311-3.028,18.166a8.279,8.279,0,0,0,3.816,3.56c-.112.683-.223,1.366-.335,2.042-1.261-.157-2.522-.322-3.783-.479a38.116,38.116,0,0,1-2.916-16.268c.361-7.106,2.588-7.874,2.995-14.672.525-8.814-2.975-11.454-4.092-22.191A56.58,56.58,0,0,1,1722.188,2075.9Z" transform="translate(-1693.96 -2022.406)" opacity="0.3" fill="url(#linear-gradient-17)"/>
            <path id="Trazado_609558" data-name="Trazado 609558" d="M1518.664,2100.265c-2.522,9.418-4.886,19.525-6.961,30.276-2.509,12.984-4.275,25.272-5.5,36.712l-4.177-.216c-4.611-11.27-4.354-18.646-3.179-23.361a68.846,68.846,0,0,0,2.187-10.751,77.334,77.334,0,0,0,.4-10.108c-.052-7.6-.716-9.312-.368-15.1.328-5.431.525-8.17,2.2-9.648C1507.67,2094.183,1517.889,2099.831,1518.664,2100.265Z" transform="translate(-1485.444 -2041.851)" fill="url(#linear-gradient-18)"/>
            <path id="Trazado_609559" data-name="Trazado 609559" d="M1498.18,1516.585c1.51-2.1.006-4.368-.04-8.584-.053-4.781,1.839-5.425,4.275-13.142,1.622-5.129,3.179-10.061,2.272-16.044-.434-2.87-1.169-7.737-4.939-10.357-1.944-1.353-4.742-1.458-10.252-1.609-6.811-.19-10.219-.282-12.859.847-.388.164-8.42,3.737-9.5,10.515-1.1,6.9,6.4,8.439,6.659,17.785.118,4.2-1.2,10.528-2.056,14.632-.821,3.941-1.248,4.932-.558,6.206,1.662,3.06,7.527,2.693,19.263,1.97C1495.053,1518.516,1497.05,1518.155,1498.18,1516.585Z" transform="translate(-1456.402 -1453.246)" fill="url(#linear-gradient-19)"/>
            <path id="Trazado_609560" data-name="Trazado 609560" d="M1482.128,1589.871c-.637,1.767-2.509,2.975-4.085,7.264-.342.926-2.771,7.526-.453,9.385,1.34,1.071,2.752-.644,6.206-.6,5.983.066,8.42,5.293,12.413,4.236a5.346,5.346,0,0,0,2.607-1.707,3.978,3.978,0,0,1-.637,2.844c-1.123,1.57-3.126,1.931-7.73,2.213-11.73.729-17.6,1.09-19.262-1.97-.69-1.268-.263-2.259.558-6.207.854-4.1,2.174-10.436,2.056-14.632-.269-9.346-7.756-10.883-6.659-17.785a10.866,10.866,0,0,1,2.134-4.807C1478.568,1572.763,1484.124,1584.322,1482.128,1589.871Z" transform="translate(-1456.402 -1547.955)" opacity="0.3" fill="url(#linear-gradient-20)"/>
            <path id="Trazado_609561" data-name="Trazado 609561" d="M1494.952,2092.9l1.819,1.379a4.545,4.545,0,0,1,2.509-1.287c1.432-.2,3.008.374,3.008.828,0,.361-1.011.643-1.162.689-1.261.354-2.141-.092-2.673.361a3.913,3.913,0,0,1-.959.729c-.138.066-.282.125-.355.151-.841.25-2.134-1.28-2.24-1.418Z" transform="translate(-1482.44 -2038.289)" fill="url(#linear-gradient-21)"/>
            <path id="Trazado_609562" data-name="Trazado 609562" d="M1325.388,1489.172c1.655-3.218,3.028-8.229,1.438-15.972-14.908,4.538-23.367,17.45-21.344,28.385,1.668,9.011,9.956,14,11.808,15.059.532-.985,1.057-1.97,1.589-2.949-2.029-2.667-4.256-6.541-3.559-10.705C1316.279,1497.217,1322.039,1495.681,1325.388,1489.172Z" transform="translate(-1305.185 -1459.288)" fill="url(#linear-gradient-22)"/>
            <path id="Trazado_609563" data-name="Trazado 609563" d="M1714.182,1363.8a15.4,15.4,0,0,1-1.254,4.348c-.847,1.655-4.663,2.43-5.451,2.752s1.294,1.609,3.461,2.01,8.439.4,9.628-.341-.841-.834-2.351-1.537-2.167-3.816-1.78-5.175S1714.182,1363.8,1714.182,1363.8Z" transform="translate(-1680.897 -1357.073)" fill="url(#linear-gradient-23)"/>
            <path id="Trazado_609564" data-name="Trazado 609564" d="M1779.164,1267.463c1.222-1.025,1.392-1.136,1.543-1.511a3.719,3.719,0,0,0-1.937-4.361c-.079-.033-1.1-.453-1.543-.033-.375.361.085.939-.21,1.668-.282.683-.893.683-2.088,1.51-.985.683-1.6,1.1-1.786,1.754a3.241,3.241,0,0,0,2.574,3.514C1776.242,1270.031,1776.406,1269.775,1779.164,1267.463Z" transform="translate(-1742.352 -1261.374)" fill="url(#linear-gradient-24)"/>
            <g id="Grupo_1079344" data-name="Grupo 1079344" transform="translate(32.261 5.038)">
              <path id="Trazado_609565" data-name="Trazado 609565" d="M1797.63,1341.9a3.232,3.232,0,0,0,2.962,1.156c1.675-.269,1.556-4.072.4-4.775a2.135,2.135,0,0,0-1.681-.053c-.335.131-.44.282-.991.486-.512.184-.664.144-.808.289-.184.184-.289.6.151,1.681a.928.928,0,0,0-1.011-.23.567.567,0,0,0-.2.243C1796.251,1341.15,1796.7,1341.669,1797.63,1341.9Z" transform="translate(-1796.402 -1338.082)" fill="url(#linear-gradient-25)"/>
            </g>
          </g>
          <g id="Grupo_1079348" data-name="Grupo 1079348" transform="translate(29.917 1.188)">
            <path id="Trazado_609566" data-name="Trazado 609566" d="M2343.1,3188.2a9.709,9.709,0,0,1,.066,2.108c-.131.525-4.722.913-6.279.729s.926-1.773,1.918-2.075S2343.1,3188.2,2343.1,3188.2Z" transform="translate(-2298.575 -3062.843)" fill="url(#linear-gradient-26)"/>
            <path id="Trazado_609567" data-name="Trazado 609567" d="M2403.4,3146.044l.486,3.166s1.235.552,1.826.007l.066-3.317Z" transform="translate(-2361.191 -3023.321)" fill="url(#linear-gradient-27)"/>
            <path id="Trazado_609568" data-name="Trazado 609568" d="M2786.4,3143.01s-.972.722-.716,1.589,2.528,4.334,4.151,5.313,1.11-1.064.637-2.344a24.339,24.339,0,0,0-2.148-4.558C2787.868,3142.537,2786.4,3143.01,2786.4,3143.01Z" transform="translate(-2718.332 -3020.425)" fill="url(#linear-gradient-28)"/>
            <path id="Trazado_609569" data-name="Trazado 609569" d="M2770.5,3093c.473,1.313.926,2.391,1.274,3.185a11.416,11.416,0,0,0,1.694,2.995c.42.5,1.425,1.563,1.695,1.386s-.46-1.471-1.872-5.261c-.2-.552-.854-2.3-.854-2.3H2770.5Z" transform="translate(-2704.181 -2973.895)" fill="url(#linear-gradient-29)"/>
            <path id="Trazado_609570" data-name="Trazado 609570" d="M2251.119,2257.2a82.255,82.255,0,0,0-.177,14.626c.63,8.091,2.246,13.214,4.275,21.837,1.241,5.274,2.909,13.03,4.42,22.737a4.254,4.254,0,0,0,2.712.532,4.187,4.187,0,0,0,1.629-.618c3.967-12.123,2.8-19.636.88-24.313a26.115,26.115,0,0,1-2.332-6.633c-.7-4.059.164-6.325,1.4-15.723.88-6.7.729-7.736.145-8.742C2261.733,2256.881,2254.574,2256.96,2251.119,2257.2Z" transform="translate(-2218.519 -2192.898)" fill="url(#linear-gradient-30)"/>
            <path id="Trazado_609571" data-name="Trazado 609571" d="M1768.642,1681.477s-.558-2.187-1.484-2.758-2.24-1.2-2.535-1.445-.65.506.217,1.083l.867.578a.91.91,0,0,1-.033.374,1.306,1.306,0,0,1-1.182.742,9.4,9.4,0,0,1-3.421.387c-.053-.013-.243-.079-.322.007-.131.138.105.571.2.729.6.919,2.686,1.313,4.243.6.571-.263.788-.545,1.2-.473.663.112,1.064.985,1.307,1.708Z" transform="translate(-1760.709 -1651.099)" fill="url(#linear-gradient-31)"/>
            <path id="Trazado_609572" data-name="Trazado 609572" d="M2465,2279.9c2.43,12.55,4.814,19.144,6.62,22.868a62.728,62.728,0,0,1,3.336,8.137,67.927,67.927,0,0,1,2.03,7.75c.841,3.849,2.909,9.464,8.479,16.833a2.129,2.129,0,0,0,1.931.1,1.889,1.889,0,0,0,.781-.808c-.729-7.047-1.563-12.964-2.292-17.528-.151-.959-.821-5.149-1.872-10.686-.413-2.167-1.018-5.346-1.74-8.6-.9-4.058-2.279-9.588-4.406-16.208Z" transform="translate(-2418.746 -2214.196)" fill="url(#linear-gradient-32)"/>
            <path id="Trazado_609573" data-name="Trazado 609573" d="M1854.2,1490.868c.631-.565,1.261-1.123,1.9-1.688a9.557,9.557,0,0,0,8.321,2.529c3.244-.69,5.116-3.356,6.318-5.057,3.605-5.109,1.445-8.859,5.326-12.334,1.077-.966,3.192-2.135,4.571-1.773,3.291.847,5.188,10.744,2,18.533-.644,1.57-4.183,10.226-12.216,11.165C1863.933,1503,1857.057,1498.428,1854.2,1490.868Z" transform="translate(-1848.06 -1459.802)" fill="#fff"/>
            <path id="Trazado_609574" data-name="Trazado 609574" d="M2345.625,1295.527c-1.379-1.274-4.013-2.745-5.339-6.154-.4-1.025-1.806-4.67.269-7.454a5.935,5.935,0,0,1,5.549-2.377c1.728.341,2,1.543,4.932,3.967a20.659,20.659,0,0,0,5.025,3.3c3.5,1.445,5.608.085,9.122.243,4.321.19,9.339,2.6,11.756,6.108,4.288,6.219-1.925,12.531,2.778,19.821,1.536,2.391,2.3,1.852,5.943,6.475s5.477,6.942,5.155,9.779c-.453,3.934-4.689,7.7-8.682,7.953-3.9.25-6.377-2.818-8.367-1.478-1.412.952-.6,2.811-2.108,5.044-1.937,2.877-5.74,3.455-6.351,3.547-5.7.86-13.385-5.826-16.648-13.746C2342.781,1316.261,2353.118,1302.449,2345.625,1295.527Z" transform="translate(-2301.439 -1279.46)" fill="url(#linear-gradient-33)"/>
            <path id="Trazado_609575" data-name="Trazado 609575" d="M2329.452,2295.444a26.124,26.124,0,0,1-2.331-6.633c-.7-4.058.164-6.324,1.4-15.722.88-6.7.729-7.737.145-8.741-1.274-2.181-3.967-3.153-6.712-3.547.04.138.072.282.1.42,1.445,6.587-4.065,10.606-1.576,17.851,1.221,3.573,3.179,4.387,3.632,8.531.427,3.881-1.123,4.689-.788,8.216.493,5.274,4.237,6.548,5.215,10.58.631,2.621.1,6.456-4.525,12.012.079.479.151.959.229,1.445a4.253,4.253,0,0,0,2.713.532,4.189,4.189,0,0,0,1.629-.617C2332.539,2307.64,2331.364,2300.126,2329.452,2295.444Z" transform="translate(-2283.106 -2196.35)" opacity="0.3" fill="url(#linear-gradient-34)"/>
            <path id="Trazado_609576" data-name="Trazado 609576" d="M1879.8,1587.247c-5.937,4.689-5.274,13.68-8.926,14.133-1.116.138-1.051-.716-3.71-1.576-3.888-1.261-5.714.013-8.452-.946a8.517,8.517,0,0,1-4.059-3.251c-.184.164-.368.328-.552.486,2.857,7.559,9.733,12.13,16.215,11.375,8.032-.939,11.572-9.589,12.216-11.165a23.818,23.818,0,0,0,1.51-11.2A12.449,12.449,0,0,0,1879.8,1587.247Z" transform="translate(-1847.966 -1565.027)" opacity="0.15" fill="url(#linear-gradient-35)"/>
            <path id="Trazado_609577" data-name="Trazado 609577" d="M2169.594,1449.73c.362-.565,1.517-2.128,6.429-3.284a28.236,28.236,0,0,1,12.859-.328,28.742,28.742,0,0,1,14.928,8.551,20.148,20.148,0,0,0-7.907,9.884c-.657,1.806-2.594,7.993.177,13.785,1.6,3.336,4.42,5.845,6.567,7.75,3.218,2.857,4.886,3.3,5.963,5.852,1.176,2.785-.007,4.144,1.452,6.049,1.569,2.049,3.4,1.1,6.062,3.166,2.719,2.121,1.753,3.868,4.229,6.213,3.6,3.409,8.367,2.3,8.59,3.835.19,1.32-3.2,3.106-6.082,3.835-5.7,1.438-10.679-.972-12.157-1.721-4.1-2.056-3.389-3.389-6.508-4.958-5.228-2.627-8.8.3-20.714.6-6.449.164-9.713.2-11.5-1.983-1.629-1.99-.775-4.177.2-13.6.315-3.146.972-9.733.978-13.49,0-2.22-.768-5.845-2.305-13.1-.092-.427-.926-4.348-1.6-9.575C2168.656,1452.5,2168.741,1451.05,2169.594,1449.73Z" transform="translate(-2142.064 -1434.616)" fill="#fff"/>
            <g id="Grupo_1079346" data-name="Grupo 1079346" transform="translate(43.835 19.528)" opacity="0.15">
              <path id="Trazado_609578" data-name="Trazado 609578" d="M2462.605,1630.03c-2.476-2.345-1.511-4.092-4.229-6.213-2.653-2.069-4.493-1.116-6.062-3.165-1.458-1.9-.276-3.264-1.452-6.049-1.077-2.555-2.745-2.995-5.963-5.852-2.147-1.9-4.971-4.407-6.567-7.75-2.771-5.793-.834-11.979-.177-13.785a20.15,20.15,0,0,1,7.907-9.884c-.151-.158-.322-.342-.512-.532-10.166,1.4-16.09,7.27-16.826,9.011-1.695,4.02.985,5.5,1.057,17.089.033,5.543-.565,7.73,1.235,10.042,2.056,2.647,4.427,1.826,7.4,5.287,2.286,2.66,1.918,4.341,4.052,5.464,2.292,1.2,3.757-.2,6.344.355,4.322.919,5.248,5.9,8.1,8.636,2.161,2.062,6.154,3.507,14.035,1.957a1.1,1.1,0,0,0,.236-.768C2470.972,1632.328,2466.2,1633.432,2462.605,1630.03Z" transform="translate(-2428.163 -1576.8)" fill="url(#linear-gradient-36)"/>
            </g>
            <g id="Grupo_1079347" data-name="Grupo 1079347" transform="translate(33.414 10.907)">
              <path id="Trazado_609579" data-name="Trazado 609579" d="M2270.332,1463.8s11.132-14.54,17.463-16.13a27.289,27.289,0,0,0-16.6-1.478C2270.6,1448.11,2268.257,1456.214,2270.332,1463.8Z" transform="translate(-2269.491 -1445.531)" fill="url(#linear-gradient-37)"/>
            </g>
            <path id="Trazado_609580" data-name="Trazado 609580" d="M2481.669,1498.394c-1.083,2.292,3.881,7.638,9.4,10.173,1.123.519,9.2,4.229,12.8.657,2.975-2.949,1.057-9.05.368-11.23-3.362-10.692-13.693-16.136-18.028-18.094-3.231,8.078-1.327,11.684-.578,12.807a43.073,43.073,0,0,0,5.287,5.812c1.629,1.53,2.647,2.272,2.509,2.509-.171.3-2.082-.263-9.51-3.881A2.943,2.943,0,0,0,2481.669,1498.394Z" transform="translate(-2434.18 -1466.736)" fill="#fff"/>
            <path id="Trazado_609581" data-name="Trazado 609581" d="M2310.994,1358.9s.512,4.1,2.023,5.037,3.96,2.167,4.229,2.5-9.372,1.366-14.146-1.044c1.576-.328,2-.447,2-.447a8.894,8.894,0,0,0,2.023-.8,6.882,6.882,0,0,0,2.226-2.056l-.019-2.266Z" transform="translate(-2267.478 -1353.683)" fill="url(#linear-gradient-38)"/>
            <path id="Trazado_609582" data-name="Trazado 609582" d="M2380.381,1327.289a2.269,2.269,0,0,1-2.535.788c-1.386-.506-.559-4.078.538-4.492a1.93,1.93,0,0,1,1.491.2,2.154,2.154,0,0,1,.677,2.423c.348-.1.657-.007.735.164.1.217-.2.519-.263.584A1.135,1.135,0,0,1,2380.381,1327.289Z" transform="translate(-2336.635 -1320.621)" fill="url(#linear-gradient-39)"/>
            <path id="Trazado_609583" data-name="Trazado 609583" d="M2193.659,1557.253l13.148,1.228a.675.675,0,0,1,.584.486l4.906,17.135a.672.672,0,0,1-.7.854l-13.253-1.169a.682.682,0,0,1-.591-.486l-4.8-17.194A.674.674,0,0,1,2193.659,1557.253Z" transform="translate(-2164.54 -1539.006)" fill="url(#linear-gradient-40)"/>
            <path id="Trazado_609584" data-name="Trazado 609584" d="M2409.89,1676.691s-4.525-4.63-6.37-5.32-.21,4.2.866,4.893a5.061,5.061,0,0,0,2.345,1.058l.841.105,1.1.591S2410.1,1677.847,2409.89,1676.691Z" transform="translate(-2360.523 -1645.572)" fill="url(#linear-gradient-41)"/>
            <path id="Trazado_609585" data-name="Trazado 609585" d="M2202.407,1572.069c-.492-2.706,1.031-4.807-.433-7.349-1.5-2.614-4.15-2.174-6.049-4.321a6.213,6.213,0,0,1-1.412-3.067l-.854-.079a.671.671,0,0,0-.709.847l4.8,17.194a.659.659,0,0,0,.591.486l6.732.591A7.61,7.61,0,0,1,2202.407,1572.069Z" transform="translate(-2164.54 -1539.006)" opacity="0.3" fill="url(#linear-gradient-42)"/>
          </g>
        </g>
      </g>
    </g>
  </g>
</svg>
