<svg xmlns="http://www.w3.org/2000/svg" width="409.999" height="270.77" viewBox="0 0 409.999 270.77">
  <g id="Grupo_1085279" data-name="Grupo 1085279" transform="translate(-390 -22967.535)">
    <g id="Image_Place_Holder" data-name="Image Place Holder" transform="translate(390 22967.535)">
      <rect id="Image_Place_Holder-2" data-name="Image Place Holder" width="400" height="270.769" rx="10" fill="#cadeb4"/>
    </g>
    <g id="Слой_1" transform="translate(435.2 22957.484)">
      <g id="Grupo_1084529" data-name="Grupo 1084529" transform="translate(8.8 23.4)">
        <g id="Grupo_1084526" data-name="Grupo 1084526" transform="translate(42.486 51.041)">
          <rect id="Rectángulo_379415" data-name="Rectángulo 379415" width="31.703" height="44.83" transform="translate(0 148.201)" fill="#12263f"/>
          <rect id="Rectángulo_379416" data-name="Rectángulo 379416" width="31.703" height="64.402" transform="translate(46.177 128.629)" fill="#12263f"/>
          <rect id="Rectángulo_379417" data-name="Rectángulo 379417" width="31.703" height="121.773" transform="translate(92.413 71.259)" fill="#12263f"/>
          <rect id="Rectángulo_379418" data-name="Rectángulo 379418" width="31.703" height="99.739" transform="translate(138.591 93.293)" fill="#12263f"/>
          <rect id="Rectángulo_379419" data-name="Rectángulo 379419" width="31.703" height="192.973" transform="translate(184.827)" fill="#12263f"/>
        </g>
        <g id="Grupo_1084528" data-name="Grupo 1084528">
          <g id="Grupo_1084527" data-name="Grupo 1084527" transform="translate(0 4.688)">
            <path id="Trazado_832516" data-name="Trazado 832516" d="M9.738,233.983,8.8,233.1l28.6-30.472L68.1,205.737l21.507-32.113h31.117l37.036-85.03L196.5,129.674,251.407,31.4l1.055.645-55.729,99.739-38.618-40.9-36.567,84.034H90.314L68.749,207.027l-30.824-3.106Z" transform="translate(-8.8 -31.4)" fill="#12263f"/>
          </g>
          <circle id="Elipse_6669" data-name="Elipse 6669" cx="4.688" cy="4.688" r="4.688" transform="translate(144.533 68.754) rotate(-88.586)" fill="#12263f"/>
          <path id="Trazado_832517" data-name="Trazado 832517" d="M415.7,28.088a4.688,4.688,0,1,1,4.688,4.688A4.7,4.7,0,0,1,415.7,28.088Z" transform="translate(-177.253 -23.4)" fill="#12263f"/>
          <path id="Trazado_832518" data-name="Trazado 832518" d="M139.4,271.888a4.688,4.688,0,1,1,4.688,4.688A4.7,4.7,0,0,1,139.4,271.888Z" transform="translate(-62.867 -124.331)" fill="#12263f"/>
          <path id="Trazado_832519" data-name="Trazado 832519" d="M100.3,326.688a4.688,4.688,0,1,1,4.688,4.688A4.7,4.7,0,0,1,100.3,326.688Z" transform="translate(-46.68 -147.018)" fill="#12263f"/>
        </g>
      </g>
      <path id="Trazado_832520" data-name="Trazado 832520" d="M615.089,247.2a2.524,2.524,0,0,1-1.641.293C613.155,247.434,613.741,247.317,615.089,247.2Z" transform="translate(-250.289 -92.651)" fill="#c5ddff"/>
    </g>
    <path id="Trazado_833689" data-name="Trazado 833689" d="M4.333-12.086l3.1,8.766,3.088-8.766H13.8V0H11.3V-3.3l.249-5.7L8.284,0H6.574L3.32-9,3.569-3.3V0H1.079V-12.086ZM18.345,0H15.938V-8.981h2.407ZM15.8-11.306a1.181,1.181,0,0,1,.361-.888,1.356,1.356,0,0,1,.984-.349,1.36,1.36,0,0,1,.979.349,1.175,1.175,0,0,1,.365.888,1.178,1.178,0,0,1-.369.9,1.363,1.363,0,0,1-.975.349,1.363,1.363,0,0,1-.975-.349A1.178,1.178,0,0,1,15.8-11.306Zm6.732,2.324L22.6-7.944a3.136,3.136,0,0,1,2.582-1.2,2.606,2.606,0,0,1,2.125.838A3.912,3.912,0,0,1,28.023-5.8V0h-2.4V-5.744a1.556,1.556,0,0,0-.332-1.108,1.486,1.486,0,0,0-1.1-.344,1.65,1.65,0,0,0-1.519.863V0h-2.4V-8.981ZM32.373,0H29.966V-8.981h2.407ZM29.825-11.306a1.181,1.181,0,0,1,.361-.888,1.356,1.356,0,0,1,.984-.349,1.36,1.36,0,0,1,.979.349,1.175,1.175,0,0,1,.365.888,1.178,1.178,0,0,1-.369.9,1.363,1.363,0,0,1-.975.349,1.363,1.363,0,0,1-.975-.349A1.178,1.178,0,0,1,29.825-11.306ZM36.6-8.981l.075,1a3.156,3.156,0,0,1,2.582-1.17,2.4,2.4,0,0,1,2.382,1.37,3.084,3.084,0,0,1,2.7-1.37,2.679,2.679,0,0,1,2.175.851,3.911,3.911,0,0,1,.714,2.561V0H44.816V-5.728a1.71,1.71,0,0,0-.3-1.116A1.324,1.324,0,0,0,43.463-7.2a1.5,1.5,0,0,0-1.494,1.029L41.977,0h-2.4V-5.719a1.689,1.689,0,0,0-.307-1.129A1.337,1.337,0,0,0,38.225-7.2a1.555,1.555,0,0,0-1.478.847V0h-2.4V-8.981ZM48.692-4.574a5.327,5.327,0,0,1,.515-2.382,3.767,3.767,0,0,1,1.482-1.619,4.323,4.323,0,0,1,2.245-.573A4.09,4.09,0,0,1,55.9-8.035a4.464,4.464,0,0,1,1.282,3.021L57.2-4.4a4.694,4.694,0,0,1-1.154,3.316,4.011,4.011,0,0,1-3.1,1.249,4.031,4.031,0,0,1-3.1-1.245,4.777,4.777,0,0,1-1.158-3.387Zm2.4.17a3.357,3.357,0,0,0,.481,1.958,1.588,1.588,0,0,0,1.378.678,1.592,1.592,0,0,0,1.361-.669,3.674,3.674,0,0,0,.49-2.141,3.324,3.324,0,0,0-.49-1.945,1.592,1.592,0,0,0-1.378-.69,1.566,1.566,0,0,0-1.361.686A3.735,3.735,0,0,0,51.091-4.4Z" transform="translate(417 23221)" fill="#12263f"/>
    <path id="Trazado_833688" data-name="Trazado 833688" d="M4.333-12.086l3.1,8.766,3.088-8.766H13.8V0H11.3V-3.3l.249-5.7L8.284,0H6.574L3.32-9,3.569-3.3V0H1.079V-12.086ZM21.018,0a2.664,2.664,0,0,1-.241-.805,2.9,2.9,0,0,1-2.266.971A3.189,3.189,0,0,1,16.323-.6a2.456,2.456,0,0,1-.867-1.926,2.538,2.538,0,0,1,1.058-2.191,5.222,5.222,0,0,1,3.059-.772h1.1V-6a1.48,1.48,0,0,0-.32-1,1.257,1.257,0,0,0-1.009-.374,1.429,1.429,0,0,0-.95.291.987.987,0,0,0-.344.8h-2.4a2.41,2.41,0,0,1,.481-1.444A3.182,3.182,0,0,1,17.5-8.77a4.961,4.961,0,0,1,1.976-.378,3.92,3.92,0,0,1,2.635.834,2.918,2.918,0,0,1,.975,2.345v3.893a4.294,4.294,0,0,0,.357,1.934V0ZM19.034-1.668a2.066,2.066,0,0,0,.979-.237,1.554,1.554,0,0,0,.664-.635V-4.084h-.9q-1.8,0-1.917,1.245l-.008.141a.96.96,0,0,0,.315.739A1.225,1.225,0,0,0,19.034-1.668ZM28.347-6.3l1.511-2.681h2.565l-2.557,4.4L32.531,0H29.958l-1.6-2.822L26.762,0H24.18l2.665-4.582L24.3-8.981H26.87ZM36.108,0H33.7V-8.981h2.407ZM33.56-11.306a1.181,1.181,0,0,1,.361-.888,1.356,1.356,0,0,1,.984-.349,1.36,1.36,0,0,1,.979.349,1.175,1.175,0,0,1,.365.888,1.178,1.178,0,0,1-.369.9,1.363,1.363,0,0,1-.975.349,1.363,1.363,0,0,1-.975-.349A1.178,1.178,0,0,1,33.56-11.306Zm6.773,2.324.075,1a3.156,3.156,0,0,1,2.582-1.17,2.4,2.4,0,0,1,2.382,1.37,3.084,3.084,0,0,1,2.7-1.37,2.679,2.679,0,0,1,2.175.851,3.911,3.911,0,0,1,.714,2.561V0H48.551V-5.728a1.71,1.71,0,0,0-.3-1.116A1.324,1.324,0,0,0,47.2-7.2,1.5,1.5,0,0,0,45.7-6.167L45.712,0h-2.4V-5.719a1.689,1.689,0,0,0-.307-1.129A1.337,1.337,0,0,0,41.96-7.2a1.555,1.555,0,0,0-1.478.847V0h-2.4V-8.981ZM52.428-4.574a5.327,5.327,0,0,1,.515-2.382,3.767,3.767,0,0,1,1.482-1.619,4.323,4.323,0,0,1,2.245-.573,4.09,4.09,0,0,1,2.968,1.112,4.464,4.464,0,0,1,1.282,3.021l.017.614a4.694,4.694,0,0,1-1.154,3.316,4.011,4.011,0,0,1-3.1,1.249,4.031,4.031,0,0,1-3.1-1.245,4.777,4.777,0,0,1-1.158-3.387Zm2.4.17a3.357,3.357,0,0,0,.481,1.958,1.588,1.588,0,0,0,1.378.678,1.592,1.592,0,0,0,1.361-.669,3.674,3.674,0,0,0,.49-2.141,3.324,3.324,0,0,0-.49-1.945,1.592,1.592,0,0,0-1.378-.69,1.566,1.566,0,0,0-1.361.686A3.735,3.735,0,0,0,54.827-4.4Z" transform="translate(705 23025)" fill="#12263f"/>
  </g>
</svg>
