<svg xmlns="http://www.w3.org/2000/svg" width="400" height="270.77" viewBox="0 0 400 270.77">
  <g id="Grupo_1085280" data-name="Grupo 1085280" transform="translate(-810 -22967.535)">
    <path id="Image_Place_Holder" data-name="Image Place Holder" d="M10,0H390a10,10,0,0,1,10,10V260.769a10,10,0,0,1-10,10H10a10,10,0,0,1-10-10V10A10,10,0,0,1,10,0Z" transform="translate(810 22967.535)" fill="#cadeb4"/>
    <path id="Trazado_832528" data-name="Trazado 832528" d="M59.937,145.343,88.026,8.328a.739.739,0,0,1,.8-.648H298.733a.688.688,0,0,1,.781.781l.038,3.182a.707.707,0,0,1-.8.8H92.733a.617.617,0,0,0-.667.553L59.4,167.354q-.229,1.115-.629.057l-7.165-74.7a.636.636,0,0,0-.953-.4L34.535,99.074a.58.58,0,0,1-.781-.324l-1.315-3.2a.767.767,0,0,1,.476-1.143l20.6-8.347a.7.7,0,0,1,.934.381h0s5.431,59.342,5.526,58.922Z" transform="translate(855.248 23021.242)" fill="#010101"/>
    <path id="Trazado_832529" data-name="Trazado 832529" d="M126.719,22.15H150.9c.343,0,.629.4.629.9v.076c0,.5-.286.9-.629.9H126.719c-.343,0-.629-.4-.629-.9v-.076C126.09,22.55,126.376,22.15,126.719,22.15Z" transform="translate(940.155 23034.348)" fill="#010101"/>
    <path id="Trazado_832530" data-name="Trazado 832530" d="M75.08,25.379,86.666,42.872a3.334,3.334,0,0,1-.114,4.231L73.441,64.711a.771.771,0,0,0,.61,1.239H92.84a2.615,2.615,0,0,0,1.868-.686,6.184,6.184,0,0,0,2.058-5.355,1.264,1.264,0,0,1,1.182-1.353h.038l1.353-.038c.762,0,1.124.362,1.086,1.105l-.553,10.938a1.058,1.058,0,0,1-1.182,1.124H66.581a1.2,1.2,0,0,1-1.2-1.2,1.255,1.255,0,0,1,.229-.724L81.749,47.846A1.638,1.638,0,0,0,81.807,46L67.3,23.721q-1.029-1.6.858-1.6H98.71a1.021,1.021,0,0,1,1.124,1.143l.1,8.785a1.715,1.715,0,0,1-3.411.172,13.32,13.32,0,0,0-2.858-7.146,2.062,2.062,0,0,0-1.715-.858l-16.122-.21c-1.105,0-1.353.438-.743,1.372Z" transform="translate(885.174 23034.32)" fill="#010101"/>
    <path id="Trazado_832531" data-name="Trazado 832531" d="M58.506,66.83H268.317a.751.751,0,0,1,.686.8v1.315a.751.751,0,0,1-.686.8H58.506a.751.751,0,0,1-.686-.8V67.63A.751.751,0,0,1,58.506,66.83Z" transform="translate(878.327 23074.811)" fill="#010101"/>
    <path id="Trazado_833692" data-name="Trazado 833692" d="M1.516,0V-11.927H3.335v1.7a4.287,4.287,0,0,1,3.8-1.965,4.98,4.98,0,0,1,1.982.387,3.118,3.118,0,0,1,1.353,1.016A3.9,3.9,0,0,1,11.1-9.3a11.575,11.575,0,0,1,.112,1.965V0H9.187V-7.255A5.446,5.446,0,0,0,8.951-9.1a1.943,1.943,0,0,0-.837-.977A2.661,2.661,0,0,0,6.7-10.444a3.275,3.275,0,0,0-2.229.82,4.044,4.044,0,0,0-.938,3.111V0Z" transform="translate(959.129 23051.752)"/>
    <path id="Trazado_833693" data-name="Trazado 833693" d="M1.461-13.524v-2.224H3.395v2.224ZM1.461,0V-11.408H3.395V0Zm15.05-9.26H6.112v-1.8h10.4Zm0,4.78H6.112v-1.8h10.4ZM25.932,0H24V-12.321a9.994,9.994,0,0,1-1.832,1.332,12.983,12.983,0,0,1-2.036,1v-1.869a11.677,11.677,0,0,0,2.836-1.848,7.268,7.268,0,0,0,1.719-2.105h1.246Z" transform="translate(953.412 23131.018)"/>
    <path id="Trazado_833694" data-name="Trazado 833694" d="M9.105-2.294V0H.448a5.962,5.962,0,0,1,.844-2.465A16.406,16.406,0,0,1,4.069-5.555,17.469,17.469,0,0,0,6.117-7.664a2.717,2.717,0,0,0,.51-1.512,1.719,1.719,0,0,0-.444-1.27,1.657,1.657,0,0,0-1.226-.444,1.645,1.645,0,0,0-1.23.466A2.392,2.392,0,0,0,3.2-8.877L.738-9.123a4.035,4.035,0,0,1,1.38-2.927,4.633,4.633,0,0,1,2.9-.888,4.192,4.192,0,0,1,3,1.028,3.373,3.373,0,0,1,1.09,2.558,4.452,4.452,0,0,1-.312,1.657A6.737,6.737,0,0,1,7.8-6.047,15.823,15.823,0,0,1,6.188-4.4Q5.019-3.331,4.707-2.979a4.263,4.263,0,0,0-.505.686Z" transform="translate(1102.243 23071.41)"/>
    <path id="Trazado_833695" data-name="Trazado 833695" d="M1.292-10.6v-2.285h2.47V-10.6Zm0,10.6V-9.334h2.47V0Z" transform="translate(1030.972 23106.664)"/>
    <path id="Trazado_833696" data-name="Trazado 833696" d="M1.912,0V-15.038H4.206V-12.9a5.406,5.406,0,0,1,4.786-2.478,6.279,6.279,0,0,1,2.5.489A3.931,3.931,0,0,1,13.2-13.608a4.919,4.919,0,0,1,.793,1.883,14.6,14.6,0,0,1,.142,2.478V0H11.583V-9.147a6.867,6.867,0,0,0-.3-2.329,2.45,2.45,0,0,0-1.055-1.232,3.356,3.356,0,0,0-1.777-.46,4.129,4.129,0,0,0-2.811,1.034Q4.46-11.1,4.46-8.213V0ZM25.106-6.23V-8.793h7.831V-6.23ZM44.647,0H42.1V-16.242a13.173,13.173,0,0,1-2.414,1.756A17.114,17.114,0,0,1,37-13.169v-2.464a15.393,15.393,0,0,0,3.738-2.436A9.58,9.58,0,0,0,43-20.844h1.643Z" transform="translate(1015.917 23178.313)"/>
    <path id="Trazado_833697" data-name="Trazado 833697" d="M1.3-6.669,3.894-6.9A5.722,5.722,0,0,0,4.751-4.34,4.677,4.677,0,0,0,6.839-2.726a7.91,7.91,0,0,0,3.186.616A7.634,7.634,0,0,0,12.8-2.577a3.85,3.85,0,0,0,1.791-1.281,2.972,2.972,0,0,0,.588-1.777,2.7,2.7,0,0,0-.566-1.706,4.2,4.2,0,0,0-1.869-1.225,36.533,36.533,0,0,0-3.7-1.012,18.884,18.884,0,0,1-4.007-1.3,5.619,5.619,0,0,1-2.216-1.933A4.737,4.737,0,0,1,2.1-15.392a5.276,5.276,0,0,1,.892-2.938A5.524,5.524,0,0,1,5.593-20.4,9.885,9.885,0,0,1,9.4-21.113a10.406,10.406,0,0,1,4.071.743,5.871,5.871,0,0,1,2.712,2.188,6.283,6.283,0,0,1,1.02,3.271l-2.634.2a4.25,4.25,0,0,0-1.437-2.974,5.594,5.594,0,0,0-3.618-1.005,5.806,5.806,0,0,0-3.632.913,2.739,2.739,0,0,0-1.14,2.2,2.361,2.361,0,0,0,.807,1.841q.793.722,4.142,1.48a27.4,27.4,0,0,1,4.595,1.324,6.293,6.293,0,0,1,2.676,2.117,5.157,5.157,0,0,1,.864,2.952,5.647,5.647,0,0,1-.949,3.122A6.247,6.247,0,0,1,14.153-.46a9.5,9.5,0,0,1-4,.814A11.944,11.944,0,0,1,5.43-.467,6.614,6.614,0,0,1,2.443-2.938,7.006,7.006,0,0,1,1.3-6.669Zm33.361-5.537H20.957v-2.379H34.664Zm0,6.3H20.957V-8.284H34.664Z" transform="translate(841.57 23128.441)"/>
    <path id="Trazado_833698" data-name="Trazado 833698" d="M22.932,0l-8.82-14.532,8.61-13.776h-4.2l-3.864,6.636c-1.05,1.806-1.764,3.108-2.562,4.788H11.97c-.756-1.512-1.554-2.94-2.6-4.788L5.628-28.308H1.386L9.7-14.322,1.05,0h4.2l3.4-6.216c1.47-2.478,2.268-3.99,3.066-5.628H11.8c.882,1.638,1.806,3.192,3.276,5.586L18.69,0Z" transform="translate(1067.045 23096.92)"/>
    <path id="Trazado_833699" data-name="Trazado 833699" d="M3.52,4.84A25.965,25.965,0,0,0,8.76-11.48c0-7.88-2.68-13-5.24-16.28H.8A26.516,26.516,0,0,1,5.84-11.52,27.071,27.071,0,0,1,.8,4.84Z" transform="translate(1089.761 23094.92)"/>
    <path id="Trazado_833700" data-name="Trazado 833700" d="M8-28.454A27.062,27.062,0,0,0,2.624-11.685,26.5,26.5,0,0,0,8,4.961h2.829A27.631,27.631,0,0,1,5.658-11.685c0-7.421,2.173-12.751,5.166-16.769ZM34.891,0l-8.61-14.186,8.4-13.448h-4.1l-3.772,6.478c-1.025,1.763-1.722,3.034-2.5,4.674H24.19c-.738-1.476-1.517-2.87-2.542-4.674L18-27.634H13.858l8.118,13.653L13.53,0h4.1l3.321-6.068c1.435-2.419,2.214-3.9,2.993-5.494h.082c.861,1.6,1.763,3.116,3.2,5.453L30.75,0Z" transform="translate(995.889 23095.92)"/>
    <path id="Trazado_833701" data-name="Trazado 833701" d="M0,3V5H20V3Z" transform="translate(1041.739 23073.957)"/>
  </g>
</svg>
