<svg xmlns="http://www.w3.org/2000/svg" width="400" height="270.77" viewBox="0 0 400 270.77">
  <g id="Grupo_1085281" data-name="Grupo 1085281" transform="translate(-390 -23457.535)">
    <rect id="Image_Place_Holder" data-name="Image Place Holder" width="400" height="270.769" rx="10" transform="translate(390 23457.535)" fill="#cadeb4"/>
    <path id="Trazado_832532" data-name="Trazado 832532" d="M127.639,23.99h22.534c.315,0,.589.378.589.841v.063c0,.462-.252.841-.589.841H127.639c-.315,0-.589-.378-.589-.841v-.063C127.05,24.368,127.3,23.99,127.639,23.99Z" transform="translate(547.8 23529.307)" fill="#010101"/>
    <path id="Trazado_832533" data-name="Trazado 832533" d="M78.116,28.826l9.333,14.084a2.692,2.692,0,0,1-.084,3.405L76.812,60.482a.635.635,0,0,0,.126.883.587.587,0,0,0,.378.126H92.452a2.24,2.24,0,0,0,1.513-.547,5,5,0,0,0,1.661-4.309,1.031,1.031,0,0,1,.946-1.093h1.135c.61-.042.9.252.883.862l-.441,8.808a.841.841,0,0,1-.946.9H71.347a.964.964,0,0,1-.967-.967.922.922,0,0,1,.189-.568L83.56,46.945a1.333,1.333,0,0,0,.042-1.492L71.935,27.522c-.547-.862-.315-1.282.694-1.282H97.223a.808.808,0,0,1,.9.925l.084,7.084a1.4,1.4,0,0,1-1.429,1.324,1.354,1.354,0,0,1-1.3-1.177,10.842,10.842,0,0,0-2.291-5.76,1.648,1.648,0,0,0-1.387-.694l-12.991-.168c-.883,0-1.093.357-.589,1.114Z" transform="translate(485.346 23531.787)" fill="#010101"/>
    <path id="Trazado_832534" data-name="Trazado 832534" d="M54,52.61H285.432a.828.828,0,0,1,.757.883v1.45a.828.828,0,0,1-.757.883H54a.828.828,0,0,1-.757-.883v-1.45A.828.828,0,0,1,54,52.61Z" transform="translate(466.457 23560.848)" fill="#010101"/>
    <path id="Trazado_833702" data-name="Trazado 833702" d="M1.364-11.188V-13.6H3.971v2.412ZM1.364,0V-9.853H3.971V0Z" transform="translate(633.923 23604.119)"/>
    <path id="Trazado_833703" data-name="Trazado 833703" d="M1.912,0V-15.038H4.206V-12.9a5.406,5.406,0,0,1,4.786-2.478,6.279,6.279,0,0,1,2.5.489A3.931,3.931,0,0,1,13.2-13.608a4.919,4.919,0,0,1,.793,1.883,14.6,14.6,0,0,1,.142,2.478V0H11.583V-9.147a6.867,6.867,0,0,0-.3-2.329,2.45,2.45,0,0,0-1.055-1.232,3.356,3.356,0,0,0-1.777-.46,4.129,4.129,0,0,0-2.811,1.034Q4.46-11.1,4.46-8.213V0Z" transform="translate(626.965 23642.168)"/>
    <path id="Trazado_833690" data-name="Trazado 833690" d="M2.314,0V-21.475h7.4a17.943,17.943,0,0,1,3.823.308,7.274,7.274,0,0,1,3.149,1.538,8.737,8.737,0,0,1,2.542,3.669,14.4,14.4,0,0,1,.842,5.1A15,15,0,0,1,19.5-6.519a10.519,10.519,0,0,1-1.465,3.127,7.782,7.782,0,0,1-1.956,1.948A7.97,7.97,0,0,1,13.513-.366,14.631,14.631,0,0,1,10.063,0ZM5.156-2.534H9.741a11.126,11.126,0,0,0,3.333-.4A4.768,4.768,0,0,0,15-4.043,6.774,6.774,0,0,0,16.575-6.76a13.285,13.285,0,0,0,.564-4.138,9.993,9.993,0,0,0-1.106-5.178A5.566,5.566,0,0,0,13.345-18.5a11.111,11.111,0,0,0-3.677-.439H5.156ZM23.892,0V-21.475h4.277L33.252-6.27q.7,2.124,1.025,3.179.366-1.172,1.143-3.442l5.142-14.941h3.823V0H41.646V-17.974L35.405,0H32.842L26.631-18.281V0ZM62.5-12.627H48.325v-2.461H62.5Zm0,6.519H48.325V-8.569H62.5Z" transform="translate(425 23627.109)"/>
    <path id="Trazado_833704" data-name="Trazado 833704" d="M24.57,0,15.12-15.57l9.225-14.76h-4.5L15.7-23.22c-1.125,1.935-1.89,3.33-2.745,5.13h-.135c-.81-1.62-1.665-3.15-2.79-5.13l-4-7.11H1.485L10.4-15.345,1.125,0h4.5L9.27-6.66c1.575-2.655,2.43-4.275,3.285-6.03h.09c.945,1.755,1.935,3.42,3.51,5.985L20.025,0Zm5.508,0V-33.644H34.53V0Z" transform="translate(673.715 23593.313)"/>
    <path id="Trazado_833691" data-name="Trazado 833691" d="M4.383,0V-33.644H8.835V0ZM37.628,0l-9.45-15.57L37.4-30.33H32.9l-4.14,7.11c-1.125,1.935-1.89,3.33-2.745,5.13h-.135c-.81-1.62-1.665-3.15-2.79-5.13l-4-7.11H14.543l8.91,14.985L14.183,0h4.5l3.645-6.66c1.575-2.655,2.43-4.275,3.285-6.03h.09c.945,1.755,1.935,3.42,3.51,5.985L33.083,0Z" transform="translate(595.224 23593.313)"/>
    <path id="Trazado_833705" data-name="Trazado 833705" d="M0,3.3V5.5H22V3.3Z" transform="translate(645.799 23568.598)"/>
  </g>
</svg>
