<svg xmlns="http://www.w3.org/2000/svg" width="400" height="270.77" viewBox="0 0 400 270.77">
  <g id="Grupo_1085282" data-name="Grupo 1085282" transform="translate(-810 -23457.535)">
    <path id="Image_Place_Holder" data-name="Image Place Holder" d="M10,0H390a10,10,0,0,1,10,10V260.769a10,10,0,0,1-10,10H10a10,10,0,0,1-10-10V10A10,10,0,0,1,10,0Z" transform="translate(810 23457.535)" fill="#cadeb4"/>
    <path id="Trazado_832535" data-name="Trazado 832535" d="M292.194,24.49h18.619c.264,0,.484.308.484.69v.059c0,.381-.22.69-.484.69H292.194c-.264,0-.484-.308-.484-.69V25.18C291.71,24.8,291.93,24.49,292.194,24.49Z" transform="translate(864.014 23540.1)" fill="#010101"/>
    <path id="Trazado_832536" data-name="Trazado 832536" d="M241.4,28.395l6.515,9.83a1.879,1.879,0,0,1-.059,2.377l-7.366,9.889a.443.443,0,0,0,.088.616.41.41,0,0,0,.264.088h10.564a1.563,1.563,0,0,0,1.056-.381,3.492,3.492,0,0,0,1.159-3.008.719.719,0,0,1,.66-.763h.792c.426-.029.631.176.616.6l-.308,6.148a.587.587,0,0,1-.66.631H236.675a.673.673,0,0,1-.675-.675.644.644,0,0,1,.132-.4l9.067-12.31A.93.93,0,0,0,245.229,40l-8.143-12.515c-.381-.6-.22-.9.484-.9h17.167a.564.564,0,0,1,.631.646l.059,4.945a.975.975,0,0,1-1,.924.945.945,0,0,1-.91-.822,7.567,7.567,0,0,0-1.6-4.02,1.15,1.15,0,0,0-.968-.484l-9.067-.117c-.616,0-.763.249-.411.778Z" transform="translate(837.985 23541.082)" fill="#010101"/>
    <path id="Trazado_832537" data-name="Trazado 832537" d="M233.026,52.96h121.4c.22,0,.4.279.4.616v1.012c0,.337-.176.616-.4.616h-121.4c-.22,0-.4-.279-.4-.616V53.576C232.63,53.239,232.806,52.96,233.026,52.96Z" transform="translate(836.41 23553.402)" fill="#010101"/>
    <path id="Trazado_833709" data-name="Trazado 833709" d="M5.959-11.931l-1.753,6a28.1,28.1,0,0,1,3.777-4.838,3.9,3.9,0,0,1,2.525-1.16,1.462,1.462,0,0,1,1.088.435,1.547,1.547,0,0,1,.428,1.134,8.028,8.028,0,0,1-.382,2.109L10.033-2.7a6.7,6.7,0,0,0-.277,1.173.465.465,0,0,0,.105.31.3.3,0,0,0,.224.125.679.679,0,0,0,.382-.171A8.808,8.808,0,0,0,12-2.953l.409.25a9.908,9.908,0,0,1-2.32,2.5A2.54,2.54,0,0,1,8.714.316a1.038,1.038,0,0,1-.778-.3,1.092,1.092,0,0,1-.29-.8,9.22,9.22,0,0,1,.448-2.175l1.529-5.3A5.9,5.9,0,0,0,9.914-9.8a.568.568,0,0,0-.171-.428.585.585,0,0,0-.422-.165,1.77,1.77,0,0,0-.883.316,7.927,7.927,0,0,0-2.03,1.958A27.622,27.622,0,0,0,4.179-4.627,12.833,12.833,0,0,0,3.151-2.175L2.492,0H.514l2.4-8.253a10.825,10.825,0,0,0,.422-1.793.677.677,0,0,0-.231-.508.8.8,0,0,0-.573-.218,4.918,4.918,0,0,0-.554.053l-.5.079L1.4-11.114Zm8.112,8.064V-5.458h4.86v1.591ZM26.2,0H24.618V-10.081a8.177,8.177,0,0,1-1.5,1.09,10.622,10.622,0,0,1-1.666.817V-9.7a9.554,9.554,0,0,0,2.32-1.512,5.946,5.946,0,0,0,1.406-1.723H26.2Z" transform="translate(1123.709 23627.84)"/>
    <path id="Trazado_833710" data-name="Trazado 833710" d="M.943-4.83,2.82-4.994a4.144,4.144,0,0,0,.62,1.851A3.386,3.386,0,0,0,4.953-1.974a5.728,5.728,0,0,0,2.307.446,5.528,5.528,0,0,0,2.01-.338,2.788,2.788,0,0,0,1.3-.928,2.152,2.152,0,0,0,.426-1.287,1.956,1.956,0,0,0-.41-1.236A3.038,3.038,0,0,0,9.229-6.2a26.455,26.455,0,0,0-2.676-.733,13.674,13.674,0,0,1-2.9-.938,4.069,4.069,0,0,1-1.6-1.4,3.43,3.43,0,0,1-.528-1.871,3.82,3.82,0,0,1,.646-2.128,4,4,0,0,1,1.887-1.5,7.158,7.158,0,0,1,2.758-.513,7.535,7.535,0,0,1,2.948.538,4.252,4.252,0,0,1,1.964,1.584,4.55,4.55,0,0,1,.738,2.369l-1.907.144A3.077,3.077,0,0,0,9.51-12.807a4.051,4.051,0,0,0-2.62-.728,4.2,4.2,0,0,0-2.63.661,1.983,1.983,0,0,0-.825,1.594A1.709,1.709,0,0,0,4.02-9.946a7.92,7.92,0,0,0,3,1.072,19.839,19.839,0,0,1,3.327.959,4.557,4.557,0,0,1,1.938,1.533,3.735,3.735,0,0,1,.625,2.138,4.089,4.089,0,0,1-.687,2.261A4.524,4.524,0,0,1,10.249-.333a6.877,6.877,0,0,1-2.9.59,8.649,8.649,0,0,1-3.42-.595A4.789,4.789,0,0,1,1.769-2.128,5.073,5.073,0,0,1,.943-4.83ZM36.771-8.839H26.845v-1.723h9.926Zm0,4.563H26.845V-6h9.926Z" transform="translate(1026.036 23615.531)"/>
    <path id="Trazado_833711" data-name="Trazado 833711" d="M16.38,0l-6.3-10.38,6.15-9.84h-3l-2.76,4.74c-.75,1.29-1.26,2.22-1.83,3.42H8.55c-.54-1.08-1.11-2.1-1.86-3.42L4.02-20.22H.99l5.94,9.99L.75,0h3L6.18-4.44C7.23-6.21,7.8-7.29,8.37-8.46h.06c.63,1.17,1.29,2.28,2.34,3.99L13.35,0Zm4.209,5.893H18.825A24.672,24.672,0,0,0,22.913-7.246a22.454,22.454,0,0,0-.588-5.1,21.434,21.434,0,0,0-1.3-3.937,46.19,46.19,0,0,0-2.2-4.1h1.764a26.206,26.206,0,0,1,3.8,6.891A18.581,18.581,0,0,1,25.442-7.26,18.612,18.612,0,0,1,24.027-.123,25.036,25.036,0,0,1,20.589,5.893Z" transform="translate(1156.34 23591.688)"/>
    <path id="Trazado_833712" data-name="Trazado 833712" d="M6.549,5.893A24.6,24.6,0,0,1,3.1-.123,18.691,18.691,0,0,1,1.7-7.26a18.581,18.581,0,0,1,1.053-6.234,26.206,26.206,0,0,1,3.8-6.891H8.313q-1.654,2.844-2.187,4.061a22.184,22.184,0,0,0-1.312,3.938,22.869,22.869,0,0,0-.588,5.141A24.672,24.672,0,0,0,8.313,5.893ZM25.7,0,19.4-10.38l6.15-9.84h-3l-2.76,4.74c-.75,1.29-1.26,2.22-1.83,3.42h-.09c-.54-1.08-1.11-2.1-1.86-3.42l-2.67-4.74h-3.03l5.94,9.99L10.074,0h3L15.5-4.44c1.05-1.77,1.62-2.85,2.19-4.02h.06c.63,1.17,1.29,2.28,2.34,3.99L22.674,0Z" transform="translate(1101.569 23591.688)"/>
    <path id="Trazado_833713" data-name="Trazado 833713" d="M0,2.325v1.55H15.5V2.325Z" transform="translate(1136.615 23575.348)"/>
    <path id="Trazado_833714" data-name="Trazado 833714" d="M5.564-1.4V0H.274A3.644,3.644,0,0,1,.79-1.507a10.026,10.026,0,0,1,1.7-1.888A10.676,10.676,0,0,0,3.738-4.684a1.66,1.66,0,0,0,.312-.924,1.05,1.05,0,0,0-.271-.776,1.013,1.013,0,0,0-.749-.271,1,1,0,0,0-.752.285,1.462,1.462,0,0,0-.322.945l-1.5-.15a2.466,2.466,0,0,1,.843-1.789,2.832,2.832,0,0,1,1.772-.542A2.562,2.562,0,0,1,4.9-7.278a2.061,2.061,0,0,1,.666,1.563A2.721,2.721,0,0,1,5.374-4.7,4.117,4.117,0,0,1,4.77-3.7a9.669,9.669,0,0,1-.988,1q-.714.655-.905.87a2.605,2.605,0,0,0-.309.419Z" transform="translate(1183.455 23569.631)"/>
    <path id="Trazado_833715" data-name="Trazado 833715" d="M5.564-1.4V0H.274A3.644,3.644,0,0,1,.79-1.507a10.026,10.026,0,0,1,1.7-1.888A10.676,10.676,0,0,0,3.738-4.684a1.66,1.66,0,0,0,.312-.924,1.05,1.05,0,0,0-.271-.776,1.013,1.013,0,0,0-.749-.271,1,1,0,0,0-.752.285,1.462,1.462,0,0,0-.322.945l-1.5-.15a2.466,2.466,0,0,1,.843-1.789,2.832,2.832,0,0,1,1.772-.542A2.562,2.562,0,0,1,4.9-7.278a2.061,2.061,0,0,1,.666,1.563A2.721,2.721,0,0,1,5.374-4.7,4.117,4.117,0,0,1,4.77-3.7a9.669,9.669,0,0,1-.988,1q-.714.655-.905.87a2.605,2.605,0,0,0-.309.419Z" transform="translate(1041.222 23598.975)"/>
    <path id="Trazado_832538" data-name="Trazado 832538" d="M96.734,24.49h18.619c.264,0,.484.308.484.69v.059c0,.381-.22.69-.484.69H96.734c-.264,0-.484-.308-.484-.69V25.18C96.25,24.8,96.47,24.49,96.734,24.49Z" transform="translate(857.602 23540.1)" fill="#010101"/>
    <path id="Trazado_832539" data-name="Trazado 832539" d="M45.939,28.395l6.514,9.83A1.879,1.879,0,0,1,52.4,40.6L45.03,50.491a.443.443,0,0,0,.088.616.41.41,0,0,0,.264.088H55.946A1.563,1.563,0,0,0,57,50.814a3.492,3.492,0,0,0,1.159-3.008.719.719,0,0,1,.66-.763h.792c.425-.029.631.176.616.6l-.308,6.148a.587.587,0,0,1-.66.631H41.215a.673.673,0,0,1-.675-.675.644.644,0,0,1,.132-.4l9.067-12.31A.93.93,0,0,0,49.769,40L41.626,27.485c-.381-.6-.22-.9.484-.9H59.277a.564.564,0,0,1,.631.646l.059,4.945a.975.975,0,0,1-1,.924.945.945,0,0,1-.91-.822,7.568,7.568,0,0,0-1.6-4.02,1.15,1.15,0,0,0-.968-.484l-9.067-.117c-.616,0-.763.249-.411.778Z" transform="translate(831.573 23541.082)" fill="#010101"/>
    <path id="Trazado_832540" data-name="Trazado 832540" d="M37.566,52.96h121.4c.22,0,.4.279.4.616v1.012c0,.337-.176.616-.4.616H37.566c-.22,0-.4-.279-.4-.616V53.576C37.17,53.239,37.346,52.96,37.566,52.96Z" transform="translate(829.999 23553.402)" fill="#010101"/>
    <path id="Trazado_833716" data-name="Trazado 833716" d="M5.738-11.489,4.05-5.713a27.055,27.055,0,0,1,3.637-4.659,3.755,3.755,0,0,1,2.431-1.117,1.408,1.408,0,0,1,1.047.419,1.489,1.489,0,0,1,.413,1.092,7.731,7.731,0,0,1-.368,2.031L9.661-2.6a6.452,6.452,0,0,0-.267,1.13.447.447,0,0,0,.1.3.286.286,0,0,0,.216.121.654.654,0,0,0,.368-.165,8.482,8.482,0,0,0,1.473-1.625l.394.241A9.541,9.541,0,0,1,9.712-.19a2.446,2.446,0,0,1-1.32.5A1,1,0,0,1,7.643.019a1.051,1.051,0,0,1-.279-.768,8.878,8.878,0,0,1,.432-2.095l1.473-5.1a5.685,5.685,0,0,0,.279-1.485.547.547,0,0,0-.165-.413A.564.564,0,0,0,8.976-10a1.7,1.7,0,0,0-.851.3A7.633,7.633,0,0,0,6.17-7.814,26.6,26.6,0,0,0,4.024-4.456a12.358,12.358,0,0,0-.99,2.361L2.4,0H.5L2.806-7.947a10.424,10.424,0,0,0,.406-1.727.652.652,0,0,0-.222-.489.774.774,0,0,0-.552-.209,4.736,4.736,0,0,0-.533.051l-.482.076L1.346-10.7Z" transform="translate(921.837 23626.84)"/>
    <path id="Trazado_833717" data-name="Trazado 833717" d="M5.445,0V-13.258H.492v-1.774H12.407v1.774H7.434V0ZM34.792-8.839H24.866v-1.723h9.926Zm0,4.563H24.866V-6h9.926Z" transform="translate(824.164 23615.531)"/>
    <path id="Trazado_833708" data-name="Trazado 833708" d="M16.38,0l-6.3-10.38,6.15-9.84h-3l-2.76,4.74c-.75,1.29-1.26,2.22-1.83,3.42H8.55c-.54-1.08-1.11-2.1-1.86-3.42L4.02-20.22H.99l5.94,9.99L.75,0h3L6.18-4.44C7.23-6.21,7.8-7.29,8.37-8.46h.06c.63,1.17,1.29,2.28,2.34,3.99L13.35,0Zm4.209,5.893H18.825A24.672,24.672,0,0,0,22.913-7.246a22.454,22.454,0,0,0-.588-5.1,21.434,21.434,0,0,0-1.3-3.937,46.19,46.19,0,0,0-2.2-4.1h1.764a26.206,26.206,0,0,1,3.8,6.891A18.581,18.581,0,0,1,25.442-7.26,18.612,18.612,0,0,1,24.027-.123,25.036,25.036,0,0,1,20.589,5.893Z" transform="translate(954.469 23591.689)"/>
    <path id="Trazado_833718" data-name="Trazado 833718" d="M6.549,5.893A24.6,24.6,0,0,1,3.1-.123,18.691,18.691,0,0,1,1.7-7.26a18.581,18.581,0,0,1,1.053-6.234,26.206,26.206,0,0,1,3.8-6.891H8.313q-1.654,2.844-2.187,4.061a22.184,22.184,0,0,0-1.312,3.938,22.869,22.869,0,0,0-.588,5.141A24.672,24.672,0,0,0,8.313,5.893ZM25.7,0,19.4-10.38l6.15-9.84h-3l-2.76,4.74c-.75,1.29-1.26,2.22-1.83,3.42h-.09c-.54-1.08-1.11-2.1-1.86-3.42l-2.67-4.74h-3.03l5.94,9.99L10.074,0h3L15.5-4.44c1.05-1.77,1.62-2.85,2.19-4.02h.06c.63,1.17,1.29,2.28,2.34,3.99L22.674,0Z" transform="translate(899.697 23591.689)"/>
    <path id="Trazado_833719" data-name="Trazado 833719" d="M0,2.25v1.5H15V2.25Z" transform="translate(934.998 23575.002)"/>
    <path id="Trazado_833720" data-name="Trazado 833720" d="M5.564-1.4V0H.274A3.644,3.644,0,0,1,.79-1.507a10.026,10.026,0,0,1,1.7-1.888A10.676,10.676,0,0,0,3.738-4.684a1.66,1.66,0,0,0,.312-.924,1.05,1.05,0,0,0-.271-.776,1.013,1.013,0,0,0-.749-.271,1,1,0,0,0-.752.285,1.462,1.462,0,0,0-.322.945l-1.5-.15a2.466,2.466,0,0,1,.843-1.789,2.832,2.832,0,0,1,1.772-.542A2.562,2.562,0,0,1,4.9-7.278a2.061,2.061,0,0,1,.666,1.563A2.721,2.721,0,0,1,5.374-4.7,4.117,4.117,0,0,1,4.77-3.7a9.669,9.669,0,0,1-.988,1q-.714.655-.905.87a2.605,2.605,0,0,0-.309.419Z" transform="translate(981.583 23569.631)"/>
    <path id="Trazado_833721" data-name="Trazado 833721" d="M5.564-1.4V0H.274A3.644,3.644,0,0,1,.79-1.507a10.026,10.026,0,0,1,1.7-1.888A10.676,10.676,0,0,0,3.738-4.684a1.66,1.66,0,0,0,.312-.924,1.05,1.05,0,0,0-.271-.776,1.013,1.013,0,0,0-.749-.271,1,1,0,0,0-.752.285,1.462,1.462,0,0,0-.322.945l-1.5-.15a2.466,2.466,0,0,1,.843-1.789,2.832,2.832,0,0,1,1.772-.542A2.562,2.562,0,0,1,4.9-7.278a2.061,2.061,0,0,1,.666,1.563A2.721,2.721,0,0,1,5.374-4.7,4.117,4.117,0,0,1,4.77-3.7a9.669,9.669,0,0,1-.988,1q-.714.655-.905.87a2.605,2.605,0,0,0-.309.419Z" transform="translate(840.817 23603.377)"/>
    <path id="Trazado_833707" data-name="Trazado 833707" d="M3.359,10.992V15H1.016V3.625H5.453a5.134,5.134,0,0,1,2.254.469A3.454,3.454,0,0,1,9.2,5.426a3.714,3.714,0,0,1,.523,1.965,3.266,3.266,0,0,1-1.145,2.637,4.767,4.767,0,0,1-3.168.965Zm0-1.9H5.453a2.059,2.059,0,0,0,1.418-.437,1.591,1.591,0,0,0,.488-1.25,1.876,1.876,0,0,0-.492-1.352,1.839,1.839,0,0,0-1.359-.531H3.359Zm7.375,1.6a5.013,5.013,0,0,1,.484-2.242A3.546,3.546,0,0,1,12.613,6.93a4.069,4.069,0,0,1,2.113-.539A3.849,3.849,0,0,1,17.52,7.438a4.2,4.2,0,0,1,1.207,2.844l.016.578a4.418,4.418,0,0,1-1.086,3.121,3.775,3.775,0,0,1-2.914,1.176,3.793,3.793,0,0,1-2.918-1.172,4.5,4.5,0,0,1-1.09-3.187Zm2.258.16a3.16,3.16,0,0,0,.453,1.843,1.628,1.628,0,0,0,2.578.008,3.457,3.457,0,0,0,.461-2.015,3.128,3.128,0,0,0-.461-1.831,1.5,1.5,0,0,0-1.3-.649,1.474,1.474,0,0,0-1.281.646A3.516,3.516,0,0,0,12.992,10.856Zm14.758,0a5.119,5.119,0,0,1-.867,3.168,2.872,2.872,0,0,1-2.422,1.137,2.639,2.639,0,0,1-2.2-1.055l-.1.9H20.133V3h2.258V7.3a2.571,2.571,0,0,1,2.055-.914,2.9,2.9,0,0,1,2.426,1.137,5.126,5.126,0,0,1,.879,3.2Zm-2.258-.164a3.363,3.363,0,0,0-.406-1.871,1.374,1.374,0,0,0-1.211-.59,1.489,1.489,0,0,0-1.484.883v3.336a1.509,1.509,0,0,0,1.5.891,1.394,1.394,0,0,0,1.438-1.078A5.562,5.562,0,0,0,25.492,10.688ZM31.523,15H29.258V3h2.266Zm6.758,0a2.507,2.507,0,0,1-.227-.758,2.732,2.732,0,0,1-2.133.914,3,3,0,0,1-2.059-.719,2.312,2.312,0,0,1-.816-1.812,2.389,2.389,0,0,1,1-2.062,4.915,4.915,0,0,1,2.879-.727h1.039V9.352a1.393,1.393,0,0,0-.3-.937,1.183,1.183,0,0,0-.949-.352,1.345,1.345,0,0,0-.895.273.929.929,0,0,0-.324.75H33.234a2.268,2.268,0,0,1,.453-1.359,3,3,0,0,1,1.281-.98,4.669,4.669,0,0,1,1.859-.355,3.689,3.689,0,0,1,2.48.785,2.747,2.747,0,0,1,.918,2.207v3.664a4.041,4.041,0,0,0,.336,1.82V15Zm-1.867-1.57a1.945,1.945,0,0,0,.922-.223,1.462,1.462,0,0,0,.625-.6V11.156h-.844q-1.7,0-1.8,1.172l-.008.133a.9.9,0,0,0,.3.7A1.153,1.153,0,0,0,36.414,13.43Zm9.063-.094a1.481,1.481,0,0,0,1.016-.344,1.2,1.2,0,0,0,.406-.914h2.117a2.9,2.9,0,0,1-.469,1.574,3.093,3.093,0,0,1-1.262,1.109,3.949,3.949,0,0,1-1.77.395A3.67,3.67,0,0,1,42.656,14a4.56,4.56,0,0,1-1.047-3.184v-.148a4.508,4.508,0,0,1,1.039-3.117A3.627,3.627,0,0,1,45.5,6.391a3.555,3.555,0,0,1,2.543.9,3.2,3.2,0,0,1,.973,2.4H46.9a1.551,1.551,0,0,0-.406-1.072,1.51,1.51,0,0,0-2.223.163,3.333,3.333,0,0,0-.4,1.866v.235a3.375,3.375,0,0,0,.4,1.878A1.377,1.377,0,0,0,45.477,13.336ZM52.688,15H50.422V6.547h2.266Zm-2.4-10.641a1.112,1.112,0,0,1,.34-.836,1.465,1.465,0,0,1,1.848,0,1.105,1.105,0,0,1,.344.836,1.108,1.108,0,0,1-.348.844,1.448,1.448,0,0,1-1.836,0A1.108,1.108,0,0,1,50.289,4.359ZM54.2,10.7a5.013,5.013,0,0,1,.484-2.242A3.546,3.546,0,0,1,56.074,6.93a4.069,4.069,0,0,1,2.113-.539A3.849,3.849,0,0,1,60.98,7.438a4.2,4.2,0,0,1,1.207,2.844l.016.578a4.418,4.418,0,0,1-1.086,3.121,4.209,4.209,0,0,1-5.832,0A4.5,4.5,0,0,1,54.2,10.8Zm2.258.16a3.16,3.16,0,0,0,.453,1.843,1.628,1.628,0,0,0,2.578.008,3.457,3.457,0,0,0,.461-2.015,3.128,3.128,0,0,0-.461-1.831,1.5,1.5,0,0,0-1.3-.649,1.474,1.474,0,0,0-1.281.646A3.516,3.516,0,0,0,56.453,10.856ZM58.633,3h2.461L58.93,5.422H57.094Zm7.039,3.547.07.977a2.951,2.951,0,0,1,2.43-1.133,2.453,2.453,0,0,1,2,.789,3.682,3.682,0,0,1,.672,2.359V15H68.586V9.594a1.465,1.465,0,0,0-.312-1.043,1.4,1.4,0,0,0-1.039-.324,1.553,1.553,0,0,0-1.43.813V15H63.547V6.547Z" transform="translate(883.407 23503.484)" fill="#12263f"/>
    <path id="Trazado_833706" data-name="Trazado 833706" d="M4.078,3.625,7,11.875l2.906-8.25h3.078V15H10.633V11.891l.234-5.367L7.8,15H6.188L3.125,6.531l.234,5.359V15H1.016V3.625ZM19.945,14.141a2.831,2.831,0,0,1-2.312,1.016,2.67,2.67,0,0,1-2.074-.781,3.335,3.335,0,0,1-.73-2.289V6.547h2.258v5.467q0,1.322,1.2,1.322a1.63,1.63,0,0,0,1.578-.8V6.547h2.266V15H20.008Zm7.781,1.016A4.15,4.15,0,0,1,24.7,14.016a4.054,4.054,0,0,1-1.168-3.039v-.219a5.106,5.106,0,0,1,.492-2.277,3.612,3.612,0,0,1,1.395-1.547,3.914,3.914,0,0,1,2.059-.543,3.508,3.508,0,0,1,2.73,1.094,4.444,4.444,0,0,1,1,3.1v.922H25.82a2.1,2.1,0,0,0,.66,1.328,2,2,0,0,0,1.395.5,2.437,2.437,0,0,0,2.039-.945l1.109,1.242a3.389,3.389,0,0,1-1.375,1.121A4.511,4.511,0,0,1,27.727,15.156Zm-.258-6.945a1.411,1.411,0,0,0-1.09.455,2.357,2.357,0,0,0-.535,1.3h3.141V9.788a1.681,1.681,0,0,0-.406-1.165A1.456,1.456,0,0,0,27.469,8.211Zm9.594,4.453a.727.727,0,0,0-.41-.652,4.659,4.659,0,0,0-1.316-.426q-3.016-.633-3.016-2.562a2.323,2.323,0,0,1,.934-1.879A3.766,3.766,0,0,1,35.7,6.391a4.053,4.053,0,0,1,2.574.758,2.388,2.388,0,0,1,.965,1.969H36.977a1.092,1.092,0,0,0-.312-.8A1.322,1.322,0,0,0,35.688,8a1.351,1.351,0,0,0-.883.258.814.814,0,0,0-.312.656.7.7,0,0,0,.355.605,3.657,3.657,0,0,0,1.2.4,9.8,9.8,0,0,1,1.422.379,2.336,2.336,0,0,1,1.789,2.273,2.2,2.2,0,0,1-.992,1.871,4.28,4.28,0,0,1-2.562.715,4.47,4.47,0,0,1-1.887-.379,3.166,3.166,0,0,1-1.293-1.039,2.414,2.414,0,0,1-.469-1.426H34.2a1.179,1.179,0,0,0,.445.922,1.766,1.766,0,0,0,1.109.32,1.635,1.635,0,0,0,.98-.246A.766.766,0,0,0,37.063,12.664Zm6.352-8.2V6.547h1.445V8.2H43.414v4.219a1.007,1.007,0,0,0,.18.672.9.9,0,0,0,.688.2,3.6,3.6,0,0,0,.664-.055v1.711a4.648,4.648,0,0,1-1.367.2,2.156,2.156,0,0,1-2.422-2.4V8.2H39.922V6.547h1.234V4.469Zm7.453,4.2a6.134,6.134,0,0,0-.812-.062,1.654,1.654,0,0,0-1.68.867V15H46.117V6.547H48.25l.063,1.008A2.092,2.092,0,0,1,50.2,6.391a2.366,2.366,0,0,1,.7.1ZM56.617,15a2.507,2.507,0,0,1-.227-.758,2.732,2.732,0,0,1-2.133.914,3,3,0,0,1-2.059-.719,2.312,2.312,0,0,1-.816-1.812,2.389,2.389,0,0,1,1-2.062,4.915,4.915,0,0,1,2.879-.727H56.3V9.352a1.393,1.393,0,0,0-.3-.937,1.183,1.183,0,0,0-.949-.352,1.345,1.345,0,0,0-.895.273.929.929,0,0,0-.324.75H51.57a2.268,2.268,0,0,1,.453-1.359,3,3,0,0,1,1.281-.98,4.669,4.669,0,0,1,1.859-.355,3.689,3.689,0,0,1,2.48.785,2.747,2.747,0,0,1,.918,2.207v3.664a4.041,4.041,0,0,0,.336,1.82V15ZM54.75,13.43a1.945,1.945,0,0,0,.922-.223,1.462,1.462,0,0,0,.625-.6V11.156h-.844q-1.7,0-1.8,1.172l-.008.133a.9.9,0,0,0,.3.7A1.153,1.153,0,0,0,54.75,13.43Z" transform="translate(1084.407 23503.484)" fill="#12263f"/>
  </g>
</svg>
